%TF.GenerationSoftware,KiCad,Pcbnew,(5.1.9)-1*%
%TF.CreationDate,2021-04-29T20:48:40-07:00*%
%TF.ProjectId,bbot-pcb,62626f74-2d70-4636-922e-6b696361645f,rev?*%
%TF.SameCoordinates,Original*%
%TF.FileFunction,Legend,Top*%
%TF.FilePolarity,Positive*%
%FSLAX46Y46*%
G04 Gerber Fmt 4.6, Leading zero omitted, Abs format (unit mm)*
G04 Created by KiCad (PCBNEW (5.1.9)-1) date 2021-04-29 20:48:40*
%MOMM*%
%LPD*%
G01*
G04 APERTURE LIST*
%ADD10C,0.150000*%
%ADD11C,0.120000*%
G04 APERTURE END LIST*
D10*
X237799619Y-33607809D02*
X238323428Y-33607809D01*
X238418666Y-33560190D01*
X238466285Y-33464952D01*
X238466285Y-33274476D01*
X238418666Y-33179238D01*
X237847238Y-33607809D02*
X237799619Y-33512571D01*
X237799619Y-33274476D01*
X237847238Y-33179238D01*
X237942476Y-33131619D01*
X238037714Y-33131619D01*
X238132952Y-33179238D01*
X238180571Y-33274476D01*
X238180571Y-33512571D01*
X238228190Y-33607809D01*
X237799619Y-34845904D02*
X238466285Y-34845904D01*
X238275809Y-34845904D02*
X238371047Y-34893523D01*
X238418666Y-34941142D01*
X238466285Y-35036380D01*
X238466285Y-35131619D01*
X237799619Y-35607809D02*
X237847238Y-35512571D01*
X237894857Y-35464952D01*
X237990095Y-35417333D01*
X238275809Y-35417333D01*
X238371047Y-35464952D01*
X238418666Y-35512571D01*
X238466285Y-35607809D01*
X238466285Y-35750666D01*
X238418666Y-35845904D01*
X238371047Y-35893523D01*
X238275809Y-35941142D01*
X237990095Y-35941142D01*
X237894857Y-35893523D01*
X237847238Y-35845904D01*
X237799619Y-35750666D01*
X237799619Y-35607809D01*
X237799619Y-36369714D02*
X238799619Y-36369714D01*
X238418666Y-36369714D02*
X238466285Y-36464952D01*
X238466285Y-36655428D01*
X238418666Y-36750666D01*
X238371047Y-36798285D01*
X238275809Y-36845904D01*
X237990095Y-36845904D01*
X237894857Y-36798285D01*
X237847238Y-36750666D01*
X237799619Y-36655428D01*
X237799619Y-36464952D01*
X237847238Y-36369714D01*
X237799619Y-37417333D02*
X237847238Y-37322095D01*
X237894857Y-37274476D01*
X237990095Y-37226857D01*
X238275809Y-37226857D01*
X238371047Y-37274476D01*
X238418666Y-37322095D01*
X238466285Y-37417333D01*
X238466285Y-37560190D01*
X238418666Y-37655428D01*
X238371047Y-37703047D01*
X238275809Y-37750666D01*
X237990095Y-37750666D01*
X237894857Y-37703047D01*
X237847238Y-37655428D01*
X237799619Y-37560190D01*
X237799619Y-37417333D01*
X238466285Y-38036380D02*
X238466285Y-38417333D01*
X238799619Y-38179238D02*
X237942476Y-38179238D01*
X237847238Y-38226857D01*
X237799619Y-38322095D01*
X237799619Y-38417333D01*
X237799619Y-39655428D02*
X237847238Y-39560190D01*
X237942476Y-39512571D01*
X238799619Y-39512571D01*
X237799619Y-40179238D02*
X237847238Y-40084000D01*
X237894857Y-40036380D01*
X237990095Y-39988761D01*
X238275809Y-39988761D01*
X238371047Y-40036380D01*
X238418666Y-40084000D01*
X238466285Y-40179238D01*
X238466285Y-40322095D01*
X238418666Y-40417333D01*
X238371047Y-40464952D01*
X238275809Y-40512571D01*
X237990095Y-40512571D01*
X237894857Y-40464952D01*
X237847238Y-40417333D01*
X237799619Y-40322095D01*
X237799619Y-40179238D01*
X237799619Y-41084000D02*
X237847238Y-40988761D01*
X237942476Y-40941142D01*
X238799619Y-40941142D01*
X200049142Y-42807380D02*
X200049142Y-41807380D01*
X200049142Y-42188333D02*
X200144380Y-42140714D01*
X200334857Y-42140714D01*
X200430095Y-42188333D01*
X200477714Y-42235952D01*
X200525333Y-42331190D01*
X200525333Y-42616904D01*
X200477714Y-42712142D01*
X200430095Y-42759761D01*
X200334857Y-42807380D01*
X200144380Y-42807380D01*
X200049142Y-42759761D01*
X200953904Y-42807380D02*
X200953904Y-41807380D01*
X200953904Y-42188333D02*
X201049142Y-42140714D01*
X201239619Y-42140714D01*
X201334857Y-42188333D01*
X201382476Y-42235952D01*
X201430095Y-42331190D01*
X201430095Y-42616904D01*
X201382476Y-42712142D01*
X201334857Y-42759761D01*
X201239619Y-42807380D01*
X201049142Y-42807380D01*
X200953904Y-42759761D01*
X202001523Y-42807380D02*
X201906285Y-42759761D01*
X201858666Y-42712142D01*
X201811047Y-42616904D01*
X201811047Y-42331190D01*
X201858666Y-42235952D01*
X201906285Y-42188333D01*
X202001523Y-42140714D01*
X202144380Y-42140714D01*
X202239619Y-42188333D01*
X202287238Y-42235952D01*
X202334857Y-42331190D01*
X202334857Y-42616904D01*
X202287238Y-42712142D01*
X202239619Y-42759761D01*
X202144380Y-42807380D01*
X202001523Y-42807380D01*
X202620571Y-42140714D02*
X203001523Y-42140714D01*
X202763428Y-41807380D02*
X202763428Y-42664523D01*
X202811047Y-42759761D01*
X202906285Y-42807380D01*
X203001523Y-42807380D01*
X204001523Y-42140714D02*
X204239619Y-42807380D01*
X204477714Y-42140714D01*
X204763428Y-41807380D02*
X205382476Y-41807380D01*
X205049142Y-42188333D01*
X205192000Y-42188333D01*
X205287238Y-42235952D01*
X205334857Y-42283571D01*
X205382476Y-42378809D01*
X205382476Y-42616904D01*
X205334857Y-42712142D01*
X205287238Y-42759761D01*
X205192000Y-42807380D01*
X204906285Y-42807380D01*
X204811047Y-42759761D01*
X204763428Y-42712142D01*
X199501523Y-43457380D02*
X199501523Y-44171666D01*
X199453904Y-44314523D01*
X199358666Y-44409761D01*
X199215809Y-44457380D01*
X199120571Y-44457380D01*
X200120571Y-44457380D02*
X200025333Y-44409761D01*
X199977714Y-44362142D01*
X199930095Y-44266904D01*
X199930095Y-43981190D01*
X199977714Y-43885952D01*
X200025333Y-43838333D01*
X200120571Y-43790714D01*
X200263428Y-43790714D01*
X200358666Y-43838333D01*
X200406285Y-43885952D01*
X200453904Y-43981190D01*
X200453904Y-44266904D01*
X200406285Y-44362142D01*
X200358666Y-44409761D01*
X200263428Y-44457380D01*
X200120571Y-44457380D01*
X200834857Y-44409761D02*
X200930095Y-44457380D01*
X201120571Y-44457380D01*
X201215809Y-44409761D01*
X201263428Y-44314523D01*
X201263428Y-44266904D01*
X201215809Y-44171666D01*
X201120571Y-44124047D01*
X200977714Y-44124047D01*
X200882476Y-44076428D01*
X200834857Y-43981190D01*
X200834857Y-43933571D01*
X200882476Y-43838333D01*
X200977714Y-43790714D01*
X201120571Y-43790714D01*
X201215809Y-43838333D01*
X201692000Y-44457380D02*
X201692000Y-43457380D01*
X202120571Y-44457380D02*
X202120571Y-43933571D01*
X202072952Y-43838333D01*
X201977714Y-43790714D01*
X201834857Y-43790714D01*
X201739619Y-43838333D01*
X201692000Y-43885952D01*
X203930095Y-44362142D02*
X203882476Y-44409761D01*
X203739619Y-44457380D01*
X203644380Y-44457380D01*
X203501523Y-44409761D01*
X203406285Y-44314523D01*
X203358666Y-44219285D01*
X203311047Y-44028809D01*
X203311047Y-43885952D01*
X203358666Y-43695476D01*
X203406285Y-43600238D01*
X203501523Y-43505000D01*
X203644380Y-43457380D01*
X203739619Y-43457380D01*
X203882476Y-43505000D01*
X203930095Y-43552619D01*
X204501523Y-44457380D02*
X204406285Y-44409761D01*
X204358666Y-44362142D01*
X204311047Y-44266904D01*
X204311047Y-43981190D01*
X204358666Y-43885952D01*
X204406285Y-43838333D01*
X204501523Y-43790714D01*
X204644380Y-43790714D01*
X204739619Y-43838333D01*
X204787238Y-43885952D01*
X204834857Y-43981190D01*
X204834857Y-44266904D01*
X204787238Y-44362142D01*
X204739619Y-44409761D01*
X204644380Y-44457380D01*
X204501523Y-44457380D01*
X205406285Y-44457380D02*
X205311047Y-44409761D01*
X205263428Y-44314523D01*
X205263428Y-43457380D01*
X206168190Y-44409761D02*
X206072952Y-44457380D01*
X205882476Y-44457380D01*
X205787238Y-44409761D01*
X205739619Y-44314523D01*
X205739619Y-43933571D01*
X205787238Y-43838333D01*
X205882476Y-43790714D01*
X206072952Y-43790714D01*
X206168190Y-43838333D01*
X206215809Y-43933571D01*
X206215809Y-44028809D01*
X205739619Y-44124047D01*
X232513142Y-70929142D02*
X232560761Y-70881523D01*
X232608380Y-70929142D01*
X232560761Y-70976761D01*
X232513142Y-70929142D01*
X232608380Y-70929142D01*
X231608380Y-70262476D02*
X231608380Y-70167238D01*
X231656000Y-70072000D01*
X231703619Y-70024380D01*
X231798857Y-69976761D01*
X231989333Y-69929142D01*
X232227428Y-69929142D01*
X232417904Y-69976761D01*
X232513142Y-70024380D01*
X232560761Y-70072000D01*
X232608380Y-70167238D01*
X232608380Y-70262476D01*
X232560761Y-70357714D01*
X232513142Y-70405333D01*
X232417904Y-70452952D01*
X232227428Y-70500571D01*
X231989333Y-70500571D01*
X231798857Y-70452952D01*
X231703619Y-70405333D01*
X231656000Y-70357714D01*
X231608380Y-70262476D01*
X231608380Y-69310095D02*
X231608380Y-69214857D01*
X231656000Y-69119619D01*
X231703619Y-69072000D01*
X231798857Y-69024380D01*
X231989333Y-68976761D01*
X232227428Y-68976761D01*
X232417904Y-69024380D01*
X232513142Y-69072000D01*
X232560761Y-69119619D01*
X232608380Y-69214857D01*
X232608380Y-69310095D01*
X232560761Y-69405333D01*
X232513142Y-69452952D01*
X232417904Y-69500571D01*
X232227428Y-69548190D01*
X231989333Y-69548190D01*
X231798857Y-69500571D01*
X231703619Y-69452952D01*
X231656000Y-69405333D01*
X231608380Y-69310095D01*
X231941714Y-68119619D02*
X232608380Y-68119619D01*
X231560761Y-68357714D02*
X232275047Y-68595809D01*
X232275047Y-67976761D01*
X231608380Y-67691047D02*
X231608380Y-67024380D01*
X232608380Y-67452952D01*
X232608380Y-66643428D02*
X231941714Y-66643428D01*
X232036952Y-66643428D02*
X231989333Y-66595809D01*
X231941714Y-66500571D01*
X231941714Y-66357714D01*
X231989333Y-66262476D01*
X232084571Y-66214857D01*
X232608380Y-66214857D01*
X232084571Y-66214857D02*
X231989333Y-66167238D01*
X231941714Y-66072000D01*
X231941714Y-65929142D01*
X231989333Y-65833904D01*
X232084571Y-65786285D01*
X232608380Y-65786285D01*
X231941714Y-65452952D02*
X231941714Y-65072000D01*
X232608380Y-65310095D02*
X231751238Y-65310095D01*
X231656000Y-65262476D01*
X231608380Y-65167238D01*
X231608380Y-65072000D01*
%TO.C,U4*%
X187706000Y-86360000D02*
X187706000Y-55880000D01*
X187706000Y-86360000D02*
X182626000Y-86360000D01*
X182626000Y-86360000D02*
X182626000Y-88900000D01*
X182626000Y-88900000D02*
X175006000Y-88900000D01*
X175006000Y-88900000D02*
X175006000Y-86360000D01*
X175006000Y-86360000D02*
X169926000Y-86360000D01*
X169926000Y-86360000D02*
X169926000Y-55880000D01*
X169926000Y-55880000D02*
X187706000Y-55880000D01*
D11*
%TO.C,BatteryPack1*%
X216916000Y-88392000D02*
X216916000Y-80772000D01*
X228092000Y-88392000D02*
X216916000Y-88392000D01*
X228092000Y-80772000D02*
X228092000Y-88392000D01*
X216916000Y-80772000D02*
X228092000Y-80772000D01*
X225604000Y-86036000D02*
X225604000Y-85936000D01*
%TO.C,C2*%
X228450000Y-70406000D02*
X231290000Y-70406000D01*
X231290000Y-70406000D02*
X231290000Y-66366000D01*
X231290000Y-66366000D02*
X228450000Y-66366000D01*
X228450000Y-66366000D02*
X228450000Y-70406000D01*
X229870000Y-71096000D02*
X229870000Y-70406000D01*
X229870000Y-65676000D02*
X229870000Y-66366000D01*
%TO.C,C4*%
X219675225Y-48821000D02*
X219675225Y-49321000D01*
X219425225Y-49071000D02*
X219925225Y-49071000D01*
X224831000Y-50262000D02*
X224831000Y-50830000D01*
X224791000Y-50028000D02*
X224791000Y-51064000D01*
X224751000Y-49869000D02*
X224751000Y-51223000D01*
X224711000Y-49741000D02*
X224711000Y-51351000D01*
X224671000Y-49631000D02*
X224671000Y-51461000D01*
X224631000Y-49535000D02*
X224631000Y-51557000D01*
X224591000Y-49448000D02*
X224591000Y-51644000D01*
X224551000Y-49368000D02*
X224551000Y-51724000D01*
X224511000Y-51586000D02*
X224511000Y-51797000D01*
X224511000Y-49295000D02*
X224511000Y-49506000D01*
X224471000Y-51586000D02*
X224471000Y-51865000D01*
X224471000Y-49227000D02*
X224471000Y-49506000D01*
X224431000Y-51586000D02*
X224431000Y-51929000D01*
X224431000Y-49163000D02*
X224431000Y-49506000D01*
X224391000Y-51586000D02*
X224391000Y-51989000D01*
X224391000Y-49103000D02*
X224391000Y-49506000D01*
X224351000Y-51586000D02*
X224351000Y-52046000D01*
X224351000Y-49046000D02*
X224351000Y-49506000D01*
X224311000Y-51586000D02*
X224311000Y-52100000D01*
X224311000Y-48992000D02*
X224311000Y-49506000D01*
X224271000Y-51586000D02*
X224271000Y-52151000D01*
X224271000Y-48941000D02*
X224271000Y-49506000D01*
X224231000Y-51586000D02*
X224231000Y-52199000D01*
X224231000Y-48893000D02*
X224231000Y-49506000D01*
X224191000Y-51586000D02*
X224191000Y-52245000D01*
X224191000Y-48847000D02*
X224191000Y-49506000D01*
X224151000Y-51586000D02*
X224151000Y-52289000D01*
X224151000Y-48803000D02*
X224151000Y-49506000D01*
X224111000Y-51586000D02*
X224111000Y-52331000D01*
X224111000Y-48761000D02*
X224111000Y-49506000D01*
X224071000Y-51586000D02*
X224071000Y-52372000D01*
X224071000Y-48720000D02*
X224071000Y-49506000D01*
X224031000Y-51586000D02*
X224031000Y-52410000D01*
X224031000Y-48682000D02*
X224031000Y-49506000D01*
X223991000Y-51586000D02*
X223991000Y-52447000D01*
X223991000Y-48645000D02*
X223991000Y-49506000D01*
X223951000Y-51586000D02*
X223951000Y-52483000D01*
X223951000Y-48609000D02*
X223951000Y-49506000D01*
X223911000Y-51586000D02*
X223911000Y-52517000D01*
X223911000Y-48575000D02*
X223911000Y-49506000D01*
X223871000Y-51586000D02*
X223871000Y-52550000D01*
X223871000Y-48542000D02*
X223871000Y-49506000D01*
X223831000Y-51586000D02*
X223831000Y-52581000D01*
X223831000Y-48511000D02*
X223831000Y-49506000D01*
X223791000Y-51586000D02*
X223791000Y-52611000D01*
X223791000Y-48481000D02*
X223791000Y-49506000D01*
X223751000Y-51586000D02*
X223751000Y-52641000D01*
X223751000Y-48451000D02*
X223751000Y-49506000D01*
X223711000Y-51586000D02*
X223711000Y-52668000D01*
X223711000Y-48424000D02*
X223711000Y-49506000D01*
X223671000Y-51586000D02*
X223671000Y-52695000D01*
X223671000Y-48397000D02*
X223671000Y-49506000D01*
X223631000Y-51586000D02*
X223631000Y-52721000D01*
X223631000Y-48371000D02*
X223631000Y-49506000D01*
X223591000Y-51586000D02*
X223591000Y-52746000D01*
X223591000Y-48346000D02*
X223591000Y-49506000D01*
X223551000Y-51586000D02*
X223551000Y-52770000D01*
X223551000Y-48322000D02*
X223551000Y-49506000D01*
X223511000Y-51586000D02*
X223511000Y-52793000D01*
X223511000Y-48299000D02*
X223511000Y-49506000D01*
X223471000Y-51586000D02*
X223471000Y-52814000D01*
X223471000Y-48278000D02*
X223471000Y-49506000D01*
X223431000Y-51586000D02*
X223431000Y-52836000D01*
X223431000Y-48256000D02*
X223431000Y-49506000D01*
X223391000Y-51586000D02*
X223391000Y-52856000D01*
X223391000Y-48236000D02*
X223391000Y-49506000D01*
X223351000Y-51586000D02*
X223351000Y-52875000D01*
X223351000Y-48217000D02*
X223351000Y-49506000D01*
X223311000Y-51586000D02*
X223311000Y-52894000D01*
X223311000Y-48198000D02*
X223311000Y-49506000D01*
X223271000Y-51586000D02*
X223271000Y-52911000D01*
X223271000Y-48181000D02*
X223271000Y-49506000D01*
X223231000Y-51586000D02*
X223231000Y-52928000D01*
X223231000Y-48164000D02*
X223231000Y-49506000D01*
X223191000Y-51586000D02*
X223191000Y-52944000D01*
X223191000Y-48148000D02*
X223191000Y-49506000D01*
X223151000Y-51586000D02*
X223151000Y-52960000D01*
X223151000Y-48132000D02*
X223151000Y-49506000D01*
X223111000Y-51586000D02*
X223111000Y-52974000D01*
X223111000Y-48118000D02*
X223111000Y-49506000D01*
X223071000Y-51586000D02*
X223071000Y-52988000D01*
X223071000Y-48104000D02*
X223071000Y-49506000D01*
X223031000Y-51586000D02*
X223031000Y-53001000D01*
X223031000Y-48091000D02*
X223031000Y-49506000D01*
X222991000Y-51586000D02*
X222991000Y-53014000D01*
X222991000Y-48078000D02*
X222991000Y-49506000D01*
X222951000Y-51586000D02*
X222951000Y-53026000D01*
X222951000Y-48066000D02*
X222951000Y-49506000D01*
X222910000Y-51586000D02*
X222910000Y-53037000D01*
X222910000Y-48055000D02*
X222910000Y-49506000D01*
X222870000Y-51586000D02*
X222870000Y-53047000D01*
X222870000Y-48045000D02*
X222870000Y-49506000D01*
X222830000Y-51586000D02*
X222830000Y-53057000D01*
X222830000Y-48035000D02*
X222830000Y-49506000D01*
X222790000Y-51586000D02*
X222790000Y-53066000D01*
X222790000Y-48026000D02*
X222790000Y-49506000D01*
X222750000Y-51586000D02*
X222750000Y-53074000D01*
X222750000Y-48018000D02*
X222750000Y-49506000D01*
X222710000Y-51586000D02*
X222710000Y-53082000D01*
X222710000Y-48010000D02*
X222710000Y-49506000D01*
X222670000Y-51586000D02*
X222670000Y-53089000D01*
X222670000Y-48003000D02*
X222670000Y-49506000D01*
X222630000Y-51586000D02*
X222630000Y-53096000D01*
X222630000Y-47996000D02*
X222630000Y-49506000D01*
X222590000Y-51586000D02*
X222590000Y-53102000D01*
X222590000Y-47990000D02*
X222590000Y-49506000D01*
X222550000Y-51586000D02*
X222550000Y-53107000D01*
X222550000Y-47985000D02*
X222550000Y-49506000D01*
X222510000Y-51586000D02*
X222510000Y-53111000D01*
X222510000Y-47981000D02*
X222510000Y-49506000D01*
X222470000Y-51586000D02*
X222470000Y-53115000D01*
X222470000Y-47977000D02*
X222470000Y-49506000D01*
X222430000Y-47973000D02*
X222430000Y-53119000D01*
X222390000Y-47970000D02*
X222390000Y-53122000D01*
X222350000Y-47968000D02*
X222350000Y-53124000D01*
X222310000Y-47967000D02*
X222310000Y-53125000D01*
X222270000Y-47966000D02*
X222270000Y-53126000D01*
X222230000Y-47966000D02*
X222230000Y-53126000D01*
X224850000Y-50546000D02*
G75*
G03*
X224850000Y-50546000I-2620000J0D01*
G01*
%TO.C,C5*%
X224850000Y-59436000D02*
G75*
G03*
X224850000Y-59436000I-2620000J0D01*
G01*
X222230000Y-56856000D02*
X222230000Y-62016000D01*
X222270000Y-56856000D02*
X222270000Y-62016000D01*
X222310000Y-56857000D02*
X222310000Y-62015000D01*
X222350000Y-56858000D02*
X222350000Y-62014000D01*
X222390000Y-56860000D02*
X222390000Y-62012000D01*
X222430000Y-56863000D02*
X222430000Y-62009000D01*
X222470000Y-56867000D02*
X222470000Y-58396000D01*
X222470000Y-60476000D02*
X222470000Y-62005000D01*
X222510000Y-56871000D02*
X222510000Y-58396000D01*
X222510000Y-60476000D02*
X222510000Y-62001000D01*
X222550000Y-56875000D02*
X222550000Y-58396000D01*
X222550000Y-60476000D02*
X222550000Y-61997000D01*
X222590000Y-56880000D02*
X222590000Y-58396000D01*
X222590000Y-60476000D02*
X222590000Y-61992000D01*
X222630000Y-56886000D02*
X222630000Y-58396000D01*
X222630000Y-60476000D02*
X222630000Y-61986000D01*
X222670000Y-56893000D02*
X222670000Y-58396000D01*
X222670000Y-60476000D02*
X222670000Y-61979000D01*
X222710000Y-56900000D02*
X222710000Y-58396000D01*
X222710000Y-60476000D02*
X222710000Y-61972000D01*
X222750000Y-56908000D02*
X222750000Y-58396000D01*
X222750000Y-60476000D02*
X222750000Y-61964000D01*
X222790000Y-56916000D02*
X222790000Y-58396000D01*
X222790000Y-60476000D02*
X222790000Y-61956000D01*
X222830000Y-56925000D02*
X222830000Y-58396000D01*
X222830000Y-60476000D02*
X222830000Y-61947000D01*
X222870000Y-56935000D02*
X222870000Y-58396000D01*
X222870000Y-60476000D02*
X222870000Y-61937000D01*
X222910000Y-56945000D02*
X222910000Y-58396000D01*
X222910000Y-60476000D02*
X222910000Y-61927000D01*
X222951000Y-56956000D02*
X222951000Y-58396000D01*
X222951000Y-60476000D02*
X222951000Y-61916000D01*
X222991000Y-56968000D02*
X222991000Y-58396000D01*
X222991000Y-60476000D02*
X222991000Y-61904000D01*
X223031000Y-56981000D02*
X223031000Y-58396000D01*
X223031000Y-60476000D02*
X223031000Y-61891000D01*
X223071000Y-56994000D02*
X223071000Y-58396000D01*
X223071000Y-60476000D02*
X223071000Y-61878000D01*
X223111000Y-57008000D02*
X223111000Y-58396000D01*
X223111000Y-60476000D02*
X223111000Y-61864000D01*
X223151000Y-57022000D02*
X223151000Y-58396000D01*
X223151000Y-60476000D02*
X223151000Y-61850000D01*
X223191000Y-57038000D02*
X223191000Y-58396000D01*
X223191000Y-60476000D02*
X223191000Y-61834000D01*
X223231000Y-57054000D02*
X223231000Y-58396000D01*
X223231000Y-60476000D02*
X223231000Y-61818000D01*
X223271000Y-57071000D02*
X223271000Y-58396000D01*
X223271000Y-60476000D02*
X223271000Y-61801000D01*
X223311000Y-57088000D02*
X223311000Y-58396000D01*
X223311000Y-60476000D02*
X223311000Y-61784000D01*
X223351000Y-57107000D02*
X223351000Y-58396000D01*
X223351000Y-60476000D02*
X223351000Y-61765000D01*
X223391000Y-57126000D02*
X223391000Y-58396000D01*
X223391000Y-60476000D02*
X223391000Y-61746000D01*
X223431000Y-57146000D02*
X223431000Y-58396000D01*
X223431000Y-60476000D02*
X223431000Y-61726000D01*
X223471000Y-57168000D02*
X223471000Y-58396000D01*
X223471000Y-60476000D02*
X223471000Y-61704000D01*
X223511000Y-57189000D02*
X223511000Y-58396000D01*
X223511000Y-60476000D02*
X223511000Y-61683000D01*
X223551000Y-57212000D02*
X223551000Y-58396000D01*
X223551000Y-60476000D02*
X223551000Y-61660000D01*
X223591000Y-57236000D02*
X223591000Y-58396000D01*
X223591000Y-60476000D02*
X223591000Y-61636000D01*
X223631000Y-57261000D02*
X223631000Y-58396000D01*
X223631000Y-60476000D02*
X223631000Y-61611000D01*
X223671000Y-57287000D02*
X223671000Y-58396000D01*
X223671000Y-60476000D02*
X223671000Y-61585000D01*
X223711000Y-57314000D02*
X223711000Y-58396000D01*
X223711000Y-60476000D02*
X223711000Y-61558000D01*
X223751000Y-57341000D02*
X223751000Y-58396000D01*
X223751000Y-60476000D02*
X223751000Y-61531000D01*
X223791000Y-57371000D02*
X223791000Y-58396000D01*
X223791000Y-60476000D02*
X223791000Y-61501000D01*
X223831000Y-57401000D02*
X223831000Y-58396000D01*
X223831000Y-60476000D02*
X223831000Y-61471000D01*
X223871000Y-57432000D02*
X223871000Y-58396000D01*
X223871000Y-60476000D02*
X223871000Y-61440000D01*
X223911000Y-57465000D02*
X223911000Y-58396000D01*
X223911000Y-60476000D02*
X223911000Y-61407000D01*
X223951000Y-57499000D02*
X223951000Y-58396000D01*
X223951000Y-60476000D02*
X223951000Y-61373000D01*
X223991000Y-57535000D02*
X223991000Y-58396000D01*
X223991000Y-60476000D02*
X223991000Y-61337000D01*
X224031000Y-57572000D02*
X224031000Y-58396000D01*
X224031000Y-60476000D02*
X224031000Y-61300000D01*
X224071000Y-57610000D02*
X224071000Y-58396000D01*
X224071000Y-60476000D02*
X224071000Y-61262000D01*
X224111000Y-57651000D02*
X224111000Y-58396000D01*
X224111000Y-60476000D02*
X224111000Y-61221000D01*
X224151000Y-57693000D02*
X224151000Y-58396000D01*
X224151000Y-60476000D02*
X224151000Y-61179000D01*
X224191000Y-57737000D02*
X224191000Y-58396000D01*
X224191000Y-60476000D02*
X224191000Y-61135000D01*
X224231000Y-57783000D02*
X224231000Y-58396000D01*
X224231000Y-60476000D02*
X224231000Y-61089000D01*
X224271000Y-57831000D02*
X224271000Y-58396000D01*
X224271000Y-60476000D02*
X224271000Y-61041000D01*
X224311000Y-57882000D02*
X224311000Y-58396000D01*
X224311000Y-60476000D02*
X224311000Y-60990000D01*
X224351000Y-57936000D02*
X224351000Y-58396000D01*
X224351000Y-60476000D02*
X224351000Y-60936000D01*
X224391000Y-57993000D02*
X224391000Y-58396000D01*
X224391000Y-60476000D02*
X224391000Y-60879000D01*
X224431000Y-58053000D02*
X224431000Y-58396000D01*
X224431000Y-60476000D02*
X224431000Y-60819000D01*
X224471000Y-58117000D02*
X224471000Y-58396000D01*
X224471000Y-60476000D02*
X224471000Y-60755000D01*
X224511000Y-58185000D02*
X224511000Y-58396000D01*
X224511000Y-60476000D02*
X224511000Y-60687000D01*
X224551000Y-58258000D02*
X224551000Y-60614000D01*
X224591000Y-58338000D02*
X224591000Y-60534000D01*
X224631000Y-58425000D02*
X224631000Y-60447000D01*
X224671000Y-58521000D02*
X224671000Y-60351000D01*
X224711000Y-58631000D02*
X224711000Y-60241000D01*
X224751000Y-58759000D02*
X224751000Y-60113000D01*
X224791000Y-58918000D02*
X224791000Y-59954000D01*
X224831000Y-59152000D02*
X224831000Y-59720000D01*
X219425225Y-57961000D02*
X219925225Y-57961000D01*
X219675225Y-57711000D02*
X219675225Y-58211000D01*
%TO.C,MOSFET1*%
X223520000Y-66040000D02*
X220980000Y-66040000D01*
X220980000Y-66040000D02*
X220980000Y-73152000D01*
X220980000Y-73152000D02*
X223520000Y-73152000D01*
X223520000Y-73152000D02*
X223520000Y-66040000D01*
%TO.C,MOTOR1_L293D1*%
X194250000Y-53230000D02*
X194250000Y-54880000D01*
X214690000Y-53230000D02*
X194250000Y-53230000D01*
X214690000Y-58530000D02*
X214690000Y-53230000D01*
X194250000Y-58530000D02*
X214690000Y-58530000D01*
X194250000Y-56880000D02*
X194250000Y-58530000D01*
X194250000Y-54880000D02*
G75*
G02*
X194250000Y-56880000I0J-1000000D01*
G01*
%TO.C,MOTOR2_L293D1*%
X194250000Y-67580000D02*
G75*
G02*
X194250000Y-69580000I0J-1000000D01*
G01*
X194250000Y-69580000D02*
X194250000Y-71230000D01*
X194250000Y-71230000D02*
X214690000Y-71230000D01*
X214690000Y-71230000D02*
X214690000Y-65930000D01*
X214690000Y-65930000D02*
X194250000Y-65930000D01*
X194250000Y-65930000D02*
X194250000Y-67580000D01*
%TO.C,PowerSwitch1*%
X238304000Y-86036000D02*
X238304000Y-85936000D01*
X229616000Y-80772000D02*
X240792000Y-80772000D01*
X240792000Y-80772000D02*
X240792000Y-88392000D01*
X240792000Y-88392000D02*
X229616000Y-88392000D01*
X229616000Y-88392000D02*
X229616000Y-80772000D01*
%TO.C,R1*%
X231044000Y-57404000D02*
G75*
G03*
X231044000Y-57404000I-920000J0D01*
G01*
X230124000Y-58324000D02*
X230124000Y-58944000D01*
%TO.C,R2*%
X230124000Y-50196000D02*
X230124000Y-50816000D01*
X231044000Y-49276000D02*
G75*
G03*
X231044000Y-49276000I-920000J0D01*
G01*
%TO.C,SHIFT_REGISTER1*%
X168850000Y-44848000D02*
X168850000Y-46498000D01*
X189290000Y-44848000D02*
X168850000Y-44848000D01*
X189290000Y-50148000D02*
X189290000Y-44848000D01*
X168850000Y-50148000D02*
X189290000Y-50148000D01*
X168850000Y-48498000D02*
X168850000Y-50148000D01*
X168850000Y-46498000D02*
G75*
G02*
X168850000Y-48498000I0J-1000000D01*
G01*
%TO.C,U1*%
X214590000Y-83820000D02*
X214590000Y-77320000D01*
X214590000Y-77320000D02*
X194590000Y-77320000D01*
X194590000Y-77320000D02*
X194590000Y-90320000D01*
X194590000Y-90320000D02*
X214590000Y-90320000D01*
X214590000Y-90320000D02*
X214590000Y-83820000D01*
%TO.C,U2*%
X235712000Y-73406000D02*
X235458000Y-73406000D01*
X240538000Y-73406000D02*
X235712000Y-73406000D01*
X240538000Y-58420000D02*
X240538000Y-73406000D01*
X235458000Y-58420000D02*
X240538000Y-58420000D01*
X235458000Y-73406000D02*
X235458000Y-58420000D01*
%TO.C,U3*%
X235672000Y-44092000D02*
X235672000Y-37592000D01*
X215672000Y-44092000D02*
X235672000Y-44092000D01*
X215672000Y-31092000D02*
X215672000Y-44092000D01*
X235672000Y-31092000D02*
X215672000Y-31092000D01*
X235672000Y-37592000D02*
X235672000Y-31092000D01*
%TO.C,REF\u002A\u002A*%
D10*
X201358666Y-33028380D02*
X201025333Y-32552190D01*
X200787238Y-33028380D02*
X200787238Y-32028380D01*
X201168190Y-32028380D01*
X201263428Y-32076000D01*
X201311047Y-32123619D01*
X201358666Y-32218857D01*
X201358666Y-32361714D01*
X201311047Y-32456952D01*
X201263428Y-32504571D01*
X201168190Y-32552190D01*
X200787238Y-32552190D01*
X201787238Y-32504571D02*
X202120571Y-32504571D01*
X202263428Y-33028380D02*
X201787238Y-33028380D01*
X201787238Y-32028380D01*
X202263428Y-32028380D01*
X203025333Y-32504571D02*
X202692000Y-32504571D01*
X202692000Y-33028380D02*
X202692000Y-32028380D01*
X203168190Y-32028380D01*
X203692000Y-32028380D02*
X203692000Y-32266476D01*
X203453904Y-32171238D02*
X203692000Y-32266476D01*
X203930095Y-32171238D01*
X203549142Y-32456952D02*
X203692000Y-32266476D01*
X203834857Y-32456952D01*
X204453904Y-32028380D02*
X204453904Y-32266476D01*
X204215809Y-32171238D02*
X204453904Y-32266476D01*
X204692000Y-32171238D01*
X204311047Y-32456952D02*
X204453904Y-32266476D01*
X204596761Y-32456952D01*
%TO.C,BatteryPack1*%
X214614666Y-79684571D02*
X214757523Y-79732190D01*
X214805142Y-79779809D01*
X214852761Y-79875047D01*
X214852761Y-80017904D01*
X214805142Y-80113142D01*
X214757523Y-80160761D01*
X214662285Y-80208380D01*
X214281333Y-80208380D01*
X214281333Y-79208380D01*
X214614666Y-79208380D01*
X214709904Y-79256000D01*
X214757523Y-79303619D01*
X214805142Y-79398857D01*
X214805142Y-79494095D01*
X214757523Y-79589333D01*
X214709904Y-79636952D01*
X214614666Y-79684571D01*
X214281333Y-79684571D01*
X215709904Y-80208380D02*
X215709904Y-79684571D01*
X215662285Y-79589333D01*
X215567047Y-79541714D01*
X215376571Y-79541714D01*
X215281333Y-79589333D01*
X215709904Y-80160761D02*
X215614666Y-80208380D01*
X215376571Y-80208380D01*
X215281333Y-80160761D01*
X215233714Y-80065523D01*
X215233714Y-79970285D01*
X215281333Y-79875047D01*
X215376571Y-79827428D01*
X215614666Y-79827428D01*
X215709904Y-79779809D01*
X216043238Y-79541714D02*
X216424190Y-79541714D01*
X216186095Y-79208380D02*
X216186095Y-80065523D01*
X216233714Y-80160761D01*
X216328952Y-80208380D01*
X216424190Y-80208380D01*
X216614666Y-79541714D02*
X216995619Y-79541714D01*
X216757523Y-79208380D02*
X216757523Y-80065523D01*
X216805142Y-80160761D01*
X216900380Y-80208380D01*
X216995619Y-80208380D01*
X217709904Y-80160761D02*
X217614666Y-80208380D01*
X217424190Y-80208380D01*
X217328952Y-80160761D01*
X217281333Y-80065523D01*
X217281333Y-79684571D01*
X217328952Y-79589333D01*
X217424190Y-79541714D01*
X217614666Y-79541714D01*
X217709904Y-79589333D01*
X217757523Y-79684571D01*
X217757523Y-79779809D01*
X217281333Y-79875047D01*
X218186095Y-80208380D02*
X218186095Y-79541714D01*
X218186095Y-79732190D02*
X218233714Y-79636952D01*
X218281333Y-79589333D01*
X218376571Y-79541714D01*
X218471809Y-79541714D01*
X218709904Y-79541714D02*
X218948000Y-80208380D01*
X219186095Y-79541714D02*
X218948000Y-80208380D01*
X218852761Y-80446476D01*
X218805142Y-80494095D01*
X218709904Y-80541714D01*
X219567047Y-80208380D02*
X219567047Y-79208380D01*
X219948000Y-79208380D01*
X220043238Y-79256000D01*
X220090857Y-79303619D01*
X220138476Y-79398857D01*
X220138476Y-79541714D01*
X220090857Y-79636952D01*
X220043238Y-79684571D01*
X219948000Y-79732190D01*
X219567047Y-79732190D01*
X220995619Y-80208380D02*
X220995619Y-79684571D01*
X220948000Y-79589333D01*
X220852761Y-79541714D01*
X220662285Y-79541714D01*
X220567047Y-79589333D01*
X220995619Y-80160761D02*
X220900380Y-80208380D01*
X220662285Y-80208380D01*
X220567047Y-80160761D01*
X220519428Y-80065523D01*
X220519428Y-79970285D01*
X220567047Y-79875047D01*
X220662285Y-79827428D01*
X220900380Y-79827428D01*
X220995619Y-79779809D01*
X221900380Y-80160761D02*
X221805142Y-80208380D01*
X221614666Y-80208380D01*
X221519428Y-80160761D01*
X221471809Y-80113142D01*
X221424190Y-80017904D01*
X221424190Y-79732190D01*
X221471809Y-79636952D01*
X221519428Y-79589333D01*
X221614666Y-79541714D01*
X221805142Y-79541714D01*
X221900380Y-79589333D01*
X222328952Y-80208380D02*
X222328952Y-79208380D01*
X222424190Y-79827428D02*
X222709904Y-80208380D01*
X222709904Y-79541714D02*
X222328952Y-79922666D01*
X223662285Y-80208380D02*
X223090857Y-80208380D01*
X223376571Y-80208380D02*
X223376571Y-79208380D01*
X223281333Y-79351238D01*
X223186095Y-79446476D01*
X223090857Y-79494095D01*
%TO.C,C2*%
X227807142Y-68552666D02*
X227854761Y-68600285D01*
X227902380Y-68743142D01*
X227902380Y-68838380D01*
X227854761Y-68981238D01*
X227759523Y-69076476D01*
X227664285Y-69124095D01*
X227473809Y-69171714D01*
X227330952Y-69171714D01*
X227140476Y-69124095D01*
X227045238Y-69076476D01*
X226950000Y-68981238D01*
X226902380Y-68838380D01*
X226902380Y-68743142D01*
X226950000Y-68600285D01*
X226997619Y-68552666D01*
X226997619Y-68171714D02*
X226950000Y-68124095D01*
X226902380Y-68028857D01*
X226902380Y-67790761D01*
X226950000Y-67695523D01*
X226997619Y-67647904D01*
X227092857Y-67600285D01*
X227188095Y-67600285D01*
X227330952Y-67647904D01*
X227902380Y-68219333D01*
X227902380Y-67600285D01*
%TO.C,C4*%
X222063333Y-47153142D02*
X222015714Y-47200761D01*
X221872857Y-47248380D01*
X221777619Y-47248380D01*
X221634761Y-47200761D01*
X221539523Y-47105523D01*
X221491904Y-47010285D01*
X221444285Y-46819809D01*
X221444285Y-46676952D01*
X221491904Y-46486476D01*
X221539523Y-46391238D01*
X221634761Y-46296000D01*
X221777619Y-46248380D01*
X221872857Y-46248380D01*
X222015714Y-46296000D01*
X222063333Y-46343619D01*
X222920476Y-46581714D02*
X222920476Y-47248380D01*
X222682380Y-46200761D02*
X222444285Y-46915047D01*
X223063333Y-46915047D01*
%TO.C,C5*%
X222063333Y-56043142D02*
X222015714Y-56090761D01*
X221872857Y-56138380D01*
X221777619Y-56138380D01*
X221634761Y-56090761D01*
X221539523Y-55995523D01*
X221491904Y-55900285D01*
X221444285Y-55709809D01*
X221444285Y-55566952D01*
X221491904Y-55376476D01*
X221539523Y-55281238D01*
X221634761Y-55186000D01*
X221777619Y-55138380D01*
X221872857Y-55138380D01*
X222015714Y-55186000D01*
X222063333Y-55233619D01*
X222968095Y-55138380D02*
X222491904Y-55138380D01*
X222444285Y-55614571D01*
X222491904Y-55566952D01*
X222587142Y-55519333D01*
X222825238Y-55519333D01*
X222920476Y-55566952D01*
X222968095Y-55614571D01*
X223015714Y-55709809D01*
X223015714Y-55947904D01*
X222968095Y-56043142D01*
X222920476Y-56090761D01*
X222825238Y-56138380D01*
X222587142Y-56138380D01*
X222491904Y-56090761D01*
X222444285Y-56043142D01*
%TO.C,MOSFET1*%
X225702380Y-72667428D02*
X224702380Y-72667428D01*
X225416666Y-72334095D01*
X224702380Y-72000761D01*
X225702380Y-72000761D01*
X224702380Y-71334095D02*
X224702380Y-71143619D01*
X224750000Y-71048380D01*
X224845238Y-70953142D01*
X225035714Y-70905523D01*
X225369047Y-70905523D01*
X225559523Y-70953142D01*
X225654761Y-71048380D01*
X225702380Y-71143619D01*
X225702380Y-71334095D01*
X225654761Y-71429333D01*
X225559523Y-71524571D01*
X225369047Y-71572190D01*
X225035714Y-71572190D01*
X224845238Y-71524571D01*
X224750000Y-71429333D01*
X224702380Y-71334095D01*
X225654761Y-70524571D02*
X225702380Y-70381714D01*
X225702380Y-70143619D01*
X225654761Y-70048380D01*
X225607142Y-70000761D01*
X225511904Y-69953142D01*
X225416666Y-69953142D01*
X225321428Y-70000761D01*
X225273809Y-70048380D01*
X225226190Y-70143619D01*
X225178571Y-70334095D01*
X225130952Y-70429333D01*
X225083333Y-70476952D01*
X224988095Y-70524571D01*
X224892857Y-70524571D01*
X224797619Y-70476952D01*
X224750000Y-70429333D01*
X224702380Y-70334095D01*
X224702380Y-70096000D01*
X224750000Y-69953142D01*
X225178571Y-69191238D02*
X225178571Y-69524571D01*
X225702380Y-69524571D02*
X224702380Y-69524571D01*
X224702380Y-69048380D01*
X225178571Y-68667428D02*
X225178571Y-68334095D01*
X225702380Y-68191238D02*
X225702380Y-68667428D01*
X224702380Y-68667428D01*
X224702380Y-68191238D01*
X224702380Y-67905523D02*
X224702380Y-67334095D01*
X225702380Y-67619809D02*
X224702380Y-67619809D01*
X225702380Y-66476952D02*
X225702380Y-67048380D01*
X225702380Y-66762666D02*
X224702380Y-66762666D01*
X224845238Y-66857904D01*
X224940476Y-66953142D01*
X224988095Y-67048380D01*
%TO.C,MOTOR1_L293D1*%
X193702380Y-61808571D02*
X192702380Y-61808571D01*
X193416666Y-61475238D01*
X192702380Y-61141904D01*
X193702380Y-61141904D01*
X192702380Y-60475238D02*
X192702380Y-60284761D01*
X192750000Y-60189523D01*
X192845238Y-60094285D01*
X193035714Y-60046666D01*
X193369047Y-60046666D01*
X193559523Y-60094285D01*
X193654761Y-60189523D01*
X193702380Y-60284761D01*
X193702380Y-60475238D01*
X193654761Y-60570476D01*
X193559523Y-60665714D01*
X193369047Y-60713333D01*
X193035714Y-60713333D01*
X192845238Y-60665714D01*
X192750000Y-60570476D01*
X192702380Y-60475238D01*
X192702380Y-59760952D02*
X192702380Y-59189523D01*
X193702380Y-59475238D02*
X192702380Y-59475238D01*
X192702380Y-58665714D02*
X192702380Y-58475238D01*
X192750000Y-58380000D01*
X192845238Y-58284761D01*
X193035714Y-58237142D01*
X193369047Y-58237142D01*
X193559523Y-58284761D01*
X193654761Y-58380000D01*
X193702380Y-58475238D01*
X193702380Y-58665714D01*
X193654761Y-58760952D01*
X193559523Y-58856190D01*
X193369047Y-58903809D01*
X193035714Y-58903809D01*
X192845238Y-58856190D01*
X192750000Y-58760952D01*
X192702380Y-58665714D01*
X193702380Y-57237142D02*
X193226190Y-57570476D01*
X193702380Y-57808571D02*
X192702380Y-57808571D01*
X192702380Y-57427619D01*
X192750000Y-57332380D01*
X192797619Y-57284761D01*
X192892857Y-57237142D01*
X193035714Y-57237142D01*
X193130952Y-57284761D01*
X193178571Y-57332380D01*
X193226190Y-57427619D01*
X193226190Y-57808571D01*
X193702380Y-56284761D02*
X193702380Y-56856190D01*
X193702380Y-56570476D02*
X192702380Y-56570476D01*
X192845238Y-56665714D01*
X192940476Y-56760952D01*
X192988095Y-56856190D01*
X193797619Y-56094285D02*
X193797619Y-55332380D01*
X193702380Y-54618095D02*
X193702380Y-55094285D01*
X192702380Y-55094285D01*
X192797619Y-54332380D02*
X192750000Y-54284761D01*
X192702380Y-54189523D01*
X192702380Y-53951428D01*
X192750000Y-53856190D01*
X192797619Y-53808571D01*
X192892857Y-53760952D01*
X192988095Y-53760952D01*
X193130952Y-53808571D01*
X193702380Y-54380000D01*
X193702380Y-53760952D01*
X193702380Y-53284761D02*
X193702380Y-53094285D01*
X193654761Y-52999047D01*
X193607142Y-52951428D01*
X193464285Y-52856190D01*
X193273809Y-52808571D01*
X192892857Y-52808571D01*
X192797619Y-52856190D01*
X192750000Y-52903809D01*
X192702380Y-52999047D01*
X192702380Y-53189523D01*
X192750000Y-53284761D01*
X192797619Y-53332380D01*
X192892857Y-53380000D01*
X193130952Y-53380000D01*
X193226190Y-53332380D01*
X193273809Y-53284761D01*
X193321428Y-53189523D01*
X193321428Y-52999047D01*
X193273809Y-52903809D01*
X193226190Y-52856190D01*
X193130952Y-52808571D01*
X192702380Y-52475238D02*
X192702380Y-51856190D01*
X193083333Y-52189523D01*
X193083333Y-52046666D01*
X193130952Y-51951428D01*
X193178571Y-51903809D01*
X193273809Y-51856190D01*
X193511904Y-51856190D01*
X193607142Y-51903809D01*
X193654761Y-51951428D01*
X193702380Y-52046666D01*
X193702380Y-52332380D01*
X193654761Y-52427619D01*
X193607142Y-52475238D01*
X193702380Y-51427619D02*
X192702380Y-51427619D01*
X192702380Y-51189523D01*
X192750000Y-51046666D01*
X192845238Y-50951428D01*
X192940476Y-50903809D01*
X193130952Y-50856190D01*
X193273809Y-50856190D01*
X193464285Y-50903809D01*
X193559523Y-50951428D01*
X193654761Y-51046666D01*
X193702380Y-51189523D01*
X193702380Y-51427619D01*
X193702380Y-49903809D02*
X193702380Y-50475238D01*
X193702380Y-50189523D02*
X192702380Y-50189523D01*
X192845238Y-50284761D01*
X192940476Y-50380000D01*
X192988095Y-50475238D01*
%TO.C,MOTOR2_L293D1*%
X193702380Y-74508571D02*
X192702380Y-74508571D01*
X193416666Y-74175238D01*
X192702380Y-73841904D01*
X193702380Y-73841904D01*
X192702380Y-73175238D02*
X192702380Y-72984761D01*
X192750000Y-72889523D01*
X192845238Y-72794285D01*
X193035714Y-72746666D01*
X193369047Y-72746666D01*
X193559523Y-72794285D01*
X193654761Y-72889523D01*
X193702380Y-72984761D01*
X193702380Y-73175238D01*
X193654761Y-73270476D01*
X193559523Y-73365714D01*
X193369047Y-73413333D01*
X193035714Y-73413333D01*
X192845238Y-73365714D01*
X192750000Y-73270476D01*
X192702380Y-73175238D01*
X192702380Y-72460952D02*
X192702380Y-71889523D01*
X193702380Y-72175238D02*
X192702380Y-72175238D01*
X192702380Y-71365714D02*
X192702380Y-71175238D01*
X192750000Y-71080000D01*
X192845238Y-70984761D01*
X193035714Y-70937142D01*
X193369047Y-70937142D01*
X193559523Y-70984761D01*
X193654761Y-71080000D01*
X193702380Y-71175238D01*
X193702380Y-71365714D01*
X193654761Y-71460952D01*
X193559523Y-71556190D01*
X193369047Y-71603809D01*
X193035714Y-71603809D01*
X192845238Y-71556190D01*
X192750000Y-71460952D01*
X192702380Y-71365714D01*
X193702380Y-69937142D02*
X193226190Y-70270476D01*
X193702380Y-70508571D02*
X192702380Y-70508571D01*
X192702380Y-70127619D01*
X192750000Y-70032380D01*
X192797619Y-69984761D01*
X192892857Y-69937142D01*
X193035714Y-69937142D01*
X193130952Y-69984761D01*
X193178571Y-70032380D01*
X193226190Y-70127619D01*
X193226190Y-70508571D01*
X192797619Y-69556190D02*
X192750000Y-69508571D01*
X192702380Y-69413333D01*
X192702380Y-69175238D01*
X192750000Y-69080000D01*
X192797619Y-69032380D01*
X192892857Y-68984761D01*
X192988095Y-68984761D01*
X193130952Y-69032380D01*
X193702380Y-69603809D01*
X193702380Y-68984761D01*
X193797619Y-68794285D02*
X193797619Y-68032380D01*
X193702380Y-67318095D02*
X193702380Y-67794285D01*
X192702380Y-67794285D01*
X192797619Y-67032380D02*
X192750000Y-66984761D01*
X192702380Y-66889523D01*
X192702380Y-66651428D01*
X192750000Y-66556190D01*
X192797619Y-66508571D01*
X192892857Y-66460952D01*
X192988095Y-66460952D01*
X193130952Y-66508571D01*
X193702380Y-67080000D01*
X193702380Y-66460952D01*
X193702380Y-65984761D02*
X193702380Y-65794285D01*
X193654761Y-65699047D01*
X193607142Y-65651428D01*
X193464285Y-65556190D01*
X193273809Y-65508571D01*
X192892857Y-65508571D01*
X192797619Y-65556190D01*
X192750000Y-65603809D01*
X192702380Y-65699047D01*
X192702380Y-65889523D01*
X192750000Y-65984761D01*
X192797619Y-66032380D01*
X192892857Y-66080000D01*
X193130952Y-66080000D01*
X193226190Y-66032380D01*
X193273809Y-65984761D01*
X193321428Y-65889523D01*
X193321428Y-65699047D01*
X193273809Y-65603809D01*
X193226190Y-65556190D01*
X193130952Y-65508571D01*
X192702380Y-65175238D02*
X192702380Y-64556190D01*
X193083333Y-64889523D01*
X193083333Y-64746666D01*
X193130952Y-64651428D01*
X193178571Y-64603809D01*
X193273809Y-64556190D01*
X193511904Y-64556190D01*
X193607142Y-64603809D01*
X193654761Y-64651428D01*
X193702380Y-64746666D01*
X193702380Y-65032380D01*
X193654761Y-65127619D01*
X193607142Y-65175238D01*
X193702380Y-64127619D02*
X192702380Y-64127619D01*
X192702380Y-63889523D01*
X192750000Y-63746666D01*
X192845238Y-63651428D01*
X192940476Y-63603809D01*
X193130952Y-63556190D01*
X193273809Y-63556190D01*
X193464285Y-63603809D01*
X193559523Y-63651428D01*
X193654761Y-63746666D01*
X193702380Y-63889523D01*
X193702380Y-64127619D01*
X193702380Y-62603809D02*
X193702380Y-63175238D01*
X193702380Y-62889523D02*
X192702380Y-62889523D01*
X192845238Y-62984761D01*
X192940476Y-63080000D01*
X192988095Y-63175238D01*
%TO.C,PowerSwitch1*%
X226790857Y-80208380D02*
X226790857Y-79208380D01*
X227171809Y-79208380D01*
X227267047Y-79256000D01*
X227314666Y-79303619D01*
X227362285Y-79398857D01*
X227362285Y-79541714D01*
X227314666Y-79636952D01*
X227267047Y-79684571D01*
X227171809Y-79732190D01*
X226790857Y-79732190D01*
X227933714Y-80208380D02*
X227838476Y-80160761D01*
X227790857Y-80113142D01*
X227743238Y-80017904D01*
X227743238Y-79732190D01*
X227790857Y-79636952D01*
X227838476Y-79589333D01*
X227933714Y-79541714D01*
X228076571Y-79541714D01*
X228171809Y-79589333D01*
X228219428Y-79636952D01*
X228267047Y-79732190D01*
X228267047Y-80017904D01*
X228219428Y-80113142D01*
X228171809Y-80160761D01*
X228076571Y-80208380D01*
X227933714Y-80208380D01*
X228600380Y-79541714D02*
X228790857Y-80208380D01*
X228981333Y-79732190D01*
X229171809Y-80208380D01*
X229362285Y-79541714D01*
X230124190Y-80160761D02*
X230028952Y-80208380D01*
X229838476Y-80208380D01*
X229743238Y-80160761D01*
X229695619Y-80065523D01*
X229695619Y-79684571D01*
X229743238Y-79589333D01*
X229838476Y-79541714D01*
X230028952Y-79541714D01*
X230124190Y-79589333D01*
X230171809Y-79684571D01*
X230171809Y-79779809D01*
X229695619Y-79875047D01*
X230600380Y-80208380D02*
X230600380Y-79541714D01*
X230600380Y-79732190D02*
X230648000Y-79636952D01*
X230695619Y-79589333D01*
X230790857Y-79541714D01*
X230886095Y-79541714D01*
X231171809Y-80160761D02*
X231314666Y-80208380D01*
X231552761Y-80208380D01*
X231648000Y-80160761D01*
X231695619Y-80113142D01*
X231743238Y-80017904D01*
X231743238Y-79922666D01*
X231695619Y-79827428D01*
X231648000Y-79779809D01*
X231552761Y-79732190D01*
X231362285Y-79684571D01*
X231267047Y-79636952D01*
X231219428Y-79589333D01*
X231171809Y-79494095D01*
X231171809Y-79398857D01*
X231219428Y-79303619D01*
X231267047Y-79256000D01*
X231362285Y-79208380D01*
X231600380Y-79208380D01*
X231743238Y-79256000D01*
X232076571Y-79541714D02*
X232267047Y-80208380D01*
X232457523Y-79732190D01*
X232648000Y-80208380D01*
X232838476Y-79541714D01*
X233219428Y-80208380D02*
X233219428Y-79541714D01*
X233219428Y-79208380D02*
X233171809Y-79256000D01*
X233219428Y-79303619D01*
X233267047Y-79256000D01*
X233219428Y-79208380D01*
X233219428Y-79303619D01*
X233552761Y-79541714D02*
X233933714Y-79541714D01*
X233695619Y-79208380D02*
X233695619Y-80065523D01*
X233743238Y-80160761D01*
X233838476Y-80208380D01*
X233933714Y-80208380D01*
X234695619Y-80160761D02*
X234600380Y-80208380D01*
X234409904Y-80208380D01*
X234314666Y-80160761D01*
X234267047Y-80113142D01*
X234219428Y-80017904D01*
X234219428Y-79732190D01*
X234267047Y-79636952D01*
X234314666Y-79589333D01*
X234409904Y-79541714D01*
X234600380Y-79541714D01*
X234695619Y-79589333D01*
X235124190Y-80208380D02*
X235124190Y-79208380D01*
X235552761Y-80208380D02*
X235552761Y-79684571D01*
X235505142Y-79589333D01*
X235409904Y-79541714D01*
X235267047Y-79541714D01*
X235171809Y-79589333D01*
X235124190Y-79636952D01*
X236552761Y-80208380D02*
X235981333Y-80208380D01*
X236267047Y-80208380D02*
X236267047Y-79208380D01*
X236171809Y-79351238D01*
X236076571Y-79446476D01*
X235981333Y-79494095D01*
%TO.C,R1*%
X232496380Y-58840666D02*
X232020190Y-59174000D01*
X232496380Y-59412095D02*
X231496380Y-59412095D01*
X231496380Y-59031142D01*
X231544000Y-58935904D01*
X231591619Y-58888285D01*
X231686857Y-58840666D01*
X231829714Y-58840666D01*
X231924952Y-58888285D01*
X231972571Y-58935904D01*
X232020190Y-59031142D01*
X232020190Y-59412095D01*
X232496380Y-57888285D02*
X232496380Y-58459714D01*
X232496380Y-58174000D02*
X231496380Y-58174000D01*
X231639238Y-58269238D01*
X231734476Y-58364476D01*
X231782095Y-58459714D01*
%TO.C,R2*%
X232496380Y-50712666D02*
X232020190Y-51046000D01*
X232496380Y-51284095D02*
X231496380Y-51284095D01*
X231496380Y-50903142D01*
X231544000Y-50807904D01*
X231591619Y-50760285D01*
X231686857Y-50712666D01*
X231829714Y-50712666D01*
X231924952Y-50760285D01*
X231972571Y-50807904D01*
X232020190Y-50903142D01*
X232020190Y-51284095D01*
X231591619Y-50331714D02*
X231544000Y-50284095D01*
X231496380Y-50188857D01*
X231496380Y-49950761D01*
X231544000Y-49855523D01*
X231591619Y-49807904D01*
X231686857Y-49760285D01*
X231782095Y-49760285D01*
X231924952Y-49807904D01*
X232496380Y-50379333D01*
X232496380Y-49760285D01*
%TO.C,SHIFT_REGISTER1*%
X168254761Y-53712285D02*
X168302380Y-53569428D01*
X168302380Y-53331333D01*
X168254761Y-53236095D01*
X168207142Y-53188476D01*
X168111904Y-53140857D01*
X168016666Y-53140857D01*
X167921428Y-53188476D01*
X167873809Y-53236095D01*
X167826190Y-53331333D01*
X167778571Y-53521809D01*
X167730952Y-53617047D01*
X167683333Y-53664666D01*
X167588095Y-53712285D01*
X167492857Y-53712285D01*
X167397619Y-53664666D01*
X167350000Y-53617047D01*
X167302380Y-53521809D01*
X167302380Y-53283714D01*
X167350000Y-53140857D01*
X168302380Y-52712285D02*
X167302380Y-52712285D01*
X167778571Y-52712285D02*
X167778571Y-52140857D01*
X168302380Y-52140857D02*
X167302380Y-52140857D01*
X168302380Y-51664666D02*
X167302380Y-51664666D01*
X167778571Y-50855142D02*
X167778571Y-51188476D01*
X168302380Y-51188476D02*
X167302380Y-51188476D01*
X167302380Y-50712285D01*
X167302380Y-50474190D02*
X167302380Y-49902761D01*
X168302380Y-50188476D02*
X167302380Y-50188476D01*
X168397619Y-49807523D02*
X168397619Y-49045619D01*
X168302380Y-48236095D02*
X167826190Y-48569428D01*
X168302380Y-48807523D02*
X167302380Y-48807523D01*
X167302380Y-48426571D01*
X167350000Y-48331333D01*
X167397619Y-48283714D01*
X167492857Y-48236095D01*
X167635714Y-48236095D01*
X167730952Y-48283714D01*
X167778571Y-48331333D01*
X167826190Y-48426571D01*
X167826190Y-48807523D01*
X167778571Y-47807523D02*
X167778571Y-47474190D01*
X168302380Y-47331333D02*
X168302380Y-47807523D01*
X167302380Y-47807523D01*
X167302380Y-47331333D01*
X167350000Y-46378952D02*
X167302380Y-46474190D01*
X167302380Y-46617047D01*
X167350000Y-46759904D01*
X167445238Y-46855142D01*
X167540476Y-46902761D01*
X167730952Y-46950380D01*
X167873809Y-46950380D01*
X168064285Y-46902761D01*
X168159523Y-46855142D01*
X168254761Y-46759904D01*
X168302380Y-46617047D01*
X168302380Y-46521809D01*
X168254761Y-46378952D01*
X168207142Y-46331333D01*
X167873809Y-46331333D01*
X167873809Y-46521809D01*
X168302380Y-45902761D02*
X167302380Y-45902761D01*
X168254761Y-45474190D02*
X168302380Y-45331333D01*
X168302380Y-45093238D01*
X168254761Y-44998000D01*
X168207142Y-44950380D01*
X168111904Y-44902761D01*
X168016666Y-44902761D01*
X167921428Y-44950380D01*
X167873809Y-44998000D01*
X167826190Y-45093238D01*
X167778571Y-45283714D01*
X167730952Y-45378952D01*
X167683333Y-45426571D01*
X167588095Y-45474190D01*
X167492857Y-45474190D01*
X167397619Y-45426571D01*
X167350000Y-45378952D01*
X167302380Y-45283714D01*
X167302380Y-45045619D01*
X167350000Y-44902761D01*
X167302380Y-44617047D02*
X167302380Y-44045619D01*
X168302380Y-44331333D02*
X167302380Y-44331333D01*
X167778571Y-43712285D02*
X167778571Y-43378952D01*
X168302380Y-43236095D02*
X168302380Y-43712285D01*
X167302380Y-43712285D01*
X167302380Y-43236095D01*
X168302380Y-42236095D02*
X167826190Y-42569428D01*
X168302380Y-42807523D02*
X167302380Y-42807523D01*
X167302380Y-42426571D01*
X167350000Y-42331333D01*
X167397619Y-42283714D01*
X167492857Y-42236095D01*
X167635714Y-42236095D01*
X167730952Y-42283714D01*
X167778571Y-42331333D01*
X167826190Y-42426571D01*
X167826190Y-42807523D01*
X168302380Y-41283714D02*
X168302380Y-41855142D01*
X168302380Y-41569428D02*
X167302380Y-41569428D01*
X167445238Y-41664666D01*
X167540476Y-41759904D01*
X167588095Y-41855142D01*
%TO.C,U1*%
X211828095Y-90772380D02*
X211828095Y-91581904D01*
X211875714Y-91677142D01*
X211923333Y-91724761D01*
X212018571Y-91772380D01*
X212209047Y-91772380D01*
X212304285Y-91724761D01*
X212351904Y-91677142D01*
X212399523Y-91581904D01*
X212399523Y-90772380D01*
X213399523Y-91772380D02*
X212828095Y-91772380D01*
X213113809Y-91772380D02*
X213113809Y-90772380D01*
X213018571Y-90915238D01*
X212923333Y-91010476D01*
X212828095Y-91058095D01*
%TO.C,U2*%
X241006380Y-72389904D02*
X241815904Y-72389904D01*
X241911142Y-72342285D01*
X241958761Y-72294666D01*
X242006380Y-72199428D01*
X242006380Y-72008952D01*
X241958761Y-71913714D01*
X241911142Y-71866095D01*
X241815904Y-71818476D01*
X241006380Y-71818476D01*
X241101619Y-71389904D02*
X241054000Y-71342285D01*
X241006380Y-71247047D01*
X241006380Y-71008952D01*
X241054000Y-70913714D01*
X241101619Y-70866095D01*
X241196857Y-70818476D01*
X241292095Y-70818476D01*
X241434952Y-70866095D01*
X242006380Y-71437523D01*
X242006380Y-70818476D01*
%TO.C,U3*%
X232910095Y-44544380D02*
X232910095Y-45353904D01*
X232957714Y-45449142D01*
X233005333Y-45496761D01*
X233100571Y-45544380D01*
X233291047Y-45544380D01*
X233386285Y-45496761D01*
X233433904Y-45449142D01*
X233481523Y-45353904D01*
X233481523Y-44544380D01*
X233862476Y-44544380D02*
X234481523Y-44544380D01*
X234148190Y-44925333D01*
X234291047Y-44925333D01*
X234386285Y-44972952D01*
X234433904Y-45020571D01*
X234481523Y-45115809D01*
X234481523Y-45353904D01*
X234433904Y-45449142D01*
X234386285Y-45496761D01*
X234291047Y-45544380D01*
X234005333Y-45544380D01*
X233910095Y-45496761D01*
X233862476Y-45449142D01*
%TD*%
M02*
