%TF.GenerationSoftware,KiCad,Pcbnew,(5.1.9)-1*%
%TF.CreationDate,2021-04-06T18:47:30-07:00*%
%TF.ProjectId,bbot-pcb,62626f74-2d70-4636-922e-6b696361645f,rev?*%
%TF.SameCoordinates,Original*%
%TF.FileFunction,Soldermask,Top*%
%TF.FilePolarity,Negative*%
%FSLAX46Y46*%
G04 Gerber Fmt 4.6, Leading zero omitted, Abs format (unit mm)*
G04 Created by KiCad (PCBNEW (5.1.9)-1) date 2021-04-06 18:47:30*
%MOMM*%
%LPD*%
G01*
G04 APERTURE LIST*
%ADD10C,1.524000*%
%ADD11R,1.524000X1.524000*%
%ADD12O,1.600000X1.600000*%
%ADD13R,1.600000X1.600000*%
%ADD14C,1.778000*%
%ADD15R,1.778000X1.778000*%
%ADD16C,1.143000*%
%ADD17R,1.143000X1.143000*%
%ADD18C,1.270000*%
%ADD19R,1.270000X1.270000*%
G04 APERTURE END LIST*
D10*
%TO.C,BatteryPack1*%
X163790000Y-62230000D03*
D11*
X158790000Y-62230000D03*
%TD*%
D10*
%TO.C,PowerSwitch1*%
X149820000Y-62230000D03*
D11*
X144820000Y-62230000D03*
%TD*%
D12*
%TO.C,MetroMini1*%
X138430000Y-69850000D03*
X123190000Y-102870000D03*
X138430000Y-72390000D03*
X123190000Y-100330000D03*
X138430000Y-74930000D03*
X123190000Y-97790000D03*
X138430000Y-77470000D03*
X123190000Y-95250000D03*
X138430000Y-80010000D03*
X123190000Y-92710000D03*
X138430000Y-82550000D03*
X123190000Y-90170000D03*
X138430000Y-85090000D03*
X123190000Y-87630000D03*
X138430000Y-87630000D03*
X123190000Y-85090000D03*
X138430000Y-90170000D03*
X123190000Y-82550000D03*
X138430000Y-92710000D03*
X123190000Y-80010000D03*
X138430000Y-95250000D03*
X123190000Y-77470000D03*
X138430000Y-97790000D03*
X123190000Y-74930000D03*
X138430000Y-100330000D03*
X123190000Y-72390000D03*
X138430000Y-102870000D03*
D13*
X123190000Y-69850000D03*
%TD*%
D12*
%TO.C,MOTOR1_L293D1*%
X147320000Y-93980000D03*
X165100000Y-101600000D03*
X149860000Y-93980000D03*
X162560000Y-101600000D03*
X152400000Y-93980000D03*
X160020000Y-101600000D03*
X154940000Y-93980000D03*
X157480000Y-101600000D03*
X157480000Y-93980000D03*
X154940000Y-101600000D03*
X160020000Y-93980000D03*
X152400000Y-101600000D03*
X162560000Y-93980000D03*
X149860000Y-101600000D03*
X165100000Y-93980000D03*
D13*
X147320000Y-101600000D03*
%TD*%
D12*
%TO.C,MOTOR2_L293D1*%
X147320000Y-68580000D03*
X165100000Y-76200000D03*
X149860000Y-68580000D03*
X162560000Y-76200000D03*
X152400000Y-68580000D03*
X160020000Y-76200000D03*
X154940000Y-68580000D03*
X157480000Y-76200000D03*
X157480000Y-68580000D03*
X154940000Y-76200000D03*
X160020000Y-68580000D03*
X152400000Y-76200000D03*
X162560000Y-68580000D03*
X149860000Y-76200000D03*
X165100000Y-68580000D03*
D13*
X147320000Y-76200000D03*
%TD*%
D12*
%TO.C,SHIFT_REGISTER1*%
X147320000Y-81280000D03*
X165100000Y-88900000D03*
X149860000Y-81280000D03*
X162560000Y-88900000D03*
X152400000Y-81280000D03*
X160020000Y-88900000D03*
X154940000Y-81280000D03*
X157480000Y-88900000D03*
X157480000Y-81280000D03*
X154940000Y-88900000D03*
X160020000Y-81280000D03*
X152400000Y-88900000D03*
X162560000Y-81280000D03*
X149860000Y-88900000D03*
X165100000Y-81280000D03*
D13*
X147320000Y-88900000D03*
%TD*%
D14*
%TO.C,U1*%
X176530000Y-68820000D03*
X176530000Y-73820000D03*
X176530000Y-78820000D03*
D15*
X176530000Y-83820000D03*
%TD*%
D16*
%TO.C,HMC5883L1*%
X165560000Y-106680000D03*
X163560000Y-106680000D03*
D17*
X161560000Y-106680000D03*
D16*
X159560000Y-106680000D03*
%TD*%
D14*
%TO.C,U3*%
X176530000Y-90410000D03*
X176530000Y-95410000D03*
X176530000Y-100410000D03*
D15*
X176530000Y-105410000D03*
%TD*%
D18*
%TO.C,MOSFET1*%
X130810000Y-62230000D03*
X133350000Y-62230000D03*
D19*
X135890000Y-62230000D03*
%TD*%
M02*
