%TF.GenerationSoftware,KiCad,Pcbnew,(5.1.9)-1*%
%TF.CreationDate,2021-04-29T20:48:40-07:00*%
%TF.ProjectId,bbot-pcb,62626f74-2d70-4636-922e-6b696361645f,rev?*%
%TF.SameCoordinates,Original*%
%TF.FileFunction,Copper,L2,Bot*%
%TF.FilePolarity,Positive*%
%FSLAX46Y46*%
G04 Gerber Fmt 4.6, Leading zero omitted, Abs format (unit mm)*
G04 Created by KiCad (PCBNEW (5.1.9)-1) date 2021-04-29 20:48:40*
%MOMM*%
%LPD*%
G01*
G04 APERTURE LIST*
%TA.AperFunction,ComponentPad*%
%ADD10C,1.600000*%
%TD*%
%TA.AperFunction,ComponentPad*%
%ADD11R,1.600000X1.600000*%
%TD*%
%TA.AperFunction,ComponentPad*%
%ADD12R,1.524000X1.524000*%
%TD*%
%TA.AperFunction,ComponentPad*%
%ADD13C,1.524000*%
%TD*%
%TA.AperFunction,ComponentPad*%
%ADD14O,1.600000X1.600000*%
%TD*%
%TA.AperFunction,ComponentPad*%
%ADD15R,1.270000X1.270000*%
%TD*%
%TA.AperFunction,ComponentPad*%
%ADD16C,1.270000*%
%TD*%
%TA.AperFunction,ComponentPad*%
%ADD17O,1.400000X1.400000*%
%TD*%
%TA.AperFunction,ComponentPad*%
%ADD18C,1.400000*%
%TD*%
%TA.AperFunction,ComponentPad*%
%ADD19R,1.778000X1.778000*%
%TD*%
%TA.AperFunction,ComponentPad*%
%ADD20C,1.778000*%
%TD*%
%TA.AperFunction,ViaPad*%
%ADD21C,0.800000*%
%TD*%
%TA.AperFunction,Conductor*%
%ADD22C,0.250000*%
%TD*%
G04 APERTURE END LIST*
D10*
%TO.P,U4,24*%
%TO.N,/5V*%
X171196000Y-85090000D03*
%TO.P,U4,23*%
%TO.N,Net-(U4-Pad23)*%
X171196000Y-82550000D03*
%TO.P,U4,22*%
%TO.N,Net-(U4-Pad22)*%
X171196000Y-80010000D03*
%TO.P,U4,21*%
%TO.N,Net-(U4-Pad21)*%
X171196000Y-77470000D03*
%TO.P,U4,20*%
%TO.N,Net-(U4-Pad20)*%
X171196000Y-74930000D03*
%TO.P,U4,19*%
%TO.N,/A2*%
X171196000Y-72390000D03*
%TO.P,U4,18*%
%TO.N,/A1*%
X171196000Y-69850000D03*
%TO.P,U4,17*%
%TO.N,/A0*%
X171196000Y-67310000D03*
%TO.P,U4,16*%
%TO.N,Net-(U4-Pad16)*%
X171196000Y-64770000D03*
%TO.P,U4,15*%
%TO.N,Net-(U4-Pad15)*%
X171196000Y-62230000D03*
%TO.P,U4,14*%
%TO.N,Net-(U4-Pad14)*%
X171196000Y-59690000D03*
%TO.P,U4,13*%
%TO.N,Net-(U4-Pad13)*%
X171196000Y-57150000D03*
%TO.P,U4,12*%
%TO.N,Net-(U4-Pad12)*%
X186436000Y-57150000D03*
%TO.P,U4,11*%
%TO.N,Net-(U4-Pad11)*%
X186436000Y-59690000D03*
%TO.P,U4,10*%
%TO.N,/SHIFT_CLR*%
X186436000Y-62230000D03*
%TO.P,U4,9*%
%TO.N,/SHIFT_CLCK*%
X186436000Y-64770000D03*
%TO.P,U4,8*%
%TO.N,/SHIFT_DATA*%
X186436000Y-67310000D03*
%TO.P,U4,7*%
%TO.N,/SHIFT_LATCH*%
X186436000Y-69850000D03*
%TO.P,U4,6*%
%TO.N,Net-(U4-Pad6)*%
X186436000Y-72390000D03*
%TO.P,U4,5*%
%TO.N,Net-(U4-Pad5)*%
X186436000Y-74930000D03*
%TO.P,U4,4*%
%TO.N,Net-(U4-Pad4)*%
X186436000Y-77470000D03*
%TO.P,U4,3*%
%TO.N,/GND*%
X186436000Y-80010000D03*
%TO.P,U4,2*%
%TO.N,Net-(U4-Pad2)*%
X186436000Y-82550000D03*
D11*
%TO.P,U4,1*%
%TO.N,Net-(U4-Pad1)*%
X186436000Y-85090000D03*
%TD*%
D12*
%TO.P,BatteryPack1,1*%
%TO.N,Net-(BatteryPack1-Pad1)*%
X220004000Y-84836000D03*
D13*
%TO.P,BatteryPack1,2*%
%TO.N,/GND*%
X225004000Y-84836000D03*
%TD*%
D14*
%TO.P,C2,2*%
%TO.N,/A1*%
X229870000Y-64636000D03*
D10*
%TO.P,C2,1*%
%TO.N,Net-(C2-Pad1)*%
X229870000Y-72136000D03*
%TD*%
D11*
%TO.P,C4,1*%
%TO.N,Net-(C4-Pad1)*%
X220980000Y-50546000D03*
D10*
%TO.P,C4,2*%
%TO.N,/5V*%
X223480000Y-50546000D03*
%TD*%
%TO.P,C5,2*%
%TO.N,Net-(C5-Pad2)*%
X223480000Y-59436000D03*
D11*
%TO.P,C5,1*%
%TO.N,/12V*%
X220980000Y-59436000D03*
%TD*%
D15*
%TO.P,MOSFET1,1*%
%TO.N,Net-(C5-Pad2)*%
X222250000Y-67056000D03*
D16*
%TO.P,MOSFET1,2*%
%TO.N,/GND*%
X222250000Y-69596000D03*
%TO.P,MOSFET1,3*%
%TO.N,Net-(C4-Pad1)*%
X222250000Y-72136000D03*
%TD*%
D11*
%TO.P,MOTOR1_L293D1,1*%
%TO.N,/5V*%
X195580000Y-59690000D03*
D14*
%TO.P,MOTOR1_L293D1,9*%
X213360000Y-52070000D03*
%TO.P,MOTOR1_L293D1,2*%
%TO.N,/MOTOR1_A*%
X198120000Y-59690000D03*
%TO.P,MOTOR1_L293D1,10*%
%TO.N,/MOTOR1_C*%
X210820000Y-52070000D03*
%TO.P,MOTOR1_L293D1,3*%
%TO.N,/MOTOR1_PHASE_A*%
X200660000Y-59690000D03*
%TO.P,MOTOR1_L293D1,11*%
%TO.N,/MOTOR1_PHASE_C*%
X208280000Y-52070000D03*
%TO.P,MOTOR1_L293D1,4*%
%TO.N,Net-(MOTOR1_L293D1-Pad4)*%
X203200000Y-59690000D03*
%TO.P,MOTOR1_L293D1,12*%
%TO.N,Net-(MOTOR1_L293D1-Pad12)*%
X205740000Y-52070000D03*
%TO.P,MOTOR1_L293D1,5*%
%TO.N,/GND*%
X205740000Y-59690000D03*
%TO.P,MOTOR1_L293D1,13*%
%TO.N,Net-(MOTOR1_L293D1-Pad13)*%
X203200000Y-52070000D03*
%TO.P,MOTOR1_L293D1,6*%
%TO.N,/MOTOR1_PHASE_B*%
X208280000Y-59690000D03*
%TO.P,MOTOR1_L293D1,14*%
%TO.N,/MOTOR1_PHASE_D*%
X200660000Y-52070000D03*
%TO.P,MOTOR1_L293D1,7*%
%TO.N,/MOTOR1_B*%
X210820000Y-59690000D03*
%TO.P,MOTOR1_L293D1,15*%
%TO.N,/MOTOR1_D*%
X198120000Y-52070000D03*
%TO.P,MOTOR1_L293D1,8*%
%TO.N,/12V*%
X213360000Y-59690000D03*
%TO.P,MOTOR1_L293D1,16*%
%TO.N,/5V*%
X195580000Y-52070000D03*
%TD*%
%TO.P,MOTOR2_L293D1,16*%
%TO.N,/5V*%
X195580000Y-64770000D03*
%TO.P,MOTOR2_L293D1,8*%
%TO.N,/12V*%
X213360000Y-72390000D03*
%TO.P,MOTOR2_L293D1,15*%
%TO.N,/MOTOR2_D*%
X198120000Y-64770000D03*
%TO.P,MOTOR2_L293D1,7*%
%TO.N,/MOTOR2_B*%
X210820000Y-72390000D03*
%TO.P,MOTOR2_L293D1,14*%
%TO.N,/MOTOR2_PHASE_D*%
X200660000Y-64770000D03*
%TO.P,MOTOR2_L293D1,6*%
%TO.N,/MOTOR2_PHASE_B*%
X208280000Y-72390000D03*
%TO.P,MOTOR2_L293D1,13*%
%TO.N,Net-(MOTOR2_L293D1-Pad13)*%
X203200000Y-64770000D03*
%TO.P,MOTOR2_L293D1,5*%
%TO.N,Net-(MOTOR2_L293D1-Pad5)*%
X205740000Y-72390000D03*
%TO.P,MOTOR2_L293D1,12*%
%TO.N,/GND*%
X205740000Y-64770000D03*
%TO.P,MOTOR2_L293D1,4*%
%TO.N,Net-(MOTOR2_L293D1-Pad4)*%
X203200000Y-72390000D03*
%TO.P,MOTOR2_L293D1,11*%
%TO.N,/MOTOR2_PHASE_C*%
X208280000Y-64770000D03*
%TO.P,MOTOR2_L293D1,3*%
%TO.N,/MOTOR2_PHASE_A*%
X200660000Y-72390000D03*
%TO.P,MOTOR2_L293D1,10*%
%TO.N,/MOTOR2_C*%
X210820000Y-64770000D03*
%TO.P,MOTOR2_L293D1,2*%
%TO.N,/MOTOR2_A*%
X198120000Y-72390000D03*
%TO.P,MOTOR2_L293D1,9*%
%TO.N,/5V*%
X213360000Y-64770000D03*
D11*
%TO.P,MOTOR2_L293D1,1*%
X195580000Y-72390000D03*
%TD*%
D13*
%TO.P,PowerSwitch1,2*%
%TO.N,/12V*%
X237704000Y-84836000D03*
D12*
%TO.P,PowerSwitch1,1*%
%TO.N,Net-(BatteryPack1-Pad1)*%
X232704000Y-84836000D03*
%TD*%
D17*
%TO.P,R1,2*%
%TO.N,/3V*%
X230124000Y-59944000D03*
D18*
%TO.P,R1,1*%
%TO.N,/5V*%
X230124000Y-57404000D03*
%TD*%
%TO.P,R2,1*%
%TO.N,/3V*%
X230124000Y-49276000D03*
D17*
%TO.P,R2,2*%
%TO.N,/GND*%
X230124000Y-51816000D03*
%TD*%
D11*
%TO.P,SHIFT_REGISTER1,1*%
%TO.N,/MOTOR1_B*%
X170180000Y-51308000D03*
D14*
%TO.P,SHIFT_REGISTER1,9*%
%TO.N,Net-(SHIFT_REGISTER1-Pad9)*%
X187960000Y-43688000D03*
%TO.P,SHIFT_REGISTER1,2*%
%TO.N,/MOTOR1_C*%
X172720000Y-51308000D03*
%TO.P,SHIFT_REGISTER1,10*%
%TO.N,/SHIFT_CLR*%
X185420000Y-43688000D03*
%TO.P,SHIFT_REGISTER1,3*%
%TO.N,/MOTOR1_D*%
X175260000Y-51308000D03*
%TO.P,SHIFT_REGISTER1,11*%
%TO.N,/SHIFT_CLCK*%
X182880000Y-43688000D03*
%TO.P,SHIFT_REGISTER1,4*%
%TO.N,/MOTOR2_A*%
X177800000Y-51308000D03*
%TO.P,SHIFT_REGISTER1,12*%
%TO.N,/SHIFT_LATCH*%
X180340000Y-43688000D03*
%TO.P,SHIFT_REGISTER1,5*%
%TO.N,/MOTOR2_B*%
X180340000Y-51308000D03*
%TO.P,SHIFT_REGISTER1,13*%
%TO.N,/GND*%
X177800000Y-43688000D03*
%TO.P,SHIFT_REGISTER1,6*%
%TO.N,/MOTOR2_C*%
X182880000Y-51308000D03*
%TO.P,SHIFT_REGISTER1,14*%
%TO.N,/SHIFT_DATA*%
X175260000Y-43688000D03*
%TO.P,SHIFT_REGISTER1,7*%
%TO.N,/MOTOR2_D*%
X185420000Y-51308000D03*
%TO.P,SHIFT_REGISTER1,15*%
%TO.N,/MOTOR1_A*%
X172720000Y-43688000D03*
%TO.P,SHIFT_REGISTER1,8*%
%TO.N,/GND*%
X187960000Y-51308000D03*
%TO.P,SHIFT_REGISTER1,16*%
%TO.N,/5V*%
X170180000Y-43688000D03*
%TD*%
D19*
%TO.P,U1,1*%
%TO.N,/MOTOR2_PHASE_A*%
X212090000Y-83820000D03*
D20*
%TO.P,U1,2*%
%TO.N,/MOTOR2_PHASE_B*%
X207090000Y-83820000D03*
%TO.P,U1,3*%
%TO.N,/MOTOR2_PHASE_C*%
X202090000Y-83820000D03*
%TO.P,U1,4*%
%TO.N,/MOTOR2_PHASE_D*%
X197090000Y-83820000D03*
%TD*%
D12*
%TO.P,U2,1*%
%TO.N,/3V*%
X236728000Y-71120000D03*
D13*
%TO.P,U2,2*%
%TO.N,/A0*%
X236728000Y-68580000D03*
%TO.P,U2,3*%
%TO.N,Net-(C2-Pad1)*%
X236728000Y-66040000D03*
%TO.P,U2,4*%
%TO.N,/A2*%
X236728000Y-63500000D03*
%TO.P,U2,5*%
%TO.N,/GND*%
X236728000Y-60960000D03*
%TD*%
D20*
%TO.P,U3,4*%
%TO.N,/MOTOR1_PHASE_D*%
X218172000Y-37592000D03*
%TO.P,U3,3*%
%TO.N,/MOTOR1_PHASE_C*%
X223172000Y-37592000D03*
%TO.P,U3,2*%
%TO.N,/MOTOR1_PHASE_B*%
X228172000Y-37592000D03*
D19*
%TO.P,U3,1*%
%TO.N,/MOTOR1_PHASE_A*%
X233172000Y-37592000D03*
%TD*%
D21*
%TO.N,/MOTOR1_PHASE_A*%
X219456000Y-54864000D03*
%TO.N,/12V*%
X217424000Y-64516000D03*
X220980000Y-64516000D03*
%TO.N,/MOTOR2_C*%
X192532000Y-54196990D03*
X217075009Y-58420000D03*
X219456000Y-62484000D03*
X219456000Y-65532000D03*
%TO.N,/MOTOR2_B*%
X180340000Y-53848000D03*
X198120000Y-86143000D03*
%TO.N,/MOTOR2_A*%
X177800000Y-53848000D03*
%TO.N,Net-(C4-Pad1)*%
X226568000Y-74168000D03*
%TD*%
D22*
%TO.N,/MOTOR2_PHASE_D*%
X197090000Y-83820000D02*
X197090000Y-79742000D01*
X197090000Y-79742000D02*
X192024000Y-74676000D01*
X192024000Y-74676000D02*
X192024000Y-68580000D01*
X192024000Y-68580000D02*
X198628000Y-68580000D01*
X200660000Y-66548000D02*
X200660000Y-64770000D01*
X198628000Y-68580000D02*
X200660000Y-66548000D01*
%TO.N,/MOTOR2_PHASE_B*%
X207090000Y-83820000D02*
X207090000Y-75866000D01*
X208280000Y-74676000D02*
X208280000Y-72390000D01*
X207090000Y-75866000D02*
X208280000Y-74676000D01*
%TO.N,/MOTOR2_PHASE_A*%
X204216000Y-75946000D02*
X200660000Y-72390000D01*
X204216000Y-83820000D02*
X204216000Y-75946000D01*
X206756000Y-86360000D02*
X204216000Y-83820000D01*
X211836000Y-86360000D02*
X206756000Y-86360000D01*
X212090000Y-86106000D02*
X211836000Y-86360000D01*
X212090000Y-83820000D02*
X212090000Y-86106000D01*
%TO.N,/MOTOR1_PHASE_D*%
X200660000Y-50800000D02*
X200660000Y-52070000D01*
X200660000Y-50800000D02*
X206248000Y-50800000D01*
X218172000Y-38876000D02*
X218172000Y-37592000D01*
X206248000Y-50800000D02*
X218172000Y-38876000D01*
%TO.N,/MOTOR1_PHASE_C*%
X208280000Y-50800000D02*
X208280000Y-52070000D01*
X222758000Y-37592000D02*
X223172000Y-37592000D01*
X208280000Y-52070000D02*
X222758000Y-37592000D01*
%TO.N,/MOTOR1_PHASE_A*%
X216727008Y-59145001D02*
X217423010Y-59145001D01*
X217423010Y-59145001D02*
X219456000Y-57112011D01*
X202018591Y-58331409D02*
X215913416Y-58331409D01*
X215913416Y-58331409D02*
X216727008Y-59145001D01*
X200660000Y-59690000D02*
X202018591Y-58331409D01*
X219456000Y-57112011D02*
X219456000Y-54864000D01*
%TO.N,/12V*%
X220726000Y-59690000D02*
X220980000Y-59436000D01*
X213360000Y-59690000D02*
X220726000Y-59690000D01*
X235261991Y-87278009D02*
X217326009Y-87278009D01*
X237704000Y-84836000D02*
X235261991Y-87278009D01*
X217326009Y-87278009D02*
X215900000Y-85852000D01*
X215900000Y-74930000D02*
X213360000Y-72390000D01*
X215900000Y-85852000D02*
X215900000Y-74930000D01*
X213360000Y-72390000D02*
X215646000Y-72390000D01*
X217424000Y-70612000D02*
X217424000Y-64516000D01*
X215646000Y-72390000D02*
X217424000Y-70612000D01*
X220980000Y-64516000D02*
X220980000Y-59436000D01*
%TO.N,/MOTOR1_A*%
X189985212Y-40247982D02*
X191516000Y-41778770D01*
X176160018Y-40247982D02*
X189985212Y-40247982D01*
X172720000Y-43688000D02*
X176160018Y-40247982D01*
X191516000Y-41778770D02*
X191516000Y-55880000D01*
X191516000Y-55880000D02*
X193040000Y-57404000D01*
X195834000Y-57404000D02*
X198120000Y-59690000D01*
X193040000Y-57404000D02*
X195834000Y-57404000D01*
%TO.N,/MOTOR2_D*%
X185420000Y-51308000D02*
X183896000Y-52832000D01*
X185275001Y-83675001D02*
X194419001Y-83675001D01*
X183896000Y-82296000D02*
X185275001Y-83675001D01*
X183896000Y-52832000D02*
X183896000Y-82296000D01*
X194419001Y-83675001D02*
X197104000Y-86360000D01*
X197394999Y-85794999D02*
X198628000Y-84561998D01*
X197394999Y-86069001D02*
X197394999Y-85794999D01*
X197104000Y-86360000D02*
X197394999Y-86069001D01*
X198628000Y-84561998D02*
X198628000Y-75692000D01*
X196994999Y-74058999D02*
X196994999Y-70849411D01*
X196994999Y-70849411D02*
X201676000Y-66168410D01*
X198628000Y-75692000D02*
X196994999Y-74058999D01*
X201200001Y-63644999D02*
X199245001Y-63644999D01*
X201785001Y-64229999D02*
X201200001Y-63644999D01*
X199245001Y-63644999D02*
X198120000Y-64770000D01*
X201785001Y-65310001D02*
X201785001Y-64229999D01*
X201676000Y-65419002D02*
X201785001Y-65310001D01*
X201676000Y-66168410D02*
X201676000Y-65419002D01*
%TO.N,/MOTOR2_C*%
X212851999Y-54196990D02*
X217075009Y-58420000D01*
X192532000Y-54196990D02*
X212851999Y-54196990D01*
X219456000Y-62484000D02*
X219456000Y-65532000D01*
%TO.N,/MOTOR2_B*%
X180340000Y-53848000D02*
X180340000Y-86868000D01*
X180340000Y-86868000D02*
X185928000Y-86868000D01*
X197395000Y-86868000D02*
X198120000Y-86143000D01*
X185928000Y-86868000D02*
X197395000Y-86868000D01*
%TO.N,/MOTOR2_A*%
X199644000Y-85852000D02*
X199644000Y-73914000D01*
X197612000Y-87884000D02*
X199644000Y-85852000D01*
X177800000Y-87884000D02*
X197612000Y-87884000D01*
X199644000Y-73914000D02*
X198120000Y-72390000D01*
X177800000Y-53848000D02*
X177800000Y-87884000D01*
%TO.N,Net-(BatteryPack1-Pad1)*%
X232704000Y-84836000D02*
X232704000Y-86828000D01*
X220984000Y-86828000D02*
X220004000Y-85848000D01*
X220004000Y-85848000D02*
X220004000Y-84836000D01*
X232704000Y-86828000D02*
X220984000Y-86828000D01*
%TO.N,/3V*%
X230995001Y-60815001D02*
X232519001Y-60815001D01*
X230124000Y-59944000D02*
X230995001Y-60815001D01*
X232519001Y-60815001D02*
X234696000Y-62992000D01*
X234696000Y-69088000D02*
X236728000Y-71120000D01*
X234696000Y-62992000D02*
X234696000Y-69088000D01*
%TO.N,Net-(C4-Pad1)*%
X220980000Y-50546000D02*
X220980000Y-50800000D01*
X220980000Y-50546000D02*
X220980000Y-52832000D01*
X220980000Y-52832000D02*
X226568000Y-58420000D01*
X226568000Y-58420000D02*
X226568000Y-74168000D01*
%TO.N,Net-(C5-Pad2)*%
X223480000Y-65826000D02*
X222250000Y-67056000D01*
X223480000Y-59436000D02*
X223480000Y-65826000D01*
%TO.N,/SHIFT_CLR*%
X185420000Y-43688000D02*
X185420000Y-41656000D01*
X185420000Y-41656000D02*
X189484000Y-41656000D01*
X189484000Y-41656000D02*
X189992000Y-42164000D01*
X189992000Y-58674000D02*
X186436000Y-62230000D01*
X189992000Y-42164000D02*
X189992000Y-58674000D01*
%TO.N,Net-(C2-Pad1)*%
X238760000Y-68072000D02*
X236728000Y-66040000D01*
X238760000Y-73152000D02*
X238760000Y-68072000D01*
X238252000Y-73660000D02*
X238760000Y-73152000D01*
X231394000Y-73660000D02*
X238252000Y-73660000D01*
X229870000Y-72136000D02*
X231394000Y-73660000D01*
%TO.N,/GND*%
X230124000Y-51816000D02*
X230124000Y-52832000D01*
X230124000Y-52832000D02*
X231140000Y-53848000D01*
X231140000Y-53848000D02*
X234696000Y-53848000D01*
X236728000Y-55880000D02*
X236728000Y-60960000D01*
X234696000Y-53848000D02*
X236728000Y-55880000D01*
X222250000Y-69596000D02*
X225044000Y-69596000D01*
X225004000Y-75224000D02*
X237784000Y-75224000D01*
X225004000Y-84836000D02*
X225004000Y-75224000D01*
X225004000Y-75224000D02*
X225004000Y-69636000D01*
X237784000Y-75224000D02*
X237824000Y-75184000D01*
X237824000Y-75184000D02*
X239268000Y-75184000D01*
X239268000Y-63500000D02*
X236728000Y-60960000D01*
X239268000Y-75184000D02*
X239268000Y-63500000D01*
X205740000Y-62484000D02*
X218440000Y-62484000D01*
X205740000Y-59690000D02*
X205740000Y-62484000D01*
X205740000Y-62484000D02*
X205740000Y-64770000D01*
X218440000Y-62484000D02*
X218440000Y-69596000D01*
X218440000Y-69596000D02*
X222250000Y-69596000D01*
X191516000Y-62484000D02*
X205740000Y-62484000D01*
X191516000Y-76200000D02*
X191516000Y-62484000D01*
X187706000Y-80010000D02*
X191516000Y-76200000D01*
X186436000Y-80010000D02*
X187706000Y-80010000D01*
%TO.N,/5V*%
X223480000Y-50546000D02*
X225298000Y-50546000D01*
X230124000Y-55372000D02*
X230124000Y-57404000D01*
X225298000Y-50546000D02*
X230124000Y-55372000D01*
X213360000Y-52070000D02*
X213360000Y-50800000D01*
X213360000Y-50800000D02*
X217424000Y-46736000D01*
X217424000Y-46736000D02*
X223012000Y-46736000D01*
X223480000Y-47204000D02*
X223480000Y-50546000D01*
X223012000Y-46736000D02*
X223480000Y-47204000D01*
X190171613Y-39797973D02*
X192024000Y-41650360D01*
X174070027Y-39797973D02*
X190171613Y-39797973D01*
X170180000Y-43688000D02*
X174070027Y-39797973D01*
X192024000Y-48514000D02*
X195580000Y-52070000D01*
X192024000Y-41650360D02*
X192024000Y-48514000D01*
%TO.N,/SHIFT_CLCK*%
X182880000Y-43688000D02*
X182880000Y-41656000D01*
X182880000Y-41656000D02*
X183388000Y-41148000D01*
X190442010Y-60763990D02*
X186436000Y-64770000D01*
X190442010Y-41977600D02*
X190442010Y-60763990D01*
X189612410Y-41148000D02*
X190442010Y-41977600D01*
X183388000Y-41148000D02*
X189612410Y-41148000D01*
%TO.N,/SHIFT_DATA*%
X190892020Y-62853980D02*
X186436000Y-67310000D01*
X190892020Y-41791200D02*
X190892020Y-62853980D01*
X189798811Y-40697991D02*
X190892020Y-41791200D01*
X178250009Y-40697991D02*
X189798811Y-40697991D01*
X175260000Y-43688000D02*
X178250009Y-40697991D01*
%TD*%
M02*
