%TF.GenerationSoftware,KiCad,Pcbnew,(5.1.9)-1*%
%TF.CreationDate,2021-04-07T20:22:23-07:00*%
%TF.ProjectId,bbot-pcb,62626f74-2d70-4636-922e-6b696361645f,rev?*%
%TF.SameCoordinates,Original*%
%TF.FileFunction,Copper,L2,Bot*%
%TF.FilePolarity,Positive*%
%FSLAX46Y46*%
G04 Gerber Fmt 4.6, Leading zero omitted, Abs format (unit mm)*
G04 Created by KiCad (PCBNEW (5.1.9)-1) date 2021-04-07 20:22:23*
%MOMM*%
%LPD*%
G01*
G04 APERTURE LIST*
%TA.AperFunction,ComponentPad*%
%ADD10C,1.524000*%
%TD*%
%TA.AperFunction,ComponentPad*%
%ADD11R,1.524000X1.524000*%
%TD*%
%TA.AperFunction,ComponentPad*%
%ADD12O,1.600000X1.600000*%
%TD*%
%TA.AperFunction,ComponentPad*%
%ADD13R,1.600000X1.600000*%
%TD*%
%TA.AperFunction,ComponentPad*%
%ADD14C,1.778000*%
%TD*%
%TA.AperFunction,ComponentPad*%
%ADD15R,1.778000X1.778000*%
%TD*%
%TA.AperFunction,ComponentPad*%
%ADD16C,1.143000*%
%TD*%
%TA.AperFunction,ComponentPad*%
%ADD17R,1.143000X1.143000*%
%TD*%
%TA.AperFunction,ComponentPad*%
%ADD18C,1.270000*%
%TD*%
%TA.AperFunction,ComponentPad*%
%ADD19R,1.270000X1.270000*%
%TD*%
%TA.AperFunction,Conductor*%
%ADD20C,0.250000*%
%TD*%
G04 APERTURE END LIST*
D10*
%TO.P,BatteryPack1,2*%
%TO.N,GND*%
X142280000Y-106680000D03*
D11*
%TO.P,BatteryPack1,1*%
%TO.N,Net-(BatteryPack1-Pad1)*%
X147280000Y-106680000D03*
%TD*%
D10*
%TO.P,PowerSwitch1,2*%
%TO.N,/12V*%
X124500000Y-106680000D03*
D11*
%TO.P,PowerSwitch1,1*%
%TO.N,Net-(BatteryPack1-Pad1)*%
X129500000Y-106680000D03*
%TD*%
D12*
%TO.P,MetroMini1,28*%
%TO.N,Net-(MetroMini1-Pad28)*%
X137160000Y-64770000D03*
%TO.P,MetroMini1,14*%
%TO.N,SCL*%
X121920000Y-97790000D03*
%TO.P,MetroMini1,27*%
%TO.N,Net-(MetroMini1-Pad27)*%
X137160000Y-67310000D03*
%TO.P,MetroMini1,13*%
%TO.N,SDA*%
X121920000Y-95250000D03*
%TO.P,MetroMini1,26*%
%TO.N,Net-(MetroMini1-Pad26)*%
X137160000Y-69850000D03*
%TO.P,MetroMini1,12*%
%TO.N,Net-(MetroMini1-Pad12)*%
X121920000Y-92710000D03*
%TO.P,MetroMini1,25*%
%TO.N,Net-(MetroMini1-Pad25)*%
X137160000Y-72390000D03*
%TO.P,MetroMini1,11*%
%TO.N,Net-(MetroMini1-Pad11)*%
X121920000Y-90170000D03*
%TO.P,MetroMini1,24*%
%TO.N,Net-(MetroMini1-Pad24)*%
X137160000Y-74930000D03*
%TO.P,MetroMini1,10*%
%TO.N,Net-(MetroMini1-Pad10)*%
X121920000Y-87630000D03*
%TO.P,MetroMini1,23*%
%TO.N,Net-(MetroMini1-Pad23)*%
X137160000Y-77470000D03*
%TO.P,MetroMini1,9*%
%TO.N,Net-(MetroMini1-Pad9)*%
X121920000Y-85090000D03*
%TO.P,MetroMini1,22*%
%TO.N,Net-(MetroMini1-Pad22)*%
X137160000Y-80010000D03*
%TO.P,MetroMini1,8*%
%TO.N,Net-(MetroMini1-Pad8)*%
X121920000Y-82550000D03*
%TO.P,MetroMini1,21*%
%TO.N,Net-(MetroMini1-Pad21)*%
X137160000Y-82550000D03*
%TO.P,MetroMini1,7*%
%TO.N,5V*%
X121920000Y-80010000D03*
%TO.P,MetroMini1,20*%
%TO.N,Net-(MetroMini1-Pad20)*%
X137160000Y-85090000D03*
%TO.P,MetroMini1,6*%
%TO.N,GND*%
X121920000Y-77470000D03*
%TO.P,MetroMini1,19*%
%TO.N,SHIFT_LATCH*%
X137160000Y-87630000D03*
%TO.P,MetroMini1,5*%
%TO.N,GND*%
X121920000Y-74930000D03*
%TO.P,MetroMini1,18*%
%TO.N,SHIFT_DATA*%
X137160000Y-90170000D03*
%TO.P,MetroMini1,4*%
%TO.N,Net-(MetroMini1-Pad4)*%
X121920000Y-72390000D03*
%TO.P,MetroMini1,17*%
%TO.N,SHIFT_CLCK*%
X137160000Y-92710000D03*
%TO.P,MetroMini1,3*%
%TO.N,Net-(MetroMini1-Pad3)*%
X121920000Y-69850000D03*
%TO.P,MetroMini1,16*%
%TO.N,Net-(MetroMini1-Pad16)*%
X137160000Y-95250000D03*
%TO.P,MetroMini1,2*%
%TO.N,Net-(MetroMini1-Pad2)*%
X121920000Y-67310000D03*
%TO.P,MetroMini1,15*%
%TO.N,Net-(MetroMini1-Pad15)*%
X137160000Y-97790000D03*
D13*
%TO.P,MetroMini1,1*%
%TO.N,Net-(MetroMini1-Pad1)*%
X121920000Y-64770000D03*
%TD*%
D12*
%TO.P,MOTOR1_L293D1,16*%
%TO.N,/12V*%
X156210000Y-86360000D03*
%TO.P,MOTOR1_L293D1,8*%
X173990000Y-93980000D03*
%TO.P,MOTOR1_L293D1,15*%
%TO.N,/MOTOR1_D*%
X158750000Y-86360000D03*
%TO.P,MOTOR1_L293D1,7*%
%TO.N,/MOTOR1_B*%
X171450000Y-93980000D03*
%TO.P,MOTOR1_L293D1,14*%
%TO.N,/MOTOR1_PHASE_D*%
X161290000Y-86360000D03*
%TO.P,MOTOR1_L293D1,6*%
%TO.N,/MOTOR1_PHASE_B*%
X168910000Y-93980000D03*
%TO.P,MOTOR1_L293D1,13*%
%TO.N,Net-(MOTOR1_L293D1-Pad13)*%
X163830000Y-86360000D03*
%TO.P,MOTOR1_L293D1,5*%
%TO.N,GND*%
X166370000Y-93980000D03*
%TO.P,MOTOR1_L293D1,12*%
%TO.N,Net-(MOTOR1_L293D1-Pad12)*%
X166370000Y-86360000D03*
%TO.P,MOTOR1_L293D1,4*%
%TO.N,Net-(MOTOR1_L293D1-Pad4)*%
X163830000Y-93980000D03*
%TO.P,MOTOR1_L293D1,11*%
%TO.N,/MOTOR1_PHASE_C*%
X168910000Y-86360000D03*
%TO.P,MOTOR1_L293D1,3*%
%TO.N,/MOTOR1_PHASE_A*%
X161290000Y-93980000D03*
%TO.P,MOTOR1_L293D1,10*%
%TO.N,/MOTOR1_C*%
X171450000Y-86360000D03*
%TO.P,MOTOR1_L293D1,2*%
%TO.N,/MOTOR1_A*%
X158750000Y-93980000D03*
%TO.P,MOTOR1_L293D1,9*%
%TO.N,5V*%
X173990000Y-86360000D03*
D13*
%TO.P,MOTOR1_L293D1,1*%
X156210000Y-93980000D03*
%TD*%
D12*
%TO.P,MOTOR2_L293D1,16*%
%TO.N,/12V*%
X156210000Y-72390000D03*
%TO.P,MOTOR2_L293D1,8*%
X173990000Y-80010000D03*
%TO.P,MOTOR2_L293D1,15*%
%TO.N,/MOTOR2_D*%
X158750000Y-72390000D03*
%TO.P,MOTOR2_L293D1,7*%
%TO.N,/MOTOR2_B*%
X171450000Y-80010000D03*
%TO.P,MOTOR2_L293D1,14*%
%TO.N,/MOTOR2_PHASE_D*%
X161290000Y-72390000D03*
%TO.P,MOTOR2_L293D1,6*%
%TO.N,/MOTOR2_PHASE_B*%
X168910000Y-80010000D03*
%TO.P,MOTOR2_L293D1,13*%
%TO.N,Net-(MOTOR2_L293D1-Pad13)*%
X163830000Y-72390000D03*
%TO.P,MOTOR2_L293D1,5*%
%TO.N,Net-(MOTOR2_L293D1-Pad5)*%
X166370000Y-80010000D03*
%TO.P,MOTOR2_L293D1,12*%
%TO.N,GND*%
X166370000Y-72390000D03*
%TO.P,MOTOR2_L293D1,4*%
%TO.N,Net-(MOTOR2_L293D1-Pad4)*%
X163830000Y-80010000D03*
%TO.P,MOTOR2_L293D1,11*%
%TO.N,/MOTOR2_PHASE_C*%
X168910000Y-72390000D03*
%TO.P,MOTOR2_L293D1,3*%
%TO.N,/MOTOR2_PHASE_A*%
X161290000Y-80010000D03*
%TO.P,MOTOR2_L293D1,10*%
%TO.N,/MOTOR2_C*%
X171450000Y-72390000D03*
%TO.P,MOTOR2_L293D1,2*%
%TO.N,/MOTOR2_A*%
X158750000Y-80010000D03*
%TO.P,MOTOR2_L293D1,9*%
%TO.N,5V*%
X173990000Y-72390000D03*
D13*
%TO.P,MOTOR2_L293D1,1*%
X156210000Y-80010000D03*
%TD*%
D12*
%TO.P,SHIFT_REGISTER1,16*%
%TO.N,5V*%
X142240000Y-90170000D03*
%TO.P,SHIFT_REGISTER1,8*%
%TO.N,GND*%
X149860000Y-72390000D03*
%TO.P,SHIFT_REGISTER1,15*%
%TO.N,/MOTOR1_A*%
X142240000Y-87630000D03*
%TO.P,SHIFT_REGISTER1,7*%
%TO.N,/MOTOR2_D*%
X149860000Y-74930000D03*
%TO.P,SHIFT_REGISTER1,14*%
%TO.N,SHIFT_DATA*%
X142240000Y-85090000D03*
%TO.P,SHIFT_REGISTER1,6*%
%TO.N,/MOTOR2_C*%
X149860000Y-77470000D03*
%TO.P,SHIFT_REGISTER1,13*%
%TO.N,GND*%
X142240000Y-82550000D03*
%TO.P,SHIFT_REGISTER1,5*%
%TO.N,/MOTOR2_B*%
X149860000Y-80010000D03*
%TO.P,SHIFT_REGISTER1,12*%
%TO.N,SHIFT_LATCH*%
X142240000Y-80010000D03*
%TO.P,SHIFT_REGISTER1,4*%
%TO.N,/MOTOR2_A*%
X149860000Y-82550000D03*
%TO.P,SHIFT_REGISTER1,11*%
%TO.N,SHIFT_CLCK*%
X142240000Y-77470000D03*
%TO.P,SHIFT_REGISTER1,3*%
%TO.N,/MOTOR1_D*%
X149860000Y-85090000D03*
%TO.P,SHIFT_REGISTER1,10*%
%TO.N,5V*%
X142240000Y-74930000D03*
%TO.P,SHIFT_REGISTER1,2*%
%TO.N,/MOTOR1_C*%
X149860000Y-87630000D03*
%TO.P,SHIFT_REGISTER1,9*%
%TO.N,Net-(SHIFT_REGISTER1-Pad9)*%
X142240000Y-72390000D03*
D13*
%TO.P,SHIFT_REGISTER1,1*%
%TO.N,/MOTOR1_B*%
X149860000Y-90170000D03*
%TD*%
D14*
%TO.P,U1,4*%
%TO.N,/MOTOR2_PHASE_D*%
X157720000Y-62230000D03*
%TO.P,U1,3*%
%TO.N,/MOTOR2_PHASE_C*%
X162720000Y-62230000D03*
%TO.P,U1,2*%
%TO.N,/MOTOR2_PHASE_B*%
X167720000Y-62230000D03*
D15*
%TO.P,U1,1*%
%TO.N,/MOTOR2_PHASE_A*%
X172720000Y-62230000D03*
%TD*%
D16*
%TO.P,HMC5883L1,4*%
%TO.N,SCL*%
X116840000Y-97980000D03*
%TO.P,HMC5883L1,3*%
%TO.N,SDA*%
X116840000Y-95980000D03*
D17*
%TO.P,HMC5883L1,2*%
%TO.N,5V*%
X116840000Y-93980000D03*
D16*
%TO.P,HMC5883L1,1*%
%TO.N,GND*%
X116840000Y-91980000D03*
%TD*%
D14*
%TO.P,U3,4*%
%TO.N,/MOTOR1_PHASE_D*%
X158990000Y-104140000D03*
%TO.P,U3,3*%
%TO.N,/MOTOR1_PHASE_C*%
X163990000Y-104140000D03*
%TO.P,U3,2*%
%TO.N,/MOTOR1_PHASE_B*%
X168990000Y-104140000D03*
D15*
%TO.P,U3,1*%
%TO.N,/MOTOR1_PHASE_A*%
X173990000Y-104140000D03*
%TD*%
D18*
%TO.P,MOSFET1,3*%
%TO.N,5V*%
X116840000Y-109220000D03*
%TO.P,MOSFET1,2*%
%TO.N,GND*%
X116840000Y-106680000D03*
D19*
%TO.P,MOSFET1,1*%
%TO.N,/12V*%
X116840000Y-104140000D03*
%TD*%
D20*
%TO.N,/MOTOR2_PHASE_D*%
X157720000Y-68820000D02*
X161290000Y-72390000D01*
X157720000Y-62230000D02*
X157720000Y-68820000D01*
%TO.N,/MOTOR2_PHASE_C*%
X162720000Y-66200000D02*
X168910000Y-72390000D01*
X162720000Y-62230000D02*
X162720000Y-66200000D01*
%TO.N,/MOTOR2_PHASE_B*%
X170035001Y-78884999D02*
X168910000Y-80010000D01*
X170035001Y-64545001D02*
X170035001Y-78884999D01*
X167720000Y-62230000D02*
X170035001Y-64545001D01*
%TO.N,/MOTOR2_PHASE_A*%
X172720000Y-62230000D02*
X172720000Y-59690000D01*
X172720000Y-59690000D02*
X160020000Y-59690000D01*
X162415001Y-71849999D02*
X162415001Y-78884999D01*
X162415001Y-78884999D02*
X161290000Y-80010000D01*
X160020000Y-69454998D02*
X162415001Y-71849999D01*
X160020000Y-59690000D02*
X160020000Y-69454998D01*
%TO.N,/MOTOR1_PHASE_D*%
X159878999Y-87771001D02*
X161290000Y-86360000D01*
X159878999Y-103251001D02*
X159878999Y-87771001D01*
X158990000Y-104140000D02*
X159878999Y-103251001D01*
%TO.N,/MOTOR1_PHASE_C*%
X167784999Y-87485001D02*
X168910000Y-86360000D01*
X167784999Y-100345001D02*
X167784999Y-87485001D01*
X163990000Y-104140000D02*
X167784999Y-100345001D01*
%TO.N,/MOTOR1_PHASE_B*%
X168990000Y-94060000D02*
X168910000Y-93980000D01*
X168990000Y-104140000D02*
X168990000Y-94060000D01*
%TO.N,/MOTOR1_PHASE_A*%
X173990000Y-104140000D02*
X173990000Y-106680000D01*
X173990000Y-106680000D02*
X161290000Y-106680000D01*
X161290000Y-106680000D02*
X161290000Y-93980000D01*
%TO.N,/12V*%
X124500000Y-106680000D02*
X124500000Y-110450000D01*
X124500000Y-110450000D02*
X125730000Y-109220000D01*
X172086410Y-109220000D02*
X176530000Y-104776410D01*
X125730000Y-109220000D02*
X172086410Y-109220000D01*
X176530000Y-96520000D02*
X173990000Y-93980000D01*
X176530000Y-104776410D02*
X176530000Y-96520000D01*
X173990000Y-93980000D02*
X175260000Y-93980000D01*
X175260000Y-93980000D02*
X176530000Y-92710000D01*
X176530000Y-82550000D02*
X173990000Y-80010000D01*
X176530000Y-92710000D02*
X176530000Y-82550000D01*
X170999991Y-83000009D02*
X173990000Y-80010000D01*
X159569991Y-83000009D02*
X170999991Y-83000009D01*
X156210000Y-86360000D02*
X159569991Y-83000009D01*
%TO.N,/MOTOR1_A*%
X158750000Y-93980000D02*
X157480000Y-92710000D01*
X147320000Y-92710000D02*
X142240000Y-87630000D01*
X157480000Y-92710000D02*
X147320000Y-92710000D01*
%TO.N,/MOTOR2_C*%
X152400000Y-74930000D02*
X149860000Y-77470000D01*
X157930010Y-59239990D02*
X152400000Y-64770000D01*
X172906400Y-59239990D02*
X157930010Y-59239990D01*
X152400000Y-64770000D02*
X152400000Y-66040000D01*
X173934001Y-60267591D02*
X172906400Y-59239990D01*
X173934001Y-69905999D02*
X173934001Y-60267591D01*
X171450000Y-72390000D02*
X173934001Y-69905999D01*
X152400000Y-66040000D02*
X152400000Y-74930000D01*
X152400000Y-65753278D02*
X152400000Y-66040000D01*
%TO.N,/MOTOR2_B*%
X168910000Y-82550000D02*
X171450000Y-80010000D01*
X151130000Y-80010000D02*
X153670000Y-82550000D01*
X153670000Y-82550000D02*
X168910000Y-82550000D01*
X149860000Y-80010000D02*
X151130000Y-80010000D01*
%TO.N,/MOTOR1_D*%
X157624999Y-87485001D02*
X158750000Y-86360000D01*
X152255001Y-87485001D02*
X157624999Y-87485001D01*
X149860000Y-85090000D02*
X152255001Y-87485001D01*
%TO.N,GND*%
X116840000Y-106680000D02*
X114300000Y-106680000D01*
X116840000Y-92251998D02*
X116840000Y-91980000D01*
X114300000Y-94791998D02*
X116840000Y-92251998D01*
X114300000Y-106680000D02*
X114300000Y-94791998D01*
X116840000Y-91980000D02*
X116840000Y-82550000D01*
X116840000Y-82550000D02*
X120650000Y-78740000D01*
X121920000Y-77470000D02*
X121920000Y-74930000D01*
X120650000Y-78740000D02*
X121920000Y-77470000D01*
X142280000Y-106680000D02*
X142280000Y-100370000D01*
X142280000Y-100370000D02*
X139700000Y-97790000D01*
X139700000Y-85090000D02*
X142240000Y-82550000D01*
X139700000Y-97790000D02*
X139700000Y-85090000D01*
X142240000Y-82550000D02*
X146050000Y-82550000D01*
X146050000Y-76200000D02*
X149860000Y-72390000D01*
X146050000Y-82550000D02*
X146050000Y-76200000D01*
%TO.N,SHIFT_CLCK*%
X138285001Y-83090001D02*
X137555002Y-83820000D01*
X138285001Y-81424999D02*
X138285001Y-83090001D01*
X142240000Y-77470000D02*
X138285001Y-81424999D01*
X136764998Y-83820000D02*
X133350000Y-87234998D01*
X137555002Y-83820000D02*
X136764998Y-83820000D01*
X133350000Y-88900000D02*
X137160000Y-92710000D01*
X133350000Y-87234998D02*
X133350000Y-88900000D01*
%TO.N,5V*%
X137700001Y-81135001D02*
X139700000Y-79135002D01*
X123045001Y-81135001D02*
X137700001Y-81135001D01*
X121920000Y-80010000D02*
X123045001Y-81135001D01*
X139700000Y-77470000D02*
X142240000Y-74930000D01*
X139700000Y-79135002D02*
X139700000Y-77470000D01*
X156210000Y-95030000D02*
X155990000Y-95250000D01*
X156210000Y-93980000D02*
X156210000Y-95030000D01*
X147320000Y-95250000D02*
X142240000Y-90170000D01*
X155990000Y-95250000D02*
X147320000Y-95250000D01*
X156210000Y-80010000D02*
X154940000Y-78740000D01*
X149464998Y-78740000D02*
X147320000Y-80884998D01*
X154940000Y-78740000D02*
X149464998Y-78740000D01*
X147320000Y-80884998D02*
X147320000Y-85090000D01*
X147320000Y-85090000D02*
X146050000Y-86360000D01*
X141114999Y-89044999D02*
X142240000Y-90170000D01*
X141114999Y-87089999D02*
X141114999Y-89044999D01*
X141844998Y-86360000D02*
X141114999Y-87089999D01*
X146050000Y-86360000D02*
X141844998Y-86360000D01*
%TD*%
M02*
