M48
; DRILL file {KiCad (5.1.9)-1} date 04/29/21 20:46:38
; FORMAT={-:-/ absolute / inch / decimal}
; #@! TF.CreationDate,2021-04-29T20:46:38-07:00
; #@! TF.GenerationSoftware,Kicad,Pcbnew,(5.1.9)-1
; #@! TF.FileFunction,Plated,1,2,PTH
FMAT,2
INCH
T1C0.0157
T2C0.0276
T3C0.0300
T4C0.0315
T5C0.0400
T6C0.0413
T7C0.0433
T8C0.0500
%
G90
G05
T1
X7.0Y-2.12
X7.1Y-2.12
X7.58Y-2.1337
X7.8Y-3.3915
X8.5463Y-2.3
X8.56Y-2.54
X8.64Y-2.16
X8.64Y-2.46
X8.64Y-2.58
X8.7Y-2.54
X8.92Y-2.92
T2
X9.06Y-1.94
X9.06Y-2.04
X9.06Y-2.26
X9.06Y-2.36
T3
X8.75Y-2.64
X8.75Y-2.74
X8.75Y-2.84
T4
X6.7Y-1.72
X6.7Y-2.02
X6.8Y-1.72
X6.8Y-2.02
X6.9Y-1.72
X6.9Y-2.02
X7.0Y-1.72
X7.0Y-2.02
X7.1Y-1.72
X7.1Y-2.02
X7.2Y-1.72
X7.2Y-2.02
X7.3Y-1.72
X7.3Y-2.02
X7.4Y-1.72
X7.4Y-2.02
X7.7Y-2.05
X7.7Y-2.35
X7.7Y-2.55
X7.7Y-2.85
X7.8Y-2.05
X7.8Y-2.35
X7.8Y-2.55
X7.8Y-2.85
X7.9Y-2.05
X7.9Y-2.35
X7.9Y-2.55
X7.9Y-2.85
X8.0Y-2.05
X8.0Y-2.35
X8.0Y-2.55
X8.0Y-2.85
X8.1Y-2.05
X8.1Y-2.35
X8.1Y-2.55
X8.1Y-2.85
X8.2Y-2.05
X8.2Y-2.35
X8.2Y-2.55
X8.2Y-2.85
X8.3Y-2.05
X8.3Y-2.35
X8.3Y-2.55
X8.3Y-2.85
X8.4Y-2.05
X8.4Y-2.35
X8.4Y-2.55
X8.4Y-2.85
X8.7Y-1.99
X8.7Y-2.34
X8.7984Y-1.99
X8.7984Y-2.34
X9.05Y-2.5447
X9.05Y-2.84
T5
X9.32Y-2.4
X9.32Y-2.5
X9.32Y-2.6
X9.32Y-2.7
X9.32Y-2.8
T6
X8.6616Y-3.34
X8.8584Y-3.34
X9.1616Y-3.34
X9.3584Y-3.34
T7
X6.74Y-2.25
X6.74Y-2.35
X6.74Y-2.45
X6.74Y-2.55
X6.74Y-2.65
X6.74Y-2.75
X6.74Y-2.85
X6.74Y-2.95
X6.74Y-3.05
X6.74Y-3.15
X6.74Y-3.25
X6.74Y-3.35
X7.34Y-2.25
X7.34Y-2.35
X7.34Y-2.45
X7.34Y-2.55
X7.34Y-2.65
X7.34Y-2.75
X7.34Y-2.85
X7.34Y-2.95
X7.34Y-3.05
X7.34Y-3.15
X7.34Y-3.25
X7.34Y-3.35
T8
X7.7594Y-3.3
X7.9563Y-3.3
X8.1531Y-3.3
X8.35Y-3.3
X8.5894Y-1.48
X8.7863Y-1.48
X8.9831Y-1.48
X9.18Y-1.48
T0
M30
