%TF.GenerationSoftware,KiCad,Pcbnew,(5.1.9)-1*%
%TF.CreationDate,2021-04-07T20:22:23-07:00*%
%TF.ProjectId,bbot-pcb,62626f74-2d70-4636-922e-6b696361645f,rev?*%
%TF.SameCoordinates,Original*%
%TF.FileFunction,Legend,Bot*%
%TF.FilePolarity,Positive*%
%FSLAX46Y46*%
G04 Gerber Fmt 4.6, Leading zero omitted, Abs format (unit mm)*
G04 Created by KiCad (PCBNEW (5.1.9)-1) date 2021-04-07 20:22:23*
%MOMM*%
%LPD*%
G01*
G04 APERTURE LIST*
%ADD10C,0.150000*%
G04 APERTURE END LIST*
D10*
X117737380Y-69509047D02*
X116737380Y-69509047D01*
X117118333Y-69509047D02*
X117070714Y-69604285D01*
X117070714Y-69794761D01*
X117118333Y-69890000D01*
X117165952Y-69937619D01*
X117261190Y-69985238D01*
X117546904Y-69985238D01*
X117642142Y-69937619D01*
X117689761Y-69890000D01*
X117737380Y-69794761D01*
X117737380Y-69604285D01*
X117689761Y-69509047D01*
X117737380Y-70413809D02*
X116737380Y-70413809D01*
X117118333Y-70413809D02*
X117070714Y-70509047D01*
X117070714Y-70699523D01*
X117118333Y-70794761D01*
X117165952Y-70842380D01*
X117261190Y-70890000D01*
X117546904Y-70890000D01*
X117642142Y-70842380D01*
X117689761Y-70794761D01*
X117737380Y-70699523D01*
X117737380Y-70509047D01*
X117689761Y-70413809D01*
X117737380Y-71461428D02*
X117689761Y-71366190D01*
X117642142Y-71318571D01*
X117546904Y-71270952D01*
X117261190Y-71270952D01*
X117165952Y-71318571D01*
X117118333Y-71366190D01*
X117070714Y-71461428D01*
X117070714Y-71604285D01*
X117118333Y-71699523D01*
X117165952Y-71747142D01*
X117261190Y-71794761D01*
X117546904Y-71794761D01*
X117642142Y-71747142D01*
X117689761Y-71699523D01*
X117737380Y-71604285D01*
X117737380Y-71461428D01*
X117070714Y-72080476D02*
X117070714Y-72461428D01*
X116737380Y-72223333D02*
X117594523Y-72223333D01*
X117689761Y-72270952D01*
X117737380Y-72366190D01*
X117737380Y-72461428D01*
X117356428Y-72794761D02*
X117356428Y-73556666D01*
X117070714Y-73937619D02*
X117737380Y-74175714D01*
X117070714Y-74413809D01*
X116737380Y-74985238D02*
X116737380Y-75080476D01*
X116785000Y-75175714D01*
X116832619Y-75223333D01*
X116927857Y-75270952D01*
X117118333Y-75318571D01*
X117356428Y-75318571D01*
X117546904Y-75270952D01*
X117642142Y-75223333D01*
X117689761Y-75175714D01*
X117737380Y-75080476D01*
X117737380Y-74985238D01*
X117689761Y-74890000D01*
X117642142Y-74842380D01*
X117546904Y-74794761D01*
X117356428Y-74747142D01*
X117118333Y-74747142D01*
X116927857Y-74794761D01*
X116832619Y-74842380D01*
X116785000Y-74890000D01*
X116737380Y-74985238D01*
X118387380Y-69199523D02*
X119101666Y-69199523D01*
X119244523Y-69151904D01*
X119339761Y-69056666D01*
X119387380Y-68913809D01*
X119387380Y-68818571D01*
X119387380Y-69818571D02*
X119339761Y-69723333D01*
X119292142Y-69675714D01*
X119196904Y-69628095D01*
X118911190Y-69628095D01*
X118815952Y-69675714D01*
X118768333Y-69723333D01*
X118720714Y-69818571D01*
X118720714Y-69961428D01*
X118768333Y-70056666D01*
X118815952Y-70104285D01*
X118911190Y-70151904D01*
X119196904Y-70151904D01*
X119292142Y-70104285D01*
X119339761Y-70056666D01*
X119387380Y-69961428D01*
X119387380Y-69818571D01*
X119339761Y-70532857D02*
X119387380Y-70628095D01*
X119387380Y-70818571D01*
X119339761Y-70913809D01*
X119244523Y-70961428D01*
X119196904Y-70961428D01*
X119101666Y-70913809D01*
X119054047Y-70818571D01*
X119054047Y-70675714D01*
X119006428Y-70580476D01*
X118911190Y-70532857D01*
X118863571Y-70532857D01*
X118768333Y-70580476D01*
X118720714Y-70675714D01*
X118720714Y-70818571D01*
X118768333Y-70913809D01*
X119387380Y-71390000D02*
X118387380Y-71390000D01*
X119387380Y-71818571D02*
X118863571Y-71818571D01*
X118768333Y-71770952D01*
X118720714Y-71675714D01*
X118720714Y-71532857D01*
X118768333Y-71437619D01*
X118815952Y-71390000D01*
X119292142Y-73628095D02*
X119339761Y-73580476D01*
X119387380Y-73437619D01*
X119387380Y-73342380D01*
X119339761Y-73199523D01*
X119244523Y-73104285D01*
X119149285Y-73056666D01*
X118958809Y-73009047D01*
X118815952Y-73009047D01*
X118625476Y-73056666D01*
X118530238Y-73104285D01*
X118435000Y-73199523D01*
X118387380Y-73342380D01*
X118387380Y-73437619D01*
X118435000Y-73580476D01*
X118482619Y-73628095D01*
X119387380Y-74199523D02*
X119339761Y-74104285D01*
X119292142Y-74056666D01*
X119196904Y-74009047D01*
X118911190Y-74009047D01*
X118815952Y-74056666D01*
X118768333Y-74104285D01*
X118720714Y-74199523D01*
X118720714Y-74342380D01*
X118768333Y-74437619D01*
X118815952Y-74485238D01*
X118911190Y-74532857D01*
X119196904Y-74532857D01*
X119292142Y-74485238D01*
X119339761Y-74437619D01*
X119387380Y-74342380D01*
X119387380Y-74199523D01*
X119387380Y-75104285D02*
X119339761Y-75009047D01*
X119244523Y-74961428D01*
X118387380Y-74961428D01*
X119339761Y-75866190D02*
X119387380Y-75770952D01*
X119387380Y-75580476D01*
X119339761Y-75485238D01*
X119244523Y-75437619D01*
X118863571Y-75437619D01*
X118768333Y-75485238D01*
X118720714Y-75580476D01*
X118720714Y-75770952D01*
X118768333Y-75866190D01*
X118863571Y-75913809D01*
X118958809Y-75913809D01*
X119054047Y-75437619D01*
M02*
