%TF.GenerationSoftware,KiCad,Pcbnew,(5.1.9)-1*%
%TF.CreationDate,2021-04-18T21:28:31-07:00*%
%TF.ProjectId,bbot-pcb,62626f74-2d70-4636-922e-6b696361645f,rev?*%
%TF.SameCoordinates,Original*%
%TF.FileFunction,Legend,Top*%
%TF.FilePolarity,Positive*%
%FSLAX46Y46*%
G04 Gerber Fmt 4.6, Leading zero omitted, Abs format (unit mm)*
G04 Created by KiCad (PCBNEW (5.1.9)-1) date 2021-04-18 21:28:31*
%MOMM*%
%LPD*%
G01*
G04 APERTURE LIST*
%ADD10C,0.150000*%
%ADD11C,0.120000*%
G04 APERTURE END LIST*
D10*
X191571666Y-65492380D02*
X192238333Y-66492380D01*
X192238333Y-65492380D02*
X191571666Y-66492380D01*
X192619285Y-66492380D02*
X192619285Y-65492380D01*
X192857380Y-65492380D01*
X193000238Y-65540000D01*
X193095476Y-65635238D01*
X193143095Y-65730476D01*
X193190714Y-65920952D01*
X193190714Y-66063809D01*
X193143095Y-66254285D01*
X193095476Y-66349523D01*
X193000238Y-66444761D01*
X192857380Y-66492380D01*
X192619285Y-66492380D01*
X179522380Y-26336190D02*
X178998571Y-26336190D01*
X178903333Y-26383809D01*
X178855714Y-26479047D01*
X178855714Y-26669523D01*
X178903333Y-26764761D01*
X179474761Y-26336190D02*
X179522380Y-26431428D01*
X179522380Y-26669523D01*
X179474761Y-26764761D01*
X179379523Y-26812380D01*
X179284285Y-26812380D01*
X179189047Y-26764761D01*
X179141428Y-26669523D01*
X179141428Y-26431428D01*
X179093809Y-26336190D01*
X179522380Y-25098095D02*
X178855714Y-25098095D01*
X179046190Y-25098095D02*
X178950952Y-25050476D01*
X178903333Y-25002857D01*
X178855714Y-24907619D01*
X178855714Y-24812380D01*
X179522380Y-24336190D02*
X179474761Y-24431428D01*
X179427142Y-24479047D01*
X179331904Y-24526666D01*
X179046190Y-24526666D01*
X178950952Y-24479047D01*
X178903333Y-24431428D01*
X178855714Y-24336190D01*
X178855714Y-24193333D01*
X178903333Y-24098095D01*
X178950952Y-24050476D01*
X179046190Y-24002857D01*
X179331904Y-24002857D01*
X179427142Y-24050476D01*
X179474761Y-24098095D01*
X179522380Y-24193333D01*
X179522380Y-24336190D01*
X179522380Y-23574285D02*
X178522380Y-23574285D01*
X178903333Y-23574285D02*
X178855714Y-23479047D01*
X178855714Y-23288571D01*
X178903333Y-23193333D01*
X178950952Y-23145714D01*
X179046190Y-23098095D01*
X179331904Y-23098095D01*
X179427142Y-23145714D01*
X179474761Y-23193333D01*
X179522380Y-23288571D01*
X179522380Y-23479047D01*
X179474761Y-23574285D01*
X179522380Y-22526666D02*
X179474761Y-22621904D01*
X179427142Y-22669523D01*
X179331904Y-22717142D01*
X179046190Y-22717142D01*
X178950952Y-22669523D01*
X178903333Y-22621904D01*
X178855714Y-22526666D01*
X178855714Y-22383809D01*
X178903333Y-22288571D01*
X178950952Y-22240952D01*
X179046190Y-22193333D01*
X179331904Y-22193333D01*
X179427142Y-22240952D01*
X179474761Y-22288571D01*
X179522380Y-22383809D01*
X179522380Y-22526666D01*
X178855714Y-21907619D02*
X178855714Y-21526666D01*
X178522380Y-21764761D02*
X179379523Y-21764761D01*
X179474761Y-21717142D01*
X179522380Y-21621904D01*
X179522380Y-21526666D01*
X179522380Y-20288571D02*
X179474761Y-20383809D01*
X179379523Y-20431428D01*
X178522380Y-20431428D01*
X179522380Y-19764761D02*
X179474761Y-19860000D01*
X179427142Y-19907619D01*
X179331904Y-19955238D01*
X179046190Y-19955238D01*
X178950952Y-19907619D01*
X178903333Y-19860000D01*
X178855714Y-19764761D01*
X178855714Y-19621904D01*
X178903333Y-19526666D01*
X178950952Y-19479047D01*
X179046190Y-19431428D01*
X179331904Y-19431428D01*
X179427142Y-19479047D01*
X179474761Y-19526666D01*
X179522380Y-19621904D01*
X179522380Y-19764761D01*
X179522380Y-18860000D02*
X179474761Y-18955238D01*
X179379523Y-19002857D01*
X178522380Y-19002857D01*
X212622380Y-62880476D02*
X213336666Y-62880476D01*
X213479523Y-62928095D01*
X213574761Y-63023333D01*
X213622380Y-63166190D01*
X213622380Y-63261428D01*
X213622380Y-62261428D02*
X213574761Y-62356666D01*
X213527142Y-62404285D01*
X213431904Y-62451904D01*
X213146190Y-62451904D01*
X213050952Y-62404285D01*
X213003333Y-62356666D01*
X212955714Y-62261428D01*
X212955714Y-62118571D01*
X213003333Y-62023333D01*
X213050952Y-61975714D01*
X213146190Y-61928095D01*
X213431904Y-61928095D01*
X213527142Y-61975714D01*
X213574761Y-62023333D01*
X213622380Y-62118571D01*
X213622380Y-62261428D01*
X213574761Y-61547142D02*
X213622380Y-61451904D01*
X213622380Y-61261428D01*
X213574761Y-61166190D01*
X213479523Y-61118571D01*
X213431904Y-61118571D01*
X213336666Y-61166190D01*
X213289047Y-61261428D01*
X213289047Y-61404285D01*
X213241428Y-61499523D01*
X213146190Y-61547142D01*
X213098571Y-61547142D01*
X213003333Y-61499523D01*
X212955714Y-61404285D01*
X212955714Y-61261428D01*
X213003333Y-61166190D01*
X213622380Y-60690000D02*
X212622380Y-60690000D01*
X213622380Y-60261428D02*
X213098571Y-60261428D01*
X213003333Y-60309047D01*
X212955714Y-60404285D01*
X212955714Y-60547142D01*
X213003333Y-60642380D01*
X213050952Y-60690000D01*
X213527142Y-58451904D02*
X213574761Y-58499523D01*
X213622380Y-58642380D01*
X213622380Y-58737619D01*
X213574761Y-58880476D01*
X213479523Y-58975714D01*
X213384285Y-59023333D01*
X213193809Y-59070952D01*
X213050952Y-59070952D01*
X212860476Y-59023333D01*
X212765238Y-58975714D01*
X212670000Y-58880476D01*
X212622380Y-58737619D01*
X212622380Y-58642380D01*
X212670000Y-58499523D01*
X212717619Y-58451904D01*
X213622380Y-57880476D02*
X213574761Y-57975714D01*
X213527142Y-58023333D01*
X213431904Y-58070952D01*
X213146190Y-58070952D01*
X213050952Y-58023333D01*
X213003333Y-57975714D01*
X212955714Y-57880476D01*
X212955714Y-57737619D01*
X213003333Y-57642380D01*
X213050952Y-57594761D01*
X213146190Y-57547142D01*
X213431904Y-57547142D01*
X213527142Y-57594761D01*
X213574761Y-57642380D01*
X213622380Y-57737619D01*
X213622380Y-57880476D01*
X213622380Y-56975714D02*
X213574761Y-57070952D01*
X213479523Y-57118571D01*
X212622380Y-57118571D01*
X213574761Y-56213809D02*
X213622380Y-56309047D01*
X213622380Y-56499523D01*
X213574761Y-56594761D01*
X213479523Y-56642380D01*
X213098571Y-56642380D01*
X213003333Y-56594761D01*
X212955714Y-56499523D01*
X212955714Y-56309047D01*
X213003333Y-56213809D01*
X213098571Y-56166190D01*
X213193809Y-56166190D01*
X213289047Y-56642380D01*
X215272380Y-62332857D02*
X214272380Y-62332857D01*
X214653333Y-62332857D02*
X214605714Y-62237619D01*
X214605714Y-62047142D01*
X214653333Y-61951904D01*
X214700952Y-61904285D01*
X214796190Y-61856666D01*
X215081904Y-61856666D01*
X215177142Y-61904285D01*
X215224761Y-61951904D01*
X215272380Y-62047142D01*
X215272380Y-62237619D01*
X215224761Y-62332857D01*
X215272380Y-61428095D02*
X214272380Y-61428095D01*
X214653333Y-61428095D02*
X214605714Y-61332857D01*
X214605714Y-61142380D01*
X214653333Y-61047142D01*
X214700952Y-60999523D01*
X214796190Y-60951904D01*
X215081904Y-60951904D01*
X215177142Y-60999523D01*
X215224761Y-61047142D01*
X215272380Y-61142380D01*
X215272380Y-61332857D01*
X215224761Y-61428095D01*
X215272380Y-60380476D02*
X215224761Y-60475714D01*
X215177142Y-60523333D01*
X215081904Y-60570952D01*
X214796190Y-60570952D01*
X214700952Y-60523333D01*
X214653333Y-60475714D01*
X214605714Y-60380476D01*
X214605714Y-60237619D01*
X214653333Y-60142380D01*
X214700952Y-60094761D01*
X214796190Y-60047142D01*
X215081904Y-60047142D01*
X215177142Y-60094761D01*
X215224761Y-60142380D01*
X215272380Y-60237619D01*
X215272380Y-60380476D01*
X214605714Y-59761428D02*
X214605714Y-59380476D01*
X214272380Y-59618571D02*
X215129523Y-59618571D01*
X215224761Y-59570952D01*
X215272380Y-59475714D01*
X215272380Y-59380476D01*
X214605714Y-58380476D02*
X215272380Y-58142380D01*
X214605714Y-57904285D01*
X214367619Y-57570952D02*
X214320000Y-57523333D01*
X214272380Y-57428095D01*
X214272380Y-57190000D01*
X214320000Y-57094761D01*
X214367619Y-57047142D01*
X214462857Y-56999523D01*
X214558095Y-56999523D01*
X214700952Y-57047142D01*
X215272380Y-57618571D01*
X215272380Y-56999523D01*
D11*
%TO.C,U4*%
X186030000Y-79460000D02*
X179530000Y-79460000D01*
X186030000Y-77960000D02*
X186030000Y-79460000D01*
X179530000Y-77960000D02*
X186030000Y-77960000D01*
X179530000Y-79460000D02*
X179530000Y-77960000D01*
X175030000Y-79460000D02*
X175030000Y-59460000D01*
X190530000Y-79460000D02*
X175030000Y-79460000D01*
X190530000Y-59460000D02*
X190530000Y-79460000D01*
X175030000Y-59460000D02*
X190530000Y-59460000D01*
%TO.C,MetroMini1*%
X163560000Y-34230000D02*
G75*
G02*
X161560000Y-34230000I-1000000J0D01*
G01*
X161560000Y-34230000D02*
X156100000Y-34230000D01*
X156100000Y-34230000D02*
X156100000Y-69910000D01*
X156100000Y-69910000D02*
X169020000Y-69910000D01*
X169020000Y-69910000D02*
X169020000Y-34230000D01*
X169020000Y-34230000D02*
X163560000Y-34230000D01*
X153940000Y-33560000D02*
X153940000Y-30560000D01*
X153940000Y-30560000D02*
X170940000Y-30560000D01*
X170940000Y-30560000D02*
X170940000Y-33560000D01*
X170940000Y-33560000D02*
X153940000Y-33560000D01*
X153940000Y-70560000D02*
X153940000Y-73560000D01*
X153940000Y-73560000D02*
X170940000Y-73560000D01*
X170940000Y-73560000D02*
X170940000Y-70560000D01*
X170940000Y-70560000D02*
X153940000Y-70560000D01*
%TO.C,U2*%
X148590000Y-51054000D02*
X148590000Y-66040000D01*
X148590000Y-66040000D02*
X143510000Y-66040000D01*
X143510000Y-66040000D02*
X143510000Y-51054000D01*
X143510000Y-51054000D02*
X148336000Y-51054000D01*
X148336000Y-51054000D02*
X148590000Y-51054000D01*
%TO.C,U3*%
X194350000Y-16360000D02*
X194350000Y-22860000D01*
X214350000Y-16360000D02*
X194350000Y-16360000D01*
X214350000Y-29360000D02*
X214350000Y-16360000D01*
X194350000Y-29360000D02*
X214350000Y-29360000D01*
X194350000Y-22860000D02*
X194350000Y-29360000D01*
%TO.C,U1*%
X194350000Y-59540000D02*
X194350000Y-66040000D01*
X214350000Y-59540000D02*
X194350000Y-59540000D01*
X214350000Y-72540000D02*
X214350000Y-59540000D01*
X194350000Y-72540000D02*
X214350000Y-72540000D01*
X194350000Y-66040000D02*
X194350000Y-72540000D01*
%TO.C,SHIFT_REGISTER1*%
X178705000Y-54670000D02*
G75*
G02*
X180705000Y-54670000I1000000J0D01*
G01*
X180705000Y-54670000D02*
X182355000Y-54670000D01*
X182355000Y-54670000D02*
X182355000Y-34230000D01*
X182355000Y-34230000D02*
X177055000Y-34230000D01*
X177055000Y-34230000D02*
X177055000Y-54670000D01*
X177055000Y-54670000D02*
X178705000Y-54670000D01*
%TO.C,PowerSwitch1*%
X172010000Y-24060000D02*
X172010000Y-23960000D01*
X163322000Y-18796000D02*
X174498000Y-18796000D01*
X174498000Y-18796000D02*
X174498000Y-26416000D01*
X174498000Y-26416000D02*
X163322000Y-26416000D01*
X163322000Y-26416000D02*
X163322000Y-18796000D01*
%TO.C,MOTOR2_L293D1*%
X194040000Y-34230000D02*
G75*
G02*
X192040000Y-34230000I-1000000J0D01*
G01*
X192040000Y-34230000D02*
X190390000Y-34230000D01*
X190390000Y-34230000D02*
X190390000Y-54670000D01*
X190390000Y-54670000D02*
X195690000Y-54670000D01*
X195690000Y-54670000D02*
X195690000Y-34230000D01*
X195690000Y-34230000D02*
X194040000Y-34230000D01*
%TO.C,MOTOR1_L293D1*%
X209280000Y-34230000D02*
G75*
G02*
X207280000Y-34230000I-1000000J0D01*
G01*
X207280000Y-34230000D02*
X205630000Y-34230000D01*
X205630000Y-34230000D02*
X205630000Y-54670000D01*
X205630000Y-54670000D02*
X210930000Y-54670000D01*
X210930000Y-54670000D02*
X210930000Y-34230000D01*
X210930000Y-34230000D02*
X209280000Y-34230000D01*
%TO.C,MOSFET1*%
X148590000Y-46736000D02*
X148590000Y-39624000D01*
X146050000Y-46736000D02*
X148590000Y-46736000D01*
X146050000Y-39624000D02*
X146050000Y-46736000D01*
X148590000Y-39624000D02*
X146050000Y-39624000D01*
%TO.C,BatteryPack1*%
X156770000Y-24060000D02*
X156770000Y-23960000D01*
X148082000Y-18796000D02*
X159258000Y-18796000D01*
X159258000Y-18796000D02*
X159258000Y-26416000D01*
X159258000Y-26416000D02*
X148082000Y-26416000D01*
X148082000Y-26416000D02*
X148082000Y-18796000D01*
%TO.C,U4*%
D10*
X176268095Y-80412380D02*
X176268095Y-81221904D01*
X176315714Y-81317142D01*
X176363333Y-81364761D01*
X176458571Y-81412380D01*
X176649047Y-81412380D01*
X176744285Y-81364761D01*
X176791904Y-81317142D01*
X176839523Y-81221904D01*
X176839523Y-80412380D01*
X177744285Y-80745714D02*
X177744285Y-81412380D01*
X177506190Y-80364761D02*
X177268095Y-81079047D01*
X177887142Y-81079047D01*
%TO.C,MetroMini1*%
X158774285Y-32012380D02*
X158774285Y-31012380D01*
X159107619Y-31726666D01*
X159440952Y-31012380D01*
X159440952Y-32012380D01*
X160298095Y-31964761D02*
X160202857Y-32012380D01*
X160012380Y-32012380D01*
X159917142Y-31964761D01*
X159869523Y-31869523D01*
X159869523Y-31488571D01*
X159917142Y-31393333D01*
X160012380Y-31345714D01*
X160202857Y-31345714D01*
X160298095Y-31393333D01*
X160345714Y-31488571D01*
X160345714Y-31583809D01*
X159869523Y-31679047D01*
X160631428Y-31345714D02*
X161012380Y-31345714D01*
X160774285Y-31012380D02*
X160774285Y-31869523D01*
X160821904Y-31964761D01*
X160917142Y-32012380D01*
X161012380Y-32012380D01*
X161345714Y-32012380D02*
X161345714Y-31345714D01*
X161345714Y-31536190D02*
X161393333Y-31440952D01*
X161440952Y-31393333D01*
X161536190Y-31345714D01*
X161631428Y-31345714D01*
X162107619Y-32012380D02*
X162012380Y-31964761D01*
X161964761Y-31917142D01*
X161917142Y-31821904D01*
X161917142Y-31536190D01*
X161964761Y-31440952D01*
X162012380Y-31393333D01*
X162107619Y-31345714D01*
X162250476Y-31345714D01*
X162345714Y-31393333D01*
X162393333Y-31440952D01*
X162440952Y-31536190D01*
X162440952Y-31821904D01*
X162393333Y-31917142D01*
X162345714Y-31964761D01*
X162250476Y-32012380D01*
X162107619Y-32012380D01*
X162869523Y-32012380D02*
X162869523Y-31012380D01*
X163202857Y-31726666D01*
X163536190Y-31012380D01*
X163536190Y-32012380D01*
X164012380Y-32012380D02*
X164012380Y-31345714D01*
X164012380Y-31012380D02*
X163964761Y-31060000D01*
X164012380Y-31107619D01*
X164060000Y-31060000D01*
X164012380Y-31012380D01*
X164012380Y-31107619D01*
X164488571Y-31345714D02*
X164488571Y-32012380D01*
X164488571Y-31440952D02*
X164536190Y-31393333D01*
X164631428Y-31345714D01*
X164774285Y-31345714D01*
X164869523Y-31393333D01*
X164917142Y-31488571D01*
X164917142Y-32012380D01*
X165393333Y-32012380D02*
X165393333Y-31345714D01*
X165393333Y-31012380D02*
X165345714Y-31060000D01*
X165393333Y-31107619D01*
X165440952Y-31060000D01*
X165393333Y-31012380D01*
X165393333Y-31107619D01*
X166393333Y-32012380D02*
X165821904Y-32012380D01*
X166107619Y-32012380D02*
X166107619Y-31012380D01*
X166012380Y-31155238D01*
X165917142Y-31250476D01*
X165821904Y-31298095D01*
%TO.C,U2*%
X141946380Y-53593904D02*
X142755904Y-53593904D01*
X142851142Y-53546285D01*
X142898761Y-53498666D01*
X142946380Y-53403428D01*
X142946380Y-53212952D01*
X142898761Y-53117714D01*
X142851142Y-53070095D01*
X142755904Y-53022476D01*
X141946380Y-53022476D01*
X142041619Y-52593904D02*
X141994000Y-52546285D01*
X141946380Y-52451047D01*
X141946380Y-52212952D01*
X141994000Y-52117714D01*
X142041619Y-52070095D01*
X142136857Y-52022476D01*
X142232095Y-52022476D01*
X142374952Y-52070095D01*
X142946380Y-52641523D01*
X142946380Y-52022476D01*
%TO.C,U3*%
X195588095Y-14812380D02*
X195588095Y-15621904D01*
X195635714Y-15717142D01*
X195683333Y-15764761D01*
X195778571Y-15812380D01*
X195969047Y-15812380D01*
X196064285Y-15764761D01*
X196111904Y-15717142D01*
X196159523Y-15621904D01*
X196159523Y-14812380D01*
X196540476Y-14812380D02*
X197159523Y-14812380D01*
X196826190Y-15193333D01*
X196969047Y-15193333D01*
X197064285Y-15240952D01*
X197111904Y-15288571D01*
X197159523Y-15383809D01*
X197159523Y-15621904D01*
X197111904Y-15717142D01*
X197064285Y-15764761D01*
X196969047Y-15812380D01*
X196683333Y-15812380D01*
X196588095Y-15764761D01*
X196540476Y-15717142D01*
%TO.C,U1*%
X195588095Y-57992380D02*
X195588095Y-58801904D01*
X195635714Y-58897142D01*
X195683333Y-58944761D01*
X195778571Y-58992380D01*
X195969047Y-58992380D01*
X196064285Y-58944761D01*
X196111904Y-58897142D01*
X196159523Y-58801904D01*
X196159523Y-57992380D01*
X197159523Y-58992380D02*
X196588095Y-58992380D01*
X196873809Y-58992380D02*
X196873809Y-57992380D01*
X196778571Y-58135238D01*
X196683333Y-58230476D01*
X196588095Y-58278095D01*
%TO.C,SHIFT_REGISTER1*%
X173490714Y-56074761D02*
X173633571Y-56122380D01*
X173871666Y-56122380D01*
X173966904Y-56074761D01*
X174014523Y-56027142D01*
X174062142Y-55931904D01*
X174062142Y-55836666D01*
X174014523Y-55741428D01*
X173966904Y-55693809D01*
X173871666Y-55646190D01*
X173681190Y-55598571D01*
X173585952Y-55550952D01*
X173538333Y-55503333D01*
X173490714Y-55408095D01*
X173490714Y-55312857D01*
X173538333Y-55217619D01*
X173585952Y-55170000D01*
X173681190Y-55122380D01*
X173919285Y-55122380D01*
X174062142Y-55170000D01*
X174490714Y-56122380D02*
X174490714Y-55122380D01*
X174490714Y-55598571D02*
X175062142Y-55598571D01*
X175062142Y-56122380D02*
X175062142Y-55122380D01*
X175538333Y-56122380D02*
X175538333Y-55122380D01*
X176347857Y-55598571D02*
X176014523Y-55598571D01*
X176014523Y-56122380D02*
X176014523Y-55122380D01*
X176490714Y-55122380D01*
X176728809Y-55122380D02*
X177300238Y-55122380D01*
X177014523Y-56122380D02*
X177014523Y-55122380D01*
X177395476Y-56217619D02*
X178157380Y-56217619D01*
X178966904Y-56122380D02*
X178633571Y-55646190D01*
X178395476Y-56122380D02*
X178395476Y-55122380D01*
X178776428Y-55122380D01*
X178871666Y-55170000D01*
X178919285Y-55217619D01*
X178966904Y-55312857D01*
X178966904Y-55455714D01*
X178919285Y-55550952D01*
X178871666Y-55598571D01*
X178776428Y-55646190D01*
X178395476Y-55646190D01*
X179395476Y-55598571D02*
X179728809Y-55598571D01*
X179871666Y-56122380D02*
X179395476Y-56122380D01*
X179395476Y-55122380D01*
X179871666Y-55122380D01*
X180824047Y-55170000D02*
X180728809Y-55122380D01*
X180585952Y-55122380D01*
X180443095Y-55170000D01*
X180347857Y-55265238D01*
X180300238Y-55360476D01*
X180252619Y-55550952D01*
X180252619Y-55693809D01*
X180300238Y-55884285D01*
X180347857Y-55979523D01*
X180443095Y-56074761D01*
X180585952Y-56122380D01*
X180681190Y-56122380D01*
X180824047Y-56074761D01*
X180871666Y-56027142D01*
X180871666Y-55693809D01*
X180681190Y-55693809D01*
X181300238Y-56122380D02*
X181300238Y-55122380D01*
X181728809Y-56074761D02*
X181871666Y-56122380D01*
X182109761Y-56122380D01*
X182205000Y-56074761D01*
X182252619Y-56027142D01*
X182300238Y-55931904D01*
X182300238Y-55836666D01*
X182252619Y-55741428D01*
X182205000Y-55693809D01*
X182109761Y-55646190D01*
X181919285Y-55598571D01*
X181824047Y-55550952D01*
X181776428Y-55503333D01*
X181728809Y-55408095D01*
X181728809Y-55312857D01*
X181776428Y-55217619D01*
X181824047Y-55170000D01*
X181919285Y-55122380D01*
X182157380Y-55122380D01*
X182300238Y-55170000D01*
X182585952Y-55122380D02*
X183157380Y-55122380D01*
X182871666Y-56122380D02*
X182871666Y-55122380D01*
X183490714Y-55598571D02*
X183824047Y-55598571D01*
X183966904Y-56122380D02*
X183490714Y-56122380D01*
X183490714Y-55122380D01*
X183966904Y-55122380D01*
X184966904Y-56122380D02*
X184633571Y-55646190D01*
X184395476Y-56122380D02*
X184395476Y-55122380D01*
X184776428Y-55122380D01*
X184871666Y-55170000D01*
X184919285Y-55217619D01*
X184966904Y-55312857D01*
X184966904Y-55455714D01*
X184919285Y-55550952D01*
X184871666Y-55598571D01*
X184776428Y-55646190D01*
X184395476Y-55646190D01*
X185919285Y-56122380D02*
X185347857Y-56122380D01*
X185633571Y-56122380D02*
X185633571Y-55122380D01*
X185538333Y-55265238D01*
X185443095Y-55360476D01*
X185347857Y-55408095D01*
%TO.C,PowerSwitch1*%
X164052857Y-20772380D02*
X164052857Y-19772380D01*
X164433809Y-19772380D01*
X164529047Y-19820000D01*
X164576666Y-19867619D01*
X164624285Y-19962857D01*
X164624285Y-20105714D01*
X164576666Y-20200952D01*
X164529047Y-20248571D01*
X164433809Y-20296190D01*
X164052857Y-20296190D01*
X165195714Y-20772380D02*
X165100476Y-20724761D01*
X165052857Y-20677142D01*
X165005238Y-20581904D01*
X165005238Y-20296190D01*
X165052857Y-20200952D01*
X165100476Y-20153333D01*
X165195714Y-20105714D01*
X165338571Y-20105714D01*
X165433809Y-20153333D01*
X165481428Y-20200952D01*
X165529047Y-20296190D01*
X165529047Y-20581904D01*
X165481428Y-20677142D01*
X165433809Y-20724761D01*
X165338571Y-20772380D01*
X165195714Y-20772380D01*
X165862380Y-20105714D02*
X166052857Y-20772380D01*
X166243333Y-20296190D01*
X166433809Y-20772380D01*
X166624285Y-20105714D01*
X167386190Y-20724761D02*
X167290952Y-20772380D01*
X167100476Y-20772380D01*
X167005238Y-20724761D01*
X166957619Y-20629523D01*
X166957619Y-20248571D01*
X167005238Y-20153333D01*
X167100476Y-20105714D01*
X167290952Y-20105714D01*
X167386190Y-20153333D01*
X167433809Y-20248571D01*
X167433809Y-20343809D01*
X166957619Y-20439047D01*
X167862380Y-20772380D02*
X167862380Y-20105714D01*
X167862380Y-20296190D02*
X167910000Y-20200952D01*
X167957619Y-20153333D01*
X168052857Y-20105714D01*
X168148095Y-20105714D01*
X168433809Y-20724761D02*
X168576666Y-20772380D01*
X168814761Y-20772380D01*
X168910000Y-20724761D01*
X168957619Y-20677142D01*
X169005238Y-20581904D01*
X169005238Y-20486666D01*
X168957619Y-20391428D01*
X168910000Y-20343809D01*
X168814761Y-20296190D01*
X168624285Y-20248571D01*
X168529047Y-20200952D01*
X168481428Y-20153333D01*
X168433809Y-20058095D01*
X168433809Y-19962857D01*
X168481428Y-19867619D01*
X168529047Y-19820000D01*
X168624285Y-19772380D01*
X168862380Y-19772380D01*
X169005238Y-19820000D01*
X169338571Y-20105714D02*
X169529047Y-20772380D01*
X169719523Y-20296190D01*
X169910000Y-20772380D01*
X170100476Y-20105714D01*
X170481428Y-20772380D02*
X170481428Y-20105714D01*
X170481428Y-19772380D02*
X170433809Y-19820000D01*
X170481428Y-19867619D01*
X170529047Y-19820000D01*
X170481428Y-19772380D01*
X170481428Y-19867619D01*
X170814761Y-20105714D02*
X171195714Y-20105714D01*
X170957619Y-19772380D02*
X170957619Y-20629523D01*
X171005238Y-20724761D01*
X171100476Y-20772380D01*
X171195714Y-20772380D01*
X171957619Y-20724761D02*
X171862380Y-20772380D01*
X171671904Y-20772380D01*
X171576666Y-20724761D01*
X171529047Y-20677142D01*
X171481428Y-20581904D01*
X171481428Y-20296190D01*
X171529047Y-20200952D01*
X171576666Y-20153333D01*
X171671904Y-20105714D01*
X171862380Y-20105714D01*
X171957619Y-20153333D01*
X172386190Y-20772380D02*
X172386190Y-19772380D01*
X172814761Y-20772380D02*
X172814761Y-20248571D01*
X172767142Y-20153333D01*
X172671904Y-20105714D01*
X172529047Y-20105714D01*
X172433809Y-20153333D01*
X172386190Y-20200952D01*
X173814761Y-20772380D02*
X173243333Y-20772380D01*
X173529047Y-20772380D02*
X173529047Y-19772380D01*
X173433809Y-19915238D01*
X173338571Y-20010476D01*
X173243333Y-20058095D01*
%TO.C,MOTOR2_L293D1*%
X187111428Y-33682380D02*
X187111428Y-32682380D01*
X187444761Y-33396666D01*
X187778095Y-32682380D01*
X187778095Y-33682380D01*
X188444761Y-32682380D02*
X188635238Y-32682380D01*
X188730476Y-32730000D01*
X188825714Y-32825238D01*
X188873333Y-33015714D01*
X188873333Y-33349047D01*
X188825714Y-33539523D01*
X188730476Y-33634761D01*
X188635238Y-33682380D01*
X188444761Y-33682380D01*
X188349523Y-33634761D01*
X188254285Y-33539523D01*
X188206666Y-33349047D01*
X188206666Y-33015714D01*
X188254285Y-32825238D01*
X188349523Y-32730000D01*
X188444761Y-32682380D01*
X189159047Y-32682380D02*
X189730476Y-32682380D01*
X189444761Y-33682380D02*
X189444761Y-32682380D01*
X190254285Y-32682380D02*
X190444761Y-32682380D01*
X190540000Y-32730000D01*
X190635238Y-32825238D01*
X190682857Y-33015714D01*
X190682857Y-33349047D01*
X190635238Y-33539523D01*
X190540000Y-33634761D01*
X190444761Y-33682380D01*
X190254285Y-33682380D01*
X190159047Y-33634761D01*
X190063809Y-33539523D01*
X190016190Y-33349047D01*
X190016190Y-33015714D01*
X190063809Y-32825238D01*
X190159047Y-32730000D01*
X190254285Y-32682380D01*
X191682857Y-33682380D02*
X191349523Y-33206190D01*
X191111428Y-33682380D02*
X191111428Y-32682380D01*
X191492380Y-32682380D01*
X191587619Y-32730000D01*
X191635238Y-32777619D01*
X191682857Y-32872857D01*
X191682857Y-33015714D01*
X191635238Y-33110952D01*
X191587619Y-33158571D01*
X191492380Y-33206190D01*
X191111428Y-33206190D01*
X192063809Y-32777619D02*
X192111428Y-32730000D01*
X192206666Y-32682380D01*
X192444761Y-32682380D01*
X192540000Y-32730000D01*
X192587619Y-32777619D01*
X192635238Y-32872857D01*
X192635238Y-32968095D01*
X192587619Y-33110952D01*
X192016190Y-33682380D01*
X192635238Y-33682380D01*
X192825714Y-33777619D02*
X193587619Y-33777619D01*
X194301904Y-33682380D02*
X193825714Y-33682380D01*
X193825714Y-32682380D01*
X194587619Y-32777619D02*
X194635238Y-32730000D01*
X194730476Y-32682380D01*
X194968571Y-32682380D01*
X195063809Y-32730000D01*
X195111428Y-32777619D01*
X195159047Y-32872857D01*
X195159047Y-32968095D01*
X195111428Y-33110952D01*
X194540000Y-33682380D01*
X195159047Y-33682380D01*
X195635238Y-33682380D02*
X195825714Y-33682380D01*
X195920952Y-33634761D01*
X195968571Y-33587142D01*
X196063809Y-33444285D01*
X196111428Y-33253809D01*
X196111428Y-32872857D01*
X196063809Y-32777619D01*
X196016190Y-32730000D01*
X195920952Y-32682380D01*
X195730476Y-32682380D01*
X195635238Y-32730000D01*
X195587619Y-32777619D01*
X195540000Y-32872857D01*
X195540000Y-33110952D01*
X195587619Y-33206190D01*
X195635238Y-33253809D01*
X195730476Y-33301428D01*
X195920952Y-33301428D01*
X196016190Y-33253809D01*
X196063809Y-33206190D01*
X196111428Y-33110952D01*
X196444761Y-32682380D02*
X197063809Y-32682380D01*
X196730476Y-33063333D01*
X196873333Y-33063333D01*
X196968571Y-33110952D01*
X197016190Y-33158571D01*
X197063809Y-33253809D01*
X197063809Y-33491904D01*
X197016190Y-33587142D01*
X196968571Y-33634761D01*
X196873333Y-33682380D01*
X196587619Y-33682380D01*
X196492380Y-33634761D01*
X196444761Y-33587142D01*
X197492380Y-33682380D02*
X197492380Y-32682380D01*
X197730476Y-32682380D01*
X197873333Y-32730000D01*
X197968571Y-32825238D01*
X198016190Y-32920476D01*
X198063809Y-33110952D01*
X198063809Y-33253809D01*
X198016190Y-33444285D01*
X197968571Y-33539523D01*
X197873333Y-33634761D01*
X197730476Y-33682380D01*
X197492380Y-33682380D01*
X199016190Y-33682380D02*
X198444761Y-33682380D01*
X198730476Y-33682380D02*
X198730476Y-32682380D01*
X198635238Y-32825238D01*
X198540000Y-32920476D01*
X198444761Y-32968095D01*
%TO.C,MOTOR1_L293D1*%
X202351428Y-33682380D02*
X202351428Y-32682380D01*
X202684761Y-33396666D01*
X203018095Y-32682380D01*
X203018095Y-33682380D01*
X203684761Y-32682380D02*
X203875238Y-32682380D01*
X203970476Y-32730000D01*
X204065714Y-32825238D01*
X204113333Y-33015714D01*
X204113333Y-33349047D01*
X204065714Y-33539523D01*
X203970476Y-33634761D01*
X203875238Y-33682380D01*
X203684761Y-33682380D01*
X203589523Y-33634761D01*
X203494285Y-33539523D01*
X203446666Y-33349047D01*
X203446666Y-33015714D01*
X203494285Y-32825238D01*
X203589523Y-32730000D01*
X203684761Y-32682380D01*
X204399047Y-32682380D02*
X204970476Y-32682380D01*
X204684761Y-33682380D02*
X204684761Y-32682380D01*
X205494285Y-32682380D02*
X205684761Y-32682380D01*
X205780000Y-32730000D01*
X205875238Y-32825238D01*
X205922857Y-33015714D01*
X205922857Y-33349047D01*
X205875238Y-33539523D01*
X205780000Y-33634761D01*
X205684761Y-33682380D01*
X205494285Y-33682380D01*
X205399047Y-33634761D01*
X205303809Y-33539523D01*
X205256190Y-33349047D01*
X205256190Y-33015714D01*
X205303809Y-32825238D01*
X205399047Y-32730000D01*
X205494285Y-32682380D01*
X206922857Y-33682380D02*
X206589523Y-33206190D01*
X206351428Y-33682380D02*
X206351428Y-32682380D01*
X206732380Y-32682380D01*
X206827619Y-32730000D01*
X206875238Y-32777619D01*
X206922857Y-32872857D01*
X206922857Y-33015714D01*
X206875238Y-33110952D01*
X206827619Y-33158571D01*
X206732380Y-33206190D01*
X206351428Y-33206190D01*
X207875238Y-33682380D02*
X207303809Y-33682380D01*
X207589523Y-33682380D02*
X207589523Y-32682380D01*
X207494285Y-32825238D01*
X207399047Y-32920476D01*
X207303809Y-32968095D01*
X208065714Y-33777619D02*
X208827619Y-33777619D01*
X209541904Y-33682380D02*
X209065714Y-33682380D01*
X209065714Y-32682380D01*
X209827619Y-32777619D02*
X209875238Y-32730000D01*
X209970476Y-32682380D01*
X210208571Y-32682380D01*
X210303809Y-32730000D01*
X210351428Y-32777619D01*
X210399047Y-32872857D01*
X210399047Y-32968095D01*
X210351428Y-33110952D01*
X209780000Y-33682380D01*
X210399047Y-33682380D01*
X210875238Y-33682380D02*
X211065714Y-33682380D01*
X211160952Y-33634761D01*
X211208571Y-33587142D01*
X211303809Y-33444285D01*
X211351428Y-33253809D01*
X211351428Y-32872857D01*
X211303809Y-32777619D01*
X211256190Y-32730000D01*
X211160952Y-32682380D01*
X210970476Y-32682380D01*
X210875238Y-32730000D01*
X210827619Y-32777619D01*
X210780000Y-32872857D01*
X210780000Y-33110952D01*
X210827619Y-33206190D01*
X210875238Y-33253809D01*
X210970476Y-33301428D01*
X211160952Y-33301428D01*
X211256190Y-33253809D01*
X211303809Y-33206190D01*
X211351428Y-33110952D01*
X211684761Y-32682380D02*
X212303809Y-32682380D01*
X211970476Y-33063333D01*
X212113333Y-33063333D01*
X212208571Y-33110952D01*
X212256190Y-33158571D01*
X212303809Y-33253809D01*
X212303809Y-33491904D01*
X212256190Y-33587142D01*
X212208571Y-33634761D01*
X212113333Y-33682380D01*
X211827619Y-33682380D01*
X211732380Y-33634761D01*
X211684761Y-33587142D01*
X212732380Y-33682380D02*
X212732380Y-32682380D01*
X212970476Y-32682380D01*
X213113333Y-32730000D01*
X213208571Y-32825238D01*
X213256190Y-32920476D01*
X213303809Y-33110952D01*
X213303809Y-33253809D01*
X213256190Y-33444285D01*
X213208571Y-33539523D01*
X213113333Y-33634761D01*
X212970476Y-33682380D01*
X212732380Y-33682380D01*
X214256190Y-33682380D02*
X213684761Y-33682380D01*
X213970476Y-33682380D02*
X213970476Y-32682380D01*
X213875238Y-32825238D01*
X213780000Y-32920476D01*
X213684761Y-32968095D01*
%TO.C,MOSFET1*%
X150772380Y-46251428D02*
X149772380Y-46251428D01*
X150486666Y-45918095D01*
X149772380Y-45584761D01*
X150772380Y-45584761D01*
X149772380Y-44918095D02*
X149772380Y-44727619D01*
X149820000Y-44632380D01*
X149915238Y-44537142D01*
X150105714Y-44489523D01*
X150439047Y-44489523D01*
X150629523Y-44537142D01*
X150724761Y-44632380D01*
X150772380Y-44727619D01*
X150772380Y-44918095D01*
X150724761Y-45013333D01*
X150629523Y-45108571D01*
X150439047Y-45156190D01*
X150105714Y-45156190D01*
X149915238Y-45108571D01*
X149820000Y-45013333D01*
X149772380Y-44918095D01*
X150724761Y-44108571D02*
X150772380Y-43965714D01*
X150772380Y-43727619D01*
X150724761Y-43632380D01*
X150677142Y-43584761D01*
X150581904Y-43537142D01*
X150486666Y-43537142D01*
X150391428Y-43584761D01*
X150343809Y-43632380D01*
X150296190Y-43727619D01*
X150248571Y-43918095D01*
X150200952Y-44013333D01*
X150153333Y-44060952D01*
X150058095Y-44108571D01*
X149962857Y-44108571D01*
X149867619Y-44060952D01*
X149820000Y-44013333D01*
X149772380Y-43918095D01*
X149772380Y-43680000D01*
X149820000Y-43537142D01*
X150248571Y-42775238D02*
X150248571Y-43108571D01*
X150772380Y-43108571D02*
X149772380Y-43108571D01*
X149772380Y-42632380D01*
X150248571Y-42251428D02*
X150248571Y-41918095D01*
X150772380Y-41775238D02*
X150772380Y-42251428D01*
X149772380Y-42251428D01*
X149772380Y-41775238D01*
X149772380Y-41489523D02*
X149772380Y-40918095D01*
X150772380Y-41203809D02*
X149772380Y-41203809D01*
X150772380Y-40060952D02*
X150772380Y-40632380D01*
X150772380Y-40346666D02*
X149772380Y-40346666D01*
X149915238Y-40441904D01*
X150010476Y-40537142D01*
X150058095Y-40632380D01*
%TO.C,BatteryPack1*%
X149336666Y-19613571D02*
X149479523Y-19661190D01*
X149527142Y-19708809D01*
X149574761Y-19804047D01*
X149574761Y-19946904D01*
X149527142Y-20042142D01*
X149479523Y-20089761D01*
X149384285Y-20137380D01*
X149003333Y-20137380D01*
X149003333Y-19137380D01*
X149336666Y-19137380D01*
X149431904Y-19185000D01*
X149479523Y-19232619D01*
X149527142Y-19327857D01*
X149527142Y-19423095D01*
X149479523Y-19518333D01*
X149431904Y-19565952D01*
X149336666Y-19613571D01*
X149003333Y-19613571D01*
X150431904Y-20137380D02*
X150431904Y-19613571D01*
X150384285Y-19518333D01*
X150289047Y-19470714D01*
X150098571Y-19470714D01*
X150003333Y-19518333D01*
X150431904Y-20089761D02*
X150336666Y-20137380D01*
X150098571Y-20137380D01*
X150003333Y-20089761D01*
X149955714Y-19994523D01*
X149955714Y-19899285D01*
X150003333Y-19804047D01*
X150098571Y-19756428D01*
X150336666Y-19756428D01*
X150431904Y-19708809D01*
X150765238Y-19470714D02*
X151146190Y-19470714D01*
X150908095Y-19137380D02*
X150908095Y-19994523D01*
X150955714Y-20089761D01*
X151050952Y-20137380D01*
X151146190Y-20137380D01*
X151336666Y-19470714D02*
X151717619Y-19470714D01*
X151479523Y-19137380D02*
X151479523Y-19994523D01*
X151527142Y-20089761D01*
X151622380Y-20137380D01*
X151717619Y-20137380D01*
X152431904Y-20089761D02*
X152336666Y-20137380D01*
X152146190Y-20137380D01*
X152050952Y-20089761D01*
X152003333Y-19994523D01*
X152003333Y-19613571D01*
X152050952Y-19518333D01*
X152146190Y-19470714D01*
X152336666Y-19470714D01*
X152431904Y-19518333D01*
X152479523Y-19613571D01*
X152479523Y-19708809D01*
X152003333Y-19804047D01*
X152908095Y-20137380D02*
X152908095Y-19470714D01*
X152908095Y-19661190D02*
X152955714Y-19565952D01*
X153003333Y-19518333D01*
X153098571Y-19470714D01*
X153193809Y-19470714D01*
X153431904Y-19470714D02*
X153670000Y-20137380D01*
X153908095Y-19470714D02*
X153670000Y-20137380D01*
X153574761Y-20375476D01*
X153527142Y-20423095D01*
X153431904Y-20470714D01*
X154289047Y-20137380D02*
X154289047Y-19137380D01*
X154670000Y-19137380D01*
X154765238Y-19185000D01*
X154812857Y-19232619D01*
X154860476Y-19327857D01*
X154860476Y-19470714D01*
X154812857Y-19565952D01*
X154765238Y-19613571D01*
X154670000Y-19661190D01*
X154289047Y-19661190D01*
X155717619Y-20137380D02*
X155717619Y-19613571D01*
X155670000Y-19518333D01*
X155574761Y-19470714D01*
X155384285Y-19470714D01*
X155289047Y-19518333D01*
X155717619Y-20089761D02*
X155622380Y-20137380D01*
X155384285Y-20137380D01*
X155289047Y-20089761D01*
X155241428Y-19994523D01*
X155241428Y-19899285D01*
X155289047Y-19804047D01*
X155384285Y-19756428D01*
X155622380Y-19756428D01*
X155717619Y-19708809D01*
X156622380Y-20089761D02*
X156527142Y-20137380D01*
X156336666Y-20137380D01*
X156241428Y-20089761D01*
X156193809Y-20042142D01*
X156146190Y-19946904D01*
X156146190Y-19661190D01*
X156193809Y-19565952D01*
X156241428Y-19518333D01*
X156336666Y-19470714D01*
X156527142Y-19470714D01*
X156622380Y-19518333D01*
X157050952Y-20137380D02*
X157050952Y-19137380D01*
X157146190Y-19756428D02*
X157431904Y-20137380D01*
X157431904Y-19470714D02*
X157050952Y-19851666D01*
X158384285Y-20137380D02*
X157812857Y-20137380D01*
X158098571Y-20137380D02*
X158098571Y-19137380D01*
X158003333Y-19280238D01*
X157908095Y-19375476D01*
X157812857Y-19423095D01*
%TD*%
M02*
