%TF.GenerationSoftware,KiCad,Pcbnew,(5.1.9)-1*%
%TF.CreationDate,2021-04-07T20:22:23-07:00*%
%TF.ProjectId,bbot-pcb,62626f74-2d70-4636-922e-6b696361645f,rev?*%
%TF.SameCoordinates,Original*%
%TF.FileFunction,Legend,Top*%
%TF.FilePolarity,Positive*%
%FSLAX46Y46*%
G04 Gerber Fmt 4.6, Leading zero omitted, Abs format (unit mm)*
G04 Created by KiCad (PCBNEW (5.1.9)-1) date 2021-04-07 20:22:23*
%MOMM*%
%LPD*%
G01*
G04 APERTURE LIST*
%ADD10C,0.150000*%
%ADD11C,0.120000*%
G04 APERTURE END LIST*
D10*
X117737380Y-75270952D02*
X116737380Y-75270952D01*
X117118333Y-75270952D02*
X117070714Y-75175714D01*
X117070714Y-74985238D01*
X117118333Y-74890000D01*
X117165952Y-74842380D01*
X117261190Y-74794761D01*
X117546904Y-74794761D01*
X117642142Y-74842380D01*
X117689761Y-74890000D01*
X117737380Y-74985238D01*
X117737380Y-75175714D01*
X117689761Y-75270952D01*
X117737380Y-74366190D02*
X116737380Y-74366190D01*
X117118333Y-74366190D02*
X117070714Y-74270952D01*
X117070714Y-74080476D01*
X117118333Y-73985238D01*
X117165952Y-73937619D01*
X117261190Y-73890000D01*
X117546904Y-73890000D01*
X117642142Y-73937619D01*
X117689761Y-73985238D01*
X117737380Y-74080476D01*
X117737380Y-74270952D01*
X117689761Y-74366190D01*
X117737380Y-73318571D02*
X117689761Y-73413809D01*
X117642142Y-73461428D01*
X117546904Y-73509047D01*
X117261190Y-73509047D01*
X117165952Y-73461428D01*
X117118333Y-73413809D01*
X117070714Y-73318571D01*
X117070714Y-73175714D01*
X117118333Y-73080476D01*
X117165952Y-73032857D01*
X117261190Y-72985238D01*
X117546904Y-72985238D01*
X117642142Y-73032857D01*
X117689761Y-73080476D01*
X117737380Y-73175714D01*
X117737380Y-73318571D01*
X117070714Y-72699523D02*
X117070714Y-72318571D01*
X116737380Y-72556666D02*
X117594523Y-72556666D01*
X117689761Y-72509047D01*
X117737380Y-72413809D01*
X117737380Y-72318571D01*
X117356428Y-71985238D02*
X117356428Y-71223333D01*
X117070714Y-70842380D02*
X117737380Y-70604285D01*
X117070714Y-70366190D01*
X116737380Y-69794761D02*
X116737380Y-69699523D01*
X116785000Y-69604285D01*
X116832619Y-69556666D01*
X116927857Y-69509047D01*
X117118333Y-69461428D01*
X117356428Y-69461428D01*
X117546904Y-69509047D01*
X117642142Y-69556666D01*
X117689761Y-69604285D01*
X117737380Y-69699523D01*
X117737380Y-69794761D01*
X117689761Y-69890000D01*
X117642142Y-69937619D01*
X117546904Y-69985238D01*
X117356428Y-70032857D01*
X117118333Y-70032857D01*
X116927857Y-69985238D01*
X116832619Y-69937619D01*
X116785000Y-69890000D01*
X116737380Y-69794761D01*
X118387380Y-75580476D02*
X119101666Y-75580476D01*
X119244523Y-75628095D01*
X119339761Y-75723333D01*
X119387380Y-75866190D01*
X119387380Y-75961428D01*
X119387380Y-74961428D02*
X119339761Y-75056666D01*
X119292142Y-75104285D01*
X119196904Y-75151904D01*
X118911190Y-75151904D01*
X118815952Y-75104285D01*
X118768333Y-75056666D01*
X118720714Y-74961428D01*
X118720714Y-74818571D01*
X118768333Y-74723333D01*
X118815952Y-74675714D01*
X118911190Y-74628095D01*
X119196904Y-74628095D01*
X119292142Y-74675714D01*
X119339761Y-74723333D01*
X119387380Y-74818571D01*
X119387380Y-74961428D01*
X119339761Y-74247142D02*
X119387380Y-74151904D01*
X119387380Y-73961428D01*
X119339761Y-73866190D01*
X119244523Y-73818571D01*
X119196904Y-73818571D01*
X119101666Y-73866190D01*
X119054047Y-73961428D01*
X119054047Y-74104285D01*
X119006428Y-74199523D01*
X118911190Y-74247142D01*
X118863571Y-74247142D01*
X118768333Y-74199523D01*
X118720714Y-74104285D01*
X118720714Y-73961428D01*
X118768333Y-73866190D01*
X119387380Y-73390000D02*
X118387380Y-73390000D01*
X119387380Y-72961428D02*
X118863571Y-72961428D01*
X118768333Y-73009047D01*
X118720714Y-73104285D01*
X118720714Y-73247142D01*
X118768333Y-73342380D01*
X118815952Y-73390000D01*
X119292142Y-71151904D02*
X119339761Y-71199523D01*
X119387380Y-71342380D01*
X119387380Y-71437619D01*
X119339761Y-71580476D01*
X119244523Y-71675714D01*
X119149285Y-71723333D01*
X118958809Y-71770952D01*
X118815952Y-71770952D01*
X118625476Y-71723333D01*
X118530238Y-71675714D01*
X118435000Y-71580476D01*
X118387380Y-71437619D01*
X118387380Y-71342380D01*
X118435000Y-71199523D01*
X118482619Y-71151904D01*
X119387380Y-70580476D02*
X119339761Y-70675714D01*
X119292142Y-70723333D01*
X119196904Y-70770952D01*
X118911190Y-70770952D01*
X118815952Y-70723333D01*
X118768333Y-70675714D01*
X118720714Y-70580476D01*
X118720714Y-70437619D01*
X118768333Y-70342380D01*
X118815952Y-70294761D01*
X118911190Y-70247142D01*
X119196904Y-70247142D01*
X119292142Y-70294761D01*
X119339761Y-70342380D01*
X119387380Y-70437619D01*
X119387380Y-70580476D01*
X119387380Y-69675714D02*
X119339761Y-69770952D01*
X119244523Y-69818571D01*
X118387380Y-69818571D01*
X119339761Y-68913809D02*
X119387380Y-69009047D01*
X119387380Y-69199523D01*
X119339761Y-69294761D01*
X119244523Y-69342380D01*
X118863571Y-69342380D01*
X118768333Y-69294761D01*
X118720714Y-69199523D01*
X118720714Y-69009047D01*
X118768333Y-68913809D01*
X118863571Y-68866190D01*
X118958809Y-68866190D01*
X119054047Y-69342380D01*
D11*
%TO.C,BatteryPack1*%
X150368000Y-103124000D02*
X150368000Y-110744000D01*
X139192000Y-103124000D02*
X150368000Y-103124000D01*
X139192000Y-110744000D02*
X139192000Y-103124000D01*
X150368000Y-110744000D02*
X139192000Y-110744000D01*
X141680000Y-105480000D02*
X141680000Y-105580000D01*
%TO.C,PowerSwitch1*%
X132588000Y-103124000D02*
X132588000Y-110744000D01*
X121412000Y-103124000D02*
X132588000Y-103124000D01*
X121412000Y-110744000D02*
X121412000Y-103124000D01*
X132588000Y-110744000D02*
X121412000Y-110744000D01*
X123900000Y-105480000D02*
X123900000Y-105580000D01*
%TO.C,MetroMini1*%
X136000000Y-63440000D02*
X130540000Y-63440000D01*
X136000000Y-99120000D02*
X136000000Y-63440000D01*
X123080000Y-99120000D02*
X136000000Y-99120000D01*
X123080000Y-63440000D02*
X123080000Y-99120000D01*
X128540000Y-63440000D02*
X123080000Y-63440000D01*
X130540000Y-63440000D02*
G75*
G02*
X128540000Y-63440000I-1000000J0D01*
G01*
%TO.C,MOTOR1_L293D1*%
X154880000Y-87520000D02*
X154880000Y-89170000D01*
X175320000Y-87520000D02*
X154880000Y-87520000D01*
X175320000Y-92820000D02*
X175320000Y-87520000D01*
X154880000Y-92820000D02*
X175320000Y-92820000D01*
X154880000Y-91170000D02*
X154880000Y-92820000D01*
X154880000Y-89170000D02*
G75*
G02*
X154880000Y-91170000I0J-1000000D01*
G01*
%TO.C,MOTOR2_L293D1*%
X154880000Y-73550000D02*
X154880000Y-75200000D01*
X175320000Y-73550000D02*
X154880000Y-73550000D01*
X175320000Y-78850000D02*
X175320000Y-73550000D01*
X154880000Y-78850000D02*
X175320000Y-78850000D01*
X154880000Y-77200000D02*
X154880000Y-78850000D01*
X154880000Y-75200000D02*
G75*
G02*
X154880000Y-77200000I0J-1000000D01*
G01*
%TO.C,SHIFT_REGISTER1*%
X143400000Y-91500000D02*
X145050000Y-91500000D01*
X143400000Y-71060000D02*
X143400000Y-91500000D01*
X148700000Y-71060000D02*
X143400000Y-71060000D01*
X148700000Y-91500000D02*
X148700000Y-71060000D01*
X147050000Y-91500000D02*
X148700000Y-91500000D01*
X145050000Y-91500000D02*
G75*
G02*
X147050000Y-91500000I1000000J0D01*
G01*
%TO.C,U1*%
X175220000Y-62230000D02*
X175220000Y-55730000D01*
X175220000Y-55730000D02*
X155220000Y-55730000D01*
X155220000Y-55730000D02*
X155220000Y-68730000D01*
X155220000Y-68730000D02*
X175220000Y-68730000D01*
X175220000Y-68730000D02*
X175220000Y-62230000D01*
%TO.C,HMC5883L1*%
X117840000Y-90980000D02*
X115840000Y-90980000D01*
X115840000Y-90980000D02*
X115840000Y-98980000D01*
X115840000Y-98980000D02*
X117840000Y-98980000D01*
X117840000Y-98980000D02*
X117840000Y-90980000D01*
%TO.C,U3*%
X176490000Y-104140000D02*
X176490000Y-97640000D01*
X176490000Y-97640000D02*
X156490000Y-97640000D01*
X156490000Y-97640000D02*
X156490000Y-110640000D01*
X156490000Y-110640000D02*
X176490000Y-110640000D01*
X176490000Y-110640000D02*
X176490000Y-104140000D01*
%TO.C,MOSFET1*%
X118110000Y-103124000D02*
X115570000Y-103124000D01*
X115570000Y-103124000D02*
X115570000Y-110236000D01*
X115570000Y-110236000D02*
X118110000Y-110236000D01*
X118110000Y-110236000D02*
X118110000Y-103124000D01*
%TO.C,REF\u002A\u002A*%
D10*
X144716666Y-58482380D02*
X144383333Y-58006190D01*
X144145238Y-58482380D02*
X144145238Y-57482380D01*
X144526190Y-57482380D01*
X144621428Y-57530000D01*
X144669047Y-57577619D01*
X144716666Y-57672857D01*
X144716666Y-57815714D01*
X144669047Y-57910952D01*
X144621428Y-57958571D01*
X144526190Y-58006190D01*
X144145238Y-58006190D01*
X145145238Y-57958571D02*
X145478571Y-57958571D01*
X145621428Y-58482380D02*
X145145238Y-58482380D01*
X145145238Y-57482380D01*
X145621428Y-57482380D01*
X146383333Y-57958571D02*
X146050000Y-57958571D01*
X146050000Y-58482380D02*
X146050000Y-57482380D01*
X146526190Y-57482380D01*
X147050000Y-57482380D02*
X147050000Y-57720476D01*
X146811904Y-57625238D02*
X147050000Y-57720476D01*
X147288095Y-57625238D01*
X146907142Y-57910952D02*
X147050000Y-57720476D01*
X147192857Y-57910952D01*
X147811904Y-57482380D02*
X147811904Y-57720476D01*
X147573809Y-57625238D02*
X147811904Y-57720476D01*
X148050000Y-57625238D01*
X147669047Y-57910952D02*
X147811904Y-57720476D01*
X147954761Y-57910952D01*
%TO.C,BatteryPack1*%
X140446666Y-104068571D02*
X140589523Y-104116190D01*
X140637142Y-104163809D01*
X140684761Y-104259047D01*
X140684761Y-104401904D01*
X140637142Y-104497142D01*
X140589523Y-104544761D01*
X140494285Y-104592380D01*
X140113333Y-104592380D01*
X140113333Y-103592380D01*
X140446666Y-103592380D01*
X140541904Y-103640000D01*
X140589523Y-103687619D01*
X140637142Y-103782857D01*
X140637142Y-103878095D01*
X140589523Y-103973333D01*
X140541904Y-104020952D01*
X140446666Y-104068571D01*
X140113333Y-104068571D01*
X141541904Y-104592380D02*
X141541904Y-104068571D01*
X141494285Y-103973333D01*
X141399047Y-103925714D01*
X141208571Y-103925714D01*
X141113333Y-103973333D01*
X141541904Y-104544761D02*
X141446666Y-104592380D01*
X141208571Y-104592380D01*
X141113333Y-104544761D01*
X141065714Y-104449523D01*
X141065714Y-104354285D01*
X141113333Y-104259047D01*
X141208571Y-104211428D01*
X141446666Y-104211428D01*
X141541904Y-104163809D01*
X141875238Y-103925714D02*
X142256190Y-103925714D01*
X142018095Y-103592380D02*
X142018095Y-104449523D01*
X142065714Y-104544761D01*
X142160952Y-104592380D01*
X142256190Y-104592380D01*
X142446666Y-103925714D02*
X142827619Y-103925714D01*
X142589523Y-103592380D02*
X142589523Y-104449523D01*
X142637142Y-104544761D01*
X142732380Y-104592380D01*
X142827619Y-104592380D01*
X143541904Y-104544761D02*
X143446666Y-104592380D01*
X143256190Y-104592380D01*
X143160952Y-104544761D01*
X143113333Y-104449523D01*
X143113333Y-104068571D01*
X143160952Y-103973333D01*
X143256190Y-103925714D01*
X143446666Y-103925714D01*
X143541904Y-103973333D01*
X143589523Y-104068571D01*
X143589523Y-104163809D01*
X143113333Y-104259047D01*
X144018095Y-104592380D02*
X144018095Y-103925714D01*
X144018095Y-104116190D02*
X144065714Y-104020952D01*
X144113333Y-103973333D01*
X144208571Y-103925714D01*
X144303809Y-103925714D01*
X144541904Y-103925714D02*
X144780000Y-104592380D01*
X145018095Y-103925714D02*
X144780000Y-104592380D01*
X144684761Y-104830476D01*
X144637142Y-104878095D01*
X144541904Y-104925714D01*
X145399047Y-104592380D02*
X145399047Y-103592380D01*
X145780000Y-103592380D01*
X145875238Y-103640000D01*
X145922857Y-103687619D01*
X145970476Y-103782857D01*
X145970476Y-103925714D01*
X145922857Y-104020952D01*
X145875238Y-104068571D01*
X145780000Y-104116190D01*
X145399047Y-104116190D01*
X146827619Y-104592380D02*
X146827619Y-104068571D01*
X146780000Y-103973333D01*
X146684761Y-103925714D01*
X146494285Y-103925714D01*
X146399047Y-103973333D01*
X146827619Y-104544761D02*
X146732380Y-104592380D01*
X146494285Y-104592380D01*
X146399047Y-104544761D01*
X146351428Y-104449523D01*
X146351428Y-104354285D01*
X146399047Y-104259047D01*
X146494285Y-104211428D01*
X146732380Y-104211428D01*
X146827619Y-104163809D01*
X147732380Y-104544761D02*
X147637142Y-104592380D01*
X147446666Y-104592380D01*
X147351428Y-104544761D01*
X147303809Y-104497142D01*
X147256190Y-104401904D01*
X147256190Y-104116190D01*
X147303809Y-104020952D01*
X147351428Y-103973333D01*
X147446666Y-103925714D01*
X147637142Y-103925714D01*
X147732380Y-103973333D01*
X148160952Y-104592380D02*
X148160952Y-103592380D01*
X148256190Y-104211428D02*
X148541904Y-104592380D01*
X148541904Y-103925714D02*
X148160952Y-104306666D01*
X149494285Y-104592380D02*
X148922857Y-104592380D01*
X149208571Y-104592380D02*
X149208571Y-103592380D01*
X149113333Y-103735238D01*
X149018095Y-103830476D01*
X148922857Y-103878095D01*
%TO.C,PowerSwitch1*%
X122142857Y-104592380D02*
X122142857Y-103592380D01*
X122523809Y-103592380D01*
X122619047Y-103640000D01*
X122666666Y-103687619D01*
X122714285Y-103782857D01*
X122714285Y-103925714D01*
X122666666Y-104020952D01*
X122619047Y-104068571D01*
X122523809Y-104116190D01*
X122142857Y-104116190D01*
X123285714Y-104592380D02*
X123190476Y-104544761D01*
X123142857Y-104497142D01*
X123095238Y-104401904D01*
X123095238Y-104116190D01*
X123142857Y-104020952D01*
X123190476Y-103973333D01*
X123285714Y-103925714D01*
X123428571Y-103925714D01*
X123523809Y-103973333D01*
X123571428Y-104020952D01*
X123619047Y-104116190D01*
X123619047Y-104401904D01*
X123571428Y-104497142D01*
X123523809Y-104544761D01*
X123428571Y-104592380D01*
X123285714Y-104592380D01*
X123952380Y-103925714D02*
X124142857Y-104592380D01*
X124333333Y-104116190D01*
X124523809Y-104592380D01*
X124714285Y-103925714D01*
X125476190Y-104544761D02*
X125380952Y-104592380D01*
X125190476Y-104592380D01*
X125095238Y-104544761D01*
X125047619Y-104449523D01*
X125047619Y-104068571D01*
X125095238Y-103973333D01*
X125190476Y-103925714D01*
X125380952Y-103925714D01*
X125476190Y-103973333D01*
X125523809Y-104068571D01*
X125523809Y-104163809D01*
X125047619Y-104259047D01*
X125952380Y-104592380D02*
X125952380Y-103925714D01*
X125952380Y-104116190D02*
X126000000Y-104020952D01*
X126047619Y-103973333D01*
X126142857Y-103925714D01*
X126238095Y-103925714D01*
X126523809Y-104544761D02*
X126666666Y-104592380D01*
X126904761Y-104592380D01*
X127000000Y-104544761D01*
X127047619Y-104497142D01*
X127095238Y-104401904D01*
X127095238Y-104306666D01*
X127047619Y-104211428D01*
X127000000Y-104163809D01*
X126904761Y-104116190D01*
X126714285Y-104068571D01*
X126619047Y-104020952D01*
X126571428Y-103973333D01*
X126523809Y-103878095D01*
X126523809Y-103782857D01*
X126571428Y-103687619D01*
X126619047Y-103640000D01*
X126714285Y-103592380D01*
X126952380Y-103592380D01*
X127095238Y-103640000D01*
X127428571Y-103925714D02*
X127619047Y-104592380D01*
X127809523Y-104116190D01*
X128000000Y-104592380D01*
X128190476Y-103925714D01*
X128571428Y-104592380D02*
X128571428Y-103925714D01*
X128571428Y-103592380D02*
X128523809Y-103640000D01*
X128571428Y-103687619D01*
X128619047Y-103640000D01*
X128571428Y-103592380D01*
X128571428Y-103687619D01*
X128904761Y-103925714D02*
X129285714Y-103925714D01*
X129047619Y-103592380D02*
X129047619Y-104449523D01*
X129095238Y-104544761D01*
X129190476Y-104592380D01*
X129285714Y-104592380D01*
X130047619Y-104544761D02*
X129952380Y-104592380D01*
X129761904Y-104592380D01*
X129666666Y-104544761D01*
X129619047Y-104497142D01*
X129571428Y-104401904D01*
X129571428Y-104116190D01*
X129619047Y-104020952D01*
X129666666Y-103973333D01*
X129761904Y-103925714D01*
X129952380Y-103925714D01*
X130047619Y-103973333D01*
X130476190Y-104592380D02*
X130476190Y-103592380D01*
X130904761Y-104592380D02*
X130904761Y-104068571D01*
X130857142Y-103973333D01*
X130761904Y-103925714D01*
X130619047Y-103925714D01*
X130523809Y-103973333D01*
X130476190Y-104020952D01*
X131904761Y-104592380D02*
X131333333Y-104592380D01*
X131619047Y-104592380D02*
X131619047Y-103592380D01*
X131523809Y-103735238D01*
X131428571Y-103830476D01*
X131333333Y-103878095D01*
%TO.C,MetroMini1*%
X125754285Y-62892380D02*
X125754285Y-61892380D01*
X126087619Y-62606666D01*
X126420952Y-61892380D01*
X126420952Y-62892380D01*
X127278095Y-62844761D02*
X127182857Y-62892380D01*
X126992380Y-62892380D01*
X126897142Y-62844761D01*
X126849523Y-62749523D01*
X126849523Y-62368571D01*
X126897142Y-62273333D01*
X126992380Y-62225714D01*
X127182857Y-62225714D01*
X127278095Y-62273333D01*
X127325714Y-62368571D01*
X127325714Y-62463809D01*
X126849523Y-62559047D01*
X127611428Y-62225714D02*
X127992380Y-62225714D01*
X127754285Y-61892380D02*
X127754285Y-62749523D01*
X127801904Y-62844761D01*
X127897142Y-62892380D01*
X127992380Y-62892380D01*
X128325714Y-62892380D02*
X128325714Y-62225714D01*
X128325714Y-62416190D02*
X128373333Y-62320952D01*
X128420952Y-62273333D01*
X128516190Y-62225714D01*
X128611428Y-62225714D01*
X129087619Y-62892380D02*
X128992380Y-62844761D01*
X128944761Y-62797142D01*
X128897142Y-62701904D01*
X128897142Y-62416190D01*
X128944761Y-62320952D01*
X128992380Y-62273333D01*
X129087619Y-62225714D01*
X129230476Y-62225714D01*
X129325714Y-62273333D01*
X129373333Y-62320952D01*
X129420952Y-62416190D01*
X129420952Y-62701904D01*
X129373333Y-62797142D01*
X129325714Y-62844761D01*
X129230476Y-62892380D01*
X129087619Y-62892380D01*
X129849523Y-62892380D02*
X129849523Y-61892380D01*
X130182857Y-62606666D01*
X130516190Y-61892380D01*
X130516190Y-62892380D01*
X130992380Y-62892380D02*
X130992380Y-62225714D01*
X130992380Y-61892380D02*
X130944761Y-61940000D01*
X130992380Y-61987619D01*
X131040000Y-61940000D01*
X130992380Y-61892380D01*
X130992380Y-61987619D01*
X131468571Y-62225714D02*
X131468571Y-62892380D01*
X131468571Y-62320952D02*
X131516190Y-62273333D01*
X131611428Y-62225714D01*
X131754285Y-62225714D01*
X131849523Y-62273333D01*
X131897142Y-62368571D01*
X131897142Y-62892380D01*
X132373333Y-62892380D02*
X132373333Y-62225714D01*
X132373333Y-61892380D02*
X132325714Y-61940000D01*
X132373333Y-61987619D01*
X132420952Y-61940000D01*
X132373333Y-61892380D01*
X132373333Y-61987619D01*
X133373333Y-62892380D02*
X132801904Y-62892380D01*
X133087619Y-62892380D02*
X133087619Y-61892380D01*
X132992380Y-62035238D01*
X132897142Y-62130476D01*
X132801904Y-62178095D01*
%TO.C,MOTOR1_L293D1*%
X154332380Y-96098571D02*
X153332380Y-96098571D01*
X154046666Y-95765238D01*
X153332380Y-95431904D01*
X154332380Y-95431904D01*
X153332380Y-94765238D02*
X153332380Y-94574761D01*
X153380000Y-94479523D01*
X153475238Y-94384285D01*
X153665714Y-94336666D01*
X153999047Y-94336666D01*
X154189523Y-94384285D01*
X154284761Y-94479523D01*
X154332380Y-94574761D01*
X154332380Y-94765238D01*
X154284761Y-94860476D01*
X154189523Y-94955714D01*
X153999047Y-95003333D01*
X153665714Y-95003333D01*
X153475238Y-94955714D01*
X153380000Y-94860476D01*
X153332380Y-94765238D01*
X153332380Y-94050952D02*
X153332380Y-93479523D01*
X154332380Y-93765238D02*
X153332380Y-93765238D01*
X153332380Y-92955714D02*
X153332380Y-92765238D01*
X153380000Y-92670000D01*
X153475238Y-92574761D01*
X153665714Y-92527142D01*
X153999047Y-92527142D01*
X154189523Y-92574761D01*
X154284761Y-92670000D01*
X154332380Y-92765238D01*
X154332380Y-92955714D01*
X154284761Y-93050952D01*
X154189523Y-93146190D01*
X153999047Y-93193809D01*
X153665714Y-93193809D01*
X153475238Y-93146190D01*
X153380000Y-93050952D01*
X153332380Y-92955714D01*
X154332380Y-91527142D02*
X153856190Y-91860476D01*
X154332380Y-92098571D02*
X153332380Y-92098571D01*
X153332380Y-91717619D01*
X153380000Y-91622380D01*
X153427619Y-91574761D01*
X153522857Y-91527142D01*
X153665714Y-91527142D01*
X153760952Y-91574761D01*
X153808571Y-91622380D01*
X153856190Y-91717619D01*
X153856190Y-92098571D01*
X154332380Y-90574761D02*
X154332380Y-91146190D01*
X154332380Y-90860476D02*
X153332380Y-90860476D01*
X153475238Y-90955714D01*
X153570476Y-91050952D01*
X153618095Y-91146190D01*
X154427619Y-90384285D02*
X154427619Y-89622380D01*
X154332380Y-88908095D02*
X154332380Y-89384285D01*
X153332380Y-89384285D01*
X153427619Y-88622380D02*
X153380000Y-88574761D01*
X153332380Y-88479523D01*
X153332380Y-88241428D01*
X153380000Y-88146190D01*
X153427619Y-88098571D01*
X153522857Y-88050952D01*
X153618095Y-88050952D01*
X153760952Y-88098571D01*
X154332380Y-88670000D01*
X154332380Y-88050952D01*
X154332380Y-87574761D02*
X154332380Y-87384285D01*
X154284761Y-87289047D01*
X154237142Y-87241428D01*
X154094285Y-87146190D01*
X153903809Y-87098571D01*
X153522857Y-87098571D01*
X153427619Y-87146190D01*
X153380000Y-87193809D01*
X153332380Y-87289047D01*
X153332380Y-87479523D01*
X153380000Y-87574761D01*
X153427619Y-87622380D01*
X153522857Y-87670000D01*
X153760952Y-87670000D01*
X153856190Y-87622380D01*
X153903809Y-87574761D01*
X153951428Y-87479523D01*
X153951428Y-87289047D01*
X153903809Y-87193809D01*
X153856190Y-87146190D01*
X153760952Y-87098571D01*
X153332380Y-86765238D02*
X153332380Y-86146190D01*
X153713333Y-86479523D01*
X153713333Y-86336666D01*
X153760952Y-86241428D01*
X153808571Y-86193809D01*
X153903809Y-86146190D01*
X154141904Y-86146190D01*
X154237142Y-86193809D01*
X154284761Y-86241428D01*
X154332380Y-86336666D01*
X154332380Y-86622380D01*
X154284761Y-86717619D01*
X154237142Y-86765238D01*
X154332380Y-85717619D02*
X153332380Y-85717619D01*
X153332380Y-85479523D01*
X153380000Y-85336666D01*
X153475238Y-85241428D01*
X153570476Y-85193809D01*
X153760952Y-85146190D01*
X153903809Y-85146190D01*
X154094285Y-85193809D01*
X154189523Y-85241428D01*
X154284761Y-85336666D01*
X154332380Y-85479523D01*
X154332380Y-85717619D01*
X154332380Y-84193809D02*
X154332380Y-84765238D01*
X154332380Y-84479523D02*
X153332380Y-84479523D01*
X153475238Y-84574761D01*
X153570476Y-84670000D01*
X153618095Y-84765238D01*
%TO.C,MOTOR2_L293D1*%
X154332380Y-82128571D02*
X153332380Y-82128571D01*
X154046666Y-81795238D01*
X153332380Y-81461904D01*
X154332380Y-81461904D01*
X153332380Y-80795238D02*
X153332380Y-80604761D01*
X153380000Y-80509523D01*
X153475238Y-80414285D01*
X153665714Y-80366666D01*
X153999047Y-80366666D01*
X154189523Y-80414285D01*
X154284761Y-80509523D01*
X154332380Y-80604761D01*
X154332380Y-80795238D01*
X154284761Y-80890476D01*
X154189523Y-80985714D01*
X153999047Y-81033333D01*
X153665714Y-81033333D01*
X153475238Y-80985714D01*
X153380000Y-80890476D01*
X153332380Y-80795238D01*
X153332380Y-80080952D02*
X153332380Y-79509523D01*
X154332380Y-79795238D02*
X153332380Y-79795238D01*
X153332380Y-78985714D02*
X153332380Y-78795238D01*
X153380000Y-78700000D01*
X153475238Y-78604761D01*
X153665714Y-78557142D01*
X153999047Y-78557142D01*
X154189523Y-78604761D01*
X154284761Y-78700000D01*
X154332380Y-78795238D01*
X154332380Y-78985714D01*
X154284761Y-79080952D01*
X154189523Y-79176190D01*
X153999047Y-79223809D01*
X153665714Y-79223809D01*
X153475238Y-79176190D01*
X153380000Y-79080952D01*
X153332380Y-78985714D01*
X154332380Y-77557142D02*
X153856190Y-77890476D01*
X154332380Y-78128571D02*
X153332380Y-78128571D01*
X153332380Y-77747619D01*
X153380000Y-77652380D01*
X153427619Y-77604761D01*
X153522857Y-77557142D01*
X153665714Y-77557142D01*
X153760952Y-77604761D01*
X153808571Y-77652380D01*
X153856190Y-77747619D01*
X153856190Y-78128571D01*
X153427619Y-77176190D02*
X153380000Y-77128571D01*
X153332380Y-77033333D01*
X153332380Y-76795238D01*
X153380000Y-76700000D01*
X153427619Y-76652380D01*
X153522857Y-76604761D01*
X153618095Y-76604761D01*
X153760952Y-76652380D01*
X154332380Y-77223809D01*
X154332380Y-76604761D01*
X154427619Y-76414285D02*
X154427619Y-75652380D01*
X154332380Y-74938095D02*
X154332380Y-75414285D01*
X153332380Y-75414285D01*
X153427619Y-74652380D02*
X153380000Y-74604761D01*
X153332380Y-74509523D01*
X153332380Y-74271428D01*
X153380000Y-74176190D01*
X153427619Y-74128571D01*
X153522857Y-74080952D01*
X153618095Y-74080952D01*
X153760952Y-74128571D01*
X154332380Y-74700000D01*
X154332380Y-74080952D01*
X154332380Y-73604761D02*
X154332380Y-73414285D01*
X154284761Y-73319047D01*
X154237142Y-73271428D01*
X154094285Y-73176190D01*
X153903809Y-73128571D01*
X153522857Y-73128571D01*
X153427619Y-73176190D01*
X153380000Y-73223809D01*
X153332380Y-73319047D01*
X153332380Y-73509523D01*
X153380000Y-73604761D01*
X153427619Y-73652380D01*
X153522857Y-73700000D01*
X153760952Y-73700000D01*
X153856190Y-73652380D01*
X153903809Y-73604761D01*
X153951428Y-73509523D01*
X153951428Y-73319047D01*
X153903809Y-73223809D01*
X153856190Y-73176190D01*
X153760952Y-73128571D01*
X153332380Y-72795238D02*
X153332380Y-72176190D01*
X153713333Y-72509523D01*
X153713333Y-72366666D01*
X153760952Y-72271428D01*
X153808571Y-72223809D01*
X153903809Y-72176190D01*
X154141904Y-72176190D01*
X154237142Y-72223809D01*
X154284761Y-72271428D01*
X154332380Y-72366666D01*
X154332380Y-72652380D01*
X154284761Y-72747619D01*
X154237142Y-72795238D01*
X154332380Y-71747619D02*
X153332380Y-71747619D01*
X153332380Y-71509523D01*
X153380000Y-71366666D01*
X153475238Y-71271428D01*
X153570476Y-71223809D01*
X153760952Y-71176190D01*
X153903809Y-71176190D01*
X154094285Y-71223809D01*
X154189523Y-71271428D01*
X154284761Y-71366666D01*
X154332380Y-71509523D01*
X154332380Y-71747619D01*
X154332380Y-70223809D02*
X154332380Y-70795238D01*
X154332380Y-70509523D02*
X153332380Y-70509523D01*
X153475238Y-70604761D01*
X153570476Y-70700000D01*
X153618095Y-70795238D01*
%TO.C,SHIFT_REGISTER1*%
X139835714Y-92904761D02*
X139978571Y-92952380D01*
X140216666Y-92952380D01*
X140311904Y-92904761D01*
X140359523Y-92857142D01*
X140407142Y-92761904D01*
X140407142Y-92666666D01*
X140359523Y-92571428D01*
X140311904Y-92523809D01*
X140216666Y-92476190D01*
X140026190Y-92428571D01*
X139930952Y-92380952D01*
X139883333Y-92333333D01*
X139835714Y-92238095D01*
X139835714Y-92142857D01*
X139883333Y-92047619D01*
X139930952Y-92000000D01*
X140026190Y-91952380D01*
X140264285Y-91952380D01*
X140407142Y-92000000D01*
X140835714Y-92952380D02*
X140835714Y-91952380D01*
X140835714Y-92428571D02*
X141407142Y-92428571D01*
X141407142Y-92952380D02*
X141407142Y-91952380D01*
X141883333Y-92952380D02*
X141883333Y-91952380D01*
X142692857Y-92428571D02*
X142359523Y-92428571D01*
X142359523Y-92952380D02*
X142359523Y-91952380D01*
X142835714Y-91952380D01*
X143073809Y-91952380D02*
X143645238Y-91952380D01*
X143359523Y-92952380D02*
X143359523Y-91952380D01*
X143740476Y-93047619D02*
X144502380Y-93047619D01*
X145311904Y-92952380D02*
X144978571Y-92476190D01*
X144740476Y-92952380D02*
X144740476Y-91952380D01*
X145121428Y-91952380D01*
X145216666Y-92000000D01*
X145264285Y-92047619D01*
X145311904Y-92142857D01*
X145311904Y-92285714D01*
X145264285Y-92380952D01*
X145216666Y-92428571D01*
X145121428Y-92476190D01*
X144740476Y-92476190D01*
X145740476Y-92428571D02*
X146073809Y-92428571D01*
X146216666Y-92952380D02*
X145740476Y-92952380D01*
X145740476Y-91952380D01*
X146216666Y-91952380D01*
X147169047Y-92000000D02*
X147073809Y-91952380D01*
X146930952Y-91952380D01*
X146788095Y-92000000D01*
X146692857Y-92095238D01*
X146645238Y-92190476D01*
X146597619Y-92380952D01*
X146597619Y-92523809D01*
X146645238Y-92714285D01*
X146692857Y-92809523D01*
X146788095Y-92904761D01*
X146930952Y-92952380D01*
X147026190Y-92952380D01*
X147169047Y-92904761D01*
X147216666Y-92857142D01*
X147216666Y-92523809D01*
X147026190Y-92523809D01*
X147645238Y-92952380D02*
X147645238Y-91952380D01*
X148073809Y-92904761D02*
X148216666Y-92952380D01*
X148454761Y-92952380D01*
X148550000Y-92904761D01*
X148597619Y-92857142D01*
X148645238Y-92761904D01*
X148645238Y-92666666D01*
X148597619Y-92571428D01*
X148550000Y-92523809D01*
X148454761Y-92476190D01*
X148264285Y-92428571D01*
X148169047Y-92380952D01*
X148121428Y-92333333D01*
X148073809Y-92238095D01*
X148073809Y-92142857D01*
X148121428Y-92047619D01*
X148169047Y-92000000D01*
X148264285Y-91952380D01*
X148502380Y-91952380D01*
X148645238Y-92000000D01*
X148930952Y-91952380D02*
X149502380Y-91952380D01*
X149216666Y-92952380D02*
X149216666Y-91952380D01*
X149835714Y-92428571D02*
X150169047Y-92428571D01*
X150311904Y-92952380D02*
X149835714Y-92952380D01*
X149835714Y-91952380D01*
X150311904Y-91952380D01*
X151311904Y-92952380D02*
X150978571Y-92476190D01*
X150740476Y-92952380D02*
X150740476Y-91952380D01*
X151121428Y-91952380D01*
X151216666Y-92000000D01*
X151264285Y-92047619D01*
X151311904Y-92142857D01*
X151311904Y-92285714D01*
X151264285Y-92380952D01*
X151216666Y-92428571D01*
X151121428Y-92476190D01*
X150740476Y-92476190D01*
X152264285Y-92952380D02*
X151692857Y-92952380D01*
X151978571Y-92952380D02*
X151978571Y-91952380D01*
X151883333Y-92095238D01*
X151788095Y-92190476D01*
X151692857Y-92238095D01*
%TO.C,U1*%
X172458095Y-69182380D02*
X172458095Y-69991904D01*
X172505714Y-70087142D01*
X172553333Y-70134761D01*
X172648571Y-70182380D01*
X172839047Y-70182380D01*
X172934285Y-70134761D01*
X172981904Y-70087142D01*
X173029523Y-69991904D01*
X173029523Y-69182380D01*
X174029523Y-70182380D02*
X173458095Y-70182380D01*
X173743809Y-70182380D02*
X173743809Y-69182380D01*
X173648571Y-69325238D01*
X173553333Y-69420476D01*
X173458095Y-69468095D01*
%TO.C,HMC5883L1*%
X119292380Y-97122857D02*
X118292380Y-97122857D01*
X118768571Y-97122857D02*
X118768571Y-96551428D01*
X119292380Y-96551428D02*
X118292380Y-96551428D01*
X119292380Y-96075238D02*
X118292380Y-96075238D01*
X119006666Y-95741904D01*
X118292380Y-95408571D01*
X119292380Y-95408571D01*
X119197142Y-94360952D02*
X119244761Y-94408571D01*
X119292380Y-94551428D01*
X119292380Y-94646666D01*
X119244761Y-94789523D01*
X119149523Y-94884761D01*
X119054285Y-94932380D01*
X118863809Y-94980000D01*
X118720952Y-94980000D01*
X118530476Y-94932380D01*
X118435238Y-94884761D01*
X118340000Y-94789523D01*
X118292380Y-94646666D01*
X118292380Y-94551428D01*
X118340000Y-94408571D01*
X118387619Y-94360952D01*
X118292380Y-93456190D02*
X118292380Y-93932380D01*
X118768571Y-93980000D01*
X118720952Y-93932380D01*
X118673333Y-93837142D01*
X118673333Y-93599047D01*
X118720952Y-93503809D01*
X118768571Y-93456190D01*
X118863809Y-93408571D01*
X119101904Y-93408571D01*
X119197142Y-93456190D01*
X119244761Y-93503809D01*
X119292380Y-93599047D01*
X119292380Y-93837142D01*
X119244761Y-93932380D01*
X119197142Y-93980000D01*
X118720952Y-92837142D02*
X118673333Y-92932380D01*
X118625714Y-92980000D01*
X118530476Y-93027619D01*
X118482857Y-93027619D01*
X118387619Y-92980000D01*
X118340000Y-92932380D01*
X118292380Y-92837142D01*
X118292380Y-92646666D01*
X118340000Y-92551428D01*
X118387619Y-92503809D01*
X118482857Y-92456190D01*
X118530476Y-92456190D01*
X118625714Y-92503809D01*
X118673333Y-92551428D01*
X118720952Y-92646666D01*
X118720952Y-92837142D01*
X118768571Y-92932380D01*
X118816190Y-92980000D01*
X118911428Y-93027619D01*
X119101904Y-93027619D01*
X119197142Y-92980000D01*
X119244761Y-92932380D01*
X119292380Y-92837142D01*
X119292380Y-92646666D01*
X119244761Y-92551428D01*
X119197142Y-92503809D01*
X119101904Y-92456190D01*
X118911428Y-92456190D01*
X118816190Y-92503809D01*
X118768571Y-92551428D01*
X118720952Y-92646666D01*
X118720952Y-91884761D02*
X118673333Y-91980000D01*
X118625714Y-92027619D01*
X118530476Y-92075238D01*
X118482857Y-92075238D01*
X118387619Y-92027619D01*
X118340000Y-91980000D01*
X118292380Y-91884761D01*
X118292380Y-91694285D01*
X118340000Y-91599047D01*
X118387619Y-91551428D01*
X118482857Y-91503809D01*
X118530476Y-91503809D01*
X118625714Y-91551428D01*
X118673333Y-91599047D01*
X118720952Y-91694285D01*
X118720952Y-91884761D01*
X118768571Y-91980000D01*
X118816190Y-92027619D01*
X118911428Y-92075238D01*
X119101904Y-92075238D01*
X119197142Y-92027619D01*
X119244761Y-91980000D01*
X119292380Y-91884761D01*
X119292380Y-91694285D01*
X119244761Y-91599047D01*
X119197142Y-91551428D01*
X119101904Y-91503809D01*
X118911428Y-91503809D01*
X118816190Y-91551428D01*
X118768571Y-91599047D01*
X118720952Y-91694285D01*
X118292380Y-91170476D02*
X118292380Y-90551428D01*
X118673333Y-90884761D01*
X118673333Y-90741904D01*
X118720952Y-90646666D01*
X118768571Y-90599047D01*
X118863809Y-90551428D01*
X119101904Y-90551428D01*
X119197142Y-90599047D01*
X119244761Y-90646666D01*
X119292380Y-90741904D01*
X119292380Y-91027619D01*
X119244761Y-91122857D01*
X119197142Y-91170476D01*
X119292380Y-89646666D02*
X119292380Y-90122857D01*
X118292380Y-90122857D01*
X119292380Y-88789523D02*
X119292380Y-89360952D01*
X119292380Y-89075238D02*
X118292380Y-89075238D01*
X118435238Y-89170476D01*
X118530476Y-89265714D01*
X118578095Y-89360952D01*
%TO.C,U3*%
X173728095Y-111092380D02*
X173728095Y-111901904D01*
X173775714Y-111997142D01*
X173823333Y-112044761D01*
X173918571Y-112092380D01*
X174109047Y-112092380D01*
X174204285Y-112044761D01*
X174251904Y-111997142D01*
X174299523Y-111901904D01*
X174299523Y-111092380D01*
X174680476Y-111092380D02*
X175299523Y-111092380D01*
X174966190Y-111473333D01*
X175109047Y-111473333D01*
X175204285Y-111520952D01*
X175251904Y-111568571D01*
X175299523Y-111663809D01*
X175299523Y-111901904D01*
X175251904Y-111997142D01*
X175204285Y-112044761D01*
X175109047Y-112092380D01*
X174823333Y-112092380D01*
X174728095Y-112044761D01*
X174680476Y-111997142D01*
%TO.C,MOSFET1*%
X115038571Y-102052380D02*
X115038571Y-101052380D01*
X115371904Y-101766666D01*
X115705238Y-101052380D01*
X115705238Y-102052380D01*
X116371904Y-101052380D02*
X116562380Y-101052380D01*
X116657619Y-101100000D01*
X116752857Y-101195238D01*
X116800476Y-101385714D01*
X116800476Y-101719047D01*
X116752857Y-101909523D01*
X116657619Y-102004761D01*
X116562380Y-102052380D01*
X116371904Y-102052380D01*
X116276666Y-102004761D01*
X116181428Y-101909523D01*
X116133809Y-101719047D01*
X116133809Y-101385714D01*
X116181428Y-101195238D01*
X116276666Y-101100000D01*
X116371904Y-101052380D01*
X117181428Y-102004761D02*
X117324285Y-102052380D01*
X117562380Y-102052380D01*
X117657619Y-102004761D01*
X117705238Y-101957142D01*
X117752857Y-101861904D01*
X117752857Y-101766666D01*
X117705238Y-101671428D01*
X117657619Y-101623809D01*
X117562380Y-101576190D01*
X117371904Y-101528571D01*
X117276666Y-101480952D01*
X117229047Y-101433333D01*
X117181428Y-101338095D01*
X117181428Y-101242857D01*
X117229047Y-101147619D01*
X117276666Y-101100000D01*
X117371904Y-101052380D01*
X117610000Y-101052380D01*
X117752857Y-101100000D01*
X118514761Y-101528571D02*
X118181428Y-101528571D01*
X118181428Y-102052380D02*
X118181428Y-101052380D01*
X118657619Y-101052380D01*
X119038571Y-101528571D02*
X119371904Y-101528571D01*
X119514761Y-102052380D02*
X119038571Y-102052380D01*
X119038571Y-101052380D01*
X119514761Y-101052380D01*
X119800476Y-101052380D02*
X120371904Y-101052380D01*
X120086190Y-102052380D02*
X120086190Y-101052380D01*
X121229047Y-102052380D02*
X120657619Y-102052380D01*
X120943333Y-102052380D02*
X120943333Y-101052380D01*
X120848095Y-101195238D01*
X120752857Y-101290476D01*
X120657619Y-101338095D01*
%TD*%
M02*
