%TF.GenerationSoftware,KiCad,Pcbnew,(5.1.9)-1*%
%TF.CreationDate,2021-04-18T21:28:31-07:00*%
%TF.ProjectId,bbot-pcb,62626f74-2d70-4636-922e-6b696361645f,rev?*%
%TF.SameCoordinates,Original*%
%TF.FileFunction,Copper,L1,Top*%
%TF.FilePolarity,Positive*%
%FSLAX46Y46*%
G04 Gerber Fmt 4.6, Leading zero omitted, Abs format (unit mm)*
G04 Created by KiCad (PCBNEW (5.1.9)-1) date 2021-04-18 21:28:31*
%MOMM*%
%LPD*%
G01*
G04 APERTURE LIST*
%TA.AperFunction,ComponentPad*%
%ADD10C,1.524000*%
%TD*%
%TA.AperFunction,ComponentPad*%
%ADD11R,1.524000X1.524000*%
%TD*%
%TA.AperFunction,ComponentPad*%
%ADD12O,1.600000X1.600000*%
%TD*%
%TA.AperFunction,ComponentPad*%
%ADD13R,1.600000X1.600000*%
%TD*%
%TA.AperFunction,ComponentPad*%
%ADD14C,1.778000*%
%TD*%
%TA.AperFunction,ComponentPad*%
%ADD15R,1.778000X1.778000*%
%TD*%
%TA.AperFunction,ComponentPad*%
%ADD16C,1.270000*%
%TD*%
%TA.AperFunction,ComponentPad*%
%ADD17R,1.270000X1.270000*%
%TD*%
%TA.AperFunction,ViaPad*%
%ADD18C,0.800000*%
%TD*%
%TA.AperFunction,Conductor*%
%ADD19C,0.250000*%
%TD*%
G04 APERTURE END LIST*
D10*
%TO.P,U4,6*%
%TO.N,/RST*%
X189230000Y-60960000D03*
%TO.P,U4,5*%
%TO.N,/RX*%
X186690000Y-60960000D03*
%TO.P,U4,4*%
%TO.N,/TX*%
X184150000Y-60960000D03*
D11*
%TO.P,U4,3*%
%TO.N,/3V*%
X181610000Y-60960000D03*
D10*
%TO.P,U4,2*%
%TO.N,GND*%
X179070000Y-60960000D03*
%TO.P,U4,1*%
X176530000Y-60960000D03*
%TD*%
D12*
%TO.P,MetroMini1,28*%
%TO.N,Net-(MetroMini1-Pad28)*%
X170180000Y-35560000D03*
%TO.P,MetroMini1,14*%
%TO.N,SCL*%
X154940000Y-68580000D03*
%TO.P,MetroMini1,27*%
%TO.N,Net-(MetroMini1-Pad27)*%
X170180000Y-38100000D03*
%TO.P,MetroMini1,13*%
%TO.N,SDA*%
X154940000Y-66040000D03*
%TO.P,MetroMini1,26*%
%TO.N,Net-(MetroMini1-Pad26)*%
X170180000Y-40640000D03*
%TO.P,MetroMini1,12*%
%TO.N,Net-(MetroMini1-Pad12)*%
X154940000Y-63500000D03*
%TO.P,MetroMini1,25*%
%TO.N,/TX*%
X170180000Y-43180000D03*
%TO.P,MetroMini1,11*%
%TO.N,/A2*%
X154940000Y-60960000D03*
%TO.P,MetroMini1,24*%
%TO.N,/RX*%
X170180000Y-45720000D03*
%TO.P,MetroMini1,10*%
%TO.N,/A1*%
X154940000Y-58420000D03*
%TO.P,MetroMini1,23*%
%TO.N,Net-(MetroMini1-Pad23)*%
X170180000Y-48260000D03*
%TO.P,MetroMini1,9*%
%TO.N,/A0*%
X154940000Y-55880000D03*
%TO.P,MetroMini1,22*%
%TO.N,Net-(MetroMini1-Pad22)*%
X170180000Y-50800000D03*
%TO.P,MetroMini1,8*%
%TO.N,Net-(MetroMini1-Pad8)*%
X154940000Y-53340000D03*
%TO.P,MetroMini1,21*%
%TO.N,Net-(MetroMini1-Pad21)*%
X170180000Y-53340000D03*
%TO.P,MetroMini1,7*%
%TO.N,5V*%
X154940000Y-50800000D03*
%TO.P,MetroMini1,20*%
%TO.N,Net-(MetroMini1-Pad20)*%
X170180000Y-55880000D03*
%TO.P,MetroMini1,6*%
%TO.N,GND*%
X154940000Y-48260000D03*
%TO.P,MetroMini1,19*%
%TO.N,SHIFT_LATCH*%
X170180000Y-58420000D03*
%TO.P,MetroMini1,5*%
%TO.N,GND*%
X154940000Y-45720000D03*
%TO.P,MetroMini1,18*%
%TO.N,SHIFT_DATA*%
X170180000Y-60960000D03*
%TO.P,MetroMini1,4*%
%TO.N,Net-(MetroMini1-Pad4)*%
X154940000Y-43180000D03*
%TO.P,MetroMini1,17*%
%TO.N,SHIFT_CLCK*%
X170180000Y-63500000D03*
%TO.P,MetroMini1,3*%
%TO.N,/3V*%
X154940000Y-40640000D03*
%TO.P,MetroMini1,16*%
%TO.N,Net-(MetroMini1-Pad16)*%
X170180000Y-66040000D03*
%TO.P,MetroMini1,2*%
%TO.N,/RST*%
X154940000Y-38100000D03*
%TO.P,MetroMini1,15*%
%TO.N,Net-(MetroMini1-Pad15)*%
X170180000Y-68580000D03*
D13*
%TO.P,MetroMini1,1*%
%TO.N,Net-(MetroMini1-Pad1)*%
X154940000Y-35560000D03*
%TD*%
D10*
%TO.P,U2,5*%
%TO.N,GND*%
X147320000Y-63500000D03*
%TO.P,U2,4*%
%TO.N,/A2*%
X147320000Y-60960000D03*
%TO.P,U2,3*%
%TO.N,/A1*%
X147320000Y-58420000D03*
%TO.P,U2,2*%
%TO.N,/A0*%
X147320000Y-55880000D03*
D11*
%TO.P,U2,1*%
%TO.N,/3V*%
X147320000Y-53340000D03*
%TD*%
D14*
%TO.P,U3,4*%
%TO.N,/MOTOR1_PHASE_D*%
X211850000Y-22860000D03*
%TO.P,U3,3*%
%TO.N,/MOTOR1_PHASE_C*%
X206850000Y-22860000D03*
%TO.P,U3,2*%
%TO.N,/MOTOR1_PHASE_B*%
X201850000Y-22860000D03*
D15*
%TO.P,U3,1*%
%TO.N,/MOTOR1_PHASE_A*%
X196850000Y-22860000D03*
%TD*%
D14*
%TO.P,U1,4*%
%TO.N,/MOTOR2_PHASE_D*%
X211850000Y-66040000D03*
%TO.P,U1,3*%
%TO.N,/MOTOR2_PHASE_C*%
X206850000Y-66040000D03*
%TO.P,U1,2*%
%TO.N,/MOTOR2_PHASE_B*%
X201850000Y-66040000D03*
D15*
%TO.P,U1,1*%
%TO.N,/MOTOR2_PHASE_A*%
X196850000Y-66040000D03*
%TD*%
D12*
%TO.P,SHIFT_REGISTER1,16*%
%TO.N,5V*%
X175895000Y-53340000D03*
%TO.P,SHIFT_REGISTER1,8*%
%TO.N,GND*%
X183515000Y-35560000D03*
%TO.P,SHIFT_REGISTER1,15*%
%TO.N,/MOTOR1_A*%
X175895000Y-50800000D03*
%TO.P,SHIFT_REGISTER1,7*%
%TO.N,/MOTOR2_D*%
X183515000Y-38100000D03*
%TO.P,SHIFT_REGISTER1,14*%
%TO.N,SHIFT_DATA*%
X175895000Y-48260000D03*
%TO.P,SHIFT_REGISTER1,6*%
%TO.N,/MOTOR2_C*%
X183515000Y-40640000D03*
%TO.P,SHIFT_REGISTER1,13*%
%TO.N,GND*%
X175895000Y-45720000D03*
%TO.P,SHIFT_REGISTER1,5*%
%TO.N,/MOTOR2_B*%
X183515000Y-43180000D03*
%TO.P,SHIFT_REGISTER1,12*%
%TO.N,SHIFT_LATCH*%
X175895000Y-43180000D03*
%TO.P,SHIFT_REGISTER1,4*%
%TO.N,/MOTOR2_A*%
X183515000Y-45720000D03*
%TO.P,SHIFT_REGISTER1,11*%
%TO.N,SHIFT_CLCK*%
X175895000Y-40640000D03*
%TO.P,SHIFT_REGISTER1,3*%
%TO.N,/MOTOR1_D*%
X183515000Y-48260000D03*
%TO.P,SHIFT_REGISTER1,10*%
%TO.N,5V*%
X175895000Y-38100000D03*
%TO.P,SHIFT_REGISTER1,2*%
%TO.N,/MOTOR1_C*%
X183515000Y-50800000D03*
%TO.P,SHIFT_REGISTER1,9*%
%TO.N,Net-(SHIFT_REGISTER1-Pad9)*%
X175895000Y-35560000D03*
D13*
%TO.P,SHIFT_REGISTER1,1*%
%TO.N,/MOTOR1_B*%
X183515000Y-53340000D03*
%TD*%
D10*
%TO.P,PowerSwitch1,2*%
%TO.N,/12V*%
X171410000Y-22860000D03*
D11*
%TO.P,PowerSwitch1,1*%
%TO.N,Net-(BatteryPack1-Pad1)*%
X166410000Y-22860000D03*
%TD*%
D12*
%TO.P,MOTOR2_L293D1,16*%
%TO.N,/12V*%
X196850000Y-35560000D03*
%TO.P,MOTOR2_L293D1,8*%
X189230000Y-53340000D03*
%TO.P,MOTOR2_L293D1,15*%
%TO.N,/MOTOR2_D*%
X196850000Y-38100000D03*
%TO.P,MOTOR2_L293D1,7*%
%TO.N,/MOTOR2_B*%
X189230000Y-50800000D03*
%TO.P,MOTOR2_L293D1,14*%
%TO.N,/MOTOR2_PHASE_D*%
X196850000Y-40640000D03*
%TO.P,MOTOR2_L293D1,6*%
%TO.N,/MOTOR2_PHASE_B*%
X189230000Y-48260000D03*
%TO.P,MOTOR2_L293D1,13*%
%TO.N,Net-(MOTOR2_L293D1-Pad13)*%
X196850000Y-43180000D03*
%TO.P,MOTOR2_L293D1,5*%
%TO.N,Net-(MOTOR2_L293D1-Pad5)*%
X189230000Y-45720000D03*
%TO.P,MOTOR2_L293D1,12*%
%TO.N,GND*%
X196850000Y-45720000D03*
%TO.P,MOTOR2_L293D1,4*%
%TO.N,Net-(MOTOR2_L293D1-Pad4)*%
X189230000Y-43180000D03*
%TO.P,MOTOR2_L293D1,11*%
%TO.N,/MOTOR2_PHASE_C*%
X196850000Y-48260000D03*
%TO.P,MOTOR2_L293D1,3*%
%TO.N,/MOTOR2_PHASE_A*%
X189230000Y-40640000D03*
%TO.P,MOTOR2_L293D1,10*%
%TO.N,/MOTOR2_C*%
X196850000Y-50800000D03*
%TO.P,MOTOR2_L293D1,2*%
%TO.N,/MOTOR2_A*%
X189230000Y-38100000D03*
%TO.P,MOTOR2_L293D1,9*%
%TO.N,5V*%
X196850000Y-53340000D03*
D13*
%TO.P,MOTOR2_L293D1,1*%
X189230000Y-35560000D03*
%TD*%
D12*
%TO.P,MOTOR1_L293D1,16*%
%TO.N,/12V*%
X212090000Y-35560000D03*
%TO.P,MOTOR1_L293D1,8*%
X204470000Y-53340000D03*
%TO.P,MOTOR1_L293D1,15*%
%TO.N,/MOTOR1_D*%
X212090000Y-38100000D03*
%TO.P,MOTOR1_L293D1,7*%
%TO.N,/MOTOR1_B*%
X204470000Y-50800000D03*
%TO.P,MOTOR1_L293D1,14*%
%TO.N,/MOTOR1_PHASE_D*%
X212090000Y-40640000D03*
%TO.P,MOTOR1_L293D1,6*%
%TO.N,/MOTOR1_PHASE_B*%
X204470000Y-48260000D03*
%TO.P,MOTOR1_L293D1,13*%
%TO.N,Net-(MOTOR1_L293D1-Pad13)*%
X212090000Y-43180000D03*
%TO.P,MOTOR1_L293D1,5*%
%TO.N,GND*%
X204470000Y-45720000D03*
%TO.P,MOTOR1_L293D1,12*%
%TO.N,Net-(MOTOR1_L293D1-Pad12)*%
X212090000Y-45720000D03*
%TO.P,MOTOR1_L293D1,4*%
%TO.N,Net-(MOTOR1_L293D1-Pad4)*%
X204470000Y-43180000D03*
%TO.P,MOTOR1_L293D1,11*%
%TO.N,/MOTOR1_PHASE_C*%
X212090000Y-48260000D03*
%TO.P,MOTOR1_L293D1,3*%
%TO.N,/MOTOR1_PHASE_A*%
X204470000Y-40640000D03*
%TO.P,MOTOR1_L293D1,10*%
%TO.N,/MOTOR1_C*%
X212090000Y-50800000D03*
%TO.P,MOTOR1_L293D1,2*%
%TO.N,/MOTOR1_A*%
X204470000Y-38100000D03*
%TO.P,MOTOR1_L293D1,9*%
%TO.N,5V*%
X212090000Y-53340000D03*
D13*
%TO.P,MOTOR1_L293D1,1*%
X204470000Y-35560000D03*
%TD*%
D16*
%TO.P,MOSFET1,3*%
%TO.N,5V*%
X147320000Y-45720000D03*
%TO.P,MOSFET1,2*%
%TO.N,GND*%
X147320000Y-43180000D03*
D17*
%TO.P,MOSFET1,1*%
%TO.N,/12V*%
X147320000Y-40640000D03*
%TD*%
D10*
%TO.P,BatteryPack1,2*%
%TO.N,GND*%
X156170000Y-22860000D03*
D11*
%TO.P,BatteryPack1,1*%
%TO.N,Net-(BatteryPack1-Pad1)*%
X151170000Y-22860000D03*
%TD*%
D18*
%TO.N,/12V*%
X207645000Y-48260000D03*
%TO.N,/MOTOR1_A*%
X180340000Y-34925000D03*
X180340000Y-31205000D03*
X209550000Y-31115000D03*
%TO.N,/MOTOR2_C*%
X199390000Y-35560000D03*
X178435000Y-27940000D03*
X178435000Y-31750000D03*
%TO.N,/MOTOR2_A*%
X186600000Y-51435000D03*
%TO.N,/MOTOR1_B*%
X190500000Y-56515000D03*
%TO.N,GND*%
X187325000Y-31750000D03*
X194310000Y-31660000D03*
X194310000Y-35560000D03*
%TO.N,5V*%
X207645000Y-31115000D03*
X200660000Y-31115000D03*
X172085000Y-45085000D03*
X172630000Y-48895000D03*
%TO.N,/RX*%
X177800000Y-58420000D03*
%TO.N,/3V*%
X180340000Y-66675000D03*
%TO.N,/RST*%
X162560000Y-46355000D03*
X162560000Y-55880000D03*
%TD*%
D19*
%TO.N,/MOTOR2_PHASE_D*%
X211850000Y-66040000D02*
X211850000Y-63895000D01*
X211850000Y-63895000D02*
X201295000Y-53340000D01*
X201295000Y-45085000D02*
X196850000Y-40640000D01*
X201295000Y-53340000D02*
X201295000Y-45085000D01*
%TO.N,/MOTOR2_PHASE_C*%
X206850000Y-66040000D02*
X199390000Y-58580000D01*
X199390000Y-50800000D02*
X196850000Y-48260000D01*
X199390000Y-58580000D02*
X199390000Y-50800000D01*
%TO.N,/MOTOR2_PHASE_B*%
X201850000Y-66040000D02*
X201850000Y-62150000D01*
X201850000Y-62150000D02*
X193040000Y-53340000D01*
X193040000Y-52070000D02*
X189230000Y-48260000D01*
X193040000Y-53340000D02*
X193040000Y-52070000D01*
%TO.N,/MOTOR2_PHASE_A*%
X196850000Y-66040000D02*
X196850000Y-59690000D01*
X196850000Y-59690000D02*
X192405000Y-55245000D01*
X189469998Y-55245000D02*
X187325000Y-53100002D01*
X192405000Y-55245000D02*
X189469998Y-55245000D01*
X187325000Y-42545000D02*
X189230000Y-40640000D01*
X187325000Y-53100002D02*
X187325000Y-42545000D01*
%TO.N,/MOTOR1_PHASE_D*%
X211850000Y-22860000D02*
X211850000Y-28970000D01*
X211850000Y-28970000D02*
X213995000Y-31115000D01*
X213995000Y-38735000D02*
X212090000Y-40640000D01*
X213995000Y-31115000D02*
X213995000Y-38735000D01*
%TO.N,/MOTOR1_PHASE_C*%
X206850000Y-22860000D02*
X208915000Y-22860000D01*
X208915000Y-22860000D02*
X210185000Y-21590000D01*
X212376722Y-21590000D02*
X214630000Y-23843278D01*
X210185000Y-21590000D02*
X212376722Y-21590000D01*
X214630000Y-45720000D02*
X212090000Y-48260000D01*
X214630000Y-23843278D02*
X214630000Y-45720000D01*
%TO.N,/MOTOR1_PHASE_B*%
X201850000Y-22860000D02*
X201850000Y-27225000D01*
X201850000Y-27225000D02*
X209550000Y-34925000D01*
X204470000Y-47385002D02*
X204470000Y-48260000D01*
X209550000Y-42305002D02*
X204470000Y-47385002D01*
X209550000Y-34925000D02*
X209550000Y-42305002D01*
%TO.N,/MOTOR1_PHASE_A*%
X196850000Y-22860000D02*
X196850000Y-24765000D01*
X196850000Y-24765000D02*
X208280000Y-36195000D01*
X208280000Y-36830000D02*
X204470000Y-40640000D01*
X208280000Y-36195000D02*
X208280000Y-36830000D01*
%TO.N,/12V*%
X196850000Y-35560000D02*
X196850000Y-31750000D01*
X196850000Y-31750000D02*
X194310000Y-29210000D01*
X177760000Y-29210000D02*
X171410000Y-22860000D01*
X194310000Y-29210000D02*
X177760000Y-29210000D01*
X207645000Y-50165000D02*
X204470000Y-53340000D01*
X207645000Y-48260000D02*
X207645000Y-50165000D01*
%TO.N,/MOTOR1_A*%
X180340000Y-34925000D02*
X180340000Y-31115000D01*
X180340000Y-31115000D02*
X180340000Y-31205000D01*
X205595001Y-36974999D02*
X204470000Y-38100000D01*
X195635999Y-24187409D02*
X205595001Y-34146411D01*
X195635999Y-21710999D02*
X195635999Y-24187409D01*
X205595001Y-34146411D02*
X205595001Y-36974999D01*
X195700999Y-21645999D02*
X195635999Y-21710999D01*
X202432721Y-21645999D02*
X195700999Y-21645999D01*
X209550000Y-28763278D02*
X202432721Y-21645999D01*
X209550000Y-31115000D02*
X209550000Y-28763278D01*
%TO.N,/MOTOR2_D*%
X195724999Y-39225001D02*
X196850000Y-38100000D01*
X184640001Y-39225001D02*
X195724999Y-39225001D01*
X183515000Y-38100000D02*
X184640001Y-39225001D01*
%TO.N,/MOTOR2_C*%
X199390000Y-35560000D02*
X199390000Y-29210000D01*
X179254990Y-28759990D02*
X178435000Y-27940000D01*
X198939990Y-28759990D02*
X179254990Y-28759990D01*
X199390000Y-29210000D02*
X198939990Y-28759990D01*
X182389999Y-39514999D02*
X183515000Y-40640000D01*
X182389999Y-37559999D02*
X182389999Y-39514999D01*
X182974999Y-36974999D02*
X182389999Y-37559999D01*
X184005001Y-36974999D02*
X182974999Y-36974999D01*
X188050001Y-31401999D02*
X188050001Y-32929999D01*
X187673001Y-31024999D02*
X188050001Y-31401999D01*
X181759997Y-35650001D02*
X186384999Y-31024999D01*
X188050001Y-32929999D02*
X184005001Y-36974999D01*
X178435000Y-34093002D02*
X179991999Y-35650001D01*
X186384999Y-31024999D02*
X187673001Y-31024999D01*
X179991999Y-35650001D02*
X181759997Y-35650001D01*
X178435000Y-31750000D02*
X178435000Y-34093002D01*
%TO.N,/MOTOR2_A*%
X186600000Y-48805000D02*
X186600000Y-51435000D01*
X183515000Y-45720000D02*
X186600000Y-48805000D01*
%TO.N,/MOTOR1_B*%
X183515000Y-53340000D02*
X183515000Y-56515000D01*
X183515000Y-56515000D02*
X190500000Y-56515000D01*
%TO.N,GND*%
X175895000Y-45720000D02*
X180340000Y-41275000D01*
X180340000Y-38735000D02*
X183515000Y-35560000D01*
X180340000Y-41275000D02*
X180340000Y-38735000D01*
X179070000Y-48895000D02*
X175895000Y-45720000D01*
X179070000Y-52706410D02*
X179070000Y-48895000D01*
X198264999Y-39514999D02*
X204470000Y-45720000D01*
X196309999Y-39514999D02*
X198264999Y-39514999D01*
X195724999Y-40099999D02*
X196309999Y-39514999D01*
X195724999Y-44594999D02*
X195724999Y-40099999D01*
X196850000Y-45720000D02*
X195724999Y-44594999D01*
X156170000Y-22860000D02*
X156170000Y-28615000D01*
X156170000Y-28615000D02*
X149860000Y-34925000D01*
X149860000Y-34925000D02*
X149860000Y-40640000D01*
X149860000Y-40640000D02*
X147320000Y-43180000D01*
X152400000Y-50800000D02*
X154940000Y-48260000D01*
X152400000Y-58420000D02*
X152400000Y-50800000D01*
X147320000Y-63500000D02*
X152400000Y-58420000D01*
X152400000Y-48260000D02*
X154940000Y-45720000D01*
X152400000Y-50800000D02*
X152400000Y-48260000D01*
X183515000Y-35560000D02*
X187325000Y-31750000D01*
X194310000Y-31660000D02*
X194310000Y-35560000D01*
X179070000Y-52706410D02*
X179070000Y-60960000D01*
%TO.N,SHIFT_DATA*%
X170180000Y-60960000D02*
X172720000Y-58420000D01*
X172720000Y-51435000D02*
X175895000Y-48260000D01*
X172720000Y-58420000D02*
X172720000Y-51435000D01*
%TO.N,SHIFT_LATCH*%
X171305001Y-47769999D02*
X175895000Y-43180000D01*
X171305001Y-57294999D02*
X171305001Y-47769999D01*
X170180000Y-58420000D02*
X171305001Y-57294999D01*
%TO.N,5V*%
X189230000Y-35560000D02*
X189230000Y-31115000D01*
X189230000Y-31115000D02*
X188595000Y-30480000D01*
X188595000Y-30480000D02*
X177800000Y-30480000D01*
X177800000Y-30480000D02*
X173355000Y-34925000D01*
X173355000Y-35560000D02*
X175895000Y-38100000D01*
X173355000Y-34925000D02*
X173355000Y-35560000D01*
X203344999Y-36685001D02*
X204470000Y-35560000D01*
X189305001Y-36685001D02*
X203344999Y-36685001D01*
X189230000Y-36610000D02*
X189305001Y-36685001D01*
X189230000Y-35560000D02*
X189230000Y-36610000D01*
X210000009Y-51250009D02*
X210000009Y-33470009D01*
X212090000Y-53340000D02*
X210000009Y-51250009D01*
X210000009Y-33470009D02*
X207645000Y-31115000D01*
X200660000Y-31750000D02*
X204470000Y-35560000D01*
X200660000Y-31115000D02*
X200660000Y-31750000D01*
X175895000Y-38100000D02*
X172085000Y-41910000D01*
X172085000Y-41910000D02*
X172085000Y-45085000D01*
X177020001Y-52214999D02*
X175895000Y-53340000D01*
X177020001Y-47719999D02*
X177020001Y-52214999D01*
X176290002Y-46990000D02*
X177020001Y-47719999D01*
X174535000Y-46990000D02*
X176290002Y-46990000D01*
X172630000Y-48895000D02*
X174535000Y-46990000D01*
%TO.N,/TX*%
X169929997Y-64914999D02*
X167005000Y-61990002D01*
X167005000Y-46355000D02*
X170180000Y-43180000D01*
X167005000Y-61990002D02*
X167005000Y-46355000D01*
X177309999Y-64914999D02*
X184005001Y-64914999D01*
X177655001Y-64914999D02*
X177309999Y-64914999D01*
X177309999Y-64914999D02*
X169929997Y-64914999D01*
X184150000Y-64770000D02*
X184150000Y-60960000D01*
X184005001Y-64914999D02*
X184150000Y-64770000D01*
%TO.N,/RX*%
X169639999Y-62085001D02*
X167640000Y-60085002D01*
X170720001Y-62085001D02*
X169639999Y-62085001D01*
X172932003Y-59872999D02*
X170720001Y-62085001D01*
X167640000Y-48260000D02*
X170180000Y-45720000D01*
X167640000Y-60085002D02*
X167640000Y-48260000D01*
X172932003Y-59872999D02*
X173807001Y-59872999D01*
X173807001Y-59872999D02*
X175260000Y-58420000D01*
X175598762Y-58420000D02*
X177800000Y-58420000D01*
X175260000Y-58420000D02*
X175598762Y-58420000D01*
%TO.N,/3V*%
X177655001Y-67454999D02*
X168765001Y-67454999D01*
X168765001Y-67454999D02*
X166370000Y-65059998D01*
X166370000Y-52070000D02*
X154940000Y-40640000D01*
X166370000Y-65059998D02*
X166370000Y-52070000D01*
X147320000Y-48260000D02*
X154940000Y-40640000D01*
X147320000Y-53340000D02*
X147320000Y-48260000D01*
X177655001Y-67454999D02*
X179560001Y-67454999D01*
X179560001Y-67454999D02*
X180340000Y-66675000D01*
%TO.N,/RST*%
X154940000Y-38100000D02*
X156210000Y-38100000D01*
X162560000Y-44450000D02*
X162560000Y-46355000D01*
X156210000Y-38100000D02*
X162560000Y-44450000D01*
X162560000Y-55880000D02*
X162560000Y-71120000D01*
X162560000Y-71120000D02*
X164465000Y-73025000D01*
X177165000Y-73025000D02*
X189230000Y-60960000D01*
X164465000Y-73025000D02*
X177165000Y-73025000D01*
%TD*%
M02*
