%TF.GenerationSoftware,KiCad,Pcbnew,(5.1.9)-1*%
%TF.CreationDate,2021-04-18T21:28:31-07:00*%
%TF.ProjectId,bbot-pcb,62626f74-2d70-4636-922e-6b696361645f,rev?*%
%TF.SameCoordinates,Original*%
%TF.FileFunction,Copper,L2,Bot*%
%TF.FilePolarity,Positive*%
%FSLAX46Y46*%
G04 Gerber Fmt 4.6, Leading zero omitted, Abs format (unit mm)*
G04 Created by KiCad (PCBNEW (5.1.9)-1) date 2021-04-18 21:28:31*
%MOMM*%
%LPD*%
G01*
G04 APERTURE LIST*
%TA.AperFunction,ComponentPad*%
%ADD10C,1.524000*%
%TD*%
%TA.AperFunction,ComponentPad*%
%ADD11R,1.524000X1.524000*%
%TD*%
%TA.AperFunction,ComponentPad*%
%ADD12O,1.600000X1.600000*%
%TD*%
%TA.AperFunction,ComponentPad*%
%ADD13R,1.600000X1.600000*%
%TD*%
%TA.AperFunction,ComponentPad*%
%ADD14C,1.778000*%
%TD*%
%TA.AperFunction,ComponentPad*%
%ADD15R,1.778000X1.778000*%
%TD*%
%TA.AperFunction,ComponentPad*%
%ADD16C,1.270000*%
%TD*%
%TA.AperFunction,ComponentPad*%
%ADD17R,1.270000X1.270000*%
%TD*%
%TA.AperFunction,ViaPad*%
%ADD18C,0.800000*%
%TD*%
%TA.AperFunction,Conductor*%
%ADD19C,0.250000*%
%TD*%
G04 APERTURE END LIST*
D10*
%TO.P,U4,6*%
%TO.N,/RST*%
X189230000Y-60960000D03*
%TO.P,U4,5*%
%TO.N,/RX*%
X186690000Y-60960000D03*
%TO.P,U4,4*%
%TO.N,/TX*%
X184150000Y-60960000D03*
D11*
%TO.P,U4,3*%
%TO.N,/3V*%
X181610000Y-60960000D03*
D10*
%TO.P,U4,2*%
%TO.N,GND*%
X179070000Y-60960000D03*
%TO.P,U4,1*%
X176530000Y-60960000D03*
%TD*%
D12*
%TO.P,MetroMini1,28*%
%TO.N,Net-(MetroMini1-Pad28)*%
X170180000Y-35560000D03*
%TO.P,MetroMini1,14*%
%TO.N,SCL*%
X154940000Y-68580000D03*
%TO.P,MetroMini1,27*%
%TO.N,Net-(MetroMini1-Pad27)*%
X170180000Y-38100000D03*
%TO.P,MetroMini1,13*%
%TO.N,SDA*%
X154940000Y-66040000D03*
%TO.P,MetroMini1,26*%
%TO.N,Net-(MetroMini1-Pad26)*%
X170180000Y-40640000D03*
%TO.P,MetroMini1,12*%
%TO.N,Net-(MetroMini1-Pad12)*%
X154940000Y-63500000D03*
%TO.P,MetroMini1,25*%
%TO.N,/TX*%
X170180000Y-43180000D03*
%TO.P,MetroMini1,11*%
%TO.N,/A2*%
X154940000Y-60960000D03*
%TO.P,MetroMini1,24*%
%TO.N,/RX*%
X170180000Y-45720000D03*
%TO.P,MetroMini1,10*%
%TO.N,/A1*%
X154940000Y-58420000D03*
%TO.P,MetroMini1,23*%
%TO.N,Net-(MetroMini1-Pad23)*%
X170180000Y-48260000D03*
%TO.P,MetroMini1,9*%
%TO.N,/A0*%
X154940000Y-55880000D03*
%TO.P,MetroMini1,22*%
%TO.N,Net-(MetroMini1-Pad22)*%
X170180000Y-50800000D03*
%TO.P,MetroMini1,8*%
%TO.N,Net-(MetroMini1-Pad8)*%
X154940000Y-53340000D03*
%TO.P,MetroMini1,21*%
%TO.N,Net-(MetroMini1-Pad21)*%
X170180000Y-53340000D03*
%TO.P,MetroMini1,7*%
%TO.N,5V*%
X154940000Y-50800000D03*
%TO.P,MetroMini1,20*%
%TO.N,Net-(MetroMini1-Pad20)*%
X170180000Y-55880000D03*
%TO.P,MetroMini1,6*%
%TO.N,GND*%
X154940000Y-48260000D03*
%TO.P,MetroMini1,19*%
%TO.N,SHIFT_LATCH*%
X170180000Y-58420000D03*
%TO.P,MetroMini1,5*%
%TO.N,GND*%
X154940000Y-45720000D03*
%TO.P,MetroMini1,18*%
%TO.N,SHIFT_DATA*%
X170180000Y-60960000D03*
%TO.P,MetroMini1,4*%
%TO.N,Net-(MetroMini1-Pad4)*%
X154940000Y-43180000D03*
%TO.P,MetroMini1,17*%
%TO.N,SHIFT_CLCK*%
X170180000Y-63500000D03*
%TO.P,MetroMini1,3*%
%TO.N,/3V*%
X154940000Y-40640000D03*
%TO.P,MetroMini1,16*%
%TO.N,Net-(MetroMini1-Pad16)*%
X170180000Y-66040000D03*
%TO.P,MetroMini1,2*%
%TO.N,/RST*%
X154940000Y-38100000D03*
%TO.P,MetroMini1,15*%
%TO.N,Net-(MetroMini1-Pad15)*%
X170180000Y-68580000D03*
D13*
%TO.P,MetroMini1,1*%
%TO.N,Net-(MetroMini1-Pad1)*%
X154940000Y-35560000D03*
%TD*%
D10*
%TO.P,U2,5*%
%TO.N,GND*%
X147320000Y-63500000D03*
%TO.P,U2,4*%
%TO.N,/A2*%
X147320000Y-60960000D03*
%TO.P,U2,3*%
%TO.N,/A1*%
X147320000Y-58420000D03*
%TO.P,U2,2*%
%TO.N,/A0*%
X147320000Y-55880000D03*
D11*
%TO.P,U2,1*%
%TO.N,/3V*%
X147320000Y-53340000D03*
%TD*%
D14*
%TO.P,U3,4*%
%TO.N,/MOTOR1_PHASE_D*%
X211850000Y-22860000D03*
%TO.P,U3,3*%
%TO.N,/MOTOR1_PHASE_C*%
X206850000Y-22860000D03*
%TO.P,U3,2*%
%TO.N,/MOTOR1_PHASE_B*%
X201850000Y-22860000D03*
D15*
%TO.P,U3,1*%
%TO.N,/MOTOR1_PHASE_A*%
X196850000Y-22860000D03*
%TD*%
D14*
%TO.P,U1,4*%
%TO.N,/MOTOR2_PHASE_D*%
X211850000Y-66040000D03*
%TO.P,U1,3*%
%TO.N,/MOTOR2_PHASE_C*%
X206850000Y-66040000D03*
%TO.P,U1,2*%
%TO.N,/MOTOR2_PHASE_B*%
X201850000Y-66040000D03*
D15*
%TO.P,U1,1*%
%TO.N,/MOTOR2_PHASE_A*%
X196850000Y-66040000D03*
%TD*%
D12*
%TO.P,SHIFT_REGISTER1,16*%
%TO.N,5V*%
X175895000Y-53340000D03*
%TO.P,SHIFT_REGISTER1,8*%
%TO.N,GND*%
X183515000Y-35560000D03*
%TO.P,SHIFT_REGISTER1,15*%
%TO.N,/MOTOR1_A*%
X175895000Y-50800000D03*
%TO.P,SHIFT_REGISTER1,7*%
%TO.N,/MOTOR2_D*%
X183515000Y-38100000D03*
%TO.P,SHIFT_REGISTER1,14*%
%TO.N,SHIFT_DATA*%
X175895000Y-48260000D03*
%TO.P,SHIFT_REGISTER1,6*%
%TO.N,/MOTOR2_C*%
X183515000Y-40640000D03*
%TO.P,SHIFT_REGISTER1,13*%
%TO.N,GND*%
X175895000Y-45720000D03*
%TO.P,SHIFT_REGISTER1,5*%
%TO.N,/MOTOR2_B*%
X183515000Y-43180000D03*
%TO.P,SHIFT_REGISTER1,12*%
%TO.N,SHIFT_LATCH*%
X175895000Y-43180000D03*
%TO.P,SHIFT_REGISTER1,4*%
%TO.N,/MOTOR2_A*%
X183515000Y-45720000D03*
%TO.P,SHIFT_REGISTER1,11*%
%TO.N,SHIFT_CLCK*%
X175895000Y-40640000D03*
%TO.P,SHIFT_REGISTER1,3*%
%TO.N,/MOTOR1_D*%
X183515000Y-48260000D03*
%TO.P,SHIFT_REGISTER1,10*%
%TO.N,5V*%
X175895000Y-38100000D03*
%TO.P,SHIFT_REGISTER1,2*%
%TO.N,/MOTOR1_C*%
X183515000Y-50800000D03*
%TO.P,SHIFT_REGISTER1,9*%
%TO.N,Net-(SHIFT_REGISTER1-Pad9)*%
X175895000Y-35560000D03*
D13*
%TO.P,SHIFT_REGISTER1,1*%
%TO.N,/MOTOR1_B*%
X183515000Y-53340000D03*
%TD*%
D10*
%TO.P,PowerSwitch1,2*%
%TO.N,/12V*%
X171410000Y-22860000D03*
D11*
%TO.P,PowerSwitch1,1*%
%TO.N,Net-(BatteryPack1-Pad1)*%
X166410000Y-22860000D03*
%TD*%
D12*
%TO.P,MOTOR2_L293D1,16*%
%TO.N,/12V*%
X196850000Y-35560000D03*
%TO.P,MOTOR2_L293D1,8*%
X189230000Y-53340000D03*
%TO.P,MOTOR2_L293D1,15*%
%TO.N,/MOTOR2_D*%
X196850000Y-38100000D03*
%TO.P,MOTOR2_L293D1,7*%
%TO.N,/MOTOR2_B*%
X189230000Y-50800000D03*
%TO.P,MOTOR2_L293D1,14*%
%TO.N,/MOTOR2_PHASE_D*%
X196850000Y-40640000D03*
%TO.P,MOTOR2_L293D1,6*%
%TO.N,/MOTOR2_PHASE_B*%
X189230000Y-48260000D03*
%TO.P,MOTOR2_L293D1,13*%
%TO.N,Net-(MOTOR2_L293D1-Pad13)*%
X196850000Y-43180000D03*
%TO.P,MOTOR2_L293D1,5*%
%TO.N,Net-(MOTOR2_L293D1-Pad5)*%
X189230000Y-45720000D03*
%TO.P,MOTOR2_L293D1,12*%
%TO.N,GND*%
X196850000Y-45720000D03*
%TO.P,MOTOR2_L293D1,4*%
%TO.N,Net-(MOTOR2_L293D1-Pad4)*%
X189230000Y-43180000D03*
%TO.P,MOTOR2_L293D1,11*%
%TO.N,/MOTOR2_PHASE_C*%
X196850000Y-48260000D03*
%TO.P,MOTOR2_L293D1,3*%
%TO.N,/MOTOR2_PHASE_A*%
X189230000Y-40640000D03*
%TO.P,MOTOR2_L293D1,10*%
%TO.N,/MOTOR2_C*%
X196850000Y-50800000D03*
%TO.P,MOTOR2_L293D1,2*%
%TO.N,/MOTOR2_A*%
X189230000Y-38100000D03*
%TO.P,MOTOR2_L293D1,9*%
%TO.N,5V*%
X196850000Y-53340000D03*
D13*
%TO.P,MOTOR2_L293D1,1*%
X189230000Y-35560000D03*
%TD*%
D12*
%TO.P,MOTOR1_L293D1,16*%
%TO.N,/12V*%
X212090000Y-35560000D03*
%TO.P,MOTOR1_L293D1,8*%
X204470000Y-53340000D03*
%TO.P,MOTOR1_L293D1,15*%
%TO.N,/MOTOR1_D*%
X212090000Y-38100000D03*
%TO.P,MOTOR1_L293D1,7*%
%TO.N,/MOTOR1_B*%
X204470000Y-50800000D03*
%TO.P,MOTOR1_L293D1,14*%
%TO.N,/MOTOR1_PHASE_D*%
X212090000Y-40640000D03*
%TO.P,MOTOR1_L293D1,6*%
%TO.N,/MOTOR1_PHASE_B*%
X204470000Y-48260000D03*
%TO.P,MOTOR1_L293D1,13*%
%TO.N,Net-(MOTOR1_L293D1-Pad13)*%
X212090000Y-43180000D03*
%TO.P,MOTOR1_L293D1,5*%
%TO.N,GND*%
X204470000Y-45720000D03*
%TO.P,MOTOR1_L293D1,12*%
%TO.N,Net-(MOTOR1_L293D1-Pad12)*%
X212090000Y-45720000D03*
%TO.P,MOTOR1_L293D1,4*%
%TO.N,Net-(MOTOR1_L293D1-Pad4)*%
X204470000Y-43180000D03*
%TO.P,MOTOR1_L293D1,11*%
%TO.N,/MOTOR1_PHASE_C*%
X212090000Y-48260000D03*
%TO.P,MOTOR1_L293D1,3*%
%TO.N,/MOTOR1_PHASE_A*%
X204470000Y-40640000D03*
%TO.P,MOTOR1_L293D1,10*%
%TO.N,/MOTOR1_C*%
X212090000Y-50800000D03*
%TO.P,MOTOR1_L293D1,2*%
%TO.N,/MOTOR1_A*%
X204470000Y-38100000D03*
%TO.P,MOTOR1_L293D1,9*%
%TO.N,5V*%
X212090000Y-53340000D03*
D13*
%TO.P,MOTOR1_L293D1,1*%
X204470000Y-35560000D03*
%TD*%
D16*
%TO.P,MOSFET1,3*%
%TO.N,5V*%
X147320000Y-45720000D03*
%TO.P,MOSFET1,2*%
%TO.N,GND*%
X147320000Y-43180000D03*
D17*
%TO.P,MOSFET1,1*%
%TO.N,/12V*%
X147320000Y-40640000D03*
%TD*%
D10*
%TO.P,BatteryPack1,2*%
%TO.N,GND*%
X156170000Y-22860000D03*
D11*
%TO.P,BatteryPack1,1*%
%TO.N,Net-(BatteryPack1-Pad1)*%
X151170000Y-22860000D03*
%TD*%
D18*
%TO.N,/12V*%
X207645000Y-48260000D03*
%TO.N,/MOTOR1_A*%
X180340000Y-34925000D03*
X180340000Y-31205000D03*
X209550000Y-31115000D03*
%TO.N,/MOTOR2_C*%
X199390000Y-35560000D03*
X178435000Y-27940000D03*
X178435000Y-31750000D03*
%TO.N,/MOTOR2_A*%
X186600000Y-51435000D03*
%TO.N,/MOTOR1_B*%
X190500000Y-56515000D03*
%TO.N,GND*%
X187325000Y-31750000D03*
X194310000Y-31660000D03*
X194310000Y-35560000D03*
%TO.N,5V*%
X207645000Y-31115000D03*
X200660000Y-31115000D03*
X172085000Y-45085000D03*
X172630000Y-48895000D03*
%TO.N,/RX*%
X177800000Y-58420000D03*
%TO.N,/3V*%
X180340000Y-66675000D03*
%TO.N,/RST*%
X162560000Y-46355000D03*
X162560000Y-55880000D03*
%TD*%
D19*
%TO.N,/12V*%
X212090000Y-35560000D02*
X212090000Y-33021410D01*
X212090000Y-33021410D02*
X212088590Y-33020000D01*
X199390000Y-33020000D02*
X196850000Y-35560000D01*
X212088590Y-33020000D02*
X199390000Y-33020000D01*
X170815000Y-23455000D02*
X171410000Y-22860000D01*
X170815000Y-29210000D02*
X170815000Y-23455000D01*
X153035000Y-29210000D02*
X170815000Y-29210000D01*
X153035000Y-36195000D02*
X153035000Y-29210000D01*
X148590000Y-40640000D02*
X153035000Y-36195000D01*
X147320000Y-40640000D02*
X148590000Y-40640000D01*
X212090000Y-35560000D02*
X207645000Y-40005000D01*
X207645000Y-40005000D02*
X207645000Y-48260000D01*
X203929999Y-47134999D02*
X206519999Y-47134999D01*
X199574990Y-51490008D02*
X203929999Y-47134999D01*
X206519999Y-47134999D02*
X207645000Y-48260000D01*
X199574990Y-55339989D02*
X199574990Y-51490008D01*
X191229989Y-55339989D02*
X199574990Y-55339989D01*
X189230000Y-53340000D02*
X191229989Y-55339989D01*
%TO.N,/MOTOR1_A*%
X175895000Y-50800000D02*
X180340000Y-46355000D01*
X180340000Y-46355000D02*
X180340000Y-34925000D01*
X180340000Y-34925000D02*
X180340000Y-34925000D01*
X180340000Y-31205000D02*
X180340000Y-29845000D01*
X180340000Y-29845000D02*
X197485000Y-29845000D01*
X197485000Y-29845000D02*
X208280000Y-29845000D01*
X208280000Y-29845000D02*
X209550000Y-31115000D01*
%TO.N,/MOTOR2_C*%
X199390000Y-48260000D02*
X199390000Y-35560000D01*
X196850000Y-50800000D02*
X199390000Y-48260000D01*
X178435000Y-27940000D02*
X178435000Y-31750000D01*
%TO.N,/MOTOR2_B*%
X188104999Y-49674999D02*
X182389999Y-49674999D01*
X189230000Y-50800000D02*
X188104999Y-49674999D01*
X182389999Y-49674999D02*
X181610000Y-48895000D01*
X181610000Y-45085000D02*
X183515000Y-43180000D01*
X181610000Y-48895000D02*
X181610000Y-45085000D01*
%TO.N,/MOTOR2_A*%
X189770001Y-51925001D02*
X191770000Y-49925002D01*
X187090001Y-51925001D02*
X189770001Y-51925001D01*
X186600000Y-51435000D02*
X187090001Y-51925001D01*
X191770000Y-40640000D02*
X189230000Y-38100000D01*
X191770000Y-49925002D02*
X191770000Y-40640000D01*
%TO.N,/MOTOR1_D*%
X213995000Y-36195000D02*
X212090000Y-38100000D01*
X212090000Y-32385000D02*
X213995000Y-34290000D01*
X190219998Y-32385000D02*
X212090000Y-32385000D01*
X187325000Y-35279998D02*
X190219998Y-32385000D01*
X187325000Y-46990000D02*
X187325000Y-35279998D01*
X213995000Y-34290000D02*
X213995000Y-36195000D01*
X186055000Y-48260000D02*
X187325000Y-46990000D01*
X183515000Y-48260000D02*
X186055000Y-48260000D01*
%TO.N,/MOTOR1_C*%
X203835000Y-49530000D02*
X210820000Y-49530000D01*
X200025000Y-53340000D02*
X203835000Y-49530000D01*
X199934999Y-55789999D02*
X200025000Y-55699998D01*
X210820000Y-49530000D02*
X212090000Y-50800000D01*
X200025000Y-55699998D02*
X200025000Y-53340000D01*
X190151999Y-55789999D02*
X199934999Y-55789999D01*
X190061998Y-55880000D02*
X190151999Y-55789999D01*
X188595000Y-55880000D02*
X190061998Y-55880000D01*
X183515000Y-50800000D02*
X188595000Y-55880000D01*
%TO.N,/MOTOR1_B*%
X190500000Y-56515000D02*
X200660000Y-56515000D01*
X200660000Y-54610000D02*
X204470000Y-50800000D01*
X200660000Y-56515000D02*
X200660000Y-54610000D01*
%TO.N,Net-(BatteryPack1-Pad1)*%
X166410000Y-22860000D02*
X164505000Y-20955000D01*
X164505000Y-20955000D02*
X153035000Y-20955000D01*
X151170000Y-22820000D02*
X151170000Y-22860000D01*
X153035000Y-20955000D02*
X151170000Y-22820000D01*
%TO.N,GND*%
X152400000Y-43180000D02*
X154940000Y-45720000D01*
X147320000Y-43180000D02*
X152400000Y-43180000D01*
X187325000Y-31750000D02*
X194310000Y-31750000D01*
X194310000Y-31750000D02*
X194310000Y-31660000D01*
X194310000Y-43180000D02*
X196850000Y-45720000D01*
X194310000Y-35560000D02*
X194310000Y-43180000D01*
X154940000Y-45720000D02*
X158115000Y-42545000D01*
X158115000Y-42545000D02*
X158115000Y-33020000D01*
X158115000Y-33020000D02*
X183515000Y-33020000D01*
X184785000Y-31750000D02*
X187325000Y-31750000D01*
X183515000Y-33020000D02*
X184785000Y-31750000D01*
X176530000Y-60960000D02*
X179070000Y-60960000D01*
%TO.N,SHIFT_CLCK*%
X170180000Y-63500000D02*
X173355000Y-60325000D01*
X173355000Y-43180000D02*
X175895000Y-40640000D01*
X173355000Y-60325000D02*
X173355000Y-43180000D01*
%TO.N,5V*%
X201295000Y-48895000D02*
X196850000Y-53340000D01*
X201295000Y-38100000D02*
X201295000Y-48895000D01*
X203835000Y-35560000D02*
X201295000Y-38100000D01*
X204470000Y-35560000D02*
X203835000Y-35560000D01*
X147320000Y-45720000D02*
X152400000Y-45720000D01*
X152400000Y-48260000D02*
X154940000Y-50800000D01*
X152400000Y-45720000D02*
X152400000Y-48260000D01*
X207645000Y-31115000D02*
X200660000Y-31115000D01*
X173990000Y-55245000D02*
X175895000Y-53340000D01*
X173990000Y-70485000D02*
X173990000Y-55245000D01*
X165735000Y-71755000D02*
X172720000Y-71755000D01*
X172720000Y-71755000D02*
X173990000Y-70485000D01*
X165735000Y-61595000D02*
X165735000Y-71755000D01*
X154940000Y-50800000D02*
X165735000Y-61595000D01*
X172085000Y-45085000D02*
X172085000Y-48260000D01*
X172085000Y-48350000D02*
X172630000Y-48895000D01*
X172085000Y-48260000D02*
X172085000Y-48350000D01*
%TO.N,/A2*%
X147320000Y-60960000D02*
X154940000Y-60960000D01*
%TO.N,/RX*%
X177800000Y-58420000D02*
X186690000Y-58420000D01*
X186690000Y-58420000D02*
X186690000Y-60960000D01*
%TO.N,/A1*%
X147320000Y-58420000D02*
X154940000Y-58420000D01*
%TO.N,/A0*%
X147320000Y-55880000D02*
X154940000Y-55880000D01*
%TO.N,/3V*%
X181610000Y-65405000D02*
X181610000Y-60960000D01*
X180340000Y-66675000D02*
X181610000Y-65405000D01*
%TO.N,/RST*%
X162560000Y-46355000D02*
X162560000Y-54610000D01*
X162560000Y-54610000D02*
X162560000Y-55880000D01*
%TD*%
M02*
