%TF.GenerationSoftware,KiCad,Pcbnew,(5.1.9)-1*%
%TF.CreationDate,2021-04-07T20:22:23-07:00*%
%TF.ProjectId,bbot-pcb,62626f74-2d70-4636-922e-6b696361645f,rev?*%
%TF.SameCoordinates,Original*%
%TF.FileFunction,Soldermask,Top*%
%TF.FilePolarity,Negative*%
%FSLAX46Y46*%
G04 Gerber Fmt 4.6, Leading zero omitted, Abs format (unit mm)*
G04 Created by KiCad (PCBNEW (5.1.9)-1) date 2021-04-07 20:22:23*
%MOMM*%
%LPD*%
G01*
G04 APERTURE LIST*
%ADD10C,0.150000*%
%ADD11C,3.200000*%
%ADD12C,1.524000*%
%ADD13R,1.524000X1.524000*%
%ADD14O,1.600000X1.600000*%
%ADD15R,1.600000X1.600000*%
%ADD16C,1.778000*%
%ADD17R,1.778000X1.778000*%
%ADD18C,1.143000*%
%ADD19R,1.143000X1.143000*%
%ADD20C,1.270000*%
%ADD21R,1.270000X1.270000*%
G04 APERTURE END LIST*
D10*
X176982380Y-65365238D02*
X176934761Y-65460476D01*
X176839523Y-65508095D01*
X175982380Y-65508095D01*
X176982380Y-64841428D02*
X176934761Y-64936666D01*
X176887142Y-64984285D01*
X176791904Y-65031904D01*
X176506190Y-65031904D01*
X176410952Y-64984285D01*
X176363333Y-64936666D01*
X176315714Y-64841428D01*
X176315714Y-64698571D01*
X176363333Y-64603333D01*
X176410952Y-64555714D01*
X176506190Y-64508095D01*
X176791904Y-64508095D01*
X176887142Y-64555714D01*
X176934761Y-64603333D01*
X176982380Y-64698571D01*
X176982380Y-64841428D01*
X176982380Y-63936666D02*
X176934761Y-64031904D01*
X176839523Y-64079523D01*
X175982380Y-64079523D01*
X140383333Y-67762380D02*
X140383333Y-67095714D01*
X140383333Y-66762380D02*
X140335714Y-66810000D01*
X140383333Y-66857619D01*
X140430952Y-66810000D01*
X140383333Y-66762380D01*
X140383333Y-66857619D01*
X140811904Y-67714761D02*
X140907142Y-67762380D01*
X141097619Y-67762380D01*
X141192857Y-67714761D01*
X141240476Y-67619523D01*
X141240476Y-67571904D01*
X141192857Y-67476666D01*
X141097619Y-67429047D01*
X140954761Y-67429047D01*
X140859523Y-67381428D01*
X140811904Y-67286190D01*
X140811904Y-67238571D01*
X140859523Y-67143333D01*
X140954761Y-67095714D01*
X141097619Y-67095714D01*
X141192857Y-67143333D01*
X142288095Y-67095714D02*
X142669047Y-67095714D01*
X142430952Y-66762380D02*
X142430952Y-67619523D01*
X142478571Y-67714761D01*
X142573809Y-67762380D01*
X142669047Y-67762380D01*
X143002380Y-67762380D02*
X143002380Y-66762380D01*
X143430952Y-67762380D02*
X143430952Y-67238571D01*
X143383333Y-67143333D01*
X143288095Y-67095714D01*
X143145238Y-67095714D01*
X143050000Y-67143333D01*
X143002380Y-67190952D01*
X143907142Y-67762380D02*
X143907142Y-67095714D01*
X143907142Y-66762380D02*
X143859523Y-66810000D01*
X143907142Y-66857619D01*
X143954761Y-66810000D01*
X143907142Y-66762380D01*
X143907142Y-66857619D01*
X144335714Y-67714761D02*
X144430952Y-67762380D01*
X144621428Y-67762380D01*
X144716666Y-67714761D01*
X144764285Y-67619523D01*
X144764285Y-67571904D01*
X144716666Y-67476666D01*
X144621428Y-67429047D01*
X144478571Y-67429047D01*
X144383333Y-67381428D01*
X144335714Y-67286190D01*
X144335714Y-67238571D01*
X144383333Y-67143333D01*
X144478571Y-67095714D01*
X144621428Y-67095714D01*
X144716666Y-67143333D01*
X146335714Y-67714761D02*
X146240476Y-67762380D01*
X146050000Y-67762380D01*
X145954761Y-67714761D01*
X145907142Y-67619523D01*
X145907142Y-67238571D01*
X145954761Y-67143333D01*
X146050000Y-67095714D01*
X146240476Y-67095714D01*
X146335714Y-67143333D01*
X146383333Y-67238571D01*
X146383333Y-67333809D01*
X145907142Y-67429047D01*
X146811904Y-67095714D02*
X146811904Y-67762380D01*
X146811904Y-67190952D02*
X146859523Y-67143333D01*
X146954761Y-67095714D01*
X147097619Y-67095714D01*
X147192857Y-67143333D01*
X147240476Y-67238571D01*
X147240476Y-67762380D01*
X147859523Y-67762380D02*
X147764285Y-67714761D01*
X147716666Y-67667142D01*
X147669047Y-67571904D01*
X147669047Y-67286190D01*
X147716666Y-67190952D01*
X147764285Y-67143333D01*
X147859523Y-67095714D01*
X148002380Y-67095714D01*
X148097619Y-67143333D01*
X148145238Y-67190952D01*
X148192857Y-67286190D01*
X148192857Y-67571904D01*
X148145238Y-67667142D01*
X148097619Y-67714761D01*
X148002380Y-67762380D01*
X147859523Y-67762380D01*
X149050000Y-67095714D02*
X149050000Y-67762380D01*
X148621428Y-67095714D02*
X148621428Y-67619523D01*
X148669047Y-67714761D01*
X148764285Y-67762380D01*
X148907142Y-67762380D01*
X149002380Y-67714761D01*
X149050000Y-67667142D01*
X149954761Y-67095714D02*
X149954761Y-67905238D01*
X149907142Y-68000476D01*
X149859523Y-68048095D01*
X149764285Y-68095714D01*
X149621428Y-68095714D01*
X149526190Y-68048095D01*
X149954761Y-67714761D02*
X149859523Y-67762380D01*
X149669047Y-67762380D01*
X149573809Y-67714761D01*
X149526190Y-67667142D01*
X149478571Y-67571904D01*
X149478571Y-67286190D01*
X149526190Y-67190952D01*
X149573809Y-67143333D01*
X149669047Y-67095714D01*
X149859523Y-67095714D01*
X149954761Y-67143333D01*
X150430952Y-67762380D02*
X150430952Y-66762380D01*
X150859523Y-67762380D02*
X150859523Y-67238571D01*
X150811904Y-67143333D01*
X150716666Y-67095714D01*
X150573809Y-67095714D01*
X150478571Y-67143333D01*
X150430952Y-67190952D01*
X151478571Y-67667142D02*
X151526190Y-67714761D01*
X151478571Y-67762380D01*
X151430952Y-67714761D01*
X151478571Y-67667142D01*
X151478571Y-67762380D01*
X151288095Y-66810000D02*
X151383333Y-66762380D01*
X151621428Y-66762380D01*
X151716666Y-66810000D01*
X151764285Y-66905238D01*
X151764285Y-67000476D01*
X151716666Y-67095714D01*
X151669047Y-67143333D01*
X151573809Y-67190952D01*
X151526190Y-67238571D01*
X151478571Y-67333809D01*
X151478571Y-67381428D01*
X122238095Y-102052380D02*
X122238095Y-101052380D01*
X122619047Y-101052380D01*
X122714285Y-101100000D01*
X122761904Y-101147619D01*
X122809523Y-101242857D01*
X122809523Y-101385714D01*
X122761904Y-101480952D01*
X122714285Y-101528571D01*
X122619047Y-101576190D01*
X122238095Y-101576190D01*
X123380952Y-102052380D02*
X123285714Y-102004761D01*
X123238095Y-101957142D01*
X123190476Y-101861904D01*
X123190476Y-101576190D01*
X123238095Y-101480952D01*
X123285714Y-101433333D01*
X123380952Y-101385714D01*
X123523809Y-101385714D01*
X123619047Y-101433333D01*
X123666666Y-101480952D01*
X123714285Y-101576190D01*
X123714285Y-101861904D01*
X123666666Y-101957142D01*
X123619047Y-102004761D01*
X123523809Y-102052380D01*
X123380952Y-102052380D01*
X124047619Y-101385714D02*
X124238095Y-102052380D01*
X124428571Y-101576190D01*
X124619047Y-102052380D01*
X124809523Y-101385714D01*
X125571428Y-102004761D02*
X125476190Y-102052380D01*
X125285714Y-102052380D01*
X125190476Y-102004761D01*
X125142857Y-101909523D01*
X125142857Y-101528571D01*
X125190476Y-101433333D01*
X125285714Y-101385714D01*
X125476190Y-101385714D01*
X125571428Y-101433333D01*
X125619047Y-101528571D01*
X125619047Y-101623809D01*
X125142857Y-101719047D01*
X126047619Y-102052380D02*
X126047619Y-101385714D01*
X126047619Y-101576190D02*
X126095238Y-101480952D01*
X126142857Y-101433333D01*
X126238095Y-101385714D01*
X126333333Y-101385714D01*
X127380952Y-102004761D02*
X127523809Y-102052380D01*
X127761904Y-102052380D01*
X127857142Y-102004761D01*
X127904761Y-101957142D01*
X127952380Y-101861904D01*
X127952380Y-101766666D01*
X127904761Y-101671428D01*
X127857142Y-101623809D01*
X127761904Y-101576190D01*
X127571428Y-101528571D01*
X127476190Y-101480952D01*
X127428571Y-101433333D01*
X127380952Y-101338095D01*
X127380952Y-101242857D01*
X127428571Y-101147619D01*
X127476190Y-101100000D01*
X127571428Y-101052380D01*
X127809523Y-101052380D01*
X127952380Y-101100000D01*
X128285714Y-101385714D02*
X128476190Y-102052380D01*
X128666666Y-101576190D01*
X128857142Y-102052380D01*
X129047619Y-101385714D01*
X129428571Y-102052380D02*
X129428571Y-101385714D01*
X129428571Y-101052380D02*
X129380952Y-101100000D01*
X129428571Y-101147619D01*
X129476190Y-101100000D01*
X129428571Y-101052380D01*
X129428571Y-101147619D01*
X129761904Y-101385714D02*
X130142857Y-101385714D01*
X129904761Y-101052380D02*
X129904761Y-101909523D01*
X129952380Y-102004761D01*
X130047619Y-102052380D01*
X130142857Y-102052380D01*
X130904761Y-102004761D02*
X130809523Y-102052380D01*
X130619047Y-102052380D01*
X130523809Y-102004761D01*
X130476190Y-101957142D01*
X130428571Y-101861904D01*
X130428571Y-101576190D01*
X130476190Y-101480952D01*
X130523809Y-101433333D01*
X130619047Y-101385714D01*
X130809523Y-101385714D01*
X130904761Y-101433333D01*
X131333333Y-102052380D02*
X131333333Y-101052380D01*
X131761904Y-102052380D02*
X131761904Y-101528571D01*
X131714285Y-101433333D01*
X131619047Y-101385714D01*
X131476190Y-101385714D01*
X131380952Y-101433333D01*
X131333333Y-101480952D01*
X143081904Y-101528571D02*
X143224761Y-101576190D01*
X143272380Y-101623809D01*
X143320000Y-101719047D01*
X143320000Y-101861904D01*
X143272380Y-101957142D01*
X143224761Y-102004761D01*
X143129523Y-102052380D01*
X142748571Y-102052380D01*
X142748571Y-101052380D01*
X143081904Y-101052380D01*
X143177142Y-101100000D01*
X143224761Y-101147619D01*
X143272380Y-101242857D01*
X143272380Y-101338095D01*
X143224761Y-101433333D01*
X143177142Y-101480952D01*
X143081904Y-101528571D01*
X142748571Y-101528571D01*
X144177142Y-102052380D02*
X144177142Y-101528571D01*
X144129523Y-101433333D01*
X144034285Y-101385714D01*
X143843809Y-101385714D01*
X143748571Y-101433333D01*
X144177142Y-102004761D02*
X144081904Y-102052380D01*
X143843809Y-102052380D01*
X143748571Y-102004761D01*
X143700952Y-101909523D01*
X143700952Y-101814285D01*
X143748571Y-101719047D01*
X143843809Y-101671428D01*
X144081904Y-101671428D01*
X144177142Y-101623809D01*
X144510476Y-101385714D02*
X144891428Y-101385714D01*
X144653333Y-101052380D02*
X144653333Y-101909523D01*
X144700952Y-102004761D01*
X144796190Y-102052380D01*
X144891428Y-102052380D01*
X145081904Y-101385714D02*
X145462857Y-101385714D01*
X145224761Y-101052380D02*
X145224761Y-101909523D01*
X145272380Y-102004761D01*
X145367619Y-102052380D01*
X145462857Y-102052380D01*
X146177142Y-102004761D02*
X146081904Y-102052380D01*
X145891428Y-102052380D01*
X145796190Y-102004761D01*
X145748571Y-101909523D01*
X145748571Y-101528571D01*
X145796190Y-101433333D01*
X145891428Y-101385714D01*
X146081904Y-101385714D01*
X146177142Y-101433333D01*
X146224761Y-101528571D01*
X146224761Y-101623809D01*
X145748571Y-101719047D01*
X146653333Y-102052380D02*
X146653333Y-101385714D01*
X146653333Y-101576190D02*
X146700952Y-101480952D01*
X146748571Y-101433333D01*
X146843809Y-101385714D01*
X146939047Y-101385714D01*
X147177142Y-101385714D02*
X147415238Y-102052380D01*
X147653333Y-101385714D02*
X147415238Y-102052380D01*
X147320000Y-102290476D01*
X147272380Y-102338095D01*
X147177142Y-102385714D01*
X148796190Y-102052380D02*
X148796190Y-101052380D01*
X149177142Y-101052380D01*
X149272380Y-101100000D01*
X149320000Y-101147619D01*
X149367619Y-101242857D01*
X149367619Y-101385714D01*
X149320000Y-101480952D01*
X149272380Y-101528571D01*
X149177142Y-101576190D01*
X148796190Y-101576190D01*
X150224761Y-102052380D02*
X150224761Y-101528571D01*
X150177142Y-101433333D01*
X150081904Y-101385714D01*
X149891428Y-101385714D01*
X149796190Y-101433333D01*
X150224761Y-102004761D02*
X150129523Y-102052380D01*
X149891428Y-102052380D01*
X149796190Y-102004761D01*
X149748571Y-101909523D01*
X149748571Y-101814285D01*
X149796190Y-101719047D01*
X149891428Y-101671428D01*
X150129523Y-101671428D01*
X150224761Y-101623809D01*
X151129523Y-102004761D02*
X151034285Y-102052380D01*
X150843809Y-102052380D01*
X150748571Y-102004761D01*
X150700952Y-101957142D01*
X150653333Y-101861904D01*
X150653333Y-101576190D01*
X150700952Y-101480952D01*
X150748571Y-101433333D01*
X150843809Y-101385714D01*
X151034285Y-101385714D01*
X151129523Y-101433333D01*
X151558095Y-102052380D02*
X151558095Y-101052380D01*
X151653333Y-101671428D02*
X151939047Y-102052380D01*
X151939047Y-101385714D02*
X151558095Y-101766666D01*
X127420952Y-60142380D02*
X127420952Y-59618571D01*
X127373333Y-59523333D01*
X127278095Y-59475714D01*
X127087619Y-59475714D01*
X126992380Y-59523333D01*
X127420952Y-60094761D02*
X127325714Y-60142380D01*
X127087619Y-60142380D01*
X126992380Y-60094761D01*
X126944761Y-59999523D01*
X126944761Y-59904285D01*
X126992380Y-59809047D01*
X127087619Y-59761428D01*
X127325714Y-59761428D01*
X127420952Y-59713809D01*
X128659047Y-60142380D02*
X128659047Y-59475714D01*
X128659047Y-59666190D02*
X128706666Y-59570952D01*
X128754285Y-59523333D01*
X128849523Y-59475714D01*
X128944761Y-59475714D01*
X129420952Y-60142380D02*
X129325714Y-60094761D01*
X129278095Y-60047142D01*
X129230476Y-59951904D01*
X129230476Y-59666190D01*
X129278095Y-59570952D01*
X129325714Y-59523333D01*
X129420952Y-59475714D01*
X129563809Y-59475714D01*
X129659047Y-59523333D01*
X129706666Y-59570952D01*
X129754285Y-59666190D01*
X129754285Y-59951904D01*
X129706666Y-60047142D01*
X129659047Y-60094761D01*
X129563809Y-60142380D01*
X129420952Y-60142380D01*
X130182857Y-60142380D02*
X130182857Y-59142380D01*
X130182857Y-59523333D02*
X130278095Y-59475714D01*
X130468571Y-59475714D01*
X130563809Y-59523333D01*
X130611428Y-59570952D01*
X130659047Y-59666190D01*
X130659047Y-59951904D01*
X130611428Y-60047142D01*
X130563809Y-60094761D01*
X130468571Y-60142380D01*
X130278095Y-60142380D01*
X130182857Y-60094761D01*
X131230476Y-60142380D02*
X131135238Y-60094761D01*
X131087619Y-60047142D01*
X131040000Y-59951904D01*
X131040000Y-59666190D01*
X131087619Y-59570952D01*
X131135238Y-59523333D01*
X131230476Y-59475714D01*
X131373333Y-59475714D01*
X131468571Y-59523333D01*
X131516190Y-59570952D01*
X131563809Y-59666190D01*
X131563809Y-59951904D01*
X131516190Y-60047142D01*
X131468571Y-60094761D01*
X131373333Y-60142380D01*
X131230476Y-60142380D01*
X131849523Y-59475714D02*
X132230476Y-59475714D01*
X131992380Y-59142380D02*
X131992380Y-59999523D01*
X132040000Y-60094761D01*
X132135238Y-60142380D01*
X132230476Y-60142380D01*
D11*
%TO.C,REF\u002A\u002A*%
X146050000Y-62230000D03*
%TD*%
D12*
%TO.C,BatteryPack1*%
X142280000Y-106680000D03*
D13*
X147280000Y-106680000D03*
%TD*%
D12*
%TO.C,PowerSwitch1*%
X124500000Y-106680000D03*
D13*
X129500000Y-106680000D03*
%TD*%
D14*
%TO.C,MetroMini1*%
X137160000Y-64770000D03*
X121920000Y-97790000D03*
X137160000Y-67310000D03*
X121920000Y-95250000D03*
X137160000Y-69850000D03*
X121920000Y-92710000D03*
X137160000Y-72390000D03*
X121920000Y-90170000D03*
X137160000Y-74930000D03*
X121920000Y-87630000D03*
X137160000Y-77470000D03*
X121920000Y-85090000D03*
X137160000Y-80010000D03*
X121920000Y-82550000D03*
X137160000Y-82550000D03*
X121920000Y-80010000D03*
X137160000Y-85090000D03*
X121920000Y-77470000D03*
X137160000Y-87630000D03*
X121920000Y-74930000D03*
X137160000Y-90170000D03*
X121920000Y-72390000D03*
X137160000Y-92710000D03*
X121920000Y-69850000D03*
X137160000Y-95250000D03*
X121920000Y-67310000D03*
X137160000Y-97790000D03*
D15*
X121920000Y-64770000D03*
%TD*%
D14*
%TO.C,MOTOR1_L293D1*%
X156210000Y-86360000D03*
X173990000Y-93980000D03*
X158750000Y-86360000D03*
X171450000Y-93980000D03*
X161290000Y-86360000D03*
X168910000Y-93980000D03*
X163830000Y-86360000D03*
X166370000Y-93980000D03*
X166370000Y-86360000D03*
X163830000Y-93980000D03*
X168910000Y-86360000D03*
X161290000Y-93980000D03*
X171450000Y-86360000D03*
X158750000Y-93980000D03*
X173990000Y-86360000D03*
D15*
X156210000Y-93980000D03*
%TD*%
D14*
%TO.C,MOTOR2_L293D1*%
X156210000Y-72390000D03*
X173990000Y-80010000D03*
X158750000Y-72390000D03*
X171450000Y-80010000D03*
X161290000Y-72390000D03*
X168910000Y-80010000D03*
X163830000Y-72390000D03*
X166370000Y-80010000D03*
X166370000Y-72390000D03*
X163830000Y-80010000D03*
X168910000Y-72390000D03*
X161290000Y-80010000D03*
X171450000Y-72390000D03*
X158750000Y-80010000D03*
X173990000Y-72390000D03*
D15*
X156210000Y-80010000D03*
%TD*%
D14*
%TO.C,SHIFT_REGISTER1*%
X142240000Y-90170000D03*
X149860000Y-72390000D03*
X142240000Y-87630000D03*
X149860000Y-74930000D03*
X142240000Y-85090000D03*
X149860000Y-77470000D03*
X142240000Y-82550000D03*
X149860000Y-80010000D03*
X142240000Y-80010000D03*
X149860000Y-82550000D03*
X142240000Y-77470000D03*
X149860000Y-85090000D03*
X142240000Y-74930000D03*
X149860000Y-87630000D03*
X142240000Y-72390000D03*
D15*
X149860000Y-90170000D03*
%TD*%
D16*
%TO.C,U1*%
X157720000Y-62230000D03*
X162720000Y-62230000D03*
X167720000Y-62230000D03*
D17*
X172720000Y-62230000D03*
%TD*%
D18*
%TO.C,HMC5883L1*%
X116840000Y-97980000D03*
X116840000Y-95980000D03*
D19*
X116840000Y-93980000D03*
D18*
X116840000Y-91980000D03*
%TD*%
D16*
%TO.C,U3*%
X158990000Y-104140000D03*
X163990000Y-104140000D03*
X168990000Y-104140000D03*
D17*
X173990000Y-104140000D03*
%TD*%
D20*
%TO.C,MOSFET1*%
X116840000Y-109220000D03*
X116840000Y-106680000D03*
D21*
X116840000Y-104140000D03*
%TD*%
M02*
