M48
; DRILL file {KiCad (5.1.9)-1} date 04/07/21 20:22:25
; FORMAT={-:-/ absolute / inch / decimal}
; #@! TF.CreationDate,2021-04-07T20:22:25-07:00
; #@! TF.GenerationSoftware,Kicad,Pcbnew,(5.1.9)-1
; #@! TF.FileFunction,Plated,1,2,PTH
FMAT,2
INCH
T1C0.0300
T2C0.0315
T3C0.0413
T4C0.0500
%
G90
G05
T1
X4.6Y-3.6213
X4.6Y-3.7
X4.6Y-3.7787
X4.6Y-3.8575
X4.6Y-4.1
X4.6Y-4.2
X4.6Y-4.3
T2
X4.8Y-2.55
X4.8Y-2.65
X4.8Y-2.75
X4.8Y-2.85
X4.8Y-2.95
X4.8Y-3.05
X4.8Y-3.15
X4.8Y-3.25
X4.8Y-3.35
X4.8Y-3.45
X4.8Y-3.55
X4.8Y-3.65
X4.8Y-3.75
X4.8Y-3.85
X5.4Y-2.55
X5.4Y-2.65
X5.4Y-2.75
X5.4Y-2.85
X5.4Y-2.95
X5.4Y-3.05
X5.4Y-3.15
X5.4Y-3.25
X5.4Y-3.35
X5.4Y-3.45
X5.4Y-3.55
X5.4Y-3.65
X5.4Y-3.75
X5.4Y-3.85
X5.6Y-2.85
X5.6Y-2.95
X5.6Y-3.05
X5.6Y-3.15
X5.6Y-3.25
X5.6Y-3.35
X5.6Y-3.45
X5.6Y-3.55
X5.9Y-2.85
X5.9Y-2.95
X5.9Y-3.05
X5.9Y-3.15
X5.9Y-3.25
X5.9Y-3.35
X5.9Y-3.45
X5.9Y-3.55
X6.15Y-2.85
X6.15Y-3.15
X6.15Y-3.4
X6.15Y-3.7
X6.25Y-2.85
X6.25Y-3.15
X6.25Y-3.4
X6.25Y-3.7
X6.35Y-2.85
X6.35Y-3.15
X6.35Y-3.4
X6.35Y-3.7
X6.45Y-2.85
X6.45Y-3.15
X6.45Y-3.4
X6.45Y-3.7
X6.55Y-2.85
X6.55Y-3.15
X6.55Y-3.4
X6.55Y-3.7
X6.65Y-2.85
X6.65Y-3.15
X6.65Y-3.4
X6.65Y-3.7
X6.75Y-2.85
X6.75Y-3.15
X6.75Y-3.4
X6.75Y-3.7
X6.85Y-2.85
X6.85Y-3.15
X6.85Y-3.4
X6.85Y-3.7
T3
X4.9016Y-4.2
X5.0984Y-4.2
X5.6016Y-4.2
X5.7984Y-4.2
T4
X6.2094Y-2.45
X6.2594Y-4.1
X6.4063Y-2.45
X6.4563Y-4.1
X6.6031Y-2.45
X6.6531Y-4.1
X6.8Y-2.45
X6.85Y-4.1
T0
M30
