M48
; DRILL file {KiCad (5.1.9)-1} date 04/18/21 21:28:26
; FORMAT={-:-/ absolute / inch / decimal}
; #@! TF.CreationDate,2021-04-18T21:28:26-07:00
; #@! TF.GenerationSoftware,Kicad,Pcbnew,(5.1.9)-1
; #@! TF.FileFunction,Plated,1,2,PTH
FMAT,2
INCH
T1C0.0157
T2C0.0300
T3C0.0315
T4C0.0346
T5C0.0413
T6C0.0500
%
G90
G05
T1
X6.4Y-1.825
X6.4Y-2.2
X6.775Y-1.775
X6.7965Y-1.925
X7.0Y-2.3
X7.025Y-1.1
X7.025Y-1.25
X7.1Y-1.2285
X7.1Y-1.375
X7.1Y-2.625
X7.3465Y-2.025
X7.375Y-1.25
X7.5Y-2.225
X7.65Y-1.2465
X7.65Y-1.4
X7.85Y-1.4
X7.9Y-1.225
X8.175Y-1.225
X8.175Y-1.9
X8.25Y-1.225
T2
X5.8Y-2.1
X5.8Y-2.2
X5.8Y-2.3
X5.8Y-2.4
X5.8Y-2.5
X6.95Y-2.4
X7.05Y-2.4
X7.15Y-2.4
X7.25Y-2.4
X7.35Y-2.4
X7.45Y-2.4
T3
X6.1Y-1.4
X6.1Y-1.5
X6.1Y-1.6
X6.1Y-1.7
X6.1Y-1.8
X6.1Y-1.9
X6.1Y-2.0
X6.1Y-2.1
X6.1Y-2.2
X6.1Y-2.3
X6.1Y-2.4
X6.1Y-2.5
X6.1Y-2.6
X6.1Y-2.7
X6.7Y-1.4
X6.7Y-1.5
X6.7Y-1.6
X6.7Y-1.7
X6.7Y-1.8
X6.7Y-1.9
X6.7Y-2.0
X6.7Y-2.1
X6.7Y-2.2
X6.7Y-2.3
X6.7Y-2.4
X6.7Y-2.5
X6.7Y-2.6
X6.7Y-2.7
X6.925Y-1.4
X6.925Y-1.5
X6.925Y-1.6
X6.925Y-1.7
X6.925Y-1.8
X6.925Y-1.9
X6.925Y-2.0
X6.925Y-2.1
X7.225Y-1.4
X7.225Y-1.5
X7.225Y-1.6
X7.225Y-1.7
X7.225Y-1.8
X7.225Y-1.9
X7.225Y-2.0
X7.225Y-2.1
X7.45Y-1.4
X7.45Y-1.5
X7.45Y-1.6
X7.45Y-1.7
X7.45Y-1.8
X7.45Y-1.9
X7.45Y-2.0
X7.45Y-2.1
X7.75Y-1.4
X7.75Y-1.5
X7.75Y-1.6
X7.75Y-1.7
X7.75Y-1.8
X7.75Y-1.9
X7.75Y-2.0
X7.75Y-2.1
X8.05Y-1.4
X8.05Y-1.5
X8.05Y-1.6
X8.05Y-1.7
X8.05Y-1.8
X8.05Y-1.9
X8.05Y-2.0
X8.05Y-2.1
X8.35Y-1.4
X8.35Y-1.5
X8.35Y-1.6
X8.35Y-1.7
X8.35Y-1.8
X8.35Y-1.9
X8.35Y-2.0
X8.35Y-2.1
T4
X5.8Y-1.6
X5.8Y-1.7
X5.8Y-1.8
T5
X5.9516Y-0.9
X6.1484Y-0.9
X6.5516Y-0.9
X6.7484Y-0.9
T6
X7.75Y-0.9
X7.75Y-2.6
X7.9469Y-0.9
X7.9469Y-2.6
X8.1437Y-0.9
X8.1437Y-2.6
X8.3406Y-0.9
X8.3406Y-2.6
T0
M30
