M48
; DRILL file {KiCad (5.1.9)-1} date 04/06/21 18:47:32
; FORMAT={-:-/ absolute / inch / decimal}
; #@! TF.CreationDate,2021-04-06T18:47:32-07:00
; #@! TF.GenerationSoftware,Kicad,Pcbnew,(5.1.9)-1
; #@! TF.FileFunction,Plated,1,2,PTH
FMAT,2
INCH
T1C0.0300
T2C0.0315
T3C0.0413
T4C0.0500
%
G90
G05
T1
X5.15Y-2.45
X5.25Y-2.45
X5.35Y-2.45
X6.2819Y-4.2
X6.3606Y-4.2
X6.4394Y-4.2
X6.5181Y-4.2
T2
X4.85Y-2.75
X4.85Y-2.85
X4.85Y-2.95
X4.85Y-3.05
X4.85Y-3.15
X4.85Y-3.25
X4.85Y-3.35
X4.85Y-3.45
X4.85Y-3.55
X4.85Y-3.65
X4.85Y-3.75
X4.85Y-3.85
X4.85Y-3.95
X4.85Y-4.05
X5.45Y-2.75
X5.45Y-2.85
X5.45Y-2.95
X5.45Y-3.05
X5.45Y-3.15
X5.45Y-3.25
X5.45Y-3.35
X5.45Y-3.45
X5.45Y-3.55
X5.45Y-3.65
X5.45Y-3.75
X5.45Y-3.85
X5.45Y-3.95
X5.45Y-4.05
X5.8Y-2.7
X5.8Y-3.0
X5.8Y-3.2
X5.8Y-3.5
X5.8Y-3.7
X5.8Y-4.0
X5.9Y-2.7
X5.9Y-3.0
X5.9Y-3.2
X5.9Y-3.5
X5.9Y-3.7
X5.9Y-4.0
X6.0Y-2.7
X6.0Y-3.0
X6.0Y-3.2
X6.0Y-3.5
X6.0Y-3.7
X6.0Y-4.0
X6.1Y-2.7
X6.1Y-3.0
X6.1Y-3.2
X6.1Y-3.5
X6.1Y-3.7
X6.1Y-4.0
X6.2Y-2.7
X6.2Y-3.0
X6.2Y-3.2
X6.2Y-3.5
X6.2Y-3.7
X6.2Y-4.0
X6.3Y-2.7
X6.3Y-3.0
X6.3Y-3.2
X6.3Y-3.5
X6.3Y-3.7
X6.3Y-4.0
X6.4Y-2.7
X6.4Y-3.0
X6.4Y-3.2
X6.4Y-3.5
X6.4Y-3.7
X6.4Y-4.0
X6.5Y-2.7
X6.5Y-3.0
X6.5Y-3.2
X6.5Y-3.5
X6.5Y-3.7
X6.5Y-4.0
T3
X5.7016Y-2.45
X5.8984Y-2.45
X6.2516Y-2.45
X6.4484Y-2.45
T4
X6.95Y-2.7094
X6.95Y-2.9063
X6.95Y-3.1031
X6.95Y-3.3
X6.95Y-3.5594
X6.95Y-3.7563
X6.95Y-3.9531
X6.95Y-4.15
T0
M30
