%TF.GenerationSoftware,KiCad,Pcbnew,(5.1.9)-1*%
%TF.CreationDate,2021-04-06T18:47:30-07:00*%
%TF.ProjectId,bbot-pcb,62626f74-2d70-4636-922e-6b696361645f,rev?*%
%TF.SameCoordinates,Original*%
%TF.FileFunction,Copper,L1,Top*%
%TF.FilePolarity,Positive*%
%FSLAX46Y46*%
G04 Gerber Fmt 4.6, Leading zero omitted, Abs format (unit mm)*
G04 Created by KiCad (PCBNEW (5.1.9)-1) date 2021-04-06 18:47:30*
%MOMM*%
%LPD*%
G01*
G04 APERTURE LIST*
%TA.AperFunction,ComponentPad*%
%ADD10C,1.524000*%
%TD*%
%TA.AperFunction,ComponentPad*%
%ADD11R,1.524000X1.524000*%
%TD*%
%TA.AperFunction,ComponentPad*%
%ADD12O,1.600000X1.600000*%
%TD*%
%TA.AperFunction,ComponentPad*%
%ADD13R,1.600000X1.600000*%
%TD*%
%TA.AperFunction,ComponentPad*%
%ADD14C,1.778000*%
%TD*%
%TA.AperFunction,ComponentPad*%
%ADD15R,1.778000X1.778000*%
%TD*%
%TA.AperFunction,ComponentPad*%
%ADD16C,1.143000*%
%TD*%
%TA.AperFunction,ComponentPad*%
%ADD17R,1.143000X1.143000*%
%TD*%
%TA.AperFunction,ComponentPad*%
%ADD18C,1.270000*%
%TD*%
%TA.AperFunction,ComponentPad*%
%ADD19R,1.270000X1.270000*%
%TD*%
%TA.AperFunction,Conductor*%
%ADD20C,0.250000*%
%TD*%
G04 APERTURE END LIST*
D10*
%TO.P,BatteryPack1,2*%
%TO.N,GND*%
X163790000Y-62230000D03*
D11*
%TO.P,BatteryPack1,1*%
%TO.N,Net-(BatteryPack1-Pad1)*%
X158790000Y-62230000D03*
%TD*%
D10*
%TO.P,PowerSwitch1,2*%
%TO.N,/12V*%
X149820000Y-62230000D03*
D11*
%TO.P,PowerSwitch1,1*%
%TO.N,Net-(BatteryPack1-Pad1)*%
X144820000Y-62230000D03*
%TD*%
D12*
%TO.P,MetroMini1,28*%
%TO.N,Net-(MetroMini1-Pad28)*%
X138430000Y-69850000D03*
%TO.P,MetroMini1,14*%
%TO.N,SCL*%
X123190000Y-102870000D03*
%TO.P,MetroMini1,27*%
%TO.N,Net-(MetroMini1-Pad27)*%
X138430000Y-72390000D03*
%TO.P,MetroMini1,13*%
%TO.N,SDA*%
X123190000Y-100330000D03*
%TO.P,MetroMini1,26*%
%TO.N,Net-(MetroMini1-Pad26)*%
X138430000Y-74930000D03*
%TO.P,MetroMini1,12*%
%TO.N,Net-(MetroMini1-Pad12)*%
X123190000Y-97790000D03*
%TO.P,MetroMini1,25*%
%TO.N,Net-(MetroMini1-Pad25)*%
X138430000Y-77470000D03*
%TO.P,MetroMini1,11*%
%TO.N,Net-(MetroMini1-Pad11)*%
X123190000Y-95250000D03*
%TO.P,MetroMini1,24*%
%TO.N,Net-(MetroMini1-Pad24)*%
X138430000Y-80010000D03*
%TO.P,MetroMini1,10*%
%TO.N,Net-(MetroMini1-Pad10)*%
X123190000Y-92710000D03*
%TO.P,MetroMini1,23*%
%TO.N,Net-(MetroMini1-Pad23)*%
X138430000Y-82550000D03*
%TO.P,MetroMini1,9*%
%TO.N,Net-(MetroMini1-Pad9)*%
X123190000Y-90170000D03*
%TO.P,MetroMini1,22*%
%TO.N,Net-(MetroMini1-Pad22)*%
X138430000Y-85090000D03*
%TO.P,MetroMini1,8*%
%TO.N,Net-(MetroMini1-Pad8)*%
X123190000Y-87630000D03*
%TO.P,MetroMini1,21*%
%TO.N,Net-(MetroMini1-Pad21)*%
X138430000Y-87630000D03*
%TO.P,MetroMini1,7*%
%TO.N,5V*%
X123190000Y-85090000D03*
%TO.P,MetroMini1,20*%
%TO.N,Net-(MetroMini1-Pad20)*%
X138430000Y-90170000D03*
%TO.P,MetroMini1,6*%
%TO.N,GND*%
X123190000Y-82550000D03*
%TO.P,MetroMini1,19*%
%TO.N,SHIFT_LATCH*%
X138430000Y-92710000D03*
%TO.P,MetroMini1,5*%
%TO.N,GND*%
X123190000Y-80010000D03*
%TO.P,MetroMini1,18*%
%TO.N,SHIFT_DATA*%
X138430000Y-95250000D03*
%TO.P,MetroMini1,4*%
%TO.N,Net-(MetroMini1-Pad4)*%
X123190000Y-77470000D03*
%TO.P,MetroMini1,17*%
%TO.N,SHIFT_CLCK*%
X138430000Y-97790000D03*
%TO.P,MetroMini1,3*%
%TO.N,Net-(MetroMini1-Pad3)*%
X123190000Y-74930000D03*
%TO.P,MetroMini1,16*%
%TO.N,Net-(MetroMini1-Pad16)*%
X138430000Y-100330000D03*
%TO.P,MetroMini1,2*%
%TO.N,Net-(MetroMini1-Pad2)*%
X123190000Y-72390000D03*
%TO.P,MetroMini1,15*%
%TO.N,Net-(MetroMini1-Pad15)*%
X138430000Y-102870000D03*
D13*
%TO.P,MetroMini1,1*%
%TO.N,Net-(MetroMini1-Pad1)*%
X123190000Y-69850000D03*
%TD*%
D12*
%TO.P,MOTOR1_L293D1,16*%
%TO.N,/12V*%
X147320000Y-93980000D03*
%TO.P,MOTOR1_L293D1,8*%
X165100000Y-101600000D03*
%TO.P,MOTOR1_L293D1,15*%
%TO.N,/MOTOR1_D*%
X149860000Y-93980000D03*
%TO.P,MOTOR1_L293D1,7*%
%TO.N,/MOTOR1_B*%
X162560000Y-101600000D03*
%TO.P,MOTOR1_L293D1,14*%
%TO.N,/MOTOR1_PHASE_D*%
X152400000Y-93980000D03*
%TO.P,MOTOR1_L293D1,6*%
%TO.N,/MOTOR1_PHASE_B*%
X160020000Y-101600000D03*
%TO.P,MOTOR1_L293D1,13*%
%TO.N,GND*%
X154940000Y-93980000D03*
%TO.P,MOTOR1_L293D1,5*%
X157480000Y-101600000D03*
%TO.P,MOTOR1_L293D1,12*%
X157480000Y-93980000D03*
%TO.P,MOTOR1_L293D1,4*%
X154940000Y-101600000D03*
%TO.P,MOTOR1_L293D1,11*%
%TO.N,/MOTOR1_PHASE_C*%
X160020000Y-93980000D03*
%TO.P,MOTOR1_L293D1,3*%
%TO.N,/MOTOR1_PHASE_A*%
X152400000Y-101600000D03*
%TO.P,MOTOR1_L293D1,10*%
%TO.N,/MOTOR1_C*%
X162560000Y-93980000D03*
%TO.P,MOTOR1_L293D1,2*%
%TO.N,/MOTOR1_A*%
X149860000Y-101600000D03*
%TO.P,MOTOR1_L293D1,9*%
%TO.N,5V*%
X165100000Y-93980000D03*
D13*
%TO.P,MOTOR1_L293D1,1*%
X147320000Y-101600000D03*
%TD*%
D12*
%TO.P,MOTOR2_L293D1,16*%
%TO.N,/12V*%
X147320000Y-68580000D03*
%TO.P,MOTOR2_L293D1,8*%
X165100000Y-76200000D03*
%TO.P,MOTOR2_L293D1,15*%
%TO.N,/MOTOR2_D*%
X149860000Y-68580000D03*
%TO.P,MOTOR2_L293D1,7*%
%TO.N,/MOTOR2_B*%
X162560000Y-76200000D03*
%TO.P,MOTOR2_L293D1,14*%
%TO.N,/MOTOR2_PHASE_D*%
X152400000Y-68580000D03*
%TO.P,MOTOR2_L293D1,6*%
%TO.N,/MOTOR2_PHASE_B*%
X160020000Y-76200000D03*
%TO.P,MOTOR2_L293D1,13*%
%TO.N,GND*%
X154940000Y-68580000D03*
%TO.P,MOTOR2_L293D1,5*%
X157480000Y-76200000D03*
%TO.P,MOTOR2_L293D1,12*%
X157480000Y-68580000D03*
%TO.P,MOTOR2_L293D1,4*%
X154940000Y-76200000D03*
%TO.P,MOTOR2_L293D1,11*%
%TO.N,/MOTOR2_PHASE_C*%
X160020000Y-68580000D03*
%TO.P,MOTOR2_L293D1,3*%
%TO.N,/MOTOR2_PHASE_A*%
X152400000Y-76200000D03*
%TO.P,MOTOR2_L293D1,10*%
%TO.N,/MOTOR2_C*%
X162560000Y-68580000D03*
%TO.P,MOTOR2_L293D1,2*%
%TO.N,/MOTOR2_A*%
X149860000Y-76200000D03*
%TO.P,MOTOR2_L293D1,9*%
%TO.N,5V*%
X165100000Y-68580000D03*
D13*
%TO.P,MOTOR2_L293D1,1*%
X147320000Y-76200000D03*
%TD*%
D12*
%TO.P,SHIFT_REGISTER1,16*%
%TO.N,5V*%
X147320000Y-81280000D03*
%TO.P,SHIFT_REGISTER1,8*%
%TO.N,GND*%
X165100000Y-88900000D03*
%TO.P,SHIFT_REGISTER1,15*%
%TO.N,/MOTOR1_A*%
X149860000Y-81280000D03*
%TO.P,SHIFT_REGISTER1,7*%
%TO.N,/MOTOR2_D*%
X162560000Y-88900000D03*
%TO.P,SHIFT_REGISTER1,14*%
%TO.N,SHIFT_DATA*%
X152400000Y-81280000D03*
%TO.P,SHIFT_REGISTER1,6*%
%TO.N,/MOTOR2_C*%
X160020000Y-88900000D03*
%TO.P,SHIFT_REGISTER1,13*%
%TO.N,SHIFT_LATCH*%
X154940000Y-81280000D03*
%TO.P,SHIFT_REGISTER1,5*%
%TO.N,/MOTOR2_B*%
X157480000Y-88900000D03*
%TO.P,SHIFT_REGISTER1,12*%
%TO.N,Net-(SHIFT_REGISTER1-Pad12)*%
X157480000Y-81280000D03*
%TO.P,SHIFT_REGISTER1,4*%
%TO.N,/MOTOR2_A*%
X154940000Y-88900000D03*
%TO.P,SHIFT_REGISTER1,11*%
%TO.N,SHIFT_CLCK*%
X160020000Y-81280000D03*
%TO.P,SHIFT_REGISTER1,3*%
%TO.N,/MOTOR1_D*%
X152400000Y-88900000D03*
%TO.P,SHIFT_REGISTER1,10*%
%TO.N,5V*%
X162560000Y-81280000D03*
%TO.P,SHIFT_REGISTER1,2*%
%TO.N,/MOTOR1_C*%
X149860000Y-88900000D03*
%TO.P,SHIFT_REGISTER1,9*%
%TO.N,Net-(SHIFT_REGISTER1-Pad9)*%
X165100000Y-81280000D03*
D13*
%TO.P,SHIFT_REGISTER1,1*%
%TO.N,/MOTOR1_B*%
X147320000Y-88900000D03*
%TD*%
D14*
%TO.P,U1,4*%
%TO.N,/MOTOR2_PHASE_D*%
X176530000Y-68820000D03*
%TO.P,U1,3*%
%TO.N,/MOTOR2_PHASE_C*%
X176530000Y-73820000D03*
%TO.P,U1,2*%
%TO.N,/MOTOR2_PHASE_B*%
X176530000Y-78820000D03*
D15*
%TO.P,U1,1*%
%TO.N,/MOTOR2_PHASE_A*%
X176530000Y-83820000D03*
%TD*%
D16*
%TO.P,HMC5883L1,4*%
%TO.N,SCL*%
X165560000Y-106680000D03*
%TO.P,HMC5883L1,3*%
%TO.N,SDA*%
X163560000Y-106680000D03*
D17*
%TO.P,HMC5883L1,2*%
%TO.N,5V*%
X161560000Y-106680000D03*
D16*
%TO.P,HMC5883L1,1*%
%TO.N,GND*%
X159560000Y-106680000D03*
%TD*%
D14*
%TO.P,U3,4*%
%TO.N,/MOTOR1_PHASE_D*%
X176530000Y-90410000D03*
%TO.P,U3,3*%
%TO.N,/MOTOR1_PHASE_C*%
X176530000Y-95410000D03*
%TO.P,U3,2*%
%TO.N,/MOTOR1_PHASE_B*%
X176530000Y-100410000D03*
D15*
%TO.P,U3,1*%
%TO.N,/MOTOR1_PHASE_A*%
X176530000Y-105410000D03*
%TD*%
D18*
%TO.P,MOSFET1,3*%
%TO.N,5V*%
X130810000Y-62230000D03*
%TO.P,MOSFET1,2*%
%TO.N,GND*%
X133350000Y-62230000D03*
D19*
%TO.P,MOSFET1,1*%
%TO.N,/12V*%
X135890000Y-62230000D03*
%TD*%
D20*
%TO.N,/MOTOR2_PHASE_D*%
X154940000Y-66040000D02*
X152400000Y-68580000D01*
X167640000Y-66040000D02*
X154940000Y-66040000D01*
X170420000Y-68820000D02*
X167640000Y-66040000D01*
X176530000Y-68820000D02*
X170420000Y-68820000D01*
%TO.N,/MOTOR1_PHASE_A*%
X176530000Y-105410000D02*
X172720000Y-105410000D01*
X172720000Y-105410000D02*
X166370000Y-99060000D01*
X153274998Y-101600000D02*
X152400000Y-101600000D01*
X155814998Y-99060000D02*
X153274998Y-101600000D01*
X166370000Y-99060000D02*
X155814998Y-99060000D01*
%TO.N,/12V*%
X149820000Y-62230000D02*
X149820000Y-63540000D01*
X149820000Y-63540000D02*
X147320000Y-66040000D01*
X139700000Y-66040000D02*
X135890000Y-62230000D01*
X147320000Y-66040000D02*
X139700000Y-66040000D01*
X147320000Y-66040000D02*
X147320000Y-68580000D01*
%TO.N,/MOTOR2_A*%
X154940000Y-88900000D02*
X154940000Y-86996410D01*
%TO.N,/MOTOR1_D*%
X149860000Y-91440000D02*
X152400000Y-88900000D01*
X149860000Y-93980000D02*
X149860000Y-91440000D01*
%TO.N,Net-(BatteryPack1-Pad1)*%
X158790000Y-62230000D02*
X158790000Y-59730000D01*
X158790000Y-59730000D02*
X158750000Y-59690000D01*
X147360000Y-59690000D02*
X144820000Y-62230000D01*
X158750000Y-59690000D02*
X147360000Y-59690000D01*
%TO.N,GND*%
X133350000Y-62230000D02*
X133350000Y-63500000D01*
X133350000Y-63500000D02*
X130810000Y-66040000D01*
X130810000Y-66040000D02*
X121920000Y-66040000D01*
X121920000Y-66040000D02*
X120650000Y-67310000D01*
X120650000Y-77470000D02*
X123190000Y-80010000D01*
X120650000Y-67310000D02*
X120650000Y-77470000D01*
X120650000Y-80010000D02*
X123190000Y-82550000D01*
X120650000Y-77470000D02*
X120650000Y-80010000D01*
X156354999Y-69705001D02*
X157480000Y-68580000D01*
X151859999Y-69705001D02*
X156354999Y-69705001D01*
X151274999Y-69120001D02*
X151859999Y-69705001D01*
X151274999Y-68039999D02*
X151274999Y-69120001D01*
X155774998Y-63540000D02*
X151274999Y-68039999D01*
X162480000Y-63540000D02*
X155774998Y-63540000D01*
X163790000Y-62230000D02*
X162480000Y-63540000D01*
X157480000Y-68580000D02*
X154940000Y-68580000D01*
X146194999Y-77260001D02*
X146259999Y-77325001D01*
X146259999Y-77325001D02*
X153814999Y-77325001D01*
X146194999Y-75139999D02*
X146194999Y-77260001D01*
X151484998Y-69850000D02*
X146194999Y-75139999D01*
X153814999Y-77325001D02*
X154940000Y-76200000D01*
X153670000Y-69850000D02*
X151484998Y-69850000D01*
X154940000Y-68580000D02*
X153670000Y-69850000D01*
X154940000Y-76200000D02*
X157480000Y-76200000D01*
X161434999Y-85234999D02*
X165100000Y-88900000D01*
X161434999Y-80154999D02*
X161434999Y-85234999D01*
X157480000Y-76200000D02*
X161434999Y-80154999D01*
X158605001Y-92854999D02*
X157480000Y-93980000D01*
X161145001Y-92854999D02*
X158605001Y-92854999D01*
X165100000Y-88900000D02*
X161145001Y-92854999D01*
%TO.N,SHIFT_CLCK*%
X138430000Y-97790000D02*
X143510000Y-92710000D01*
X143510000Y-92710000D02*
X143510000Y-86360000D01*
X154940000Y-86360000D02*
X160020000Y-81280000D01*
X143510000Y-86360000D02*
X154940000Y-86360000D01*
%TO.N,SHIFT_DATA*%
X138430000Y-95250000D02*
X142240000Y-91440000D01*
X142240000Y-91440000D02*
X142240000Y-83820000D01*
X149860000Y-83820000D02*
X152400000Y-81280000D01*
X142240000Y-83820000D02*
X149860000Y-83820000D01*
%TO.N,SHIFT_LATCH*%
X138430000Y-92710000D02*
X140970000Y-90170000D01*
X140970000Y-90170000D02*
X140970000Y-78740000D01*
X152400000Y-78740000D02*
X154940000Y-81280000D01*
X140970000Y-78740000D02*
X152400000Y-78740000D01*
%TO.N,5V*%
X119380000Y-85090000D02*
X123190000Y-85090000D01*
X119380000Y-62230000D02*
X119380000Y-85090000D01*
X130810000Y-62230000D02*
X119380000Y-62230000D01*
X119380000Y-85090000D02*
X119380000Y-109220000D01*
X159020000Y-109220000D02*
X161560000Y-106680000D01*
X119380000Y-109220000D02*
X159020000Y-109220000D01*
X161560000Y-106680000D02*
X161560000Y-105680000D01*
X161560000Y-105680000D02*
X161290000Y-105410000D01*
X151130000Y-105410000D02*
X147320000Y-101600000D01*
X161290000Y-105410000D02*
X151130000Y-105410000D01*
X147320000Y-101600000D02*
X147320000Y-97790000D01*
X147320000Y-97790000D02*
X165100000Y-97790000D01*
X165100000Y-97790000D02*
X165100000Y-93980000D01*
X165100000Y-93980000D02*
X165100000Y-91440000D01*
X165100000Y-91440000D02*
X167640000Y-91440000D01*
X167640000Y-91440000D02*
X167640000Y-85090000D01*
X167640000Y-85090000D02*
X162560000Y-85090000D01*
X162560000Y-85090000D02*
X162560000Y-81280000D01*
X162560000Y-81280000D02*
X162560000Y-78740000D01*
X162560000Y-78740000D02*
X167640000Y-78740000D01*
X167640000Y-78740000D02*
X167640000Y-72390000D01*
X167640000Y-72390000D02*
X165100000Y-72390000D01*
X165100000Y-72390000D02*
X165100000Y-68580000D01*
X151130000Y-72390000D02*
X147320000Y-76200000D01*
X165100000Y-72390000D02*
X151130000Y-72390000D01*
%TD*%
M02*
