%TF.GenerationSoftware,KiCad,Pcbnew,(5.1.9)-1*%
%TF.CreationDate,2021-05-23T21:09:51-07:00*%
%TF.ProjectId,bbot-pcb,62626f74-2d70-4636-922e-6b696361645f,rev?*%
%TF.SameCoordinates,Original*%
%TF.FileFunction,Copper,L2,Bot*%
%TF.FilePolarity,Positive*%
%FSLAX46Y46*%
G04 Gerber Fmt 4.6, Leading zero omitted, Abs format (unit mm)*
G04 Created by KiCad (PCBNEW (5.1.9)-1) date 2021-05-23 21:09:51*
%MOMM*%
%LPD*%
G01*
G04 APERTURE LIST*
%TA.AperFunction,ComponentPad*%
%ADD10R,1.500000X1.500000*%
%TD*%
%TA.AperFunction,ComponentPad*%
%ADD11C,1.500000*%
%TD*%
%TA.AperFunction,ComponentPad*%
%ADD12C,1.600000*%
%TD*%
%TA.AperFunction,ComponentPad*%
%ADD13R,1.600000X1.600000*%
%TD*%
%TA.AperFunction,ComponentPad*%
%ADD14R,1.524000X1.524000*%
%TD*%
%TA.AperFunction,ComponentPad*%
%ADD15C,1.524000*%
%TD*%
%TA.AperFunction,ComponentPad*%
%ADD16O,1.600000X1.600000*%
%TD*%
%TA.AperFunction,ComponentPad*%
%ADD17O,1.400000X1.400000*%
%TD*%
%TA.AperFunction,ComponentPad*%
%ADD18C,1.400000*%
%TD*%
%TA.AperFunction,ComponentPad*%
%ADD19R,1.778000X1.778000*%
%TD*%
%TA.AperFunction,ComponentPad*%
%ADD20C,1.778000*%
%TD*%
%TA.AperFunction,ViaPad*%
%ADD21C,0.800000*%
%TD*%
%TA.AperFunction,Conductor*%
%ADD22C,0.250000*%
%TD*%
G04 APERTURE END LIST*
D10*
%TO.P,MOSFET1,1*%
%TO.N,Net-(C5-Pad2)*%
X222250000Y-67056000D03*
D11*
%TO.P,MOSFET1,2*%
%TO.N,/GND*%
X222250000Y-69596000D03*
%TO.P,MOSFET1,3*%
%TO.N,Net-(C4-Pad1)*%
X222250000Y-72136000D03*
%TD*%
D12*
%TO.P,U4,24*%
%TO.N,/5V*%
X171196000Y-85090000D03*
%TO.P,U4,23*%
%TO.N,Net-(U4-Pad23)*%
X171196000Y-82550000D03*
%TO.P,U4,22*%
%TO.N,Net-(U4-Pad22)*%
X171196000Y-80010000D03*
%TO.P,U4,21*%
%TO.N,Net-(U4-Pad21)*%
X171196000Y-77470000D03*
%TO.P,U4,20*%
%TO.N,Net-(U4-Pad20)*%
X171196000Y-74930000D03*
%TO.P,U4,19*%
%TO.N,/A2*%
X171196000Y-72390000D03*
%TO.P,U4,18*%
%TO.N,/A1*%
X171196000Y-69850000D03*
%TO.P,U4,17*%
%TO.N,/A0*%
X171196000Y-67310000D03*
%TO.P,U4,16*%
%TO.N,Net-(U4-Pad16)*%
X171196000Y-64770000D03*
%TO.P,U4,15*%
%TO.N,Net-(U4-Pad15)*%
X171196000Y-62230000D03*
%TO.P,U4,14*%
%TO.N,Net-(U4-Pad14)*%
X171196000Y-59690000D03*
%TO.P,U4,13*%
%TO.N,Net-(U4-Pad13)*%
X171196000Y-57150000D03*
%TO.P,U4,12*%
%TO.N,Net-(U4-Pad12)*%
X186436000Y-57150000D03*
%TO.P,U4,11*%
%TO.N,Net-(U4-Pad11)*%
X186436000Y-59690000D03*
%TO.P,U4,10*%
%TO.N,/SHIFT_DATA*%
X186436000Y-62230000D03*
%TO.P,U4,9*%
%TO.N,/SHIFT_LATCH*%
X186436000Y-64770000D03*
%TO.P,U4,8*%
%TO.N,/SHIFT_CLCK*%
X186436000Y-67310000D03*
%TO.P,U4,7*%
%TO.N,/SHIFT_CLR*%
X186436000Y-69850000D03*
%TO.P,U4,6*%
%TO.N,Net-(U4-Pad6)*%
X186436000Y-72390000D03*
%TO.P,U4,5*%
%TO.N,Net-(U4-Pad5)*%
X186436000Y-74930000D03*
%TO.P,U4,4*%
%TO.N,Net-(U4-Pad4)*%
X186436000Y-77470000D03*
%TO.P,U4,3*%
%TO.N,/GND*%
X186436000Y-80010000D03*
%TO.P,U4,2*%
%TO.N,Net-(U4-Pad2)*%
X186436000Y-82550000D03*
D13*
%TO.P,U4,1*%
%TO.N,Net-(U4-Pad1)*%
X186436000Y-85090000D03*
%TD*%
D14*
%TO.P,BatteryPack1,1*%
%TO.N,Net-(BatteryPack1-Pad1)*%
X220004000Y-84836000D03*
D15*
%TO.P,BatteryPack1,2*%
%TO.N,/GND*%
X225004000Y-84836000D03*
%TD*%
D16*
%TO.P,C2,2*%
%TO.N,/A1*%
X229870000Y-64636000D03*
D12*
%TO.P,C2,1*%
%TO.N,Net-(C2-Pad1)*%
X229870000Y-72136000D03*
%TD*%
D13*
%TO.P,MOTOR1_L293D1,1*%
%TO.N,/5V*%
X195580000Y-59690000D03*
D16*
%TO.P,MOTOR1_L293D1,9*%
X213360000Y-52070000D03*
%TO.P,MOTOR1_L293D1,2*%
%TO.N,/MOTOR1_A*%
X198120000Y-59690000D03*
%TO.P,MOTOR1_L293D1,10*%
%TO.N,/MOTOR1_C*%
X210820000Y-52070000D03*
%TO.P,MOTOR1_L293D1,3*%
%TO.N,/MOTOR1_PHASE_A*%
X200660000Y-59690000D03*
%TO.P,MOTOR1_L293D1,11*%
%TO.N,/MOTOR1_PHASE_C*%
X208280000Y-52070000D03*
%TO.P,MOTOR1_L293D1,4*%
%TO.N,Net-(MOTOR1_L293D1-Pad4)*%
X203200000Y-59690000D03*
%TO.P,MOTOR1_L293D1,12*%
%TO.N,Net-(MOTOR1_L293D1-Pad12)*%
X205740000Y-52070000D03*
%TO.P,MOTOR1_L293D1,5*%
%TO.N,/GND*%
X205740000Y-59690000D03*
%TO.P,MOTOR1_L293D1,13*%
%TO.N,Net-(MOTOR1_L293D1-Pad13)*%
X203200000Y-52070000D03*
%TO.P,MOTOR1_L293D1,6*%
%TO.N,/MOTOR1_PHASE_B*%
X208280000Y-59690000D03*
%TO.P,MOTOR1_L293D1,14*%
%TO.N,/MOTOR1_PHASE_D*%
X200660000Y-52070000D03*
%TO.P,MOTOR1_L293D1,7*%
%TO.N,/MOTOR1_B*%
X210820000Y-59690000D03*
%TO.P,MOTOR1_L293D1,15*%
%TO.N,/MOTOR1_D*%
X198120000Y-52070000D03*
%TO.P,MOTOR1_L293D1,8*%
%TO.N,/12V*%
X213360000Y-59690000D03*
%TO.P,MOTOR1_L293D1,16*%
%TO.N,/5V*%
X195580000Y-52070000D03*
%TD*%
%TO.P,MOTOR2_L293D1,16*%
%TO.N,/5V*%
X195580000Y-64770000D03*
%TO.P,MOTOR2_L293D1,8*%
%TO.N,/12V*%
X213360000Y-72390000D03*
%TO.P,MOTOR2_L293D1,15*%
%TO.N,/MOTOR2_D*%
X198120000Y-64770000D03*
%TO.P,MOTOR2_L293D1,7*%
%TO.N,/MOTOR2_B*%
X210820000Y-72390000D03*
%TO.P,MOTOR2_L293D1,14*%
%TO.N,/MOTOR2_PHASE_D*%
X200660000Y-64770000D03*
%TO.P,MOTOR2_L293D1,6*%
%TO.N,/MOTOR2_PHASE_B*%
X208280000Y-72390000D03*
%TO.P,MOTOR2_L293D1,13*%
%TO.N,Net-(MOTOR2_L293D1-Pad13)*%
X203200000Y-64770000D03*
%TO.P,MOTOR2_L293D1,5*%
%TO.N,Net-(MOTOR2_L293D1-Pad5)*%
X205740000Y-72390000D03*
%TO.P,MOTOR2_L293D1,12*%
%TO.N,/GND*%
X205740000Y-64770000D03*
%TO.P,MOTOR2_L293D1,4*%
%TO.N,Net-(MOTOR2_L293D1-Pad4)*%
X203200000Y-72390000D03*
%TO.P,MOTOR2_L293D1,11*%
%TO.N,/MOTOR2_PHASE_C*%
X208280000Y-64770000D03*
%TO.P,MOTOR2_L293D1,3*%
%TO.N,/MOTOR2_PHASE_A*%
X200660000Y-72390000D03*
%TO.P,MOTOR2_L293D1,10*%
%TO.N,/MOTOR2_C*%
X210820000Y-64770000D03*
%TO.P,MOTOR2_L293D1,2*%
%TO.N,/MOTOR2_A*%
X198120000Y-72390000D03*
%TO.P,MOTOR2_L293D1,9*%
%TO.N,/5V*%
X213360000Y-64770000D03*
D13*
%TO.P,MOTOR2_L293D1,1*%
X195580000Y-72390000D03*
%TD*%
D15*
%TO.P,PowerSwitch1,2*%
%TO.N,/12V*%
X237704000Y-84836000D03*
D14*
%TO.P,PowerSwitch1,1*%
%TO.N,Net-(BatteryPack1-Pad1)*%
X232704000Y-84836000D03*
%TD*%
D17*
%TO.P,R1,2*%
%TO.N,/3V*%
X230124000Y-59944000D03*
D18*
%TO.P,R1,1*%
%TO.N,/5V*%
X230124000Y-57404000D03*
%TD*%
%TO.P,R2,1*%
%TO.N,/3V*%
X230124000Y-49276000D03*
D17*
%TO.P,R2,2*%
%TO.N,/GND*%
X230124000Y-51816000D03*
%TD*%
D13*
%TO.P,SHIFT_REGISTER1,1*%
%TO.N,/MOTOR1_B*%
X187452000Y-43180000D03*
D16*
%TO.P,SHIFT_REGISTER1,9*%
%TO.N,Net-(SHIFT_REGISTER1-Pad9)*%
X169672000Y-50800000D03*
%TO.P,SHIFT_REGISTER1,2*%
%TO.N,/MOTOR1_C*%
X184912000Y-43180000D03*
%TO.P,SHIFT_REGISTER1,10*%
%TO.N,/SHIFT_CLR*%
X172212000Y-50800000D03*
%TO.P,SHIFT_REGISTER1,3*%
%TO.N,/MOTOR1_D*%
X182372000Y-43180000D03*
%TO.P,SHIFT_REGISTER1,11*%
%TO.N,/SHIFT_CLCK*%
X174752000Y-50800000D03*
%TO.P,SHIFT_REGISTER1,4*%
%TO.N,/MOTOR2_A*%
X179832000Y-43180000D03*
%TO.P,SHIFT_REGISTER1,12*%
%TO.N,/SHIFT_LATCH*%
X177292000Y-50800000D03*
%TO.P,SHIFT_REGISTER1,5*%
%TO.N,/MOTOR2_B*%
X177292000Y-43180000D03*
%TO.P,SHIFT_REGISTER1,13*%
%TO.N,/GND*%
X179832000Y-50800000D03*
%TO.P,SHIFT_REGISTER1,6*%
%TO.N,/MOTOR2_C*%
X174752000Y-43180000D03*
%TO.P,SHIFT_REGISTER1,14*%
%TO.N,/SHIFT_DATA*%
X182372000Y-50800000D03*
%TO.P,SHIFT_REGISTER1,7*%
%TO.N,/MOTOR2_D*%
X172212000Y-43180000D03*
%TO.P,SHIFT_REGISTER1,15*%
%TO.N,/MOTOR1_A*%
X184912000Y-50800000D03*
%TO.P,SHIFT_REGISTER1,8*%
%TO.N,/GND*%
X169672000Y-43180000D03*
%TO.P,SHIFT_REGISTER1,16*%
%TO.N,/5V*%
X187452000Y-50800000D03*
%TD*%
D19*
%TO.P,U1,1*%
%TO.N,/MOTOR2_PHASE_A*%
X212090000Y-83820000D03*
D20*
%TO.P,U1,2*%
%TO.N,/MOTOR2_PHASE_B*%
X207090000Y-83820000D03*
%TO.P,U1,3*%
%TO.N,/MOTOR2_PHASE_C*%
X202090000Y-83820000D03*
%TO.P,U1,4*%
%TO.N,/MOTOR2_PHASE_D*%
X197090000Y-83820000D03*
%TD*%
D14*
%TO.P,U2,1*%
%TO.N,/3V*%
X236728000Y-71120000D03*
D15*
%TO.P,U2,2*%
%TO.N,/A0*%
X236728000Y-68580000D03*
%TO.P,U2,3*%
%TO.N,Net-(C2-Pad1)*%
X236728000Y-66040000D03*
%TO.P,U2,4*%
%TO.N,/A2*%
X236728000Y-63500000D03*
%TO.P,U2,5*%
%TO.N,/GND*%
X236728000Y-60960000D03*
%TD*%
D20*
%TO.P,U3,4*%
%TO.N,/MOTOR1_PHASE_D*%
X218172000Y-37592000D03*
%TO.P,U3,3*%
%TO.N,/MOTOR1_PHASE_C*%
X223172000Y-37592000D03*
%TO.P,U3,2*%
%TO.N,/MOTOR1_PHASE_B*%
X228172000Y-37592000D03*
D19*
%TO.P,U3,1*%
%TO.N,/MOTOR1_PHASE_A*%
X233172000Y-37592000D03*
%TD*%
D12*
%TO.P,C4,1*%
%TO.N,Net-(C4-Pad1)*%
X219964000Y-52324000D03*
%TO.P,C4,2*%
%TO.N,/5V*%
X224964000Y-52324000D03*
%TD*%
%TO.P,C5,2*%
%TO.N,Net-(C5-Pad2)*%
X224964000Y-58928000D03*
%TO.P,C5,1*%
%TO.N,/12V*%
X219964000Y-58928000D03*
%TD*%
D21*
%TO.N,/MOTOR1_A*%
X199644000Y-49276000D03*
%TO.N,/MOTOR2_B*%
X193548000Y-74676000D03*
%TO.N,/MOTOR2_A*%
X192532000Y-67564000D03*
%TO.N,/GND*%
X218948000Y-64516000D03*
%TO.N,/5V*%
X185928000Y-47403010D03*
%TD*%
D22*
%TO.N,/12V*%
X219202000Y-59690000D02*
X219964000Y-58928000D01*
X213360000Y-59690000D02*
X219202000Y-59690000D01*
X213360000Y-72390000D02*
X219710000Y-72390000D01*
X219964000Y-72136000D02*
X219964000Y-58928000D01*
X219710000Y-72390000D02*
X219964000Y-72136000D01*
%TO.N,/MOTOR1_A*%
X199245001Y-58564999D02*
X198120000Y-59690000D01*
X199390000Y-49530000D02*
X199644000Y-49276000D01*
X199245001Y-58310999D02*
X199390000Y-58166000D01*
X199245001Y-58564999D02*
X199245001Y-58310999D01*
X199390000Y-58166000D02*
X199390000Y-49530000D01*
X199390000Y-58547000D02*
X199390000Y-58166000D01*
%TO.N,/MOTOR2_D*%
X196342000Y-62992000D02*
X198120000Y-64770000D01*
X195467002Y-62992000D02*
X196342000Y-62992000D01*
X192927002Y-60452000D02*
X195467002Y-62992000D01*
X192532000Y-54214998D02*
X192532000Y-60452000D01*
X192532000Y-60452000D02*
X192927002Y-60452000D01*
X187085002Y-48768000D02*
X192532000Y-54214998D01*
X177800000Y-48768000D02*
X187085002Y-48768000D01*
X172212000Y-43180000D02*
X177800000Y-48768000D01*
%TO.N,/MOTOR2_C*%
X193548000Y-54594588D02*
X193548000Y-60436588D01*
X187271403Y-48317991D02*
X193548000Y-54594588D01*
X179889991Y-48317991D02*
X187271403Y-48317991D01*
X174752000Y-43180000D02*
X179889991Y-48317991D01*
X208591990Y-62541990D02*
X210820000Y-64770000D01*
X195653402Y-62541990D02*
X208591990Y-62541990D01*
X193548000Y-60436588D02*
X195653402Y-62541990D01*
%TO.N,/MOTOR2_B*%
X209804000Y-73406000D02*
X210820000Y-72390000D01*
X209804000Y-74676000D02*
X209804000Y-73406000D01*
X193548000Y-74676000D02*
X209804000Y-74676000D01*
%TO.N,/MOTOR2_A*%
X193294000Y-67564000D02*
X198120000Y-72390000D01*
X192532000Y-67564000D02*
X193294000Y-67564000D01*
%TO.N,/MOTOR1_C*%
X184912000Y-43180000D02*
X184912000Y-41148000D01*
X199898000Y-41148000D02*
X210820000Y-52070000D01*
X184912000Y-41148000D02*
X199898000Y-41148000D01*
%TO.N,/A2*%
X239776000Y-86360000D02*
X239776000Y-66548000D01*
X239776000Y-66548000D02*
X236728000Y-63500000D01*
X237236000Y-88900000D02*
X239776000Y-86360000D01*
X169164000Y-88900000D02*
X237236000Y-88900000D01*
X169164000Y-74422000D02*
X169164000Y-88900000D01*
X171196000Y-72390000D02*
X169164000Y-74422000D01*
%TO.N,/A1*%
X229870000Y-64262000D02*
X229870000Y-64636000D01*
X236220000Y-57912000D02*
X229870000Y-64262000D01*
X240226010Y-61918010D02*
X236220000Y-57912000D01*
X240226010Y-86546400D02*
X240226010Y-61918010D01*
X237422401Y-89350009D02*
X240226010Y-86546400D01*
X168977599Y-89350009D02*
X237422401Y-89350009D01*
X168148000Y-88520410D02*
X168977599Y-89350009D01*
X168148000Y-72898000D02*
X168148000Y-88520410D01*
X171196000Y-69850000D02*
X168148000Y-72898000D01*
%TO.N,/3V*%
X230124000Y-59944000D02*
X232664000Y-59944000D01*
X232664000Y-51816000D02*
X230124000Y-49276000D01*
X232664000Y-59944000D02*
X232664000Y-51816000D01*
%TO.N,/GND*%
X169672000Y-43180000D02*
X166116000Y-43180000D01*
X166116000Y-43180000D02*
X166116000Y-54356000D01*
X166116000Y-54356000D02*
X166624000Y-54864000D01*
X175768000Y-54864000D02*
X179832000Y-50800000D01*
X166624000Y-54864000D02*
X175768000Y-54864000D01*
X179832000Y-73406000D02*
X186436000Y-80010000D01*
X179832000Y-50800000D02*
X179832000Y-73406000D01*
X186436000Y-80010000D02*
X191008000Y-75438000D01*
X191008000Y-68014998D02*
X192474998Y-66548000D01*
X191008000Y-75438000D02*
X191008000Y-68014998D01*
X203962000Y-66548000D02*
X205740000Y-64770000D01*
X192474998Y-66548000D02*
X203962000Y-66548000D01*
X203962000Y-66548000D02*
X215900000Y-66548000D01*
X215900000Y-66548000D02*
X215900000Y-62484000D01*
X209408998Y-62484000D02*
X208392998Y-61468000D01*
X215900000Y-62484000D02*
X209408998Y-62484000D01*
X207518000Y-61468000D02*
X205740000Y-59690000D01*
X208392998Y-61468000D02*
X207518000Y-61468000D01*
X216916000Y-66548000D02*
X218948000Y-64516000D01*
X215900000Y-66548000D02*
X216916000Y-66548000D01*
%TO.N,/5V*%
X213360000Y-52070000D02*
X217170000Y-52070000D01*
X217170000Y-52070000D02*
X218948000Y-50292000D01*
X222932000Y-50292000D02*
X224964000Y-52324000D01*
X218948000Y-50292000D02*
X222932000Y-50292000D01*
X230044000Y-57404000D02*
X230124000Y-57404000D01*
X224964000Y-52324000D02*
X230044000Y-57404000D01*
X190913010Y-47403010D02*
X195580000Y-52070000D01*
X185928000Y-47403010D02*
X190913010Y-47403010D01*
%TD*%
M02*
