%TF.GenerationSoftware,KiCad,Pcbnew,(5.1.9)-1*%
%TF.CreationDate,2021-04-29T20:48:40-07:00*%
%TF.ProjectId,bbot-pcb,62626f74-2d70-4636-922e-6b696361645f,rev?*%
%TF.SameCoordinates,Original*%
%TF.FileFunction,Copper,L1,Top*%
%TF.FilePolarity,Positive*%
%FSLAX46Y46*%
G04 Gerber Fmt 4.6, Leading zero omitted, Abs format (unit mm)*
G04 Created by KiCad (PCBNEW (5.1.9)-1) date 2021-04-29 20:48:40*
%MOMM*%
%LPD*%
G01*
G04 APERTURE LIST*
%TA.AperFunction,ComponentPad*%
%ADD10C,1.600000*%
%TD*%
%TA.AperFunction,ComponentPad*%
%ADD11R,1.600000X1.600000*%
%TD*%
%TA.AperFunction,ComponentPad*%
%ADD12R,1.524000X1.524000*%
%TD*%
%TA.AperFunction,ComponentPad*%
%ADD13C,1.524000*%
%TD*%
%TA.AperFunction,ComponentPad*%
%ADD14O,1.600000X1.600000*%
%TD*%
%TA.AperFunction,ComponentPad*%
%ADD15R,1.270000X1.270000*%
%TD*%
%TA.AperFunction,ComponentPad*%
%ADD16C,1.270000*%
%TD*%
%TA.AperFunction,ComponentPad*%
%ADD17O,1.400000X1.400000*%
%TD*%
%TA.AperFunction,ComponentPad*%
%ADD18C,1.400000*%
%TD*%
%TA.AperFunction,ComponentPad*%
%ADD19R,1.778000X1.778000*%
%TD*%
%TA.AperFunction,ComponentPad*%
%ADD20C,1.778000*%
%TD*%
%TA.AperFunction,ViaPad*%
%ADD21C,0.800000*%
%TD*%
%TA.AperFunction,Conductor*%
%ADD22C,0.250000*%
%TD*%
G04 APERTURE END LIST*
D10*
%TO.P,U4,24*%
%TO.N,/5V*%
X171196000Y-85090000D03*
%TO.P,U4,23*%
%TO.N,Net-(U4-Pad23)*%
X171196000Y-82550000D03*
%TO.P,U4,22*%
%TO.N,Net-(U4-Pad22)*%
X171196000Y-80010000D03*
%TO.P,U4,21*%
%TO.N,Net-(U4-Pad21)*%
X171196000Y-77470000D03*
%TO.P,U4,20*%
%TO.N,Net-(U4-Pad20)*%
X171196000Y-74930000D03*
%TO.P,U4,19*%
%TO.N,/A2*%
X171196000Y-72390000D03*
%TO.P,U4,18*%
%TO.N,/A1*%
X171196000Y-69850000D03*
%TO.P,U4,17*%
%TO.N,/A0*%
X171196000Y-67310000D03*
%TO.P,U4,16*%
%TO.N,Net-(U4-Pad16)*%
X171196000Y-64770000D03*
%TO.P,U4,15*%
%TO.N,Net-(U4-Pad15)*%
X171196000Y-62230000D03*
%TO.P,U4,14*%
%TO.N,Net-(U4-Pad14)*%
X171196000Y-59690000D03*
%TO.P,U4,13*%
%TO.N,Net-(U4-Pad13)*%
X171196000Y-57150000D03*
%TO.P,U4,12*%
%TO.N,Net-(U4-Pad12)*%
X186436000Y-57150000D03*
%TO.P,U4,11*%
%TO.N,Net-(U4-Pad11)*%
X186436000Y-59690000D03*
%TO.P,U4,10*%
%TO.N,/SHIFT_CLR*%
X186436000Y-62230000D03*
%TO.P,U4,9*%
%TO.N,/SHIFT_CLCK*%
X186436000Y-64770000D03*
%TO.P,U4,8*%
%TO.N,/SHIFT_DATA*%
X186436000Y-67310000D03*
%TO.P,U4,7*%
%TO.N,/SHIFT_LATCH*%
X186436000Y-69850000D03*
%TO.P,U4,6*%
%TO.N,Net-(U4-Pad6)*%
X186436000Y-72390000D03*
%TO.P,U4,5*%
%TO.N,Net-(U4-Pad5)*%
X186436000Y-74930000D03*
%TO.P,U4,4*%
%TO.N,Net-(U4-Pad4)*%
X186436000Y-77470000D03*
%TO.P,U4,3*%
%TO.N,/GND*%
X186436000Y-80010000D03*
%TO.P,U4,2*%
%TO.N,Net-(U4-Pad2)*%
X186436000Y-82550000D03*
D11*
%TO.P,U4,1*%
%TO.N,Net-(U4-Pad1)*%
X186436000Y-85090000D03*
%TD*%
D12*
%TO.P,BatteryPack1,1*%
%TO.N,Net-(BatteryPack1-Pad1)*%
X220004000Y-84836000D03*
D13*
%TO.P,BatteryPack1,2*%
%TO.N,/GND*%
X225004000Y-84836000D03*
%TD*%
D14*
%TO.P,C2,2*%
%TO.N,/A1*%
X229870000Y-64636000D03*
D10*
%TO.P,C2,1*%
%TO.N,Net-(C2-Pad1)*%
X229870000Y-72136000D03*
%TD*%
D11*
%TO.P,C4,1*%
%TO.N,Net-(C4-Pad1)*%
X220980000Y-50546000D03*
D10*
%TO.P,C4,2*%
%TO.N,/5V*%
X223480000Y-50546000D03*
%TD*%
%TO.P,C5,2*%
%TO.N,Net-(C5-Pad2)*%
X223480000Y-59436000D03*
D11*
%TO.P,C5,1*%
%TO.N,/12V*%
X220980000Y-59436000D03*
%TD*%
D15*
%TO.P,MOSFET1,1*%
%TO.N,Net-(C5-Pad2)*%
X222250000Y-67056000D03*
D16*
%TO.P,MOSFET1,2*%
%TO.N,/GND*%
X222250000Y-69596000D03*
%TO.P,MOSFET1,3*%
%TO.N,Net-(C4-Pad1)*%
X222250000Y-72136000D03*
%TD*%
D11*
%TO.P,MOTOR1_L293D1,1*%
%TO.N,/5V*%
X195580000Y-59690000D03*
D14*
%TO.P,MOTOR1_L293D1,9*%
X213360000Y-52070000D03*
%TO.P,MOTOR1_L293D1,2*%
%TO.N,/MOTOR1_A*%
X198120000Y-59690000D03*
%TO.P,MOTOR1_L293D1,10*%
%TO.N,/MOTOR1_C*%
X210820000Y-52070000D03*
%TO.P,MOTOR1_L293D1,3*%
%TO.N,/MOTOR1_PHASE_A*%
X200660000Y-59690000D03*
%TO.P,MOTOR1_L293D1,11*%
%TO.N,/MOTOR1_PHASE_C*%
X208280000Y-52070000D03*
%TO.P,MOTOR1_L293D1,4*%
%TO.N,Net-(MOTOR1_L293D1-Pad4)*%
X203200000Y-59690000D03*
%TO.P,MOTOR1_L293D1,12*%
%TO.N,Net-(MOTOR1_L293D1-Pad12)*%
X205740000Y-52070000D03*
%TO.P,MOTOR1_L293D1,5*%
%TO.N,/GND*%
X205740000Y-59690000D03*
%TO.P,MOTOR1_L293D1,13*%
%TO.N,Net-(MOTOR1_L293D1-Pad13)*%
X203200000Y-52070000D03*
%TO.P,MOTOR1_L293D1,6*%
%TO.N,/MOTOR1_PHASE_B*%
X208280000Y-59690000D03*
%TO.P,MOTOR1_L293D1,14*%
%TO.N,/MOTOR1_PHASE_D*%
X200660000Y-52070000D03*
%TO.P,MOTOR1_L293D1,7*%
%TO.N,/MOTOR1_B*%
X210820000Y-59690000D03*
%TO.P,MOTOR1_L293D1,15*%
%TO.N,/MOTOR1_D*%
X198120000Y-52070000D03*
%TO.P,MOTOR1_L293D1,8*%
%TO.N,/12V*%
X213360000Y-59690000D03*
%TO.P,MOTOR1_L293D1,16*%
%TO.N,/5V*%
X195580000Y-52070000D03*
%TD*%
%TO.P,MOTOR2_L293D1,16*%
%TO.N,/5V*%
X195580000Y-64770000D03*
%TO.P,MOTOR2_L293D1,8*%
%TO.N,/12V*%
X213360000Y-72390000D03*
%TO.P,MOTOR2_L293D1,15*%
%TO.N,/MOTOR2_D*%
X198120000Y-64770000D03*
%TO.P,MOTOR2_L293D1,7*%
%TO.N,/MOTOR2_B*%
X210820000Y-72390000D03*
%TO.P,MOTOR2_L293D1,14*%
%TO.N,/MOTOR2_PHASE_D*%
X200660000Y-64770000D03*
%TO.P,MOTOR2_L293D1,6*%
%TO.N,/MOTOR2_PHASE_B*%
X208280000Y-72390000D03*
%TO.P,MOTOR2_L293D1,13*%
%TO.N,Net-(MOTOR2_L293D1-Pad13)*%
X203200000Y-64770000D03*
%TO.P,MOTOR2_L293D1,5*%
%TO.N,Net-(MOTOR2_L293D1-Pad5)*%
X205740000Y-72390000D03*
%TO.P,MOTOR2_L293D1,12*%
%TO.N,/GND*%
X205740000Y-64770000D03*
%TO.P,MOTOR2_L293D1,4*%
%TO.N,Net-(MOTOR2_L293D1-Pad4)*%
X203200000Y-72390000D03*
%TO.P,MOTOR2_L293D1,11*%
%TO.N,/MOTOR2_PHASE_C*%
X208280000Y-64770000D03*
%TO.P,MOTOR2_L293D1,3*%
%TO.N,/MOTOR2_PHASE_A*%
X200660000Y-72390000D03*
%TO.P,MOTOR2_L293D1,10*%
%TO.N,/MOTOR2_C*%
X210820000Y-64770000D03*
%TO.P,MOTOR2_L293D1,2*%
%TO.N,/MOTOR2_A*%
X198120000Y-72390000D03*
%TO.P,MOTOR2_L293D1,9*%
%TO.N,/5V*%
X213360000Y-64770000D03*
D11*
%TO.P,MOTOR2_L293D1,1*%
X195580000Y-72390000D03*
%TD*%
D13*
%TO.P,PowerSwitch1,2*%
%TO.N,/12V*%
X237704000Y-84836000D03*
D12*
%TO.P,PowerSwitch1,1*%
%TO.N,Net-(BatteryPack1-Pad1)*%
X232704000Y-84836000D03*
%TD*%
D17*
%TO.P,R1,2*%
%TO.N,/3V*%
X230124000Y-59944000D03*
D18*
%TO.P,R1,1*%
%TO.N,/5V*%
X230124000Y-57404000D03*
%TD*%
%TO.P,R2,1*%
%TO.N,/3V*%
X230124000Y-49276000D03*
D17*
%TO.P,R2,2*%
%TO.N,/GND*%
X230124000Y-51816000D03*
%TD*%
D11*
%TO.P,SHIFT_REGISTER1,1*%
%TO.N,/MOTOR1_B*%
X170180000Y-51308000D03*
D14*
%TO.P,SHIFT_REGISTER1,9*%
%TO.N,Net-(SHIFT_REGISTER1-Pad9)*%
X187960000Y-43688000D03*
%TO.P,SHIFT_REGISTER1,2*%
%TO.N,/MOTOR1_C*%
X172720000Y-51308000D03*
%TO.P,SHIFT_REGISTER1,10*%
%TO.N,/SHIFT_CLR*%
X185420000Y-43688000D03*
%TO.P,SHIFT_REGISTER1,3*%
%TO.N,/MOTOR1_D*%
X175260000Y-51308000D03*
%TO.P,SHIFT_REGISTER1,11*%
%TO.N,/SHIFT_CLCK*%
X182880000Y-43688000D03*
%TO.P,SHIFT_REGISTER1,4*%
%TO.N,/MOTOR2_A*%
X177800000Y-51308000D03*
%TO.P,SHIFT_REGISTER1,12*%
%TO.N,/SHIFT_LATCH*%
X180340000Y-43688000D03*
%TO.P,SHIFT_REGISTER1,5*%
%TO.N,/MOTOR2_B*%
X180340000Y-51308000D03*
%TO.P,SHIFT_REGISTER1,13*%
%TO.N,/GND*%
X177800000Y-43688000D03*
%TO.P,SHIFT_REGISTER1,6*%
%TO.N,/MOTOR2_C*%
X182880000Y-51308000D03*
%TO.P,SHIFT_REGISTER1,14*%
%TO.N,/SHIFT_DATA*%
X175260000Y-43688000D03*
%TO.P,SHIFT_REGISTER1,7*%
%TO.N,/MOTOR2_D*%
X185420000Y-51308000D03*
%TO.P,SHIFT_REGISTER1,15*%
%TO.N,/MOTOR1_A*%
X172720000Y-43688000D03*
%TO.P,SHIFT_REGISTER1,8*%
%TO.N,/GND*%
X187960000Y-51308000D03*
%TO.P,SHIFT_REGISTER1,16*%
%TO.N,/5V*%
X170180000Y-43688000D03*
%TD*%
D19*
%TO.P,U1,1*%
%TO.N,/MOTOR2_PHASE_A*%
X212090000Y-83820000D03*
D20*
%TO.P,U1,2*%
%TO.N,/MOTOR2_PHASE_B*%
X207090000Y-83820000D03*
%TO.P,U1,3*%
%TO.N,/MOTOR2_PHASE_C*%
X202090000Y-83820000D03*
%TO.P,U1,4*%
%TO.N,/MOTOR2_PHASE_D*%
X197090000Y-83820000D03*
%TD*%
D12*
%TO.P,U2,1*%
%TO.N,/3V*%
X236728000Y-71120000D03*
D13*
%TO.P,U2,2*%
%TO.N,/A0*%
X236728000Y-68580000D03*
%TO.P,U2,3*%
%TO.N,Net-(C2-Pad1)*%
X236728000Y-66040000D03*
%TO.P,U2,4*%
%TO.N,/A2*%
X236728000Y-63500000D03*
%TO.P,U2,5*%
%TO.N,/GND*%
X236728000Y-60960000D03*
%TD*%
D20*
%TO.P,U3,4*%
%TO.N,/MOTOR1_PHASE_D*%
X218172000Y-37592000D03*
%TO.P,U3,3*%
%TO.N,/MOTOR1_PHASE_C*%
X223172000Y-37592000D03*
%TO.P,U3,2*%
%TO.N,/MOTOR1_PHASE_B*%
X228172000Y-37592000D03*
D19*
%TO.P,U3,1*%
%TO.N,/MOTOR1_PHASE_A*%
X233172000Y-37592000D03*
%TD*%
D21*
%TO.N,/MOTOR1_PHASE_A*%
X219456000Y-54864000D03*
%TO.N,/12V*%
X217424000Y-64516000D03*
X220980000Y-64516000D03*
%TO.N,/MOTOR2_C*%
X192532000Y-54196990D03*
X217075009Y-58420000D03*
X219456000Y-62484000D03*
X219456000Y-65532000D03*
%TO.N,/MOTOR2_B*%
X180340000Y-53848000D03*
X198120000Y-86143000D03*
%TO.N,/MOTOR2_A*%
X177800000Y-53848000D03*
%TO.N,Net-(C4-Pad1)*%
X226568000Y-74168000D03*
%TD*%
D22*
%TO.N,/MOTOR2_PHASE_C*%
X215392000Y-67056000D02*
X210566000Y-67056000D01*
X215900000Y-67564000D02*
X215392000Y-67056000D01*
X215900000Y-73660000D02*
X215900000Y-67564000D01*
X215392000Y-74168000D02*
X215900000Y-73660000D01*
X210566000Y-67056000D02*
X208280000Y-64770000D01*
X204724000Y-74168000D02*
X215392000Y-74168000D01*
X202090000Y-76802000D02*
X204724000Y-74168000D01*
X202090000Y-83820000D02*
X202090000Y-76802000D01*
%TO.N,/MOTOR1_PHASE_B*%
X215900000Y-51308000D02*
X215900000Y-54864000D01*
X215900000Y-54864000D02*
X213868000Y-56896000D01*
X211074000Y-56896000D02*
X208280000Y-59690000D01*
X213868000Y-56896000D02*
X211074000Y-56896000D01*
X215900000Y-49864000D02*
X228172000Y-37592000D01*
X215900000Y-51308000D02*
X215900000Y-49864000D01*
%TO.N,/MOTOR1_PHASE_A*%
X233172000Y-43559590D02*
X233172000Y-37592000D01*
X221867590Y-54864000D02*
X233172000Y-43559590D01*
X219456000Y-54864000D02*
X221867590Y-54864000D01*
%TO.N,/12V*%
X217424000Y-64516000D02*
X220980000Y-64516000D01*
%TO.N,/MOTOR2_C*%
X190768011Y-52433001D02*
X192532000Y-54196990D01*
X184005001Y-52433001D02*
X190768011Y-52433001D01*
X182880000Y-51308000D02*
X184005001Y-52433001D01*
X217075009Y-60421401D02*
X218629608Y-61976000D01*
X217075009Y-58420000D02*
X217075009Y-60421401D01*
X218948000Y-61976000D02*
X219456000Y-62484000D01*
X218629608Y-61976000D02*
X218948000Y-61976000D01*
X211981999Y-65931999D02*
X210820000Y-64770000D01*
X219056001Y-65931999D02*
X211981999Y-65931999D01*
X219456000Y-65532000D02*
X219056001Y-65931999D01*
%TO.N,/MOTOR2_B*%
X180340000Y-51308000D02*
X180340000Y-53848000D01*
X202074999Y-71849999D02*
X203820998Y-70104000D01*
X202074999Y-72753001D02*
X202074999Y-71849999D01*
X201639990Y-73188010D02*
X202074999Y-72753001D01*
X201639990Y-82057325D02*
X201639990Y-73188010D01*
X198120000Y-85577315D02*
X201639990Y-82057325D01*
X198120000Y-86143000D02*
X198120000Y-85577315D01*
X208534000Y-70104000D02*
X210820000Y-72390000D01*
X203820998Y-70104000D02*
X208534000Y-70104000D01*
%TO.N,/MOTOR2_A*%
X177800000Y-51308000D02*
X177800000Y-53340000D01*
X177800000Y-53340000D02*
X177800000Y-53848000D01*
%TO.N,/MOTOR1_D*%
X175260000Y-51308000D02*
X175260000Y-54356000D01*
X175260000Y-54356000D02*
X175825990Y-54921990D01*
X195268010Y-54921990D02*
X198120000Y-52070000D01*
X175825990Y-54921990D02*
X195268010Y-54921990D01*
%TO.N,/MOTOR1_C*%
X172720000Y-51308000D02*
X172720000Y-52832000D01*
X172720000Y-52832000D02*
X175260000Y-55372000D01*
X207518000Y-55372000D02*
X210820000Y-52070000D01*
X175260000Y-55372000D02*
X207518000Y-55372000D01*
%TO.N,/MOTOR1_B*%
X209694999Y-60815001D02*
X210820000Y-59690000D01*
X179687001Y-60815001D02*
X209694999Y-60815001D01*
X170180000Y-51308000D02*
X179687001Y-60815001D01*
%TO.N,/A2*%
X191194400Y-87826010D02*
X192024000Y-86996410D01*
X170070999Y-86887409D02*
X171009600Y-87826010D01*
X170070999Y-73515001D02*
X170070999Y-86887409D01*
X171009600Y-87826010D02*
X191194400Y-87826010D01*
X171196000Y-72390000D02*
X170070999Y-73515001D01*
X196975590Y-86996410D02*
X197104000Y-86868000D01*
X192024000Y-86996410D02*
X196975590Y-86996410D01*
X238791001Y-65563001D02*
X236728000Y-63500000D01*
X238791001Y-85357761D02*
X238791001Y-65563001D01*
X237280762Y-86868000D02*
X238791001Y-85357761D01*
X197104000Y-86868000D02*
X237280762Y-86868000D01*
%TO.N,/A1*%
X239691021Y-62314259D02*
X236304762Y-58928000D01*
X169434589Y-88790999D02*
X236630584Y-88790998D01*
X169170979Y-88527389D02*
X169434589Y-88790999D01*
X239691021Y-85730561D02*
X239691021Y-62314259D01*
X169170979Y-67670019D02*
X169170979Y-88527389D01*
X170655999Y-66184999D02*
X169170979Y-67670019D01*
X171736001Y-66184999D02*
X170655999Y-66184999D01*
X172321001Y-66769999D02*
X171736001Y-66184999D01*
X236630584Y-88790998D02*
X239691021Y-85730561D01*
X172321001Y-68724999D02*
X172321001Y-66769999D01*
X171196000Y-69850000D02*
X172321001Y-68724999D01*
X235578000Y-58928000D02*
X229870000Y-64636000D01*
X236304762Y-58928000D02*
X235578000Y-58928000D01*
%TO.N,/A0*%
X235640999Y-67492999D02*
X236728000Y-68580000D01*
X235640999Y-62978239D02*
X235640999Y-67492999D01*
X236206239Y-62412999D02*
X235640999Y-62978239D01*
X237249761Y-62412999D02*
X236206239Y-62412999D01*
X236444183Y-88340989D02*
X239241011Y-85544161D01*
X169620989Y-88340989D02*
X236444183Y-88340989D01*
X169620989Y-68885011D02*
X169620989Y-88340989D01*
X239241011Y-64404249D02*
X237249761Y-62412999D01*
X239241011Y-85544161D02*
X239241011Y-64404249D01*
X171196000Y-67310000D02*
X169620989Y-68885011D01*
%TO.N,/3V*%
X230124000Y-49276000D02*
X228092000Y-49276000D01*
X228092000Y-49276000D02*
X228092000Y-59944000D01*
X228092000Y-59944000D02*
X230124000Y-59944000D01*
%TO.N,Net-(C4-Pad1)*%
X224282000Y-74168000D02*
X222250000Y-72136000D01*
X226568000Y-74168000D02*
X224282000Y-74168000D01*
%TO.N,/GND*%
X177800000Y-43688000D02*
X182880000Y-48768000D01*
X185420000Y-48768000D02*
X187960000Y-51308000D01*
X182880000Y-48768000D02*
X185420000Y-48768000D01*
X212234999Y-51819997D02*
X212234999Y-53195001D01*
X210923003Y-50508001D02*
X212234999Y-51819997D01*
X188759999Y-50508001D02*
X210923003Y-50508001D01*
X212234999Y-53195001D02*
X205740000Y-59690000D01*
X187960000Y-51308000D02*
X188759999Y-50508001D01*
%TO.N,/5V*%
X171196000Y-85090000D02*
X171196000Y-87376000D01*
X171196000Y-87376000D02*
X191008000Y-87376000D01*
X191008000Y-76962000D02*
X195580000Y-72390000D01*
X191008000Y-87376000D02*
X191008000Y-76962000D01*
X191008000Y-69342000D02*
X195580000Y-64770000D01*
X191008000Y-76962000D02*
X191008000Y-69596000D01*
X191008000Y-69596000D02*
X191008000Y-69342000D01*
X212234999Y-63644999D02*
X213360000Y-64770000D01*
X192387001Y-63644999D02*
X212234999Y-63644999D01*
X191008000Y-65024000D02*
X192387001Y-63644999D01*
X191008000Y-65532000D02*
X191008000Y-64516000D01*
X191008000Y-69596000D02*
X191008000Y-65532000D01*
X191008000Y-65532000D02*
X191008000Y-65024000D01*
X192013001Y-63510999D02*
X229605001Y-63510999D01*
X191008000Y-64516000D02*
X192013001Y-63510999D01*
X229605001Y-63510999D02*
X232156000Y-60960000D01*
X232156000Y-59436000D02*
X230124000Y-57404000D01*
X232156000Y-60960000D02*
X232156000Y-59436000D01*
%TO.N,/SHIFT_LATCH*%
X167640000Y-51054000D02*
X186436000Y-69850000D01*
X167640000Y-41656000D02*
X167640000Y-51054000D01*
X180340000Y-41656000D02*
X167640000Y-41656000D01*
X180340000Y-43688000D02*
X180340000Y-41656000D01*
%TD*%
M02*
