%TF.GenerationSoftware,KiCad,Pcbnew,(5.1.9)-1*%
%TF.CreationDate,2021-04-18T21:28:31-07:00*%
%TF.ProjectId,bbot-pcb,62626f74-2d70-4636-922e-6b696361645f,rev?*%
%TF.SameCoordinates,Original*%
%TF.FileFunction,Soldermask,Bot*%
%TF.FilePolarity,Negative*%
%FSLAX46Y46*%
G04 Gerber Fmt 4.6, Leading zero omitted, Abs format (unit mm)*
G04 Created by KiCad (PCBNEW (5.1.9)-1) date 2021-04-18 21:28:31*
%MOMM*%
%LPD*%
G01*
G04 APERTURE LIST*
%ADD10C,1.524000*%
%ADD11R,1.524000X1.524000*%
%ADD12C,3.000000*%
%ADD13O,1.600000X1.600000*%
%ADD14R,1.600000X1.600000*%
%ADD15C,1.778000*%
%ADD16R,1.778000X1.778000*%
%ADD17C,1.270000*%
%ADD18R,1.270000X1.270000*%
G04 APERTURE END LIST*
D10*
%TO.C,U4*%
X189230000Y-60960000D03*
X186690000Y-60960000D03*
X184150000Y-60960000D03*
D11*
X181610000Y-60960000D03*
D10*
X179070000Y-60960000D03*
X176530000Y-60960000D03*
%TD*%
D12*
%TO.C,REF\u002A\u002A*%
X184150000Y-22225000D03*
%TD*%
D13*
%TO.C,MetroMini1*%
X170180000Y-35560000D03*
X154940000Y-68580000D03*
X170180000Y-38100000D03*
X154940000Y-66040000D03*
X170180000Y-40640000D03*
X154940000Y-63500000D03*
X170180000Y-43180000D03*
X154940000Y-60960000D03*
X170180000Y-45720000D03*
X154940000Y-58420000D03*
X170180000Y-48260000D03*
X154940000Y-55880000D03*
X170180000Y-50800000D03*
X154940000Y-53340000D03*
X170180000Y-53340000D03*
X154940000Y-50800000D03*
X170180000Y-55880000D03*
X154940000Y-48260000D03*
X170180000Y-58420000D03*
X154940000Y-45720000D03*
X170180000Y-60960000D03*
X154940000Y-43180000D03*
X170180000Y-63500000D03*
X154940000Y-40640000D03*
X170180000Y-66040000D03*
X154940000Y-38100000D03*
X170180000Y-68580000D03*
D14*
X154940000Y-35560000D03*
%TD*%
D10*
%TO.C,U2*%
X147320000Y-63500000D03*
X147320000Y-60960000D03*
X147320000Y-58420000D03*
X147320000Y-55880000D03*
D11*
X147320000Y-53340000D03*
%TD*%
D15*
%TO.C,U3*%
X211850000Y-22860000D03*
X206850000Y-22860000D03*
X201850000Y-22860000D03*
D16*
X196850000Y-22860000D03*
%TD*%
D15*
%TO.C,U1*%
X211850000Y-66040000D03*
X206850000Y-66040000D03*
X201850000Y-66040000D03*
D16*
X196850000Y-66040000D03*
%TD*%
D13*
%TO.C,SHIFT_REGISTER1*%
X175895000Y-53340000D03*
X183515000Y-35560000D03*
X175895000Y-50800000D03*
X183515000Y-38100000D03*
X175895000Y-48260000D03*
X183515000Y-40640000D03*
X175895000Y-45720000D03*
X183515000Y-43180000D03*
X175895000Y-43180000D03*
X183515000Y-45720000D03*
X175895000Y-40640000D03*
X183515000Y-48260000D03*
X175895000Y-38100000D03*
X183515000Y-50800000D03*
X175895000Y-35560000D03*
D14*
X183515000Y-53340000D03*
%TD*%
D10*
%TO.C,PowerSwitch1*%
X171410000Y-22860000D03*
D11*
X166410000Y-22860000D03*
%TD*%
D13*
%TO.C,MOTOR2_L293D1*%
X196850000Y-35560000D03*
X189230000Y-53340000D03*
X196850000Y-38100000D03*
X189230000Y-50800000D03*
X196850000Y-40640000D03*
X189230000Y-48260000D03*
X196850000Y-43180000D03*
X189230000Y-45720000D03*
X196850000Y-45720000D03*
X189230000Y-43180000D03*
X196850000Y-48260000D03*
X189230000Y-40640000D03*
X196850000Y-50800000D03*
X189230000Y-38100000D03*
X196850000Y-53340000D03*
D14*
X189230000Y-35560000D03*
%TD*%
D13*
%TO.C,MOTOR1_L293D1*%
X212090000Y-35560000D03*
X204470000Y-53340000D03*
X212090000Y-38100000D03*
X204470000Y-50800000D03*
X212090000Y-40640000D03*
X204470000Y-48260000D03*
X212090000Y-43180000D03*
X204470000Y-45720000D03*
X212090000Y-45720000D03*
X204470000Y-43180000D03*
X212090000Y-48260000D03*
X204470000Y-40640000D03*
X212090000Y-50800000D03*
X204470000Y-38100000D03*
X212090000Y-53340000D03*
D14*
X204470000Y-35560000D03*
%TD*%
D17*
%TO.C,MOSFET1*%
X147320000Y-45720000D03*
X147320000Y-43180000D03*
D18*
X147320000Y-40640000D03*
%TD*%
D10*
%TO.C,BatteryPack1*%
X156170000Y-22860000D03*
D11*
X151170000Y-22860000D03*
%TD*%
M02*
