M48
; DRILL file {KiCad (5.1.9)-1} date 05/23/21 21:09:40
; FORMAT={-:-/ absolute / inch / decimal}
; #@! TF.CreationDate,2021-05-23T21:09:40-07:00
; #@! TF.GenerationSoftware,Kicad,Pcbnew,(5.1.9)-1
; #@! TF.FileFunction,Plated,1,2,PTH
FMAT,2
INCH
T1C0.0157
T2C0.0276
T3C0.0315
T4C0.0354
T5C0.0400
T6C0.0413
T7C0.0433
T8C0.0500
%
G90
G05
T1
X7.32Y-1.8663
X7.58Y-2.66
X7.62Y-2.94
X7.86Y-1.94
X8.62Y-2.54
T2
X9.06Y-1.94
X9.06Y-2.04
X9.06Y-2.26
X9.06Y-2.36
T3
X6.68Y-1.7
X6.68Y-2.0
X6.78Y-1.7
X6.78Y-2.0
X6.88Y-1.7
X6.88Y-2.0
X6.98Y-1.7
X6.98Y-2.0
X7.08Y-1.7
X7.08Y-2.0
X7.18Y-1.7
X7.18Y-2.0
X7.28Y-1.7
X7.28Y-2.0
X7.38Y-1.7
X7.38Y-2.0
X7.7Y-2.05
X7.7Y-2.35
X7.7Y-2.55
X7.7Y-2.85
X7.8Y-2.05
X7.8Y-2.35
X7.8Y-2.55
X7.8Y-2.85
X7.9Y-2.05
X7.9Y-2.35
X7.9Y-2.55
X7.9Y-2.85
X8.0Y-2.05
X8.0Y-2.35
X8.0Y-2.55
X8.0Y-2.85
X8.1Y-2.05
X8.1Y-2.35
X8.1Y-2.55
X8.1Y-2.85
X8.2Y-2.05
X8.2Y-2.35
X8.2Y-2.55
X8.2Y-2.85
X8.3Y-2.05
X8.3Y-2.35
X8.3Y-2.55
X8.3Y-2.85
X8.4Y-2.05
X8.4Y-2.35
X8.4Y-2.55
X8.4Y-2.85
X8.66Y-2.06
X8.66Y-2.32
X8.8569Y-2.06
X8.8569Y-2.32
X9.05Y-2.5447
X9.05Y-2.84
T4
X8.75Y-2.64
X8.75Y-2.74
X8.75Y-2.84
T5
X9.32Y-2.4
X9.32Y-2.5
X9.32Y-2.6
X9.32Y-2.7
X9.32Y-2.8
T6
X8.6616Y-3.34
X8.8584Y-3.34
X9.1616Y-3.34
X9.3584Y-3.34
T7
X6.74Y-2.25
X6.74Y-2.35
X6.74Y-2.45
X6.74Y-2.55
X6.74Y-2.65
X6.74Y-2.75
X6.74Y-2.85
X6.74Y-2.95
X6.74Y-3.05
X6.74Y-3.15
X6.74Y-3.25
X6.74Y-3.35
X7.34Y-2.25
X7.34Y-2.35
X7.34Y-2.45
X7.34Y-2.55
X7.34Y-2.65
X7.34Y-2.75
X7.34Y-2.85
X7.34Y-2.95
X7.34Y-3.05
X7.34Y-3.15
X7.34Y-3.25
X7.34Y-3.35
T8
X7.7594Y-3.3
X7.9563Y-3.3
X8.1531Y-3.3
X8.35Y-3.3
X8.5894Y-1.48
X8.7863Y-1.48
X8.9831Y-1.48
X9.18Y-1.48
T0
M30
