%TF.GenerationSoftware,KiCad,Pcbnew,(5.1.9)-1*%
%TF.CreationDate,2021-04-07T20:22:23-07:00*%
%TF.ProjectId,bbot-pcb,62626f74-2d70-4636-922e-6b696361645f,rev?*%
%TF.SameCoordinates,Original*%
%TF.FileFunction,Soldermask,Bot*%
%TF.FilePolarity,Negative*%
%FSLAX46Y46*%
G04 Gerber Fmt 4.6, Leading zero omitted, Abs format (unit mm)*
G04 Created by KiCad (PCBNEW (5.1.9)-1) date 2021-04-07 20:22:23*
%MOMM*%
%LPD*%
G01*
G04 APERTURE LIST*
%ADD10C,3.200000*%
%ADD11C,1.524000*%
%ADD12R,1.524000X1.524000*%
%ADD13O,1.600000X1.600000*%
%ADD14R,1.600000X1.600000*%
%ADD15C,1.778000*%
%ADD16R,1.778000X1.778000*%
%ADD17C,1.143000*%
%ADD18R,1.143000X1.143000*%
%ADD19C,1.270000*%
%ADD20R,1.270000X1.270000*%
G04 APERTURE END LIST*
D10*
%TO.C,REF\u002A\u002A*%
X146050000Y-62230000D03*
%TD*%
D11*
%TO.C,BatteryPack1*%
X142280000Y-106680000D03*
D12*
X147280000Y-106680000D03*
%TD*%
D11*
%TO.C,PowerSwitch1*%
X124500000Y-106680000D03*
D12*
X129500000Y-106680000D03*
%TD*%
D13*
%TO.C,MetroMini1*%
X137160000Y-64770000D03*
X121920000Y-97790000D03*
X137160000Y-67310000D03*
X121920000Y-95250000D03*
X137160000Y-69850000D03*
X121920000Y-92710000D03*
X137160000Y-72390000D03*
X121920000Y-90170000D03*
X137160000Y-74930000D03*
X121920000Y-87630000D03*
X137160000Y-77470000D03*
X121920000Y-85090000D03*
X137160000Y-80010000D03*
X121920000Y-82550000D03*
X137160000Y-82550000D03*
X121920000Y-80010000D03*
X137160000Y-85090000D03*
X121920000Y-77470000D03*
X137160000Y-87630000D03*
X121920000Y-74930000D03*
X137160000Y-90170000D03*
X121920000Y-72390000D03*
X137160000Y-92710000D03*
X121920000Y-69850000D03*
X137160000Y-95250000D03*
X121920000Y-67310000D03*
X137160000Y-97790000D03*
D14*
X121920000Y-64770000D03*
%TD*%
D13*
%TO.C,MOTOR1_L293D1*%
X156210000Y-86360000D03*
X173990000Y-93980000D03*
X158750000Y-86360000D03*
X171450000Y-93980000D03*
X161290000Y-86360000D03*
X168910000Y-93980000D03*
X163830000Y-86360000D03*
X166370000Y-93980000D03*
X166370000Y-86360000D03*
X163830000Y-93980000D03*
X168910000Y-86360000D03*
X161290000Y-93980000D03*
X171450000Y-86360000D03*
X158750000Y-93980000D03*
X173990000Y-86360000D03*
D14*
X156210000Y-93980000D03*
%TD*%
D13*
%TO.C,MOTOR2_L293D1*%
X156210000Y-72390000D03*
X173990000Y-80010000D03*
X158750000Y-72390000D03*
X171450000Y-80010000D03*
X161290000Y-72390000D03*
X168910000Y-80010000D03*
X163830000Y-72390000D03*
X166370000Y-80010000D03*
X166370000Y-72390000D03*
X163830000Y-80010000D03*
X168910000Y-72390000D03*
X161290000Y-80010000D03*
X171450000Y-72390000D03*
X158750000Y-80010000D03*
X173990000Y-72390000D03*
D14*
X156210000Y-80010000D03*
%TD*%
D13*
%TO.C,SHIFT_REGISTER1*%
X142240000Y-90170000D03*
X149860000Y-72390000D03*
X142240000Y-87630000D03*
X149860000Y-74930000D03*
X142240000Y-85090000D03*
X149860000Y-77470000D03*
X142240000Y-82550000D03*
X149860000Y-80010000D03*
X142240000Y-80010000D03*
X149860000Y-82550000D03*
X142240000Y-77470000D03*
X149860000Y-85090000D03*
X142240000Y-74930000D03*
X149860000Y-87630000D03*
X142240000Y-72390000D03*
D14*
X149860000Y-90170000D03*
%TD*%
D15*
%TO.C,U1*%
X157720000Y-62230000D03*
X162720000Y-62230000D03*
X167720000Y-62230000D03*
D16*
X172720000Y-62230000D03*
%TD*%
D17*
%TO.C,HMC5883L1*%
X116840000Y-97980000D03*
X116840000Y-95980000D03*
D18*
X116840000Y-93980000D03*
D17*
X116840000Y-91980000D03*
%TD*%
D15*
%TO.C,U3*%
X158990000Y-104140000D03*
X163990000Y-104140000D03*
X168990000Y-104140000D03*
D16*
X173990000Y-104140000D03*
%TD*%
D19*
%TO.C,MOSFET1*%
X116840000Y-109220000D03*
X116840000Y-106680000D03*
D20*
X116840000Y-104140000D03*
%TD*%
M02*
