%TF.GenerationSoftware,KiCad,Pcbnew,(5.1.9)-1*%
%TF.CreationDate,2021-05-23T21:09:51-07:00*%
%TF.ProjectId,bbot-pcb,62626f74-2d70-4636-922e-6b696361645f,rev?*%
%TF.SameCoordinates,Original*%
%TF.FileFunction,Legend,Top*%
%TF.FilePolarity,Positive*%
%FSLAX46Y46*%
G04 Gerber Fmt 4.6, Leading zero omitted, Abs format (unit mm)*
G04 Created by KiCad (PCBNEW (5.1.9)-1) date 2021-05-23 21:09:51*
%MOMM*%
%LPD*%
G01*
G04 APERTURE LIST*
%ADD10C,0.150000*%
%ADD11C,0.120000*%
G04 APERTURE END LIST*
D10*
X220281714Y-53808380D02*
X220376952Y-53808380D01*
X220472190Y-53856000D01*
X220519809Y-53903619D01*
X220567428Y-53998857D01*
X220615047Y-54189333D01*
X220615047Y-54427428D01*
X220567428Y-54617904D01*
X220519809Y-54713142D01*
X220472190Y-54760761D01*
X220376952Y-54808380D01*
X220281714Y-54808380D01*
X220186476Y-54760761D01*
X220138857Y-54713142D01*
X220091238Y-54617904D01*
X220043619Y-54427428D01*
X220043619Y-54189333D01*
X220091238Y-53998857D01*
X220138857Y-53903619D01*
X220186476Y-53856000D01*
X220281714Y-53808380D01*
X221043619Y-54713142D02*
X221091238Y-54760761D01*
X221043619Y-54808380D01*
X220996000Y-54760761D01*
X221043619Y-54713142D01*
X221043619Y-54808380D01*
X222043619Y-54808380D02*
X221472190Y-54808380D01*
X221757904Y-54808380D02*
X221757904Y-53808380D01*
X221662666Y-53951238D01*
X221567428Y-54046476D01*
X221472190Y-54094095D01*
X222472190Y-54808380D02*
X222472190Y-54141714D01*
X222472190Y-54236952D02*
X222519809Y-54189333D01*
X222615047Y-54141714D01*
X222757904Y-54141714D01*
X222853142Y-54189333D01*
X222900761Y-54284571D01*
X222900761Y-54808380D01*
X222900761Y-54284571D02*
X222948380Y-54189333D01*
X223043619Y-54141714D01*
X223186476Y-54141714D01*
X223281714Y-54189333D01*
X223329333Y-54284571D01*
X223329333Y-54808380D01*
X223662666Y-54141714D02*
X224043619Y-54141714D01*
X223805523Y-54808380D02*
X223805523Y-53951238D01*
X223853142Y-53856000D01*
X223948380Y-53808380D01*
X224043619Y-53808380D01*
X220313523Y-60412380D02*
X220408761Y-60412380D01*
X220504000Y-60460000D01*
X220551619Y-60507619D01*
X220599238Y-60602857D01*
X220646857Y-60793333D01*
X220646857Y-61031428D01*
X220599238Y-61221904D01*
X220551619Y-61317142D01*
X220504000Y-61364761D01*
X220408761Y-61412380D01*
X220313523Y-61412380D01*
X220218285Y-61364761D01*
X220170666Y-61317142D01*
X220123047Y-61221904D01*
X220075428Y-61031428D01*
X220075428Y-60793333D01*
X220123047Y-60602857D01*
X220170666Y-60507619D01*
X220218285Y-60460000D01*
X220313523Y-60412380D01*
X221075428Y-61317142D02*
X221123047Y-61364761D01*
X221075428Y-61412380D01*
X221027809Y-61364761D01*
X221075428Y-61317142D01*
X221075428Y-61412380D01*
X221456380Y-60412380D02*
X222075428Y-60412380D01*
X221742095Y-60793333D01*
X221884952Y-60793333D01*
X221980190Y-60840952D01*
X222027809Y-60888571D01*
X222075428Y-60983809D01*
X222075428Y-61221904D01*
X222027809Y-61317142D01*
X221980190Y-61364761D01*
X221884952Y-61412380D01*
X221599238Y-61412380D01*
X221504000Y-61364761D01*
X221456380Y-61317142D01*
X222408761Y-60412380D02*
X223027809Y-60412380D01*
X222694476Y-60793333D01*
X222837333Y-60793333D01*
X222932571Y-60840952D01*
X222980190Y-60888571D01*
X223027809Y-60983809D01*
X223027809Y-61221904D01*
X222980190Y-61317142D01*
X222932571Y-61364761D01*
X222837333Y-61412380D01*
X222551619Y-61412380D01*
X222456380Y-61364761D01*
X222408761Y-61317142D01*
X223456380Y-61412380D02*
X223456380Y-60745714D01*
X223456380Y-60840952D02*
X223504000Y-60793333D01*
X223599238Y-60745714D01*
X223742095Y-60745714D01*
X223837333Y-60793333D01*
X223884952Y-60888571D01*
X223884952Y-61412380D01*
X223884952Y-60888571D02*
X223932571Y-60793333D01*
X224027809Y-60745714D01*
X224170666Y-60745714D01*
X224265904Y-60793333D01*
X224313523Y-60888571D01*
X224313523Y-61412380D01*
X224646857Y-60745714D02*
X225027809Y-60745714D01*
X224789714Y-61412380D02*
X224789714Y-60555238D01*
X224837333Y-60460000D01*
X224932571Y-60412380D01*
X225027809Y-60412380D01*
X237799619Y-33607809D02*
X238323428Y-33607809D01*
X238418666Y-33560190D01*
X238466285Y-33464952D01*
X238466285Y-33274476D01*
X238418666Y-33179238D01*
X237847238Y-33607809D02*
X237799619Y-33512571D01*
X237799619Y-33274476D01*
X237847238Y-33179238D01*
X237942476Y-33131619D01*
X238037714Y-33131619D01*
X238132952Y-33179238D01*
X238180571Y-33274476D01*
X238180571Y-33512571D01*
X238228190Y-33607809D01*
X237799619Y-34845904D02*
X238466285Y-34845904D01*
X238275809Y-34845904D02*
X238371047Y-34893523D01*
X238418666Y-34941142D01*
X238466285Y-35036380D01*
X238466285Y-35131619D01*
X237799619Y-35607809D02*
X237847238Y-35512571D01*
X237894857Y-35464952D01*
X237990095Y-35417333D01*
X238275809Y-35417333D01*
X238371047Y-35464952D01*
X238418666Y-35512571D01*
X238466285Y-35607809D01*
X238466285Y-35750666D01*
X238418666Y-35845904D01*
X238371047Y-35893523D01*
X238275809Y-35941142D01*
X237990095Y-35941142D01*
X237894857Y-35893523D01*
X237847238Y-35845904D01*
X237799619Y-35750666D01*
X237799619Y-35607809D01*
X237799619Y-36369714D02*
X238799619Y-36369714D01*
X238418666Y-36369714D02*
X238466285Y-36464952D01*
X238466285Y-36655428D01*
X238418666Y-36750666D01*
X238371047Y-36798285D01*
X238275809Y-36845904D01*
X237990095Y-36845904D01*
X237894857Y-36798285D01*
X237847238Y-36750666D01*
X237799619Y-36655428D01*
X237799619Y-36464952D01*
X237847238Y-36369714D01*
X237799619Y-37417333D02*
X237847238Y-37322095D01*
X237894857Y-37274476D01*
X237990095Y-37226857D01*
X238275809Y-37226857D01*
X238371047Y-37274476D01*
X238418666Y-37322095D01*
X238466285Y-37417333D01*
X238466285Y-37560190D01*
X238418666Y-37655428D01*
X238371047Y-37703047D01*
X238275809Y-37750666D01*
X237990095Y-37750666D01*
X237894857Y-37703047D01*
X237847238Y-37655428D01*
X237799619Y-37560190D01*
X237799619Y-37417333D01*
X238466285Y-38036380D02*
X238466285Y-38417333D01*
X238799619Y-38179238D02*
X237942476Y-38179238D01*
X237847238Y-38226857D01*
X237799619Y-38322095D01*
X237799619Y-38417333D01*
X237799619Y-39655428D02*
X237847238Y-39560190D01*
X237942476Y-39512571D01*
X238799619Y-39512571D01*
X237799619Y-40179238D02*
X237847238Y-40084000D01*
X237894857Y-40036380D01*
X237990095Y-39988761D01*
X238275809Y-39988761D01*
X238371047Y-40036380D01*
X238418666Y-40084000D01*
X238466285Y-40179238D01*
X238466285Y-40322095D01*
X238418666Y-40417333D01*
X238371047Y-40464952D01*
X238275809Y-40512571D01*
X237990095Y-40512571D01*
X237894857Y-40464952D01*
X237847238Y-40417333D01*
X237799619Y-40322095D01*
X237799619Y-40179238D01*
X237799619Y-41084000D02*
X237847238Y-40988761D01*
X237942476Y-40941142D01*
X238799619Y-40941142D01*
X200049142Y-42807380D02*
X200049142Y-41807380D01*
X200049142Y-42188333D02*
X200144380Y-42140714D01*
X200334857Y-42140714D01*
X200430095Y-42188333D01*
X200477714Y-42235952D01*
X200525333Y-42331190D01*
X200525333Y-42616904D01*
X200477714Y-42712142D01*
X200430095Y-42759761D01*
X200334857Y-42807380D01*
X200144380Y-42807380D01*
X200049142Y-42759761D01*
X200953904Y-42807380D02*
X200953904Y-41807380D01*
X200953904Y-42188333D02*
X201049142Y-42140714D01*
X201239619Y-42140714D01*
X201334857Y-42188333D01*
X201382476Y-42235952D01*
X201430095Y-42331190D01*
X201430095Y-42616904D01*
X201382476Y-42712142D01*
X201334857Y-42759761D01*
X201239619Y-42807380D01*
X201049142Y-42807380D01*
X200953904Y-42759761D01*
X202001523Y-42807380D02*
X201906285Y-42759761D01*
X201858666Y-42712142D01*
X201811047Y-42616904D01*
X201811047Y-42331190D01*
X201858666Y-42235952D01*
X201906285Y-42188333D01*
X202001523Y-42140714D01*
X202144380Y-42140714D01*
X202239619Y-42188333D01*
X202287238Y-42235952D01*
X202334857Y-42331190D01*
X202334857Y-42616904D01*
X202287238Y-42712142D01*
X202239619Y-42759761D01*
X202144380Y-42807380D01*
X202001523Y-42807380D01*
X202620571Y-42140714D02*
X203001523Y-42140714D01*
X202763428Y-41807380D02*
X202763428Y-42664523D01*
X202811047Y-42759761D01*
X202906285Y-42807380D01*
X203001523Y-42807380D01*
X204001523Y-42140714D02*
X204239619Y-42807380D01*
X204477714Y-42140714D01*
X205287238Y-42140714D02*
X205287238Y-42807380D01*
X205049142Y-41759761D02*
X204811047Y-42474047D01*
X205430095Y-42474047D01*
X199501523Y-43457380D02*
X199501523Y-44171666D01*
X199453904Y-44314523D01*
X199358666Y-44409761D01*
X199215809Y-44457380D01*
X199120571Y-44457380D01*
X200120571Y-44457380D02*
X200025333Y-44409761D01*
X199977714Y-44362142D01*
X199930095Y-44266904D01*
X199930095Y-43981190D01*
X199977714Y-43885952D01*
X200025333Y-43838333D01*
X200120571Y-43790714D01*
X200263428Y-43790714D01*
X200358666Y-43838333D01*
X200406285Y-43885952D01*
X200453904Y-43981190D01*
X200453904Y-44266904D01*
X200406285Y-44362142D01*
X200358666Y-44409761D01*
X200263428Y-44457380D01*
X200120571Y-44457380D01*
X200834857Y-44409761D02*
X200930095Y-44457380D01*
X201120571Y-44457380D01*
X201215809Y-44409761D01*
X201263428Y-44314523D01*
X201263428Y-44266904D01*
X201215809Y-44171666D01*
X201120571Y-44124047D01*
X200977714Y-44124047D01*
X200882476Y-44076428D01*
X200834857Y-43981190D01*
X200834857Y-43933571D01*
X200882476Y-43838333D01*
X200977714Y-43790714D01*
X201120571Y-43790714D01*
X201215809Y-43838333D01*
X201692000Y-44457380D02*
X201692000Y-43457380D01*
X202120571Y-44457380D02*
X202120571Y-43933571D01*
X202072952Y-43838333D01*
X201977714Y-43790714D01*
X201834857Y-43790714D01*
X201739619Y-43838333D01*
X201692000Y-43885952D01*
X203930095Y-44362142D02*
X203882476Y-44409761D01*
X203739619Y-44457380D01*
X203644380Y-44457380D01*
X203501523Y-44409761D01*
X203406285Y-44314523D01*
X203358666Y-44219285D01*
X203311047Y-44028809D01*
X203311047Y-43885952D01*
X203358666Y-43695476D01*
X203406285Y-43600238D01*
X203501523Y-43505000D01*
X203644380Y-43457380D01*
X203739619Y-43457380D01*
X203882476Y-43505000D01*
X203930095Y-43552619D01*
X204501523Y-44457380D02*
X204406285Y-44409761D01*
X204358666Y-44362142D01*
X204311047Y-44266904D01*
X204311047Y-43981190D01*
X204358666Y-43885952D01*
X204406285Y-43838333D01*
X204501523Y-43790714D01*
X204644380Y-43790714D01*
X204739619Y-43838333D01*
X204787238Y-43885952D01*
X204834857Y-43981190D01*
X204834857Y-44266904D01*
X204787238Y-44362142D01*
X204739619Y-44409761D01*
X204644380Y-44457380D01*
X204501523Y-44457380D01*
X205406285Y-44457380D02*
X205311047Y-44409761D01*
X205263428Y-44314523D01*
X205263428Y-43457380D01*
X206168190Y-44409761D02*
X206072952Y-44457380D01*
X205882476Y-44457380D01*
X205787238Y-44409761D01*
X205739619Y-44314523D01*
X205739619Y-43933571D01*
X205787238Y-43838333D01*
X205882476Y-43790714D01*
X206072952Y-43790714D01*
X206168190Y-43838333D01*
X206215809Y-43933571D01*
X206215809Y-44028809D01*
X205739619Y-44124047D01*
X232513142Y-70929142D02*
X232560761Y-70881523D01*
X232608380Y-70929142D01*
X232560761Y-70976761D01*
X232513142Y-70929142D01*
X232608380Y-70929142D01*
X231608380Y-70262476D02*
X231608380Y-70167238D01*
X231656000Y-70072000D01*
X231703619Y-70024380D01*
X231798857Y-69976761D01*
X231989333Y-69929142D01*
X232227428Y-69929142D01*
X232417904Y-69976761D01*
X232513142Y-70024380D01*
X232560761Y-70072000D01*
X232608380Y-70167238D01*
X232608380Y-70262476D01*
X232560761Y-70357714D01*
X232513142Y-70405333D01*
X232417904Y-70452952D01*
X232227428Y-70500571D01*
X231989333Y-70500571D01*
X231798857Y-70452952D01*
X231703619Y-70405333D01*
X231656000Y-70357714D01*
X231608380Y-70262476D01*
X231608380Y-69310095D02*
X231608380Y-69214857D01*
X231656000Y-69119619D01*
X231703619Y-69072000D01*
X231798857Y-69024380D01*
X231989333Y-68976761D01*
X232227428Y-68976761D01*
X232417904Y-69024380D01*
X232513142Y-69072000D01*
X232560761Y-69119619D01*
X232608380Y-69214857D01*
X232608380Y-69310095D01*
X232560761Y-69405333D01*
X232513142Y-69452952D01*
X232417904Y-69500571D01*
X232227428Y-69548190D01*
X231989333Y-69548190D01*
X231798857Y-69500571D01*
X231703619Y-69452952D01*
X231656000Y-69405333D01*
X231608380Y-69310095D01*
X231941714Y-68119619D02*
X232608380Y-68119619D01*
X231560761Y-68357714D02*
X232275047Y-68595809D01*
X232275047Y-67976761D01*
X231608380Y-67691047D02*
X231608380Y-67024380D01*
X232608380Y-67452952D01*
X232608380Y-66643428D02*
X231941714Y-66643428D01*
X232036952Y-66643428D02*
X231989333Y-66595809D01*
X231941714Y-66500571D01*
X231941714Y-66357714D01*
X231989333Y-66262476D01*
X232084571Y-66214857D01*
X232608380Y-66214857D01*
X232084571Y-66214857D02*
X231989333Y-66167238D01*
X231941714Y-66072000D01*
X231941714Y-65929142D01*
X231989333Y-65833904D01*
X232084571Y-65786285D01*
X232608380Y-65786285D01*
X231941714Y-65452952D02*
X231941714Y-65072000D01*
X232608380Y-65310095D02*
X231751238Y-65310095D01*
X231656000Y-65262476D01*
X231608380Y-65167238D01*
X231608380Y-65072000D01*
D11*
%TO.C,MOSFET1*%
X223520000Y-66040000D02*
X220980000Y-66040000D01*
X220980000Y-66040000D02*
X220980000Y-73152000D01*
X220980000Y-73152000D02*
X223520000Y-73152000D01*
X223520000Y-73152000D02*
X223520000Y-66040000D01*
D10*
%TO.C,U4*%
X187706000Y-86360000D02*
X187706000Y-55880000D01*
X187706000Y-86360000D02*
X182626000Y-86360000D01*
X182626000Y-86360000D02*
X182626000Y-88900000D01*
X182626000Y-88900000D02*
X175006000Y-88900000D01*
X175006000Y-88900000D02*
X175006000Y-86360000D01*
X175006000Y-86360000D02*
X169926000Y-86360000D01*
X169926000Y-86360000D02*
X169926000Y-55880000D01*
X169926000Y-55880000D02*
X187706000Y-55880000D01*
D11*
%TO.C,BatteryPack1*%
X216916000Y-88392000D02*
X216916000Y-80772000D01*
X228092000Y-88392000D02*
X216916000Y-88392000D01*
X228092000Y-80772000D02*
X228092000Y-88392000D01*
X216916000Y-80772000D02*
X228092000Y-80772000D01*
X225604000Y-86036000D02*
X225604000Y-85936000D01*
%TO.C,C2*%
X228450000Y-70406000D02*
X231290000Y-70406000D01*
X231290000Y-70406000D02*
X231290000Y-66366000D01*
X231290000Y-66366000D02*
X228450000Y-66366000D01*
X228450000Y-66366000D02*
X228450000Y-70406000D01*
X229870000Y-71096000D02*
X229870000Y-70406000D01*
X229870000Y-65676000D02*
X229870000Y-66366000D01*
%TO.C,MOTOR1_L293D1*%
X194250000Y-53230000D02*
X194250000Y-54880000D01*
X214690000Y-53230000D02*
X194250000Y-53230000D01*
X214690000Y-58530000D02*
X214690000Y-53230000D01*
X194250000Y-58530000D02*
X214690000Y-58530000D01*
X194250000Y-56880000D02*
X194250000Y-58530000D01*
X194250000Y-54880000D02*
G75*
G02*
X194250000Y-56880000I0J-1000000D01*
G01*
%TO.C,MOTOR2_L293D1*%
X194250000Y-67580000D02*
G75*
G02*
X194250000Y-69580000I0J-1000000D01*
G01*
X194250000Y-69580000D02*
X194250000Y-71230000D01*
X194250000Y-71230000D02*
X214690000Y-71230000D01*
X214690000Y-71230000D02*
X214690000Y-65930000D01*
X214690000Y-65930000D02*
X194250000Y-65930000D01*
X194250000Y-65930000D02*
X194250000Y-67580000D01*
%TO.C,PowerSwitch1*%
X238304000Y-86036000D02*
X238304000Y-85936000D01*
X229616000Y-80772000D02*
X240792000Y-80772000D01*
X240792000Y-80772000D02*
X240792000Y-88392000D01*
X240792000Y-88392000D02*
X229616000Y-88392000D01*
X229616000Y-88392000D02*
X229616000Y-80772000D01*
%TO.C,R1*%
X231044000Y-57404000D02*
G75*
G03*
X231044000Y-57404000I-920000J0D01*
G01*
X230124000Y-58324000D02*
X230124000Y-58944000D01*
%TO.C,R2*%
X230124000Y-50196000D02*
X230124000Y-50816000D01*
X231044000Y-49276000D02*
G75*
G03*
X231044000Y-49276000I-920000J0D01*
G01*
%TO.C,SHIFT_REGISTER1*%
X188782000Y-49640000D02*
X188782000Y-47990000D01*
X168342000Y-49640000D02*
X188782000Y-49640000D01*
X168342000Y-44340000D02*
X168342000Y-49640000D01*
X188782000Y-44340000D02*
X168342000Y-44340000D01*
X188782000Y-45990000D02*
X188782000Y-44340000D01*
X188782000Y-47990000D02*
G75*
G02*
X188782000Y-45990000I0J1000000D01*
G01*
%TO.C,U1*%
X214590000Y-83820000D02*
X214590000Y-77320000D01*
X214590000Y-77320000D02*
X194590000Y-77320000D01*
X194590000Y-77320000D02*
X194590000Y-90320000D01*
X194590000Y-90320000D02*
X214590000Y-90320000D01*
X214590000Y-90320000D02*
X214590000Y-83820000D01*
%TO.C,U2*%
X235712000Y-73406000D02*
X235458000Y-73406000D01*
X240538000Y-73406000D02*
X235712000Y-73406000D01*
X240538000Y-58420000D02*
X240538000Y-73406000D01*
X235458000Y-58420000D02*
X240538000Y-58420000D01*
X235458000Y-73406000D02*
X235458000Y-58420000D01*
%TO.C,U3*%
X235672000Y-44092000D02*
X235672000Y-37592000D01*
X215672000Y-44092000D02*
X235672000Y-44092000D01*
X215672000Y-31092000D02*
X215672000Y-44092000D01*
X235672000Y-31092000D02*
X215672000Y-31092000D01*
X235672000Y-37592000D02*
X235672000Y-31092000D01*
%TO.C,C4*%
X224734000Y-53379000D02*
X224734000Y-53394000D01*
X224734000Y-51254000D02*
X224734000Y-51269000D01*
X220194000Y-53379000D02*
X220194000Y-53394000D01*
X220194000Y-51254000D02*
X220194000Y-51269000D01*
X220194000Y-53394000D02*
X224734000Y-53394000D01*
X220194000Y-51254000D02*
X224734000Y-51254000D01*
%TO.C,C5*%
X220194000Y-57858000D02*
X224734000Y-57858000D01*
X220194000Y-59998000D02*
X224734000Y-59998000D01*
X220194000Y-57858000D02*
X220194000Y-57873000D01*
X220194000Y-59983000D02*
X220194000Y-59998000D01*
X224734000Y-57858000D02*
X224734000Y-57873000D01*
X224734000Y-59983000D02*
X224734000Y-59998000D01*
%TO.C,Mounting Hole*%
D10*
X199557333Y-33028380D02*
X199557333Y-32028380D01*
X199890666Y-32742666D01*
X200224000Y-32028380D01*
X200224000Y-33028380D01*
X200843047Y-33028380D02*
X200747809Y-32980761D01*
X200700190Y-32933142D01*
X200652571Y-32837904D01*
X200652571Y-32552190D01*
X200700190Y-32456952D01*
X200747809Y-32409333D01*
X200843047Y-32361714D01*
X200985904Y-32361714D01*
X201081142Y-32409333D01*
X201128761Y-32456952D01*
X201176380Y-32552190D01*
X201176380Y-32837904D01*
X201128761Y-32933142D01*
X201081142Y-32980761D01*
X200985904Y-33028380D01*
X200843047Y-33028380D01*
X202033523Y-32361714D02*
X202033523Y-33028380D01*
X201604952Y-32361714D02*
X201604952Y-32885523D01*
X201652571Y-32980761D01*
X201747809Y-33028380D01*
X201890666Y-33028380D01*
X201985904Y-32980761D01*
X202033523Y-32933142D01*
X202509714Y-32361714D02*
X202509714Y-33028380D01*
X202509714Y-32456952D02*
X202557333Y-32409333D01*
X202652571Y-32361714D01*
X202795428Y-32361714D01*
X202890666Y-32409333D01*
X202938285Y-32504571D01*
X202938285Y-33028380D01*
X203271619Y-32361714D02*
X203652571Y-32361714D01*
X203414476Y-32028380D02*
X203414476Y-32885523D01*
X203462095Y-32980761D01*
X203557333Y-33028380D01*
X203652571Y-33028380D01*
X203985904Y-33028380D02*
X203985904Y-32361714D01*
X203985904Y-32028380D02*
X203938285Y-32076000D01*
X203985904Y-32123619D01*
X204033523Y-32076000D01*
X203985904Y-32028380D01*
X203985904Y-32123619D01*
X204462095Y-32361714D02*
X204462095Y-33028380D01*
X204462095Y-32456952D02*
X204509714Y-32409333D01*
X204604952Y-32361714D01*
X204747809Y-32361714D01*
X204843047Y-32409333D01*
X204890666Y-32504571D01*
X204890666Y-33028380D01*
X205795428Y-32361714D02*
X205795428Y-33171238D01*
X205747809Y-33266476D01*
X205700190Y-33314095D01*
X205604952Y-33361714D01*
X205462095Y-33361714D01*
X205366857Y-33314095D01*
X205795428Y-32980761D02*
X205700190Y-33028380D01*
X205509714Y-33028380D01*
X205414476Y-32980761D01*
X205366857Y-32933142D01*
X205319238Y-32837904D01*
X205319238Y-32552190D01*
X205366857Y-32456952D01*
X205414476Y-32409333D01*
X205509714Y-32361714D01*
X205700190Y-32361714D01*
X205795428Y-32409333D01*
X207033523Y-33028380D02*
X207033523Y-32028380D01*
X207033523Y-32504571D02*
X207604952Y-32504571D01*
X207604952Y-33028380D02*
X207604952Y-32028380D01*
X208224000Y-33028380D02*
X208128761Y-32980761D01*
X208081142Y-32933142D01*
X208033523Y-32837904D01*
X208033523Y-32552190D01*
X208081142Y-32456952D01*
X208128761Y-32409333D01*
X208224000Y-32361714D01*
X208366857Y-32361714D01*
X208462095Y-32409333D01*
X208509714Y-32456952D01*
X208557333Y-32552190D01*
X208557333Y-32837904D01*
X208509714Y-32933142D01*
X208462095Y-32980761D01*
X208366857Y-33028380D01*
X208224000Y-33028380D01*
X209128761Y-33028380D02*
X209033523Y-32980761D01*
X208985904Y-32885523D01*
X208985904Y-32028380D01*
X209890666Y-32980761D02*
X209795428Y-33028380D01*
X209604952Y-33028380D01*
X209509714Y-32980761D01*
X209462095Y-32885523D01*
X209462095Y-32504571D01*
X209509714Y-32409333D01*
X209604952Y-32361714D01*
X209795428Y-32361714D01*
X209890666Y-32409333D01*
X209938285Y-32504571D01*
X209938285Y-32599809D01*
X209462095Y-32695047D01*
%TO.C,MOSFET1*%
X225702380Y-72667428D02*
X224702380Y-72667428D01*
X225416666Y-72334095D01*
X224702380Y-72000761D01*
X225702380Y-72000761D01*
X224702380Y-71334095D02*
X224702380Y-71143619D01*
X224750000Y-71048380D01*
X224845238Y-70953142D01*
X225035714Y-70905523D01*
X225369047Y-70905523D01*
X225559523Y-70953142D01*
X225654761Y-71048380D01*
X225702380Y-71143619D01*
X225702380Y-71334095D01*
X225654761Y-71429333D01*
X225559523Y-71524571D01*
X225369047Y-71572190D01*
X225035714Y-71572190D01*
X224845238Y-71524571D01*
X224750000Y-71429333D01*
X224702380Y-71334095D01*
X225654761Y-70524571D02*
X225702380Y-70381714D01*
X225702380Y-70143619D01*
X225654761Y-70048380D01*
X225607142Y-70000761D01*
X225511904Y-69953142D01*
X225416666Y-69953142D01*
X225321428Y-70000761D01*
X225273809Y-70048380D01*
X225226190Y-70143619D01*
X225178571Y-70334095D01*
X225130952Y-70429333D01*
X225083333Y-70476952D01*
X224988095Y-70524571D01*
X224892857Y-70524571D01*
X224797619Y-70476952D01*
X224750000Y-70429333D01*
X224702380Y-70334095D01*
X224702380Y-70096000D01*
X224750000Y-69953142D01*
X225178571Y-69191238D02*
X225178571Y-69524571D01*
X225702380Y-69524571D02*
X224702380Y-69524571D01*
X224702380Y-69048380D01*
X225178571Y-68667428D02*
X225178571Y-68334095D01*
X225702380Y-68191238D02*
X225702380Y-68667428D01*
X224702380Y-68667428D01*
X224702380Y-68191238D01*
X224702380Y-67905523D02*
X224702380Y-67334095D01*
X225702380Y-67619809D02*
X224702380Y-67619809D01*
X225702380Y-66476952D02*
X225702380Y-67048380D01*
X225702380Y-66762666D02*
X224702380Y-66762666D01*
X224845238Y-66857904D01*
X224940476Y-66953142D01*
X224988095Y-67048380D01*
%TO.C,BatteryPack1*%
X214614666Y-79684571D02*
X214757523Y-79732190D01*
X214805142Y-79779809D01*
X214852761Y-79875047D01*
X214852761Y-80017904D01*
X214805142Y-80113142D01*
X214757523Y-80160761D01*
X214662285Y-80208380D01*
X214281333Y-80208380D01*
X214281333Y-79208380D01*
X214614666Y-79208380D01*
X214709904Y-79256000D01*
X214757523Y-79303619D01*
X214805142Y-79398857D01*
X214805142Y-79494095D01*
X214757523Y-79589333D01*
X214709904Y-79636952D01*
X214614666Y-79684571D01*
X214281333Y-79684571D01*
X215709904Y-80208380D02*
X215709904Y-79684571D01*
X215662285Y-79589333D01*
X215567047Y-79541714D01*
X215376571Y-79541714D01*
X215281333Y-79589333D01*
X215709904Y-80160761D02*
X215614666Y-80208380D01*
X215376571Y-80208380D01*
X215281333Y-80160761D01*
X215233714Y-80065523D01*
X215233714Y-79970285D01*
X215281333Y-79875047D01*
X215376571Y-79827428D01*
X215614666Y-79827428D01*
X215709904Y-79779809D01*
X216043238Y-79541714D02*
X216424190Y-79541714D01*
X216186095Y-79208380D02*
X216186095Y-80065523D01*
X216233714Y-80160761D01*
X216328952Y-80208380D01*
X216424190Y-80208380D01*
X216614666Y-79541714D02*
X216995619Y-79541714D01*
X216757523Y-79208380D02*
X216757523Y-80065523D01*
X216805142Y-80160761D01*
X216900380Y-80208380D01*
X216995619Y-80208380D01*
X217709904Y-80160761D02*
X217614666Y-80208380D01*
X217424190Y-80208380D01*
X217328952Y-80160761D01*
X217281333Y-80065523D01*
X217281333Y-79684571D01*
X217328952Y-79589333D01*
X217424190Y-79541714D01*
X217614666Y-79541714D01*
X217709904Y-79589333D01*
X217757523Y-79684571D01*
X217757523Y-79779809D01*
X217281333Y-79875047D01*
X218186095Y-80208380D02*
X218186095Y-79541714D01*
X218186095Y-79732190D02*
X218233714Y-79636952D01*
X218281333Y-79589333D01*
X218376571Y-79541714D01*
X218471809Y-79541714D01*
X218709904Y-79541714D02*
X218948000Y-80208380D01*
X219186095Y-79541714D02*
X218948000Y-80208380D01*
X218852761Y-80446476D01*
X218805142Y-80494095D01*
X218709904Y-80541714D01*
X219567047Y-80208380D02*
X219567047Y-79208380D01*
X219948000Y-79208380D01*
X220043238Y-79256000D01*
X220090857Y-79303619D01*
X220138476Y-79398857D01*
X220138476Y-79541714D01*
X220090857Y-79636952D01*
X220043238Y-79684571D01*
X219948000Y-79732190D01*
X219567047Y-79732190D01*
X220995619Y-80208380D02*
X220995619Y-79684571D01*
X220948000Y-79589333D01*
X220852761Y-79541714D01*
X220662285Y-79541714D01*
X220567047Y-79589333D01*
X220995619Y-80160761D02*
X220900380Y-80208380D01*
X220662285Y-80208380D01*
X220567047Y-80160761D01*
X220519428Y-80065523D01*
X220519428Y-79970285D01*
X220567047Y-79875047D01*
X220662285Y-79827428D01*
X220900380Y-79827428D01*
X220995619Y-79779809D01*
X221900380Y-80160761D02*
X221805142Y-80208380D01*
X221614666Y-80208380D01*
X221519428Y-80160761D01*
X221471809Y-80113142D01*
X221424190Y-80017904D01*
X221424190Y-79732190D01*
X221471809Y-79636952D01*
X221519428Y-79589333D01*
X221614666Y-79541714D01*
X221805142Y-79541714D01*
X221900380Y-79589333D01*
X222328952Y-80208380D02*
X222328952Y-79208380D01*
X222424190Y-79827428D02*
X222709904Y-80208380D01*
X222709904Y-79541714D02*
X222328952Y-79922666D01*
X223662285Y-80208380D02*
X223090857Y-80208380D01*
X223376571Y-80208380D02*
X223376571Y-79208380D01*
X223281333Y-79351238D01*
X223186095Y-79446476D01*
X223090857Y-79494095D01*
%TO.C,C2*%
X227807142Y-68552666D02*
X227854761Y-68600285D01*
X227902380Y-68743142D01*
X227902380Y-68838380D01*
X227854761Y-68981238D01*
X227759523Y-69076476D01*
X227664285Y-69124095D01*
X227473809Y-69171714D01*
X227330952Y-69171714D01*
X227140476Y-69124095D01*
X227045238Y-69076476D01*
X226950000Y-68981238D01*
X226902380Y-68838380D01*
X226902380Y-68743142D01*
X226950000Y-68600285D01*
X226997619Y-68552666D01*
X226997619Y-68171714D02*
X226950000Y-68124095D01*
X226902380Y-68028857D01*
X226902380Y-67790761D01*
X226950000Y-67695523D01*
X226997619Y-67647904D01*
X227092857Y-67600285D01*
X227188095Y-67600285D01*
X227330952Y-67647904D01*
X227902380Y-68219333D01*
X227902380Y-67600285D01*
%TO.C,MOTOR1_L293D1*%
X193702380Y-61808571D02*
X192702380Y-61808571D01*
X193416666Y-61475238D01*
X192702380Y-61141904D01*
X193702380Y-61141904D01*
X192702380Y-60475238D02*
X192702380Y-60284761D01*
X192750000Y-60189523D01*
X192845238Y-60094285D01*
X193035714Y-60046666D01*
X193369047Y-60046666D01*
X193559523Y-60094285D01*
X193654761Y-60189523D01*
X193702380Y-60284761D01*
X193702380Y-60475238D01*
X193654761Y-60570476D01*
X193559523Y-60665714D01*
X193369047Y-60713333D01*
X193035714Y-60713333D01*
X192845238Y-60665714D01*
X192750000Y-60570476D01*
X192702380Y-60475238D01*
X192702380Y-59760952D02*
X192702380Y-59189523D01*
X193702380Y-59475238D02*
X192702380Y-59475238D01*
X192702380Y-58665714D02*
X192702380Y-58475238D01*
X192750000Y-58380000D01*
X192845238Y-58284761D01*
X193035714Y-58237142D01*
X193369047Y-58237142D01*
X193559523Y-58284761D01*
X193654761Y-58380000D01*
X193702380Y-58475238D01*
X193702380Y-58665714D01*
X193654761Y-58760952D01*
X193559523Y-58856190D01*
X193369047Y-58903809D01*
X193035714Y-58903809D01*
X192845238Y-58856190D01*
X192750000Y-58760952D01*
X192702380Y-58665714D01*
X193702380Y-57237142D02*
X193226190Y-57570476D01*
X193702380Y-57808571D02*
X192702380Y-57808571D01*
X192702380Y-57427619D01*
X192750000Y-57332380D01*
X192797619Y-57284761D01*
X192892857Y-57237142D01*
X193035714Y-57237142D01*
X193130952Y-57284761D01*
X193178571Y-57332380D01*
X193226190Y-57427619D01*
X193226190Y-57808571D01*
X193702380Y-56284761D02*
X193702380Y-56856190D01*
X193702380Y-56570476D02*
X192702380Y-56570476D01*
X192845238Y-56665714D01*
X192940476Y-56760952D01*
X192988095Y-56856190D01*
X193797619Y-56094285D02*
X193797619Y-55332380D01*
X193702380Y-54618095D02*
X193702380Y-55094285D01*
X192702380Y-55094285D01*
X192797619Y-54332380D02*
X192750000Y-54284761D01*
X192702380Y-54189523D01*
X192702380Y-53951428D01*
X192750000Y-53856190D01*
X192797619Y-53808571D01*
X192892857Y-53760952D01*
X192988095Y-53760952D01*
X193130952Y-53808571D01*
X193702380Y-54380000D01*
X193702380Y-53760952D01*
X193702380Y-53284761D02*
X193702380Y-53094285D01*
X193654761Y-52999047D01*
X193607142Y-52951428D01*
X193464285Y-52856190D01*
X193273809Y-52808571D01*
X192892857Y-52808571D01*
X192797619Y-52856190D01*
X192750000Y-52903809D01*
X192702380Y-52999047D01*
X192702380Y-53189523D01*
X192750000Y-53284761D01*
X192797619Y-53332380D01*
X192892857Y-53380000D01*
X193130952Y-53380000D01*
X193226190Y-53332380D01*
X193273809Y-53284761D01*
X193321428Y-53189523D01*
X193321428Y-52999047D01*
X193273809Y-52903809D01*
X193226190Y-52856190D01*
X193130952Y-52808571D01*
X192702380Y-52475238D02*
X192702380Y-51856190D01*
X193083333Y-52189523D01*
X193083333Y-52046666D01*
X193130952Y-51951428D01*
X193178571Y-51903809D01*
X193273809Y-51856190D01*
X193511904Y-51856190D01*
X193607142Y-51903809D01*
X193654761Y-51951428D01*
X193702380Y-52046666D01*
X193702380Y-52332380D01*
X193654761Y-52427619D01*
X193607142Y-52475238D01*
X193702380Y-51427619D02*
X192702380Y-51427619D01*
X192702380Y-51189523D01*
X192750000Y-51046666D01*
X192845238Y-50951428D01*
X192940476Y-50903809D01*
X193130952Y-50856190D01*
X193273809Y-50856190D01*
X193464285Y-50903809D01*
X193559523Y-50951428D01*
X193654761Y-51046666D01*
X193702380Y-51189523D01*
X193702380Y-51427619D01*
X193702380Y-49903809D02*
X193702380Y-50475238D01*
X193702380Y-50189523D02*
X192702380Y-50189523D01*
X192845238Y-50284761D01*
X192940476Y-50380000D01*
X192988095Y-50475238D01*
%TO.C,MOTOR2_L293D1*%
X193702380Y-74508571D02*
X192702380Y-74508571D01*
X193416666Y-74175238D01*
X192702380Y-73841904D01*
X193702380Y-73841904D01*
X192702380Y-73175238D02*
X192702380Y-72984761D01*
X192750000Y-72889523D01*
X192845238Y-72794285D01*
X193035714Y-72746666D01*
X193369047Y-72746666D01*
X193559523Y-72794285D01*
X193654761Y-72889523D01*
X193702380Y-72984761D01*
X193702380Y-73175238D01*
X193654761Y-73270476D01*
X193559523Y-73365714D01*
X193369047Y-73413333D01*
X193035714Y-73413333D01*
X192845238Y-73365714D01*
X192750000Y-73270476D01*
X192702380Y-73175238D01*
X192702380Y-72460952D02*
X192702380Y-71889523D01*
X193702380Y-72175238D02*
X192702380Y-72175238D01*
X192702380Y-71365714D02*
X192702380Y-71175238D01*
X192750000Y-71080000D01*
X192845238Y-70984761D01*
X193035714Y-70937142D01*
X193369047Y-70937142D01*
X193559523Y-70984761D01*
X193654761Y-71080000D01*
X193702380Y-71175238D01*
X193702380Y-71365714D01*
X193654761Y-71460952D01*
X193559523Y-71556190D01*
X193369047Y-71603809D01*
X193035714Y-71603809D01*
X192845238Y-71556190D01*
X192750000Y-71460952D01*
X192702380Y-71365714D01*
X193702380Y-69937142D02*
X193226190Y-70270476D01*
X193702380Y-70508571D02*
X192702380Y-70508571D01*
X192702380Y-70127619D01*
X192750000Y-70032380D01*
X192797619Y-69984761D01*
X192892857Y-69937142D01*
X193035714Y-69937142D01*
X193130952Y-69984761D01*
X193178571Y-70032380D01*
X193226190Y-70127619D01*
X193226190Y-70508571D01*
X192797619Y-69556190D02*
X192750000Y-69508571D01*
X192702380Y-69413333D01*
X192702380Y-69175238D01*
X192750000Y-69080000D01*
X192797619Y-69032380D01*
X192892857Y-68984761D01*
X192988095Y-68984761D01*
X193130952Y-69032380D01*
X193702380Y-69603809D01*
X193702380Y-68984761D01*
X193797619Y-68794285D02*
X193797619Y-68032380D01*
X193702380Y-67318095D02*
X193702380Y-67794285D01*
X192702380Y-67794285D01*
X192797619Y-67032380D02*
X192750000Y-66984761D01*
X192702380Y-66889523D01*
X192702380Y-66651428D01*
X192750000Y-66556190D01*
X192797619Y-66508571D01*
X192892857Y-66460952D01*
X192988095Y-66460952D01*
X193130952Y-66508571D01*
X193702380Y-67080000D01*
X193702380Y-66460952D01*
X193702380Y-65984761D02*
X193702380Y-65794285D01*
X193654761Y-65699047D01*
X193607142Y-65651428D01*
X193464285Y-65556190D01*
X193273809Y-65508571D01*
X192892857Y-65508571D01*
X192797619Y-65556190D01*
X192750000Y-65603809D01*
X192702380Y-65699047D01*
X192702380Y-65889523D01*
X192750000Y-65984761D01*
X192797619Y-66032380D01*
X192892857Y-66080000D01*
X193130952Y-66080000D01*
X193226190Y-66032380D01*
X193273809Y-65984761D01*
X193321428Y-65889523D01*
X193321428Y-65699047D01*
X193273809Y-65603809D01*
X193226190Y-65556190D01*
X193130952Y-65508571D01*
X192702380Y-65175238D02*
X192702380Y-64556190D01*
X193083333Y-64889523D01*
X193083333Y-64746666D01*
X193130952Y-64651428D01*
X193178571Y-64603809D01*
X193273809Y-64556190D01*
X193511904Y-64556190D01*
X193607142Y-64603809D01*
X193654761Y-64651428D01*
X193702380Y-64746666D01*
X193702380Y-65032380D01*
X193654761Y-65127619D01*
X193607142Y-65175238D01*
X193702380Y-64127619D02*
X192702380Y-64127619D01*
X192702380Y-63889523D01*
X192750000Y-63746666D01*
X192845238Y-63651428D01*
X192940476Y-63603809D01*
X193130952Y-63556190D01*
X193273809Y-63556190D01*
X193464285Y-63603809D01*
X193559523Y-63651428D01*
X193654761Y-63746666D01*
X193702380Y-63889523D01*
X193702380Y-64127619D01*
X193702380Y-62603809D02*
X193702380Y-63175238D01*
X193702380Y-62889523D02*
X192702380Y-62889523D01*
X192845238Y-62984761D01*
X192940476Y-63080000D01*
X192988095Y-63175238D01*
%TO.C,PowerSwitch1*%
X226790857Y-80208380D02*
X226790857Y-79208380D01*
X227171809Y-79208380D01*
X227267047Y-79256000D01*
X227314666Y-79303619D01*
X227362285Y-79398857D01*
X227362285Y-79541714D01*
X227314666Y-79636952D01*
X227267047Y-79684571D01*
X227171809Y-79732190D01*
X226790857Y-79732190D01*
X227933714Y-80208380D02*
X227838476Y-80160761D01*
X227790857Y-80113142D01*
X227743238Y-80017904D01*
X227743238Y-79732190D01*
X227790857Y-79636952D01*
X227838476Y-79589333D01*
X227933714Y-79541714D01*
X228076571Y-79541714D01*
X228171809Y-79589333D01*
X228219428Y-79636952D01*
X228267047Y-79732190D01*
X228267047Y-80017904D01*
X228219428Y-80113142D01*
X228171809Y-80160761D01*
X228076571Y-80208380D01*
X227933714Y-80208380D01*
X228600380Y-79541714D02*
X228790857Y-80208380D01*
X228981333Y-79732190D01*
X229171809Y-80208380D01*
X229362285Y-79541714D01*
X230124190Y-80160761D02*
X230028952Y-80208380D01*
X229838476Y-80208380D01*
X229743238Y-80160761D01*
X229695619Y-80065523D01*
X229695619Y-79684571D01*
X229743238Y-79589333D01*
X229838476Y-79541714D01*
X230028952Y-79541714D01*
X230124190Y-79589333D01*
X230171809Y-79684571D01*
X230171809Y-79779809D01*
X229695619Y-79875047D01*
X230600380Y-80208380D02*
X230600380Y-79541714D01*
X230600380Y-79732190D02*
X230648000Y-79636952D01*
X230695619Y-79589333D01*
X230790857Y-79541714D01*
X230886095Y-79541714D01*
X231171809Y-80160761D02*
X231314666Y-80208380D01*
X231552761Y-80208380D01*
X231648000Y-80160761D01*
X231695619Y-80113142D01*
X231743238Y-80017904D01*
X231743238Y-79922666D01*
X231695619Y-79827428D01*
X231648000Y-79779809D01*
X231552761Y-79732190D01*
X231362285Y-79684571D01*
X231267047Y-79636952D01*
X231219428Y-79589333D01*
X231171809Y-79494095D01*
X231171809Y-79398857D01*
X231219428Y-79303619D01*
X231267047Y-79256000D01*
X231362285Y-79208380D01*
X231600380Y-79208380D01*
X231743238Y-79256000D01*
X232076571Y-79541714D02*
X232267047Y-80208380D01*
X232457523Y-79732190D01*
X232648000Y-80208380D01*
X232838476Y-79541714D01*
X233219428Y-80208380D02*
X233219428Y-79541714D01*
X233219428Y-79208380D02*
X233171809Y-79256000D01*
X233219428Y-79303619D01*
X233267047Y-79256000D01*
X233219428Y-79208380D01*
X233219428Y-79303619D01*
X233552761Y-79541714D02*
X233933714Y-79541714D01*
X233695619Y-79208380D02*
X233695619Y-80065523D01*
X233743238Y-80160761D01*
X233838476Y-80208380D01*
X233933714Y-80208380D01*
X234695619Y-80160761D02*
X234600380Y-80208380D01*
X234409904Y-80208380D01*
X234314666Y-80160761D01*
X234267047Y-80113142D01*
X234219428Y-80017904D01*
X234219428Y-79732190D01*
X234267047Y-79636952D01*
X234314666Y-79589333D01*
X234409904Y-79541714D01*
X234600380Y-79541714D01*
X234695619Y-79589333D01*
X235124190Y-80208380D02*
X235124190Y-79208380D01*
X235552761Y-80208380D02*
X235552761Y-79684571D01*
X235505142Y-79589333D01*
X235409904Y-79541714D01*
X235267047Y-79541714D01*
X235171809Y-79589333D01*
X235124190Y-79636952D01*
X236552761Y-80208380D02*
X235981333Y-80208380D01*
X236267047Y-80208380D02*
X236267047Y-79208380D01*
X236171809Y-79351238D01*
X236076571Y-79446476D01*
X235981333Y-79494095D01*
%TO.C,R1*%
X232496380Y-58840666D02*
X232020190Y-59174000D01*
X232496380Y-59412095D02*
X231496380Y-59412095D01*
X231496380Y-59031142D01*
X231544000Y-58935904D01*
X231591619Y-58888285D01*
X231686857Y-58840666D01*
X231829714Y-58840666D01*
X231924952Y-58888285D01*
X231972571Y-58935904D01*
X232020190Y-59031142D01*
X232020190Y-59412095D01*
X232496380Y-57888285D02*
X232496380Y-58459714D01*
X232496380Y-58174000D02*
X231496380Y-58174000D01*
X231639238Y-58269238D01*
X231734476Y-58364476D01*
X231782095Y-58459714D01*
%TO.C,R2*%
X232496380Y-50712666D02*
X232020190Y-51046000D01*
X232496380Y-51284095D02*
X231496380Y-51284095D01*
X231496380Y-50903142D01*
X231544000Y-50807904D01*
X231591619Y-50760285D01*
X231686857Y-50712666D01*
X231829714Y-50712666D01*
X231924952Y-50760285D01*
X231972571Y-50807904D01*
X232020190Y-50903142D01*
X232020190Y-51284095D01*
X231591619Y-50331714D02*
X231544000Y-50284095D01*
X231496380Y-50188857D01*
X231496380Y-49950761D01*
X231544000Y-49855523D01*
X231591619Y-49807904D01*
X231686857Y-49760285D01*
X231782095Y-49760285D01*
X231924952Y-49807904D01*
X232496380Y-50379333D01*
X232496380Y-49760285D01*
%TO.C,SHIFT_REGISTER1*%
X190186761Y-53204285D02*
X190234380Y-53061428D01*
X190234380Y-52823333D01*
X190186761Y-52728095D01*
X190139142Y-52680476D01*
X190043904Y-52632857D01*
X189948666Y-52632857D01*
X189853428Y-52680476D01*
X189805809Y-52728095D01*
X189758190Y-52823333D01*
X189710571Y-53013809D01*
X189662952Y-53109047D01*
X189615333Y-53156666D01*
X189520095Y-53204285D01*
X189424857Y-53204285D01*
X189329619Y-53156666D01*
X189282000Y-53109047D01*
X189234380Y-53013809D01*
X189234380Y-52775714D01*
X189282000Y-52632857D01*
X190234380Y-52204285D02*
X189234380Y-52204285D01*
X189710571Y-52204285D02*
X189710571Y-51632857D01*
X190234380Y-51632857D02*
X189234380Y-51632857D01*
X190234380Y-51156666D02*
X189234380Y-51156666D01*
X189710571Y-50347142D02*
X189710571Y-50680476D01*
X190234380Y-50680476D02*
X189234380Y-50680476D01*
X189234380Y-50204285D01*
X189234380Y-49966190D02*
X189234380Y-49394761D01*
X190234380Y-49680476D02*
X189234380Y-49680476D01*
X190329619Y-49299523D02*
X190329619Y-48537619D01*
X190234380Y-47728095D02*
X189758190Y-48061428D01*
X190234380Y-48299523D02*
X189234380Y-48299523D01*
X189234380Y-47918571D01*
X189282000Y-47823333D01*
X189329619Y-47775714D01*
X189424857Y-47728095D01*
X189567714Y-47728095D01*
X189662952Y-47775714D01*
X189710571Y-47823333D01*
X189758190Y-47918571D01*
X189758190Y-48299523D01*
X189710571Y-47299523D02*
X189710571Y-46966190D01*
X190234380Y-46823333D02*
X190234380Y-47299523D01*
X189234380Y-47299523D01*
X189234380Y-46823333D01*
X189282000Y-45870952D02*
X189234380Y-45966190D01*
X189234380Y-46109047D01*
X189282000Y-46251904D01*
X189377238Y-46347142D01*
X189472476Y-46394761D01*
X189662952Y-46442380D01*
X189805809Y-46442380D01*
X189996285Y-46394761D01*
X190091523Y-46347142D01*
X190186761Y-46251904D01*
X190234380Y-46109047D01*
X190234380Y-46013809D01*
X190186761Y-45870952D01*
X190139142Y-45823333D01*
X189805809Y-45823333D01*
X189805809Y-46013809D01*
X190234380Y-45394761D02*
X189234380Y-45394761D01*
X190186761Y-44966190D02*
X190234380Y-44823333D01*
X190234380Y-44585238D01*
X190186761Y-44490000D01*
X190139142Y-44442380D01*
X190043904Y-44394761D01*
X189948666Y-44394761D01*
X189853428Y-44442380D01*
X189805809Y-44490000D01*
X189758190Y-44585238D01*
X189710571Y-44775714D01*
X189662952Y-44870952D01*
X189615333Y-44918571D01*
X189520095Y-44966190D01*
X189424857Y-44966190D01*
X189329619Y-44918571D01*
X189282000Y-44870952D01*
X189234380Y-44775714D01*
X189234380Y-44537619D01*
X189282000Y-44394761D01*
X189234380Y-44109047D02*
X189234380Y-43537619D01*
X190234380Y-43823333D02*
X189234380Y-43823333D01*
X189710571Y-43204285D02*
X189710571Y-42870952D01*
X190234380Y-42728095D02*
X190234380Y-43204285D01*
X189234380Y-43204285D01*
X189234380Y-42728095D01*
X190234380Y-41728095D02*
X189758190Y-42061428D01*
X190234380Y-42299523D02*
X189234380Y-42299523D01*
X189234380Y-41918571D01*
X189282000Y-41823333D01*
X189329619Y-41775714D01*
X189424857Y-41728095D01*
X189567714Y-41728095D01*
X189662952Y-41775714D01*
X189710571Y-41823333D01*
X189758190Y-41918571D01*
X189758190Y-42299523D01*
X190234380Y-40775714D02*
X190234380Y-41347142D01*
X190234380Y-41061428D02*
X189234380Y-41061428D01*
X189377238Y-41156666D01*
X189472476Y-41251904D01*
X189520095Y-41347142D01*
%TO.C,U1*%
X212090095Y-88352380D02*
X212090095Y-89161904D01*
X212137714Y-89257142D01*
X212185333Y-89304761D01*
X212280571Y-89352380D01*
X212471047Y-89352380D01*
X212566285Y-89304761D01*
X212613904Y-89257142D01*
X212661523Y-89161904D01*
X212661523Y-88352380D01*
X213661523Y-89352380D02*
X213090095Y-89352380D01*
X213375809Y-89352380D02*
X213375809Y-88352380D01*
X213280571Y-88495238D01*
X213185333Y-88590476D01*
X213090095Y-88638095D01*
%TO.C,U2*%
X241006380Y-72389904D02*
X241815904Y-72389904D01*
X241911142Y-72342285D01*
X241958761Y-72294666D01*
X242006380Y-72199428D01*
X242006380Y-72008952D01*
X241958761Y-71913714D01*
X241911142Y-71866095D01*
X241815904Y-71818476D01*
X241006380Y-71818476D01*
X241101619Y-71389904D02*
X241054000Y-71342285D01*
X241006380Y-71247047D01*
X241006380Y-71008952D01*
X241054000Y-70913714D01*
X241101619Y-70866095D01*
X241196857Y-70818476D01*
X241292095Y-70818476D01*
X241434952Y-70866095D01*
X242006380Y-71437523D01*
X242006380Y-70818476D01*
%TO.C,U3*%
X232910095Y-44544380D02*
X232910095Y-45353904D01*
X232957714Y-45449142D01*
X233005333Y-45496761D01*
X233100571Y-45544380D01*
X233291047Y-45544380D01*
X233386285Y-45496761D01*
X233433904Y-45449142D01*
X233481523Y-45353904D01*
X233481523Y-44544380D01*
X233862476Y-44544380D02*
X234481523Y-44544380D01*
X234148190Y-44925333D01*
X234291047Y-44925333D01*
X234386285Y-44972952D01*
X234433904Y-45020571D01*
X234481523Y-45115809D01*
X234481523Y-45353904D01*
X234433904Y-45449142D01*
X234386285Y-45496761D01*
X234291047Y-45544380D01*
X234005333Y-45544380D01*
X233910095Y-45496761D01*
X233862476Y-45449142D01*
%TO.C,C4*%
X222297333Y-50481142D02*
X222249714Y-50528761D01*
X222106857Y-50576380D01*
X222011619Y-50576380D01*
X221868761Y-50528761D01*
X221773523Y-50433523D01*
X221725904Y-50338285D01*
X221678285Y-50147809D01*
X221678285Y-50004952D01*
X221725904Y-49814476D01*
X221773523Y-49719238D01*
X221868761Y-49624000D01*
X222011619Y-49576380D01*
X222106857Y-49576380D01*
X222249714Y-49624000D01*
X222297333Y-49671619D01*
X223154476Y-49909714D02*
X223154476Y-50576380D01*
X222916380Y-49528761D02*
X222678285Y-50243047D01*
X223297333Y-50243047D01*
%TO.C,C5*%
X222297333Y-57085142D02*
X222249714Y-57132761D01*
X222106857Y-57180380D01*
X222011619Y-57180380D01*
X221868761Y-57132761D01*
X221773523Y-57037523D01*
X221725904Y-56942285D01*
X221678285Y-56751809D01*
X221678285Y-56608952D01*
X221725904Y-56418476D01*
X221773523Y-56323238D01*
X221868761Y-56228000D01*
X222011619Y-56180380D01*
X222106857Y-56180380D01*
X222249714Y-56228000D01*
X222297333Y-56275619D01*
X223202095Y-56180380D02*
X222725904Y-56180380D01*
X222678285Y-56656571D01*
X222725904Y-56608952D01*
X222821142Y-56561333D01*
X223059238Y-56561333D01*
X223154476Y-56608952D01*
X223202095Y-56656571D01*
X223249714Y-56751809D01*
X223249714Y-56989904D01*
X223202095Y-57085142D01*
X223154476Y-57132761D01*
X223059238Y-57180380D01*
X222821142Y-57180380D01*
X222725904Y-57132761D01*
X222678285Y-57085142D01*
%TD*%
M02*
